<svg width="117" height="227" viewBox="0 0 117 227" fill="none" xmlns="http://www.w3.org/2000/svg">
<mask id="mask0_4100_21119" style="mask-type:alpha" maskUnits="userSpaceOnUse" x="0" y="0" width="120" height="227">
<path d="M0 0L119.309 0V227H0V0Z" fill="#D9D9D9"/>
</mask>
<g mask="url(#mask0_4100_21119)">
<path opacity="0.2" d="M85.3265 186.777C95.813 185.945 107.236 184.215 119.301 181.642C158.748 173.252 186.251 160.044 194.769 145.413C197.511 140.673 198.1 136.067 196.572 131.352C184.435 93.2608 163.931 46.6998 152.772 38.0876C149.715 35.7229 136.713 32.6256 114.847 34.3588C106.715 35.0023 97.9028 36.314 88.6606 38.2501C53.0519 45.8478 32.9174 58.9249 30.0545 64.2324L30.0533 64.2423C23.1822 76.9491 23.7276 127.56 28.1825 167.169C29.8869 182.361 50.7159 189.512 85.3221 186.771L85.3265 186.777ZM137.156 59.7476C138.049 63.831 132.753 70.4371 115.163 76.766C101.187 81.7627 87.9987 84.8388 76.0351 85.8682C61.9988 87.0761 54.7807 85.0313 54.4936 84.9553L54.7069 83.1641C55.7968 83.1292 56.8588 83.0357 57.8645 82.9501C73.115 81.6375 83.2676 75.2201 93.0721 68.9752C99.9387 64.6087 107.059 60.1031 115.881 57.3061C119.272 56.2274 122.498 55.5449 125.383 55.297C132.013 54.7274 136.416 56.4113 137.151 59.7519L137.156 59.7476ZM67.4755 55.1182C81.478 50.1097 94.6488 47.0162 106.627 45.9887C120.618 44.7851 127.789 46.8392 128.132 46.9523L127.89 48.7349C126.825 48.7679 125.776 48.8429 124.77 48.9284C109.515 50.2404 99.3384 56.685 89.5395 62.9256C82.6896 67.2791 75.5974 71.8033 66.7768 74.5904C63.3603 75.6709 60.1714 76.338 57.2352 76.5896C50.6213 77.156 46.2022 75.4753 45.4666 72.1446C44.5785 68.0618 49.8822 61.4365 67.4761 55.1132L67.4755 55.1182ZM38.5776 93.5819L39.2463 93.7808C56.0575 98.6134 77.3777 98.3186 101.133 92.7231C124.744 87.1951 144.334 77.9571 157.796 66.0015L161.501 70.1795C147.355 82.7477 126.917 92.4174 102.415 98.1607C93.8097 100.186 85.4221 101.556 77.4975 102.235C62.6688 103.51 49.27 102.467 37.6787 99.1393L36.9815 98.9268L38.5782 93.5769L38.5776 93.5819Z" fill="black" fill-opacity="0.12"/>
<path opacity="0.2" d="M206.372 141.156C204.992 141.059 203.701 140.974 202.511 140.84C201.987 143.311 201.022 145.772 199.607 148.212C190.291 164.204 161.446 178.38 120.465 187.105C108.167 189.73 96.4942 191.489 85.7689 192.341C54.0358 194.853 32.7588 189.037 25.3642 176.234C16.9775 181.224 5.64418 188.082 8.36329 202.552C10.9987 216.605 48.0052 224.844 92.6149 221.316C103.594 220.445 115.06 218.766 126.693 216.32C188.181 203.18 232.249 172.754 229.122 155.351C226.981 143.499 217.551 141.902 206.367 141.155L206.372 141.156Z" fill="black" fill-opacity="0.12"/>
</g>
</svg>
