<svg width="150" height="319" viewBox="0 0 150 319" fill="none" xmlns="http://www.w3.org/2000/svg">
<path d="M132.949 303.32H150L144.083 60.0188L144.079 59.4907C143.985 47.5005 140.294 35.9695 133.403 26.146C126.513 16.3213 116.919 8.91151 105.659 4.71611L103.038 3.73937L103.005 3.82634C101.659 3.27169 100.265 2.83582 98.842 2.53039C93.8331 1.45609 85.9422 0.16756 76.4505 0.018027V0L75.2535 0.00530129L74.0396 0.00317818V0.018027C64.55 0.16862 56.6623 1.45609 51.6555 2.53039C50.0535 2.874 48.4909 3.3841 46.9909 4.04162C46.9803 4.04481 46.9697 4.04799 46.959 4.05223L44.6374 4.92821C33.3375 9.13846 23.6948 16.5101 16.7501 26.2456C9.75961 36.0469 6.01458 47.5429 5.92104 59.4907L5.91679 60.0188L0.0233866 302.342L0 303.32H16.4311L16.2302 307.173C16.1505 308.696 16.8213 310.16 18.0246 311.089C20.6556 313.119 25.7337 314.875 32.7082 316.163C42.8951 318.046 57.1386 319 75.0452 319C92.9518 319 107.046 318.05 117.075 316.177C124.062 314.871 128.888 313.163 131.418 311.097C132.524 310.195 133.152 308.794 133.099 307.35L132.95 303.321L132.949 303.32ZM131.834 27.2404C138.502 36.7469 142.074 47.9035 142.164 59.5056L142.169 60.0496L148.039 301.411H140.668L135.636 67.4414C135.528 56.622 133.278 46.0656 129.299 37.7172C127.068 33.0372 124.319 29.073 121.128 25.9328C117.965 22.8202 114.366 20.522 110.415 19.0861L110.436 9.82144C110.436 9.4492 110.361 9.08756 110.218 8.7535C118.86 12.9828 126.262 19.295 131.835 27.2404H131.834ZM75.0494 247.042C75.0686 247.042 75.1759 247.042 75.3652 247.042C79.1878 247.042 116.245 247.217 127.104 253.741C128.448 254.549 129.286 255.978 129.344 257.562L129.434 259.972C127.913 260.533 123.562 262.012 116.412 263.455C101.322 266.502 85.5904 267.05 75.0516 266.973C56.0607 266.834 42.0925 264.871 33.718 263.249C26.5745 261.865 22.1789 260.487 20.611 259.956L20.7375 257.523C20.8299 255.753 21.8802 254.18 23.4779 253.419C34.3346 248.246 60.4531 247.204 75.0505 247.044L75.0494 247.042ZM96.9785 245.903C85.4075 245.084 75.1409 245.132 75.0335 245.133C60.1097 245.297 47.7308 246.127 38.2401 247.599C35.725 247.989 33.43 248.421 31.3592 248.893V116.342C34.4356 116.062 45.4581 115.12 59.963 114.615C75.5118 114.073 98.3137 113.938 119.16 116.323V248.865C113.597 247.546 106.184 246.555 96.9785 245.904V245.903ZM120.159 114.517C98.9791 112.023 75.6936 112.156 59.8812 112.707C43.3086 113.285 31.2593 114.431 30.3621 114.518L15.3819 114.323L16.3897 67.4743V67.4637C16.4949 56.9136 18.6794 46.6404 22.5425 38.536C24.677 34.0574 27.2963 30.2745 30.3291 27.2913C33.2227 24.4449 36.5 22.3281 40.0866 20.9802L40.2652 98.5919L40.3726 98.7977C40.5522 99.1423 40.8913 99.346 41.6237 99.5506C42.4763 99.7882 43.8603 100.019 45.7376 100.238C49.4784 100.672 55.1039 101.037 62.3144 101.322L62.1975 101.396C62.3144 101.578 65.1144 105.79 74.5775 105.79C74.7358 105.79 74.8974 105.789 75.0601 105.786C83.3782 105.663 87.3295 102.433 88.4127 101.364C95.1863 101.109 100.456 100.781 104.147 100.386C109.382 99.8264 109.785 99.294 110.025 98.9758C110.17 98.7849 110.242 98.5591 110.235 98.3332L110.413 21.1287C113.851 22.4808 116.997 24.5467 119.788 27.2924C122.82 30.2756 125.44 34.0595 127.574 38.537C131.438 46.6415 133.622 56.9147 133.727 67.4647L134.731 114.128L120.162 114.518L120.159 114.517ZM76.2198 99.8052L75.919 99.8115L75.6171 99.8052C49.9387 99.2569 43.6467 98.1412 42.1754 97.7308L41.9979 20.6005C47.0792 21.0025 74.0353 22.8785 108.497 20.6005L108.32 97.7976C107.013 98.1857 101.183 99.2738 76.2198 99.8062V99.8052ZM77.2042 101.693C79.9904 101.63 82.6075 101.56 85.0567 101.482C84.8792 101.585 84.6911 101.688 84.4901 101.792C82.7181 102.706 79.6385 103.811 75.0292 103.879C70.4721 103.946 67.654 102.977 66.0924 102.152C65.6204 101.903 65.2324 101.652 64.9178 101.419C67.9229 101.524 71.1726 101.615 74.6466 101.694V101.748L75.9179 101.722L77.2042 101.749V101.694V101.693ZM52.0573 4.39583C57.1449 3.30456 65.2569 1.98847 75.0101 1.91529L75.2004 1.91317L75.4863 1.91529C85.2396 1.98953 93.3515 3.30562 98.4391 4.39583C102.03 5.16577 105.42 6.83078 108.241 9.21058C108.42 9.36117 108.522 9.58176 108.522 9.81507L108.502 18.6842C73.3454 21.0205 46.6465 19.067 41.9937 18.6842L41.9735 9.81507C41.9735 9.58176 42.0755 9.36117 42.2541 9.21058C45.0764 6.83078 48.4654 5.16577 52.0562 4.39583H52.0573ZM7.82917 60.057L7.83342 59.5056C7.92378 47.9512 11.5455 36.8317 18.3074 27.3518C23.9627 19.4233 31.4687 13.1143 40.2259 8.88288C40.1164 9.17876 40.059 9.49586 40.059 9.81931L40.0802 18.9514C35.9791 20.3757 32.2489 22.7194 28.9833 25.9317C25.7921 29.0719 23.0432 33.0361 20.8129 37.7162C16.834 46.0646 14.5836 56.6209 14.4752 67.4403L9.4439 301.41H1.95915L7.82917 60.057ZM11.3584 301.411L15.3405 116.231L29.4447 116.415V249.356C26.717 250.059 24.4453 250.841 22.652 251.694C20.4207 252.757 18.9548 254.952 18.8261 257.421L16.53 301.41H11.3584V301.411ZM130.205 309.619C128.639 310.898 125.027 312.748 116.721 314.3C106.809 316.151 92.787 317.09 75.0441 317.09C57.3012 317.09 43.1279 316.146 33.0558 314.285C24.6207 312.726 20.8618 310.865 19.1939 309.577C18.487 309.031 18.0927 308.169 18.1394 307.271L20.5068 261.934C22.4468 262.569 26.6808 263.825 33.279 265.106C48.6142 268.085 64.4511 268.803 75.0367 268.88C75.6851 268.884 76.324 268.887 76.9597 268.887C95.2788 268.887 108.727 266.958 116.874 265.308C123.383 263.99 127.561 262.664 129.507 261.976L131.186 307.418C131.216 308.269 130.851 309.092 130.205 309.618V309.619ZM131.257 257.492C131.174 255.261 129.991 253.247 128.091 252.106C126.383 251.079 124.04 250.161 121.073 249.352V116.402L134.768 116.036L138.754 301.411H132.879L131.257 257.492Z" fill="black"/>
<path d="M104.211 186.647C97.0203 183.946 76.3774 184.018 74.1674 184.033C72.1211 184.017 52.992 183.946 45.8006 186.647C44.4176 187.167 43.6374 188.629 43.969 190.065L44.0413 190.378C44.5526 192.588 45.1703 194.773 45.8719 196.931C46.7106 199.51 47.9447 204.541 48.2041 212.343C48.3615 217.074 48.9663 221.78 50.0549 226.386C52.5625 236.999 57.7224 253.189 65.9141 253.541C67.548 253.611 69.0288 253.663 70.3724 253.699C71.4524 253.745 72.9641 253.781 75.0051 253.773C77.0461 253.78 78.5577 253.744 79.6377 253.699C80.9814 253.663 82.4622 253.611 84.096 253.541C92.2877 253.189 97.4476 236.999 99.9553 226.386C101.044 221.779 101.649 217.073 101.806 212.343C102.065 204.541 103.301 199.509 104.138 196.931C104.84 194.773 105.457 192.589 105.969 190.378L106.041 190.065C106.373 188.629 105.592 187.166 104.209 186.647H104.211Z" fill="white"/>
<path d="M75.4865 254.729C75.326 254.729 75.1634 254.729 74.9986 254.729C73.234 254.735 71.6628 254.71 70.3351 254.654C68.9277 254.616 67.4256 254.563 65.8694 254.496C61.8692 254.324 58.2082 250.869 54.9883 244.228C53.4724 241.102 51.223 235.505 49.1204 226.605C48.0371 222.023 47.4068 217.235 47.2441 212.375C46.9826 204.508 45.6996 199.506 44.9576 197.226C44.2262 194.976 43.6033 192.744 43.1058 190.594L43.0335 190.281C42.5945 188.384 43.6384 186.438 45.4604 185.754C52.792 183 71.9658 183.063 74.1641 183.08C76.5368 183.064 97.2126 183.001 104.543 185.754C106.365 186.438 107.408 188.384 106.97 190.281L106.898 190.594C106.4 192.744 105.777 194.976 105.046 197.226C104.304 199.507 103.021 204.508 102.759 212.375C102.598 217.235 101.966 222.023 100.883 226.605C99.7224 231.518 97.7622 238.564 95.0153 244.228C91.7954 250.869 88.1344 254.324 84.1342 254.496C82.578 254.563 81.0759 254.616 79.6685 254.654C78.4641 254.705 77.0587 254.73 75.4865 254.73V254.729ZM74.9986 252.82C76.7505 252.826 78.294 252.801 79.594 252.746H79.6079C81.0068 252.708 82.5014 252.655 84.0513 252.588C87.2935 252.449 90.4018 249.356 93.2922 243.397C95.9635 237.888 97.8812 230.986 99.0197 226.167C100.073 221.707 100.688 217.046 100.846 212.312C101.102 204.615 102.281 199.539 103.225 196.636C103.939 194.439 104.547 192.261 105.033 190.164L105.106 189.851C105.33 188.883 104.798 187.889 103.869 187.54C100.988 186.459 95.2481 185.675 87.2691 185.275C80.9558 184.958 75.2495 184.98 74.1705 184.988H74.1567C73.1574 184.98 67.8732 184.958 61.9606 185.275C54.4886 185.675 49.0151 186.459 46.1343 187.54C45.2052 187.889 44.6737 188.882 44.898 189.851L44.9703 190.164C45.4551 192.262 46.0642 194.439 46.7785 196.636C47.7225 199.539 48.9014 204.616 49.1576 212.312C49.3149 217.046 49.9293 221.707 50.9828 226.167C52.1213 230.986 54.04 237.888 56.7104 243.397C59.6007 249.357 62.709 252.449 65.9512 252.588C67.5 252.655 68.9946 252.708 70.3936 252.745H70.4074C71.7075 252.8 73.2521 252.825 74.9975 252.819L74.9986 252.82Z" fill="black"/>
<path d="M99.2739 190.52C91.6233 191.498 83.8962 191.487 76.1903 191.638V119.602C76.1903 119.602 76.2307 106.956 78.5917 104.521L71.4184 104.847C71.4184 104.847 72.8917 108.895 72.8917 119.314V191.669C66.3786 191.715 59.8623 191.755 53.3789 191.122C52.5593 191.036 51.6759 190.912 50.8563 190.772C50.0272 190.604 49.1778 190.462 48.4082 190.089C48.8632 190.444 49.4117 190.656 49.94 190.88C50.7171 191.174 51.6079 191.452 52.4158 191.649C59.9558 193.449 67.7967 193.574 75.5047 193.561C82.646 193.429 89.8523 193.098 96.8736 191.657C97.6857 191.485 98.5967 191.27 99.3876 191.04C100.304 190.775 101.375 190.429 102.217 189.987C102.344 189.918 102.469 189.848 102.584 189.763C101.576 190.18 100.343 190.349 99.2749 190.521L99.2739 190.52Z" fill="black"/>
</svg>
