<svg width="26" height="19" viewBox="0 0 26 19" fill="none" xmlns="http://www.w3.org/2000/svg">
<g clip-path="url(#clip0_4583_4094)">
<path d="M24.5087 3.83319C23.6141 3.02185 22.3923 2.57487 21.069 2.57487C20.9234 2.57487 20.7791 2.58097 20.6356 2.59384C20.6356 2.30127 20.6369 1.95791 20.6369 1.6308C20.6369 1.19465 20.4676 0.784924 20.1595 0.477456C19.852 0.169311 19.4423 0 19.0068 0H3.44581C3.00763 0 2.59655 0.171342 2.28908 0.481519C1.98093 0.791696 1.81298 1.20346 1.81569 1.64163C1.84752 6.16358 2.08861 9.29176 2.53289 10.9395C2.96632 12.5493 4.00521 14.4774 5.1186 15.7946L0 15.7838V16.4238C0 17.9557 1.24613 19.2018 2.77805 19.2018H19.6888C21.22 19.2018 22.4662 17.9462 22.4662 16.4021V15.7628H17.246C18.1345 14.7774 18.8158 13.7345 19.3569 12.5371C19.619 12.5114 20.0301 12.4741 20.5665 12.4267L20.6667 12.4179C20.9471 12.3929 21.0961 12.38 21.1421 12.3746C22.6774 12.1998 23.782 11.6953 24.6198 10.7864C25.4968 9.83491 26 8.55763 26 7.28306C26 5.92858 25.4704 4.70277 24.5087 3.83116V3.83319ZM1.41476 17.0435H21.0507C20.8123 17.565 20.2814 17.9232 19.6874 17.9232H2.77602C2.17598 17.9232 1.65315 17.5704 1.41476 17.0435ZM18.868 11.3181C18.5618 11.3743 18.4257 11.4704 18.3282 11.6994C17.6828 13.2353 16.8329 14.4551 15.5725 15.6538C15.5332 15.691 15.4899 15.7283 15.4459 15.7648H6.88687C6.8713 15.7533 6.85708 15.7425 6.84624 15.7337C5.77349 14.8458 4.32893 12.6868 3.77021 10.609C3.36115 9.0913 3.12818 5.9875 3.09703 1.63486C3.09703 1.53869 3.13157 1.45268 3.19929 1.38496C3.26634 1.31724 3.35235 1.28134 3.44784 1.28134H19.0088C19.103 1.28134 19.191 1.31791 19.2581 1.38428C19.3251 1.45065 19.3603 1.53666 19.3603 1.63215C19.3603 2.30465 19.359 3.11464 19.3569 3.29614C19.3569 3.49051 19.4545 3.69503 19.6062 3.81829C19.873 4.0323 20.1811 3.96525 20.3112 3.93681C20.5658 3.88263 20.8144 3.85622 21.0717 3.85622C22.0774 3.85622 22.9937 4.18536 23.652 4.78268C24.3428 5.40845 24.7227 6.29767 24.7227 7.28645C24.7227 8.27522 24.3428 9.20372 23.6811 9.92227C23.0635 10.5921 22.2115 10.9679 20.9986 11.1061C20.9579 11.1108 20.7527 11.1291 20.5157 11.1494L20.4561 11.1549C19.5635 11.2341 19.1158 11.2734 18.8693 11.3187L18.868 11.3181Z"/>
<path d="M22.8181 9.63201C23.5976 9.07531 23.9768 8.29378 23.9768 7.24202C23.9768 5.83132 22.9176 4.74706 21.4602 4.66376C21.0769 4.6387 20.529 4.69965 20.0285 4.82156C19.715 4.89876 19.4894 5.16627 19.4671 5.48661C19.4028 6.45845 19.1556 8.34457 18.8901 9.60221C18.8454 9.81215 18.8982 10.0275 19.0323 10.1921C19.1657 10.356 19.3641 10.4501 19.5768 10.4501H19.6012L21.406 10.1867C21.9275 10.1108 22.4158 9.91916 22.8167 9.63201H22.8181ZM20.2513 9.13626C20.3516 8.36556 20.5967 6.64334 20.6902 6.00741C20.9557 5.97422 21.215 5.94578 21.3261 5.93901L21.383 5.94239C22.1679 5.98709 22.6955 6.50992 22.6955 7.24337C22.6955 8.09534 22.3501 8.56332 21.4636 8.91142C21.2157 9.00894 20.7633 9.09157 20.2513 9.13694V9.13626Z"/>
</g>
<defs>
<clipPath id="clip0_4583_4094">
<rect width="26" height="19" fill="white"/>
</clipPath>
</defs>
</svg>
