<svg width="37" height="18" viewBox="0 0 37 18" fill="none" xmlns="http://www.w3.org/2000/svg">
<path d="M3.07942 13.3346H6.89906C7.13502 13.3346 7.32614 13.1435 7.32614 12.9075C7.32614 12.6716 7.13502 12.4805 6.89906 12.4805H3.07942C2.84346 12.4805 2.65234 12.6716 2.65234 12.9075C2.65234 13.1435 2.84346 13.3346 3.07942 13.3346Z" fill="black"/>
<path d="M3.07942 11.1491H9.71081C9.94677 11.1491 10.1379 10.958 10.1379 10.722C10.1379 10.486 9.94677 10.2949 9.71081 10.2949H3.07942C2.84346 10.2949 2.65234 10.486 2.65234 10.722C2.65234 10.958 2.84346 11.1491 3.07942 11.1491Z" fill="black"/>
<path d="M21.2592 0H2.68576C1.20488 0 0 1.18406 0 2.63932V14.764C0 16.2192 1.20488 17.4033 2.68576 17.4033H21.2592C22.7401 17.4033 23.945 16.2192 23.945 14.764V2.63932C23.945 1.18406 22.7401 0 21.2592 0ZM23.0908 14.764C23.0908 15.7484 22.2693 16.5491 21.2592 16.5491H2.68576C1.67573 16.5491 0.854149 15.7484 0.854149 14.764V5.26422H23.0903V14.764H23.0908ZM23.0908 4.41008H0.854683V2.63932C0.854683 1.65491 1.67627 0.854149 2.6863 0.854149H21.2598C22.2698 0.854149 23.0914 1.65491 23.0914 2.63932V4.41008H23.0908Z" fill="black"/>
<path d="M16.3145 13.9159C16.6289 13.9159 16.9375 13.8401 17.2161 13.6971C17.4996 13.8497 17.8188 13.9309 18.1504 13.9309C18.6698 13.9309 19.1583 13.7318 19.5271 13.3698C19.8976 13.0063 20.1016 12.5226 20.1016 12.008C20.1016 11.4934 19.8976 11.0092 19.5271 10.6461C19.1588 10.2847 18.6698 10.0861 18.1504 10.0861C17.8301 10.0861 17.521 10.162 17.2444 10.3056C16.9594 10.1529 16.6401 10.0723 16.3145 10.0723C15.795 10.0723 15.3066 10.2714 14.9377 10.6333C14.5672 10.9963 14.3633 11.48 14.3633 11.9946C14.3633 12.5098 14.5672 12.9935 14.9377 13.3565C15.306 13.7173 15.7945 13.9165 16.315 13.9165L16.3145 13.9159ZM17.3656 11.2633L17.3726 11.2558C17.3763 11.2515 17.3806 11.2473 17.3843 11.243C17.5904 11.0471 17.8621 10.9392 18.1498 10.9392C18.4376 10.9392 18.721 11.0513 18.9287 11.2547C19.1342 11.456 19.2469 11.7234 19.2469 12.0069C19.2469 12.2904 19.1337 12.5578 18.9287 12.7591C18.7205 12.963 18.444 13.0757 18.1498 13.0757C17.8557 13.0757 17.6037 12.9732 17.3998 12.7863L17.3656 12.7522C17.1644 12.5514 17.0533 12.2866 17.0528 12.0074C17.0528 11.7277 17.1644 11.4635 17.3656 11.2627V11.2633ZM15.5356 11.2419C15.7406 11.0407 16.0246 10.9253 16.3139 10.9253C16.3849 10.9253 16.4554 10.9323 16.5248 10.9456C16.3134 11.2579 16.1992 11.6247 16.1992 12.008C16.1992 12.3806 16.307 12.7377 16.5077 13.0442C16.4442 13.0554 16.3796 13.0613 16.3145 13.0613C16.0198 13.0613 15.7433 12.9491 15.5356 12.7457C15.3306 12.5445 15.2174 12.277 15.2174 11.9936C15.2174 11.7101 15.3306 11.4432 15.5356 11.2419Z" fill="black"/>
<path d="M27.9446 9.08887L35.7352 9.08887" stroke="black" stroke-linecap="round"/>
<path d="M31.8391 5.19336L31.8391 12.984" stroke="black" stroke-linecap="round"/>
</svg>
