<svg width="44" height="44" viewBox="0 0 44 44" fill="none" xmlns="http://www.w3.org/2000/svg">
<circle cx="22" cy="22" r="21.5" fill="#C11718"/>
<path d="M31.3499 26.164L23.8347 13.1127C23.6469 12.793 23.3788 12.5278 23.057 12.3436C22.7352 12.1594 22.3708 12.0625 21.9999 12.0625C21.6291 12.0625 21.2647 12.1594 20.9429 12.3436C20.6211 12.5278 20.353 12.793 20.1652 13.1127L12.6499 26.164C12.4692 26.4733 12.374 26.8251 12.374 27.1833C12.374 27.5415 12.4692 27.8932 12.6499 28.2025C12.8353 28.5242 13.103 28.7907 13.4254 28.9748C13.7478 29.1589 14.1134 29.2539 14.4847 29.2501H29.5152C29.8862 29.2536 30.2514 29.1585 30.5735 28.9744C30.8956 28.7903 31.163 28.5239 31.3482 28.2025C31.5292 27.8934 31.6247 27.5417 31.625 27.1835C31.6253 26.8253 31.5304 26.4735 31.3499 26.164ZM21.3124 18.9376C21.3124 18.7552 21.3849 18.5804 21.5138 18.4514C21.6427 18.3225 21.8176 18.2501 21.9999 18.2501C22.1823 18.2501 22.3572 18.3225 22.4861 18.4514C22.615 18.5804 22.6874 18.7552 22.6874 18.9376V22.3751C22.6874 22.5574 22.615 22.7323 22.4861 22.8612C22.3572 22.9901 22.1823 23.0626 21.9999 23.0626C21.8176 23.0626 21.6427 22.9901 21.5138 22.8612C21.3849 22.7323 21.3124 22.5574 21.3124 22.3751V18.9376ZM21.9999 26.5001C21.796 26.5001 21.5966 26.4396 21.427 26.3263C21.2574 26.2129 21.1252 26.0519 21.0472 25.8635C20.9691 25.675 20.9487 25.4677 20.9885 25.2676C21.0283 25.0676 21.1265 24.8838 21.2707 24.7396C21.415 24.5954 21.5987 24.4972 21.7988 24.4574C21.9988 24.4176 22.2062 24.438 22.3946 24.5161C22.583 24.5941 22.7441 24.7263 22.8574 24.8959C22.9707 25.0655 23.0312 25.2648 23.0312 25.4688C23.0312 25.7423 22.9225 26.0046 22.7291 26.198C22.5358 26.3914 22.2735 26.5001 21.9999 26.5001Z" fill="white"/>
</svg>
