<svg width="50" height="35" viewBox="0 0 50 35" fill="none" xmlns="http://www.w3.org/2000/svg">
<rect x="0.5" y="0.5" width="49" height="34" rx="4.5" fill="#1F72CD"/>
<rect x="0.5" y="0.5" width="49" height="34" rx="4.5" stroke="#D5D5D5"/>
<path fill-rule="evenodd" clip-rule="evenodd" d="M8.83394 12.3955L4.22363 22.9637H9.74282L10.427 21.2787H11.991L12.6752 22.9637H18.7503V21.6776L19.2916 22.9637H22.4341L22.9754 21.6504V22.9637H35.6099L37.1462 21.3224L38.5847 22.9637L45.0741 22.9773L40.4492 17.7091L45.0741 12.3955H38.6854L37.1899 14.0064L35.7967 12.3955H22.052L20.8717 15.1232L19.6638 12.3955H14.1561V13.6378L13.5435 12.3955H8.83394ZM9.90187 13.8962H12.5922L15.6502 21.0625V13.8962H18.5973L20.9593 19.0344L23.1361 13.8962H26.0685V21.4796H24.2842L24.2696 15.5373L21.6683 21.4796H20.0722L17.4563 15.5373V21.4796H13.7856L13.0897 19.7795H9.32998L8.63553 21.4781H6.6688L9.90187 13.8962ZM34.9563 13.8962H27.701V21.4751H34.844L37.1462 18.9633L39.3653 21.4751H41.685L38.3134 17.7076L41.685 13.8962H39.4659L37.1754 16.3791L34.9563 13.8962ZM11.2106 15.1793L9.97195 18.2078H12.4478L11.2106 15.1793ZM29.4926 16.8507V15.4663V15.465H34.0197L35.9951 17.6789L33.9322 19.9049H29.4926V18.3936H33.4507V16.8507H29.4926Z" fill="white"/>
</svg>
