<svg width="23" height="28" viewBox="0 0 23 28" fill="none" xmlns="http://www.w3.org/2000/svg">
<path d="M19.2298 14.4636C19.2176 12.221 20.2319 10.5284 22.2851 9.28188C21.1363 7.63815 19.4009 6.7338 17.1095 6.55659C14.9402 6.3855 12.5693 7.82147 11.7016 7.82147C10.7851 7.82147 8.68305 6.6177 7.03321 6.6177C3.62354 6.67269 0 9.33688 0 14.7569C0 16.3579 0.293305 18.0118 0.879915 19.7187C1.66206 21.9612 4.48512 27.4607 7.43039 27.369C8.97024 27.3324 10.0579 26.2752 12.0622 26.2752C14.0053 26.2752 15.0135 27.369 16.7306 27.369C19.7003 27.3263 22.2545 22.3278 23 20.0792C19.0159 18.2032 19.2298 14.5797 19.2298 14.4636ZM15.7713 4.43013C17.4394 2.45032 17.2867 0.647715 17.2378 0C15.7651 0.0855473 14.0603 1.00213 13.0887 2.13257C12.0194 3.34246 11.39 4.83953 11.5244 6.52604C13.1193 6.64825 14.5736 5.82944 15.7713 4.43013Z" fill="#404040"/>
</svg>
