<svg width="47" height="32" viewBox="0 0 47 32" fill="none" xmlns="http://www.w3.org/2000/svg">
<rect x="1.21094" y="0.25" width="45.5" height="31.5" rx="4.75" fill="white"/>
<rect x="1.21094" y="0.25" width="45.5" height="31.5" rx="4.75" stroke="#C6C7C8" stroke-width="0.5"/>
<path d="M12.3222 10.1695C12.8035 9.61439 13.1284 8.84298 13.04 8.07422C12.3444 8.10134 11.5034 8.51616 11.0082 9.06924C10.5595 9.56014 10.1713 10.3461 10.2785 11.0996C11.052 11.1565 11.8408 10.7245 12.3222 10.1695ZM14.3206 15.048C14.3053 13.3854 15.7466 12.5856 15.8134 12.5459C15.0002 11.4212 13.7391 11.265 13.2897 11.2478C12.215 11.1466 11.1904 11.8499 10.6471 11.8499C10.1018 11.8499 9.26287 11.2637 8.36971 11.2816C7.19831 11.2975 6.11803 11.9293 5.51494 12.9263C4.30111 14.9395 5.20679 17.9126 6.3921 19.5408C6.97224 20.338 7.66228 21.2338 8.57144 21.2014C9.44651 21.1689 9.77484 20.6628 10.8322 20.6628C11.8874 20.6615 12.1858 21.2 13.1075 21.1848C14.048 21.1656 14.6448 20.3711 15.2214 19.5699C15.8844 18.647 16.1591 17.7505 16.173 17.7055C16.1543 17.6936 14.3415 17.036 14.3206 15.048ZM25.5171 10.1688C25.1665 9.84726 24.7144 9.59718 24.1732 9.42517C23.6369 9.25515 22.9928 9.16914 22.2589 9.16914C21.7888 9.16715 21.319 9.19034 20.8517 9.23861C20.4621 9.27996 20.0738 9.33181 19.6872 9.39408L19.5739 9.4126V21.1008H20.6959V16.1766C21.0736 16.2382 21.5063 16.2706 21.9834 16.2706C22.6185 16.2706 23.2133 16.1932 23.7517 16.0417C24.2697 15.9016 24.7521 15.6622 25.1693 15.3384C25.5712 15.0189 25.8944 14.6194 26.1161 14.1681C26.3456 13.705 26.4625 13.1605 26.4625 12.5478C26.4625 12.0411 26.3783 11.5852 26.2141 11.1929C26.0554 10.811 25.8185 10.4629 25.5171 10.1688ZM24.4862 14.6332C23.9103 15.0923 23.095 15.3252 22.0607 15.3252C21.7762 15.3252 21.507 15.3133 21.26 15.2914C21.0701 15.2751 20.8817 15.245 20.6966 15.2015V10.231C20.8447 10.2052 21.0284 10.1807 21.244 10.1589C21.5174 10.1311 21.8464 10.1172 22.2234 10.1172C22.6564 10.1131 23.0879 10.1663 23.5054 10.2753C23.8613 10.3684 24.1956 10.5241 24.4911 10.7344C24.7603 10.9329 24.9718 11.1909 25.1185 11.5019C25.2667 11.8168 25.3411 12.1926 25.3411 12.618C25.3404 13.5012 25.0525 14.1793 24.4862 14.6332ZM33.1688 20.0065C33.1563 19.6757 33.1514 19.3436 33.1514 19.0128V15.7638C33.1514 15.3788 33.1104 14.9858 33.0304 14.5954C32.9533 14.2071 32.7953 13.8373 32.5657 13.5078C32.3376 13.1823 32.0183 12.9137 31.619 12.7086C31.2197 12.5042 30.7008 12.401 30.0754 12.401C29.6191 12.401 29.1732 12.4572 28.7524 12.569C28.3105 12.6899 27.8924 12.879 27.5149 13.1287L27.4238 13.1889L27.8029 14.0324L27.9399 13.9444C28.2392 13.7534 28.5664 13.6054 28.911 13.5052C29.2593 13.4015 29.6221 13.3484 29.9871 13.3477C30.4546 13.3477 30.8281 13.4284 31.0945 13.5872C31.3651 13.748 31.5689 13.9471 31.7004 14.18C31.8374 14.4201 31.9272 14.6755 31.9668 14.9408C32.0092 15.2167 32.0294 15.4634 32.0294 15.6752V15.7691C30.3662 15.7618 29.0675 16.0251 28.205 16.5537C27.3 17.1081 26.8409 17.8974 26.8409 18.899C26.8409 19.1875 26.8951 19.4779 27.0023 19.7651C27.1108 20.0555 27.2756 20.3155 27.4913 20.5378C27.7083 20.7627 27.9886 20.946 28.3239 21.0829C28.6578 21.2212 29.0508 21.2907 29.4897 21.2907C30.1112 21.3006 30.7227 21.1415 31.2524 20.8322C31.4834 20.6966 31.6886 20.5424 31.8639 20.3764C31.9386 20.305 32.0098 20.2303 32.0774 20.1527H32.1205L32.2235 21.1015H33.3052L33.2752 20.9493C33.2159 20.6379 33.1803 20.3228 33.1688 20.0065ZM32.0294 18.342C32.0294 18.4558 32.0009 18.6119 31.9466 18.7991C31.874 19.0017 31.7724 19.1938 31.6447 19.3701C31.3606 19.7658 30.9479 20.0621 30.4699 20.2136C30.1798 20.3043 29.8758 20.3484 29.5704 20.3439C29.3691 20.344 29.1691 20.3116 28.9792 20.248C28.7948 20.187 28.6255 20.0906 28.4818 19.9649C28.3314 19.8295 28.2124 19.6657 28.1326 19.4839C28.0443 19.29 27.9998 19.0499 27.9998 18.7707C27.9998 18.3135 28.1291 17.9424 28.383 17.6711C28.6565 17.3821 28.9998 17.1607 29.3833 17.0261C29.8178 16.8707 30.2725 16.7721 30.7349 16.733C31.1651 16.6936 31.5972 16.6757 32.0294 16.6794V18.342ZM40.7836 12.5908L38.6899 18.0046C38.5591 18.3314 38.4373 18.6609 38.326 18.9817C38.2718 19.1418 38.2203 19.2933 38.1695 19.4376H38.1299C38.0776 19.2796 38.0243 19.1219 37.9699 18.9645C37.8614 18.647 37.7445 18.3354 37.6249 18.0383L35.3857 12.5908H34.1886L37.3918 20.4227C37.476 20.6112 37.4885 20.6979 37.4885 20.733C37.4885 20.7435 37.4844 20.8077 37.3905 21.0459C37.2155 21.4709 36.9873 21.8743 36.7108 22.2473C36.4542 22.5794 36.2191 22.8494 36.0097 23.0485C35.7662 23.28 35.5151 23.4699 35.2598 23.6135C34.999 23.7597 34.7611 23.8781 34.5503 23.9674L34.4293 24.019L34.8195 24.9208L34.9433 24.8771C35.0449 24.8407 35.2355 24.758 35.5248 24.6237C35.817 24.4868 36.1404 24.2698 36.4855 23.976C36.7912 23.72 37.0627 23.4291 37.2938 23.11C37.5303 22.7872 37.7668 22.4081 37.9991 21.9873C38.2287 21.5672 38.4582 21.0895 38.6822 20.5662C38.9062 20.0403 39.1469 19.4521 39.3952 18.8203L41.9822 12.5908H40.7836Z" fill="black"/>
</svg>
