<svg width="28" height="26" viewBox="0 0 28 26"  xmlns="http://www.w3.org/2000/svg">
<path d="M25.8462 4.33333H20.4615V3.25C20.4615 2.38805 20.1212 1.5614 19.5153 0.951903C18.9094 0.34241 18.0876 0 17.2308 0H10.7692C9.91238 0 9.09062 0.34241 8.48473 0.951903C7.87884 1.5614 7.53846 2.38805 7.53846 3.25V4.33333H2.15385C1.58261 4.33333 1.03477 4.56161 0.630847 4.96794C0.226922 5.37426 0 5.92536 0 6.5V23.8333C0 24.408 0.226922 24.9591 0.630847 25.3654C1.03477 25.7717 1.58261 26 2.15385 26H25.8462C26.4174 26 26.9652 25.7717 27.3692 25.3654C27.7731 24.9591 28 24.408 28 23.8333V6.5C28 5.92536 27.7731 5.37426 27.3692 4.96794C26.9652 4.56161 26.4174 4.33333 25.8462 4.33333ZM9.69231 3.25C9.69231 2.96268 9.80577 2.68713 10.0077 2.48397C10.2097 2.2808 10.4836 2.16667 10.7692 2.16667H17.2308C17.5164 2.16667 17.7903 2.2808 17.9923 2.48397C18.1942 2.68713 18.3077 2.96268 18.3077 3.25V4.33333H9.69231V3.25ZM25.8462 6.5V12.1347C22.2112 14.125 18.1385 15.1674 14 15.1667C9.86166 15.1674 5.78903 14.1255 2.15385 12.136V6.5H25.8462ZM25.8462 23.8333H2.15385V14.5763C5.84221 16.3911 9.89405 17.3341 14 17.3333C18.106 17.3334 22.1578 16.3899 25.8462 14.5749V23.8333ZM10.7692 11.9167C10.7692 11.6293 10.8827 11.3538 11.0847 11.1506C11.2866 10.9475 11.5605 10.8333 11.8462 10.8333H16.1538C16.4395 10.8333 16.7134 10.9475 16.9153 11.1506C17.1173 11.3538 17.2308 11.6293 17.2308 11.9167C17.2308 12.204 17.1173 12.4795 16.9153 12.6827C16.7134 12.8859 16.4395 13 16.1538 13H11.8462C11.5605 13 11.2866 12.8859 11.0847 12.6827C10.8827 12.4795 10.7692 12.204 10.7692 11.9167Z" />
</svg>
