<svg width="19" height="19" viewBox="0 0 19 19" fill="none" xmlns="http://www.w3.org/2000/svg">
<g clip-path="url(#clip0_3586_18630)">
<path d="M14.1216 4.15625H11.1528V3.5625C11.1528 3.09008 10.9652 2.63702 10.6311 2.30297C10.2971 1.96892 9.844 1.78125 9.37158 1.78125H5.80908C5.33667 1.78125 4.8836 1.96892 4.54955 2.30297C4.2155 2.63702 4.02783 3.09008 4.02783 3.5625V4.15625H1.05908C0.744137 4.15625 0.442092 4.28136 0.219393 4.50406C-0.00330678 4.72676 -0.128418 5.02881 -0.128418 5.34375V14.8438C-0.128418 15.1587 -0.00330678 15.4607 0.219393 15.6834C0.442092 15.9061 0.744137 16.0312 1.05908 16.0312H14.1216C14.4365 16.0312 14.7386 15.9061 14.9613 15.6834C15.184 15.4607 15.3091 15.1587 15.3091 14.8438V5.34375C15.3091 5.02881 15.184 4.72676 14.9613 4.50406C14.7386 4.28136 14.4365 4.15625 14.1216 4.15625ZM5.21533 3.5625C5.21533 3.40503 5.27789 3.25401 5.38924 3.14266C5.50059 3.03131 5.65161 2.96875 5.80908 2.96875H9.37158C9.52905 2.96875 9.68008 3.03131 9.79143 3.14266C9.90278 3.25401 9.96533 3.40503 9.96533 3.5625V4.15625H5.21533V3.5625ZM14.1216 5.34375V8.43199C12.1175 9.52284 9.87205 10.0942 7.59033 10.0938C5.3087 10.0942 3.0633 9.52312 1.05908 8.43273V5.34375H14.1216ZM14.1216 14.8438H1.05908V9.77016C3.09262 10.7648 5.32656 11.2817 7.59033 11.2812C9.85414 11.2813 12.0881 10.7642 14.1216 9.76941V14.8438ZM5.80908 8.3125C5.80908 8.15503 5.87164 8.004 5.98299 7.89266C6.09434 7.78131 6.24536 7.71875 6.40283 7.71875H8.77783C8.9353 7.71875 9.08633 7.78131 9.19768 7.89266C9.30903 8.004 9.37158 8.15503 9.37158 8.3125C9.37158 8.46997 9.30903 8.621 9.19768 8.73234C9.08633 8.84369 8.9353 8.90625 8.77783 8.90625H6.40283C6.24536 8.90625 6.09434 8.84369 5.98299 8.73234C5.87164 8.621 5.80908 8.46997 5.80908 8.3125Z" fill="#D5D5D5"/>
</g>
<defs>
<clipPath id="clip0_3586_18630">
<rect width="19" height="19" fill="white"/>
</clipPath>
</defs>
</svg>
