<svg width="150" height="137" viewBox="0 0 150 137" fill="none" xmlns="http://www.w3.org/2000/svg">
<path d="M79.0203 19.4637C79.0203 19.4637 107.899 -9.22437 135.991 20.7905C164.083 50.8054 120.359 108.982 80.3497 128.903L89.6263 87.1973L75.0557 75.507L93.0722 36.9933L75.0557 33.5387L79.0322 19.4577L79.0203 19.4637Z" stroke="black" stroke-width="2" stroke-linecap="round" stroke-linejoin="round"/>
<path d="M66.9513 16.8754C58.8373 10.5641 35.6638 -3.41538 13.0089 20.7902C-15.0771 50.805 28.6408 108.982 68.6504 128.902L74.2127 93.8371L58.3126 82.1467L76.0669 48.9403L59.6362 46.2867L66.9453 16.8695L66.9513 16.8754Z" stroke="black" stroke-width="2" stroke-linecap="round" stroke-linejoin="round"/>
<g clip-path="url(#clip0_4053_20213)">
<path d="M40.8742 14.5001C32.7618 14.5001 25.2651 18.2529 18.0642 25.8905C11.9859 32.3333 9.86122 40.8896 11.7445 51.3133C13.9838 63.6644 21.7159 78.003 33.5344 91.6871C42.2987 101.835 52.7289 110.883 63.1531 117.5L66.3522 97.4874L48.6848 84.6019L64.7527 54.7779L50.4654 52.4842L58.5899 20.0242C54.9743 17.8026 50.0188 15.4548 44.4053 14.7283C43.2162 14.5722 42.0331 14.4941 40.8682 14.4941L40.8742 14.5001Z" fill="#FCF3F3"/>
</g>
<g clip-path="url(#clip1_4053_20213)">
<path d="M83.9819 72.1916L97.3012 82.9075L90.9623 111.495C99.2256 105.512 107.302 98.0634 114.283 89.893C125.695 76.526 133.171 62.5198 135.335 50.4549C137.16 40.2728 135.107 31.9147 129.235 25.6213C122.517 18.4187 115.274 14.6767 107.711 14.5066C97.2954 14.2661 88.5014 20.6769 85.2649 23.369L84.1219 27.4219L103.15 31.0819L83.9819 72.1916Z" fill="#FCF3F3"/>
</g>
<defs>
<clipPath id="clip0_4053_20213">
<rect width="58" height="103" fill="white" transform="translate(11.0806 14.5)"/>
</clipPath>
<clipPath id="clip1_4053_20213">
<rect width="52" height="97" fill="white" transform="translate(83.9819 14.5)"/>
</clipPath>
</defs>
</svg>
