<svg width="117" height="123" viewBox="0 0 117 123" fill="none" xmlns="http://www.w3.org/2000/svg">
<path d="M77.8048 38.2452L88.5236 37.8674C101.094 37.425 106.04 41.9705 105.021 52.2988C104.001 62.6172 94.2438 67.693 84.6319 68.0306L72.867 68.4492" stroke="white" stroke-width="5" stroke-miterlimit="10"/>
<path d="M77.1266 35.2445L87.4736 34.884C102.359 34.3557 108.524 40.8978 107.31 53.159C106.097 65.43 94.2425 70.2949 82.8592 70.6948L72.4628 71.063" stroke="black" stroke-width="2" stroke-miterlimit="10"/>
<path d="M3.47157 37.1081C3.569 37.8014 3.64821 38.5076 3.75552 39.1993C6.06671 55.3358 9.19371 69.0991 13.0572 80.2385C14.581 84.647 16.2215 88.6326 17.9784 92.1953C19.0037 94.3031 21.0544 95.7154 23.3593 96.0257C28.962 96.7857 35.4773 97.1006 42.4313 96.8515C49.3854 96.6025 56.0118 95.8072 61.5885 94.6384C63.8809 94.1512 65.8238 92.5848 66.6999 90.4047C68.1497 86.7695 69.4728 82.7086 70.6752 78.2617C73.8505 66.5059 76.1426 51.993 77.6007 35.039C78.0912 28.5471 78.0391 22.2101 77.5334 16.146C77.319 13.7202 75.3558 11.8288 72.9486 11.7064C63.5599 11.1998 53.0732 11.1165 41.991 11.5C29.1389 11.9558 17.1171 13.0012 6.72808 14.4612C4.37161 14.7964 2.59812 16.802 2.5449 19.1985C2.43518 25.0141 2.72942 31.0199 3.49746 37.1446" fill="white"/>
<path d="M3.47151 37.1084C3.56895 37.8016 3.64815 38.5078 3.75547 39.1996C6.06665 55.336 9.19366 69.0993 13.0571 80.2387C14.581 84.6472 16.2214 88.6328 17.9784 92.1956C19.0036 94.3033 21.0544 95.7156 23.3592 96.0259C28.962 96.7859 35.4773 97.1008 42.4313 96.8518C49.3853 96.6027 56.0117 95.8074 61.5885 94.6386C63.8809 94.1514 65.8237 92.585 66.6998 90.405C68.1497 86.7697 69.4727 82.7089 70.6752 78.2619C73.8505 66.5062 76.1426 51.9932 77.6006 35.0392C78.0912 28.5473 78.001 21.2012 78.001 21.2012L57.4844 20.3686L41.9909 11.5003C29.1389 11.956 14.1542 15.0985 3.76525 16.5585L2.54485 19.1987C2.43513 25.0143 2.72936 31.0202 3.49741 37.1448" stroke="black" stroke-width="2" stroke-miterlimit="10"/>
<path d="M77.4755 40.6244L85.1351 40.357C97.7059 39.9145 102.618 43.7264 101.544 52.4544C100.468 61.1724 90.6874 65.5131 81.0755 65.8507L74.2416 66.0912" stroke="black" stroke-width="2" stroke-miterlimit="10"/>
<path d="M59.0564 78.8697C54.7819 76.5359 47.9015 73.7875 42.2562 69.2757C35.1815 63.6246 23.1687 41.3108 22.4134 40.0222C21.9642 39.2501 21.5125 38.4557 21.0921 37.5975C19.7286 34.876 18.6297 32.555 17.2196 29.8461C16.8902 29.2041 16.5883 28.5515 16.333 27.8862C16.0649 27.1921 15.8348 26.4939 15.2087 25.9448C13.9358 24.8336 11.306 24.9869 10.693 26.652C10.4499 27.3193 10.6261 27.9631 10.7937 28.6155C11.0183 29.5253 11.2438 30.4425 11.4779 31.3513C11.9087 33.0901 13.8063 53.0638 14.0361 59.6931C14.0619 60.4514 14.1256 61.2056 14.2186 61.9641C14.5384 66.0965 17.77 77.0911 21.4515 84.0646C22.3343 86.2511 23.9848 88.0066 25.0524 89.7808C25.6954 90.8331 27.0575 91.535 28.6672 91.6973C29.5207 91.7844 30.4112 91.8598 31.319 91.9183C35.0853 92.5068 39.8482 92.6541 44.3201 92.0723C48.3118 91.92 52.0532 91.5843 55.3382 91.1102C56.9622 90.879 58.3835 90.1124 59.0809 89.041C60.2715 87.222 62.0276 85.4012 63.0674 83.1692C63.4487 81.6653 61.7793 80.349 59.0556 78.8622L59.0564 78.8697Z" fill="#EBD1B0"/>
<path d="M3.34692 17.1289L39.9996 19.8635L51.9993 46.7002L76.4993 44.2002" stroke="black" stroke-width="2" stroke-miterlimit="10"/>
<path d="M69.588 99.654L75.6433 97.291L72.6782 107.572L69.588 99.654Z" stroke="black" stroke-width="1.5"/>
<path d="M87.3675 94.3258L82.6301 94.5644L84.2661 98.7565L80.6746 108.334L85.3098 109.208L89.5019 107.572L94.9994 100L87.3675 94.3258Z" stroke="black" stroke-width="1.5"/>
</svg>
