<svg width="112" height="207" viewBox="0 0 112 207" fill="none" xmlns="http://www.w3.org/2000/svg">
<path opacity="0.2" d="M80.3262 166.777C90.8128 165.945 102.235 164.215 114.301 161.642C153.748 153.252 181.251 140.044 189.769 125.413C192.511 120.673 193.1 116.067 191.572 111.352C179.435 73.2608 158.931 26.6998 147.772 18.0876C144.715 15.7229 131.713 12.6256 109.846 14.3588C101.715 15.0023 92.9025 16.314 83.6603 18.2501C48.0517 25.8478 27.9171 38.9249 25.0543 44.2324L25.053 44.2423C18.182 56.9491 18.7274 107.56 23.1823 147.169C24.8866 162.361 45.7157 169.512 80.3219 166.771L80.3262 166.777ZM132.156 39.7476C133.049 43.831 127.753 50.4371 110.163 56.766C96.1871 61.7627 82.9984 64.8388 71.0348 65.8682C56.9985 67.0761 49.7804 65.0313 49.4934 64.9553L49.7066 63.1641C50.7965 63.1292 51.8585 63.0357 52.8643 62.9501C68.1147 61.6375 78.2674 55.2201 88.0719 48.9752C94.9384 44.6087 102.059 40.1031 110.88 37.3061C114.271 36.2274 117.497 35.5449 120.383 35.297C127.012 34.7274 131.416 36.4113 132.15 39.7519L132.156 39.7476ZM62.4753 35.1182C76.4778 30.1097 89.6485 27.0162 101.627 25.9887C115.617 24.7851 122.789 26.8392 123.132 26.9523L122.89 28.7349C121.825 28.7679 120.775 28.8429 119.77 28.9284C104.514 30.2404 94.3382 36.685 84.5392 42.9256C77.6894 47.2791 70.5971 51.8033 61.7765 54.5904C58.3601 55.6709 55.1711 56.338 52.235 56.5896C45.621 57.156 41.202 55.4753 40.4664 52.1446C39.5782 48.0618 44.882 41.4365 62.4759 35.1132L62.4753 35.1182ZM33.5774 73.5819L34.2461 73.7808C51.0573 78.6134 72.3774 78.3186 96.1324 72.7231C119.743 67.1951 139.334 57.9571 152.795 46.0015L156.501 50.1795C142.355 62.7477 121.917 72.4174 97.4145 78.1607C88.8094 80.1863 80.4218 81.5561 72.4972 82.2353C57.6686 83.5101 44.2697 82.4674 32.6785 79.1393L31.9813 78.9268L33.578 73.5769L33.5774 73.5819Z" fill="black" fill-opacity="0.12"/>
<path opacity="0.2" d="M201.372 121.156C199.992 121.059 198.701 120.974 197.511 120.84C196.987 123.311 196.022 125.772 194.607 128.212C185.291 144.204 156.446 158.38 115.465 167.105C103.167 169.73 91.4942 171.489 80.7689 172.341C49.0358 174.853 27.7588 169.037 20.3642 156.234C11.9775 161.224 0.644182 168.082 3.36329 182.552C5.99871 196.605 43.0052 204.844 87.6149 201.316C98.5938 200.445 110.06 198.766 121.693 196.32C183.181 183.18 227.249 152.754 224.122 135.351C221.981 123.499 212.551 121.902 201.367 121.155L201.372 121.156Z" fill="black" fill-opacity="0.12"/>
</svg>
