<svg width="10" height="10" viewBox="0 0 10 10" fill="none" xmlns="http://www.w3.org/2000/svg">
<path d="M3.30714 7.76302C3.75837 7.668 4.24541 7.52793 4.75583 7.34683C6.42467 6.75577 7.54837 6.01684 7.83929 5.31985C7.93276 5.09413 7.93342 4.88626 7.84147 4.6853C7.10763 3.06068 5.96427 1.10619 5.43267 0.785458C5.28699 0.697358 4.70516 0.631784 3.76426 0.829843C3.41438 0.903446 3.0385 1.0105 2.64733 1.14767C1.14099 1.6823 0.336813 2.37461 0.241151 2.6262V2.62665C0.011388 3.22908 0.309294 5.47397 0.717495 7.20854C0.873874 7.87387 1.81783 8.07616 3.30692 7.76279H3.30714V7.76302Z" fill="#DCDDDE"/>
<path d="M8.32009 5.06646C8.25959 5.0698 8.20303 5.07315 8.15061 5.07382C8.14122 5.18645 8.11261 5.3011 8.06434 5.4173C7.74612 6.1792 6.56935 6.96854 4.83564 7.58301C4.3154 7.76769 3.81765 7.91043 3.35616 8.00768C1.99068 8.29495 1.0345 8.15444 0.643768 7.62673C0.306331 7.89482 -0.149046 8.26216 0.0475191 8.8898C0.238188 9.49936 1.89109 9.6604 3.81066 9.2567C4.28307 9.15722 4.7723 9.01916 5.26459 8.84608C7.86559 7.92203 9.6159 6.32663 9.3857 5.57097C9.22844 5.05642 8.80998 5.03769 8.31987 5.06646H8.32009Z" fill="#DCDDDE"/>
</svg>
