<svg width="25" height="21" viewBox="0 0 25 21" fill="none" xmlns="http://www.w3.org/2000/svg">
<g clip-path="url(#clip0_4583_4085)">
<path d="M9.17425 7.73907C9.32503 7.74307 9.47783 7.74574 9.63196 7.74574C10.3336 7.74574 11.0688 7.70105 11.8234 7.61301C14.4577 7.30755 16.7181 6.53989 18.3593 5.39273L18.6334 5.20132L17.9191 4.18555L17.6443 4.37763C16.17 5.4074 14.1072 6.10037 11.6786 6.38115C9.25534 6.66461 7.11755 6.45985 5.4978 5.78823L5.12385 5.6295L4.6333 6.76865L5.01328 6.93139C6.20011 7.42227 7.60006 7.69438 9.17425 7.73907Z" />
<path d="M24.9972 14.543C24.8665 12.5008 23.0598 12.1707 22.0887 11.9933C22.0519 11.9866 22.0157 11.9799 21.9801 11.9733C21.9734 11.8472 21.9567 11.7198 21.9312 11.5944C21.2745 8.26301 19.7036 2.46587 18.2869 1.09395C17.6851 0.510364 15.9407 0.0855159 13.8425 0.0114842C12.9646 -0.0191956 12.007 0.0114842 10.9957 0.104857C7.49282 0.441668 4.93351 1.45944 4.14541 2.30713H4.12866L4.02478 2.45453C4.01875 2.4632 4.01272 2.47187 4.00669 2.48054L3.96514 2.5399V2.5439C2.87681 4.27464 2.46467 9.97575 2.45462 13.4479C2.45462 13.4913 2.45462 13.5346 2.4573 13.578C1.46949 14.0261 -0.136188 14.8545 0.0092348 16.8934C0.176773 19.2464 4.94021 20.4829 9.29418 20.6363C9.59977 20.647 9.90938 20.6523 10.2223 20.6523C11.1123 20.6523 12.0297 20.609 12.9626 20.5223C16.0513 20.2255 19.1266 19.4298 21.3991 18.34C23.8016 17.1875 25.0789 15.8389 24.9965 14.5424H24.9972V14.543ZM5.03336 3.18484L5.0481 3.1635C5.15935 3.00477 5.71088 2.62994 6.77374 2.24777C7.62551 1.94164 9.06968 1.53614 11.113 1.33939C12.07 1.25135 12.9733 1.22134 13.7983 1.25068C16.243 1.33672 17.2891 1.85694 17.4171 1.98099C18.305 2.84203 19.843 7.446 20.7082 11.8352C20.7906 12.2421 20.6982 12.6075 20.4174 12.9837C19.443 14.2823 16.4816 15.284 12.4962 15.6628C11.243 15.7829 10.0669 15.8249 8.99999 15.7869C5.67805 15.6702 3.69775 14.7971 3.70177 13.4519C3.71249 9.41684 4.24928 4.35068 5.03336 3.18418V3.18484ZM20.8014 17.2562C18.6327 18.282 15.8067 19.0036 12.8453 19.2884C11.639 19.4005 10.4596 19.4371 9.33908 19.3978C4.60111 19.231 1.33278 17.9231 1.25371 16.806C1.17664 15.7255 1.89102 15.2207 2.82119 14.7798C3.63743 16.1224 5.79398 16.9161 8.95643 17.0274C10.0776 17.0668 11.3087 17.0234 12.6155 16.8987C17.0096 16.4799 20.2177 15.3234 21.4172 13.7254C21.5459 13.5526 21.6538 13.3739 21.7396 13.1905C21.7764 13.1971 21.8133 13.2045 21.8508 13.2111L21.8635 13.2138C23.0966 13.4386 23.6937 13.7067 23.7527 14.6217C23.7989 15.352 22.6402 16.3858 20.8007 17.2562H20.8014Z"/>
<path d="M13.6463 3.2717C12.7094 3.45378 11.9273 3.82994 11.1727 4.19543C10.0945 4.71698 8.97865 5.25321 7.40179 5.20853C7.29791 5.20586 7.18801 5.20253 7.07609 5.19319L7.0332 5.37327C7.06202 5.3846 7.77707 5.6774 9.22862 5.71875C10.4664 5.75409 11.8529 5.59469 13.3433 5.24855C15.2191 4.80902 15.8397 4.19743 15.7968 3.76991C15.7606 3.42043 15.3297 3.197 14.6434 3.17766C14.3446 3.16899 14.0061 3.201 13.6463 3.27103V3.2717Z" />
<path d="M7.41167 4.55245C7.71525 4.56112 8.04966 4.53044 8.41288 4.45974C9.34908 4.27833 10.1291 3.90017 10.8817 3.53601C11.9587 3.01379 13.0771 2.47623 14.6553 2.52091C14.7592 2.52358 14.8678 2.52892 14.9777 2.53759L15.0233 2.35884C14.9897 2.3435 14.2794 2.05004 12.8319 2.00869C11.5921 1.97334 10.2069 2.13408 8.71378 2.48156C6.83735 2.92042 6.21612 3.53401 6.25834 3.96086C6.29453 4.30901 6.72745 4.53244 7.41167 4.55178V4.55245Z" />
</g>
<defs>
<clipPath id="clip0_4583_4085">
<rect width="25" height="20.6522" fill="white"/>
</clipPath>
</defs>
</svg>
