<svg width="34" height="24" viewBox="0 0 34 24" fill="none" xmlns="http://www.w3.org/2000/svg">
<path d="M29.4885 0H4.51162C2.52018 0 0.899902 1.59228 0.899902 3.54926V19.854C0.899902 21.811 2.52018 23.4033 4.51162 23.4033H29.4885C31.4799 23.4033 33.1002 21.811 33.1002 19.854V3.54926C33.1002 1.59228 31.4799 0 29.4885 0ZM31.9516 19.854C31.9516 21.1778 30.8468 22.2546 29.4885 22.2546H4.51162C3.15337 22.2546 2.04853 21.1778 2.04853 19.854V7.07913H31.9509L31.9516 19.854ZM31.9509 7.07913H2.04853L2.04925 3.54926C2.04925 2.22547 3.15408 1.14863 4.51233 1.14863H29.4892C30.8475 1.14863 31.9523 2.22547 31.9523 3.54926L31.9509 7.07913Z" fill="#C11718"/>
<rect x="1.8999" y="2" width="30" height="20" rx="3" fill="white"/>
<path d="M12.7847 9.05365L12.5883 8.97021L12.3315 9.57097L12.5305 9.65698C13.1531 9.91628 13.8886 10.0588 14.7153 10.0832C14.7949 10.0857 14.8745 10.087 14.9554 10.087C15.3238 10.087 15.7102 10.0639 16.1056 10.0177C17.4881 9.85723 18.6755 9.45159 19.5368 8.84697L19.6806 8.74556L19.3058 8.20898L19.162 8.31039C18.388 8.85339 17.3045 9.21924 16.0298 9.36687C14.7577 9.51706 13.6358 9.40794 12.7847 9.05365Z" fill="#C11718"/>
<path d="M23.0215 13.6724C22.9535 12.5954 22.0048 12.4208 21.4952 12.3271C21.4759 12.3233 21.4567 12.3207 21.4387 12.3169C21.4349 12.2501 21.4259 12.1834 21.413 12.1166C21.0677 10.3592 20.2436 7.30151 19.5004 6.57752C19.1846 6.26943 18.268 6.04607 17.1666 6.00628C16.7058 5.98959 16.2026 6.00628 15.6724 6.05506C13.8342 6.23221 12.4902 6.77007 12.0768 7.21679H12.0678L12.0126 7.2951C12.0101 7.29895 12.0062 7.30408 12.0037 7.30793L11.9844 7.33617V7.33874C11.4106 8.24759 11.1949 11.2604 11.1885 13.0948C11.1885 13.1179 11.1885 13.141 11.1898 13.1628C10.6712 13.399 9.82781 13.8367 9.90483 14.9112C9.99341 16.1525 12.494 16.8046 14.779 16.8855C14.9394 16.8906 15.1012 16.8945 15.2668 16.8945C15.734 16.8945 16.2154 16.8714 16.7058 16.8264C18.3271 16.6698 19.9419 16.2501 21.1345 15.675C22.3963 15.0665 23.0664 14.3553 23.0228 13.6711L23.0215 13.6724ZM14.8008 16.2334C12.313 16.1448 10.598 15.4555 10.5557 14.8663C10.5146 14.2963 10.8907 14.0306 11.3785 13.7969C11.8072 14.5055 12.9395 14.924 14.5993 14.9831C15.1885 15.0036 15.8342 14.9805 16.5209 14.915C18.8277 14.6942 20.5119 14.0845 21.1422 13.2411C21.2102 13.15 21.2667 13.0563 21.3116 12.9587C21.3309 12.9626 21.3501 12.9664 21.3707 12.9703H21.3771C22.0241 13.0896 22.3386 13.2321 22.3694 13.7148C22.3938 14.0999 21.7853 14.6455 20.82 15.105C19.6814 15.6467 18.1974 16.0267 16.6429 16.1769C16.01 16.2359 15.39 16.2552 14.8021 16.2347L14.8008 16.2334ZM17.1422 6.66096C18.4259 6.70589 18.9753 6.98059 19.0421 7.04606C19.5081 7.50048 20.3155 9.92921 20.7699 12.245C20.8136 12.4593 20.7648 12.6519 20.6172 12.8509C20.105 13.5364 18.5504 14.064 16.458 14.2642C15.8008 14.3271 15.1833 14.3502 14.6224 14.3297C12.8791 14.2681 11.8381 13.8072 11.8406 13.0973C11.8458 10.969 12.1282 8.29637 12.5402 7.68148L12.5479 7.66993C12.6057 7.58649 12.8958 7.3888 13.4542 7.18727C13.9009 7.02552 14.6596 6.81115 15.7327 6.70845C16.2347 6.66224 16.7096 6.64684 17.1422 6.66224V6.66096Z" fill="#C11718"/>
<path d="M17.0624 7.72639C16.5707 7.82267 16.16 8.02035 15.7633 8.2129C15.1972 8.48761 14.6118 8.77131 13.7839 8.74692C13.7299 8.74563 13.6722 8.74435 13.6131 8.73921L13.5913 8.83421C13.6067 8.84062 13.9815 8.99467 14.7441 9.01649C15.3936 9.03446 16.1214 8.95102 16.9045 8.76874C17.8891 8.53639 18.2151 8.21419 18.192 7.98826C18.1728 7.80341 17.9468 7.68659 17.5861 7.67632C17.4295 7.67247 17.2511 7.68916 17.0624 7.7251V7.72639Z" fill="#C11718"/>
<path d="M13.1831 8.09106C13.2024 8.27463 13.4296 8.39273 13.789 8.403C13.9482 8.40813 14.124 8.39144 14.314 8.35422C14.8057 8.25794 15.2152 8.05897 15.6105 7.86642C16.1767 7.59171 16.7633 7.30673 17.5913 7.33112C17.6465 7.33241 17.7029 7.33497 17.7607 7.34011L17.7851 7.24512C17.7671 7.23741 17.3949 7.08209 16.6349 7.06027C15.9841 7.04101 15.2563 7.12702 14.4732 7.3093C13.4886 7.54036 13.1613 7.86385 13.1844 8.08978L13.1831 8.09106Z" fill="#C11718"/>
</svg>
