<svg width="23" height="23" viewBox="0 0 23 23" fill="none" xmlns="http://www.w3.org/2000/svg">
<path d="M20.5228 16.664L13.0076 3.61271C12.8198 3.29296 12.5517 3.02784 12.2298 2.84362C11.908 2.65941 11.5436 2.5625 11.1728 2.5625C10.802 2.5625 10.4376 2.65941 10.1158 2.84362C9.79393 3.02784 9.52583 3.29296 9.33803 3.61271L1.8228 16.664C1.6421 16.9733 1.54688 17.3251 1.54688 17.6833C1.54688 18.0415 1.6421 18.3932 1.8228 18.7025C2.00819 19.0242 2.27583 19.2907 2.59826 19.4748C2.92069 19.6589 3.2863 19.7539 3.65756 19.7501H18.688C19.059 19.7536 19.4243 19.6585 19.7464 19.4744C20.0685 19.2903 20.3358 19.0239 20.5211 18.7025C20.702 18.3934 20.7976 18.0417 20.7979 17.6835C20.7982 17.3253 20.7032 16.9735 20.5228 16.664ZM10.4853 9.43756C10.4853 9.25522 10.5577 9.08035 10.6867 8.95142C10.8156 8.82249 10.9905 8.75006 11.1728 8.75006C11.3551 8.75006 11.53 8.82249 11.6589 8.95142C11.7879 9.08035 11.8603 9.25522 11.8603 9.43756V12.8751C11.8603 13.0574 11.7879 13.2323 11.6589 13.3612C11.53 13.4901 11.3551 13.5626 11.1728 13.5626C10.9905 13.5626 10.8156 13.4901 10.6867 13.3612C10.5577 13.2323 10.4853 13.0574 10.4853 12.8751V9.43756ZM11.1728 17.0001C10.9688 17.0001 10.7695 16.9396 10.5999 16.8263C10.4303 16.7129 10.2981 16.5519 10.22 16.3635C10.142 16.175 10.1216 15.9677 10.1614 15.7676C10.2012 15.5676 10.2994 15.3838 10.4436 15.2396C10.5878 15.0954 10.7716 14.9972 10.9716 14.9574C11.1717 14.9176 11.379 14.938 11.5674 15.0161C11.7559 15.0941 11.9169 15.2263 12.0303 15.3959C12.1436 15.5655 12.204 15.7648 12.204 15.9688C12.204 16.2423 12.0954 16.5046 11.902 16.698C11.7086 16.8914 11.4463 17.0001 11.1728 17.0001Z" fill="#C11718"/>
</svg>
