<svg width="145" height="95" viewBox="0 0 145 95" fill="none" xmlns="http://www.w3.org/2000/svg">
<g filter="url(#filter0_d_3586_18275)">
<rect x="15" y="9" width="125.667" height="77.893" rx="12" fill="white" fill-opacity="0.1" shape-rendering="crispEdges"/>
<rect x="15.5" y="9.5" width="124.667" height="76.893" rx="11.5" stroke="#DCDDDE" shape-rendering="crispEdges"/>
</g>
<path d="M16.25 31.0996L139.943 31.0996" stroke="#DCDDDE" stroke-linecap="round" stroke-linejoin="round"/>
<path d="M32.9238 54.9785H71.1338" stroke="#DCDDDE" stroke-linecap="round" stroke-linejoin="round"/>
<path d="M32.9238 66.1289H54.7738" stroke="#DCDDDE" stroke-linecap="round" stroke-linejoin="round"/>
<path d="M112.894 71.3582C118.334 71.3582 122.744 66.9482 122.744 61.5082C122.744 56.0682 118.334 51.6582 112.894 51.6582C107.454 51.6582 103.044 56.0682 103.044 61.5082C103.044 66.9482 107.454 71.3582 112.894 71.3582Z" stroke="#DCDDDE" stroke-linecap="round" stroke-linejoin="round"/>
<path d="M27.7498 22.0419L17.5017 4.24461C17.2457 3.80858 16.8801 3.44705 16.4412 3.19585C16.0023 2.94465 15.5055 2.8125 14.9998 2.8125C14.4941 2.8125 13.9972 2.94465 13.5584 3.19585C13.1195 3.44705 12.7539 3.80858 12.4978 4.24461L2.24979 22.0419C2.00339 22.4636 1.87354 22.9433 1.87354 23.4317C1.87354 23.9202 2.00339 24.3998 2.24979 24.8216C2.5026 25.2602 2.86757 25.6237 3.30725 25.8748C3.74692 26.1258 4.24548 26.2553 4.75175 26.2501H25.2478C25.7537 26.2549 26.2518 26.1252 26.691 25.8742C27.1302 25.6231 27.4948 25.2599 27.7474 24.8216C27.9942 24.4 28.1245 23.9205 28.1249 23.432C28.1253 22.9436 27.9958 22.4638 27.7498 22.0419ZM14.0623 12.1876C14.0623 11.9389 14.1611 11.7005 14.3369 11.5247C14.5127 11.3488 14.7512 11.2501 14.9998 11.2501C15.2484 11.2501 15.4869 11.3488 15.6627 11.5247C15.8385 11.7005 15.9373 11.9389 15.9373 12.1876V16.8751C15.9373 17.1237 15.8385 17.3622 15.6627 17.538C15.4869 17.7138 15.2484 17.8126 14.9998 17.8126C14.7512 17.8126 14.5127 17.7138 14.3369 17.538C14.1611 17.3622 14.0623 17.1237 14.0623 16.8751V12.1876ZM14.9998 22.5001C14.7217 22.5001 14.4498 22.4176 14.2185 22.2631C13.9873 22.1086 13.807 21.8889 13.7006 21.632C13.5942 21.375 13.5663 21.0923 13.6206 20.8195C13.6748 20.5467 13.8088 20.2961 14.0054 20.0995C14.2021 19.9028 14.4527 19.7689 14.7254 19.7146C14.9982 19.6603 15.281 19.6882 15.5379 19.7946C15.7949 19.9011 16.0145 20.0813 16.169 20.3126C16.3236 20.5438 16.406 20.8157 16.406 21.0938C16.406 21.4668 16.2579 21.8245 15.9942 22.0882C15.7304 22.3519 15.3728 22.5001 14.9998 22.5001Z" fill="#C11718"/>
<defs>
<filter id="filter0_d_3586_18275" x="11" y="9" width="133.667" height="85.8926" filterUnits="userSpaceOnUse" color-interpolation-filters="sRGB">
<feFlood flood-opacity="0" result="BackgroundImageFix"/>
<feColorMatrix in="SourceAlpha" type="matrix" values="0 0 0 0 0 0 0 0 0 0 0 0 0 0 0 0 0 0 127 0" result="hardAlpha"/>
<feOffset dy="4"/>
<feGaussianBlur stdDeviation="2"/>
<feComposite in2="hardAlpha" operator="out"/>
<feColorMatrix type="matrix" values="0 0 0 0 0 0 0 0 0 0 0 0 0 0 0 0 0 0 0.25 0"/>
<feBlend mode="normal" in2="BackgroundImageFix" result="effect1_dropShadow_3586_18275"/>
<feBlend mode="normal" in="SourceGraphic" in2="effect1_dropShadow_3586_18275" result="shape"/>
</filter>
</defs>
</svg>
