<svg width="47" height="47" viewBox="0 0 47 47" xmlns="http://www.w3.org/2000/svg">
<path d="M30.4901 9.80422L30.481 9.80667C30.4547 9.81322 30.4293 9.81978 30.4038 9.82633C30.4038 9.9688 30.389 10.1145 30.3586 10.2628C30.0735 11.6375 28.3783 13.3284 25.7071 14.9005C24.9125 15.3689 24.1418 15.7619 23.4171 16.0698C21.3711 16.9386 19.7606 17.0728 18.8387 16.4604C18.3785 17.018 18.0745 17.5518 18.4475 18.2175C18.8329 18.9053 21.3045 18.7678 24.3702 17.4659C25.0949 17.158 25.8353 16.7838 26.569 16.3539C28.3685 15.2927 29.951 13.9925 31.0241 12.6946C31.9346 11.5933 32.3618 10.5903 32.1137 10.1383C31.8023 9.57249 31.3413 9.57904 30.4892 9.80258L30.4901 9.80422Z" fill="#C11718"/>
<path d="M23.0737 15.2677C23.7639 14.9746 24.5001 14.5979 25.2618 14.1492C27.685 12.7228 29.2692 11.2048 29.5009 10.0879C29.5666 9.76529 29.5165 9.5049 29.3415 9.2699C27.4754 6.72994 25.1172 4.25302 24.2939 3.96807C24.1748 3.92713 23.3531 3.90666 21.7713 4.57809C21.2373 4.8049 20.6711 5.09231 20.0886 5.43293C18.847 6.16495 18.0491 6.85276 17.5989 7.30147C17.0368 7.86072 16.7977 8.26358 16.7747 8.39786L16.7714 8.41588C16.6219 9.3919 17.7985 12.781 19.0006 15.3553C19.4008 16.2143 20.9234 16.1815 23.0729 15.2685L23.0737 15.2677ZM23.7984 5.58933C23.9537 5.84889 23.7426 6.42288 22.6801 7.26053C21.8354 7.92377 20.9998 8.43799 20.2019 8.78271C19.2652 9.18802 18.7229 9.2134 18.7007 9.21504L18.6736 9.08731C18.7476 9.05947 18.8182 9.02917 18.8856 9.00051C19.9029 8.55999 20.4526 7.88692 20.9825 7.23433C21.3531 6.77743 21.7385 6.30497 22.28 5.9103C22.4879 5.758 22.6941 5.63764 22.8864 5.55412C23.3284 5.36252 23.6702 5.37725 23.7976 5.58851L23.7984 5.58933ZM18.9037 6.87241C19.75 6.20753 20.584 5.69332 21.3827 5.34696C22.3161 4.94328 22.8568 4.91872 22.8823 4.91872L22.9069 5.04645C22.8346 5.07347 22.7639 5.10213 22.6966 5.13161C21.6785 5.57213 21.128 6.24684 20.5988 6.90025C20.2291 7.35633 19.8453 7.82879 19.3038 8.22264C19.0943 8.37494 18.8905 8.49448 18.6942 8.57882C18.2529 8.76961 17.9103 8.75569 17.7829 8.54443C17.6276 8.28487 17.8396 7.70924 18.902 6.87159L18.9037 6.87241ZM17.5619 9.94542L17.847 9.9356C19.0787 9.88238 20.501 9.37717 21.9587 8.47647C23.4205 7.57577 24.5256 6.52114 25.155 5.42638L25.2725 5.2225L26.0318 5.65729L25.9151 5.86035C25.2142 7.07957 24.0055 8.24065 22.4205 9.2175C21.9669 9.49753 21.5125 9.74481 21.0655 9.95279C20.9677 9.99865 20.87 10.0429 20.7722 10.0846C19.7566 10.5235 18.7845 10.7667 17.8815 10.8068L17.5906 10.8158L17.5611 9.94461L17.5619 9.94542Z" fill="#C11718"/>
<path d="M20.7721 10.0862C20.869 10.0445 20.9668 10.0003 21.0654 9.95442C21.5116 9.74562 21.9668 9.49916 22.4204 9.21912C24.0054 8.24146 25.2141 7.08038 25.915 5.86198L26.0316 5.65891L25.2724 5.22412L25.1549 5.42801C24.5247 6.52276 23.4195 7.5774 21.9586 8.47809C20.5009 9.37879 19.0786 9.88318 17.8469 9.93722L17.5618 9.94705L17.5913 10.8183L17.8822 10.8093C18.7844 10.77 19.7573 10.5268 20.7729 10.0871L20.7721 10.0862Z" fill="white"/>
<path d="M30.2674 8.95935C30.2419 8.9659 30.2173 8.97246 30.1926 8.97901C30.1507 8.9004 30.1022 8.82425 30.048 8.75219C28.6314 6.82388 25.8944 3.59693 24.5822 3.14331C24.0243 2.95007 22.7868 3.19817 21.4294 3.77462C20.8616 4.01617 20.261 4.31995 19.6456 4.68023C17.5166 5.93547 16.1929 7.34547 15.9455 8.11925L15.9349 8.12416L15.9135 8.24944C15.9118 8.25681 15.911 8.26418 15.9102 8.27155L15.9012 8.3215L15.9028 8.32395C15.7286 9.75033 17.1748 13.5062 18.2093 15.7219C18.2224 15.7498 18.2356 15.7768 18.2503 15.8038C17.7557 16.3836 16.9825 17.3882 17.6858 18.6443C18.4977 20.0936 21.8994 19.4664 24.7169 18.2701C24.915 18.1866 25.113 18.0973 25.3127 18.0048C25.8788 17.7403 26.4499 17.4398 27.0176 17.1082C28.8944 16.0012 30.6133 14.5805 31.7333 13.2098C32.9173 11.7613 33.3265 10.5225 32.8853 9.72003C32.1901 8.45742 30.9412 8.78413 30.2699 8.95935H30.2674ZM16.7721 8.41484L16.7754 8.39683C16.7984 8.26254 17.0375 7.85969 17.5996 7.30043C18.0499 6.85254 18.8477 6.16474 20.0893 5.4319C20.6718 5.09127 21.238 4.80387 21.7721 4.57705C23.3538 3.90563 24.1755 3.9261 24.2946 3.96704C25.1179 4.25199 27.4761 6.7289 29.3422 9.26887C29.5164 9.50387 29.5673 9.76425 29.5016 10.0869C29.2707 11.2037 27.6857 12.7226 25.2625 14.1482C24.5008 14.5969 23.7646 14.9736 23.0744 15.2667C20.9249 16.1797 19.4032 16.2116 19.0022 15.3535C17.8001 12.7791 16.6234 9.39005 16.773 8.41402L16.7721 8.41484ZM31.025 12.6964C29.9519 13.9942 28.3693 15.2945 26.5698 16.3557C25.8353 16.7856 25.0957 17.1598 24.371 17.4677C21.3053 18.7696 18.8337 18.9071 18.4484 18.2193C18.0753 17.5536 18.3793 17.0198 18.8395 16.4622C19.7614 17.0746 21.3719 16.9403 23.4179 16.0716C24.1434 15.7637 24.9142 15.3699 25.7079 14.9023C28.3792 13.3294 30.0743 11.6393 30.3594 10.2645C30.3898 10.1163 30.4046 9.96977 30.4046 9.82812C30.4301 9.82157 30.4556 9.81502 30.4818 9.80847L30.4909 9.80601C31.343 9.58329 31.8039 9.57592 32.1153 10.1417C32.3635 10.5937 31.9362 11.5968 31.0258 12.6981L31.025 12.6964Z" fill="white"/>
<path d="M22.2799 5.91001C21.7384 6.30468 21.3531 6.77632 20.9825 7.23404C20.4525 7.88745 19.9028 8.56052 18.8856 9.00022C18.8182 9.02888 18.7475 9.06 18.6736 9.08702L18.7007 9.21475C18.7221 9.21311 19.2652 9.18773 20.2019 8.78242C20.9998 8.43688 21.8354 7.92348 22.6801 7.26024C23.7425 6.42259 23.9545 5.8486 23.7984 5.58904C23.671 5.37696 23.3292 5.36304 22.8872 5.55465C22.6949 5.63817 22.4886 5.75853 22.2808 5.91083L22.2799 5.91001Z" fill="white"/>
<path d="M18.6958 8.57954C18.8913 8.4952 19.0951 8.37565 19.3054 8.22335C19.8469 7.8295 20.2298 7.35705 20.6004 6.90097C21.1296 6.24837 21.6801 5.57285 22.6981 5.13233C22.7655 5.10367 22.8354 5.07419 22.9085 5.04717L22.8838 4.91943C22.8584 4.91943 22.3177 4.944 21.3843 5.34767C20.5848 5.69321 19.7516 6.20825 18.9053 6.87313C17.8429 7.71077 17.6309 8.2864 17.7862 8.54597C17.9135 8.75722 18.2562 8.77114 18.6974 8.58036L18.6958 8.57954Z" fill="white"/>
<path d="M38.5687 16.3828C38.3477 16.0823 37.9911 15.9022 37.6082 15.9022L33.9994 15.9267C33.5795 15.93 33.2393 16.2731 33.241 16.6923C33.2434 17.1091 33.5852 17.4481 34.0043 17.4481L37.1645 17.3613L33.0676 30.1381H15.1041C15.0901 30.1381 15.0778 30.1275 15.0753 30.1144L11.9948 13.282C11.8872 12.6949 11.3958 12.2421 10.7976 12.1815L5.6186 11.6714H5.60627C5.17818 11.6468 4.82568 11.9399 4.7846 12.3526C4.74269 12.7694 5.04918 13.1428 5.46823 13.1853L10.5191 13.6832L13.5766 30.3887C13.7097 31.1092 14.3292 31.6365 15.0589 31.6586L13.5839 34.3255C13.3941 34.6678 13.3999 35.0739 13.5987 35.4105C13.7976 35.7478 14.1517 35.9484 14.5437 35.9484H15.2018C14.4886 36.6051 14.0704 37.5328 14.0704 38.5285C14.0704 40.4683 15.6538 42.0461 17.6003 42.0461C19.5469 42.0461 21.1302 40.4683 21.1302 38.5285C21.1302 37.5328 20.712 36.6051 19.9988 35.9484H27.306C26.5928 36.6051 26.1745 37.5328 26.1745 38.5285C26.1745 40.4683 27.7579 42.0461 29.7045 42.0461C31.651 42.0461 33.2344 40.4683 33.2344 38.5285C33.2344 37.5328 32.8162 36.6051 32.1029 35.9484H33.6526C34.0733 35.9484 34.416 35.607 34.416 35.1877C34.416 34.7685 34.0733 34.4271 33.6526 34.4271H15.2684L16.7984 31.6586H33.1859C33.7792 31.6586 34.3017 31.2795 34.4858 30.7129L38.7429 17.4399C38.8588 17.0805 38.7939 16.6858 38.5695 16.382L38.5687 16.3828ZM17.5995 40.5256C16.4943 40.5256 15.5954 39.6298 15.5954 38.5285C15.5954 37.4272 16.4943 36.5314 17.5995 36.5314C18.7046 36.5314 19.6036 37.4272 19.6036 38.5285C19.6036 39.6298 18.7046 40.5256 17.5995 40.5256ZM31.7077 38.5285C31.7077 39.6298 30.8088 40.5256 29.7036 40.5256C28.5985 40.5256 27.6996 39.6298 27.6996 38.5285C27.6996 37.4272 28.5985 36.5314 29.7036 36.5314C30.8088 36.5314 31.7077 37.4272 31.7077 38.5285Z" fill="black"/>
</svg>
