<svg width="25" height="25" viewBox="0 0 25 25" fill="none" xmlns="http://www.w3.org/2000/svg">
    <rect x="0.5" y="0.5" width="24" height="24" rx="4.5" fill="#C11718" stroke="#C11718"/>
    <path d="M18.8946 8.36289L12.0871 16.8723C12.013 16.9467 11.9249 17.0057 11.8279 17.0459C11.731 17.0862 11.627 17.1069 11.522 17.1069C11.417 17.1069 11.313 17.0862 11.2161 17.0459C11.1191 17.0057 11.031 16.9467 10.9569 16.8723L7.23406 13.1494C7.15986 13.0752 7.10099 12.9871 7.06083 12.8902C7.02067 12.7932 7 12.6893 7 12.5844C7 12.4794 7.02067 12.3755 7.06083 12.2785C7.10099 12.1816 7.15986 12.0935 7.23406 12.0193C7.30827 11.9451 7.39637 11.8862 7.49332 11.846C7.59028 11.8059 7.6942 11.7852 7.79914 11.7852C7.90409 11.7852 8.008 11.8059 8.10496 11.846C8.20191 11.8862 8.29001 11.9451 8.36422 12.0193L11.5227 15.1777L17.7658 7.23406C17.9156 7.08419 18.1189 7 18.3309 7C18.5428 7 18.7461 7.08419 18.8959 7.23406C19.0458 7.38393 19.13 7.5872 19.13 7.79914C19.13 8.01109 19.0458 8.21435 18.8959 8.36422L18.8946 8.36289Z" fill="white"/>
</svg>
