<svg width="7" height="12" viewBox="0 0 7 12" fill="none" xmlns="http://www.w3.org/2000/svg">
<path d="M6.35366 10.646C6.40011 10.6925 6.43696 10.7476 6.4621 10.8083C6.48724 10.869 6.50018 10.9341 6.50018 10.9998C6.50018 11.0655 6.48724 11.1305 6.4621 11.1912C6.43696 11.2519 6.40011 11.3071 6.35366 11.3535C6.3072 11.4 6.25205 11.4368 6.19135 11.462C6.13066 11.4871 6.0656 11.5001 5.99991 11.5001C5.93421 11.5001 5.86915 11.4871 5.80846 11.462C5.74776 11.4368 5.69261 11.4 5.64615 11.3535L0.646155 6.35354C0.599667 6.3071 0.562787 6.25196 0.537625 6.19126C0.512463 6.13056 0.499512 6.0655 0.499512 5.99979C0.499512 5.93408 0.512463 5.86902 0.537625 5.80832C0.562787 5.74762 0.599667 5.69248 0.646155 5.64604L5.64615 0.64604C5.73997 0.552219 5.86722 0.499512 5.99991 0.499512C6.13259 0.499512 6.25984 0.552219 6.35366 0.64604C6.44748 0.73986 6.50018 0.867108 6.50018 0.99979C6.50018 1.13247 6.44748 1.25972 6.35366 1.35354L1.70678 5.99979L6.35366 10.646Z" fill="#C11718"/>
</svg>
