<svg width="13" height="11" viewBox="0 0 13 11" fill="none" xmlns="http://www.w3.org/2000/svg">
<path d="M12.3946 1.47031L5.58708 9.97972C5.51297 10.0541 5.4249 10.1131 5.32793 10.1534C5.23096 10.1936 5.127 10.2144 5.02201 10.2144C4.91701 10.2144 4.81305 10.1936 4.71608 10.1534C4.61911 10.1131 4.53104 10.0541 4.45693 9.97972L0.734063 6.25685C0.659856 6.18264 0.600991 6.09455 0.560831 5.99759C0.52067 5.90063 0.5 5.79672 0.5 5.69177C0.5 5.58683 0.52067 5.48291 0.560831 5.38596C0.600991 5.289 0.659856 5.2009 0.734063 5.1267C0.80827 5.05249 0.896366 4.99362 0.993323 4.95346C1.09028 4.9133 1.1942 4.89263 1.29914 4.89263C1.40409 4.89263 1.508 4.9133 1.60496 4.95346C1.70191 4.99362 1.79001 5.05249 1.86422 5.1267L5.02267 8.28515L11.2658 0.341485C11.4156 0.191617 11.6189 0.107422 11.8309 0.107422C12.0428 0.107422 12.2461 0.191617 12.3959 0.341485C12.5458 0.491352 12.63 0.694617 12.63 0.906563C12.63 1.11851 12.5458 1.32177 12.3959 1.47164L12.3946 1.47031Z" fill="#C11718"/>
</svg>
