<?xml version="1.0" encoding="utf-8"?>
<!-- Generator: Adobe Illustrator 28.0.0, SVG Export Plug-In . SVG Version: 6.00 Build 0)  -->
<svg version="1.1" id="Layer_2" xmlns="http://www.w3.org/2000/svg" xmlns:xlink="http://www.w3.org/1999/xlink" x="0px" y="0px"
	 viewBox="0 0 18 23" style="enable-background:new 0 0 18 23;" xml:space="preserve">
<path class="st0" d="M11.11,22.87c-0.87,0-1.82-0.24-2.74-0.72c-1.51-0.78-2.93-2.12-4.22-3.99c-2.18-3.18-3.48-6.28-3.86-9.19
	c-0.36-2.74,0.2-4.56,0.46-5.22C0.9,3.39,1.24,3.14,1.63,3.11c0.53-0.03,1,0.36,1.06,0.89C2.71,4.1,2.72,4.19,2.73,4.28
	C3.18,7.7,5.89,9.73,8.5,11.69c1.84,1.38,3.92,2.93,5.16,5.02l0,0c0.49,0.82,0.79,1.63,0.89,2.39c0.24,1.83-0.7,3.23-2.45,3.66
	C11.8,22.83,11.46,22.87,11.11,22.87L11.11,22.87z M1.69,4.16C1.46,4.77,0.98,6.38,1.31,8.84c0.36,2.76,1.6,5.7,3.69,8.75
	c2.54,3.69,5.22,4.58,6.88,4.17c1.24-0.3,1.85-1.23,1.68-2.53c-0.08-0.62-0.34-1.29-0.76-1.99l0,0c-1.14-1.92-3.05-3.35-4.9-4.73
	c-2.65-1.99-5.66-4.24-6.17-8.09C1.71,4.33,1.7,4.24,1.69,4.16L1.69,4.16z"/>
<path class="st0" d="M16.29,19.89c-0.52,0-0.95-0.39-1-0.9c-0.01-0.09-0.02-0.17-0.03-0.26c-0.45-3.42-3.16-5.45-5.78-7.41
	L9.46,11.3c-1.93-1.45-3.92-2.94-5.15-5C3.82,5.48,3.52,4.67,3.42,3.91l0,0c-0.24-1.83,0.7-3.23,2.44-3.66
	c1.12-0.27,2.45-0.06,3.74,0.6c1.52,0.78,2.94,2.12,4.22,3.99c2.19,3.2,3.49,6.29,3.87,9.2c0.36,2.76-0.21,4.57-0.48,5.22
	c-0.15,0.36-0.49,0.61-0.88,0.63C16.33,19.89,16.31,19.89,16.29,19.89z M4.43,3.77c0.08,0.63,0.34,1.3,0.76,2.01
	c1.13,1.89,3.04,3.32,4.88,4.71l0.01,0.01c2.66,1.99,5.67,4.25,6.18,8.1c0.01,0.09,0.02,0.17,0.03,0.25c0.24-0.61,0.72-2.2,0.4-4.67
	c-0.36-2.75-1.61-5.69-3.7-8.75c-2.54-3.69-5.22-4.58-6.88-4.18C4.87,1.54,4.26,2.46,4.43,3.77L4.43,3.77L4.43,3.77z"/>
</svg>
