<svg width="230" height="222" viewBox="0 0 230 222" fill="none" xmlns="http://www.w3.org/2000/svg">
<path d="M59.2964 191.592V191.71C59.2964 197.65 64.228 202.487 70.2846 202.487H137.169C143.226 202.487 148.15 197.615 148.15 191.627V191.509L59.2964 191.592Z" fill="white" stroke="black" stroke-width="2" stroke-miterlimit="10"/>
<path d="M146.729 109.441L159.855 107.501C175.248 105.227 181.943 110.138 182.108 122.963C182.273 135.788 170.985 143.356 159.216 145.095L144.812 147.224" stroke="white" stroke-width="5" stroke-miterlimit="10"/>
<path d="M145.493 105.848L158.161 103.976C176.377 101.285 184.859 108.467 185.053 123.711C185.247 138.956 171.356 146.563 157.424 148.622L144.693 150.503" stroke="black" stroke-width="2" stroke-miterlimit="10"/>
<path d="M55.236 118.264C55.4462 119.101 55.6419 119.957 55.869 120.792C60.931 140.299 66.6717 156.789 72.9393 169.939C75.4209 175.144 77.9796 179.816 80.6323 183.955C82.1869 186.398 84.8932 187.855 87.7736 187.915C94.7691 188.079 102.807 187.568 111.322 186.31C119.837 185.052 127.86 183.155 134.557 180.95C137.312 180.04 139.478 177.845 140.257 175.04C141.54 170.373 142.609 165.199 143.472 159.569C145.754 144.687 146.582 126.532 146.036 105.507C145.747 97.4618 144.805 89.6864 143.351 82.2992C142.759 79.3493 140.086 77.2971 137.103 77.4775C125.491 78.1519 112.593 79.485 99.0333 81.4886C83.3064 83.8125 68.6744 86.7556 56.1083 89.9835C53.2587 90.717 51.3585 93.4277 51.6209 96.3742C52.2807 103.532 53.469 110.871 55.258 118.296" fill="white"/>
<path d="M55.236 118.264C55.4462 119.101 55.6419 119.957 55.869 120.792C60.931 140.299 66.6717 156.789 72.9393 169.939C75.4209 175.144 77.9796 179.816 80.6323 183.955C82.1869 186.398 84.8932 187.855 87.7736 187.915C94.7691 188.079 102.807 187.568 111.322 186.31C119.837 185.052 127.86 183.155 134.557 180.95C137.312 180.04 139.478 177.845 140.257 175.04C141.54 170.373 142.609 165.199 143.472 159.569C145.754 144.687 146.582 126.532 146.036 105.507C145.747 97.4618 144.805 89.6864 143.351 82.2992C142.759 79.3493 140.086 77.2971 137.103 77.4775C125.491 78.1519 112.593 79.485 99.0333 81.4886C83.3064 83.8125 68.6744 86.7556 56.1083 89.9835C53.2587 90.717 51.3585 93.4277 51.6209 96.3742C52.2807 103.532 53.469 110.871 55.258 118.296" stroke="black" stroke-width="2" stroke-miterlimit="10"/>
<path d="M139.206 113.878C138.768 111.97 136.865 110.678 134.683 110.823C126.067 110.245 126.096 120.352 107.191 117.552C88.2863 114.752 77.0435 117.562 68.7532 121.642C66.664 122.197 65.2588 124.019 65.4307 125.984C65.9047 130.705 74.3141 150.415 81.9263 162.135C83.7474 165.521 86.4082 168.067 88.3388 170.745C89.4895 172.335 91.4653 173.227 93.5918 173.203C98.6579 173.149 104.516 172.651 110.678 171.64L110.91 171.602C117.072 170.591 122.77 169.193 127.598 167.611C129.62 166.953 131.218 165.463 131.79 163.602C132.763 160.448 134.473 157.197 135.115 153.395C138.584 139.869 140.242 118.507 139.192 113.868L139.206 113.878Z" fill="#C11718"/>
<path d="M51.0207 94.0676C62.4053 95.3706 79.2209 94.7951 97.741 92.0585C116.261 89.3219 132.708 84.9651 143.224 80.3912" stroke="black" stroke-width="2" stroke-miterlimit="10"/>
<path d="M146.659 112.41L156.037 111.024C171.425 108.75 177.986 112.762 177.862 123.628C177.738 134.494 166.32 141.163 154.555 142.901L146.192 144.137" stroke="black" stroke-width="2" stroke-miterlimit="10"/>
</svg>
