<svg width="16" height="19" viewBox="0 0 16 19" fill="none" xmlns="http://www.w3.org/2000/svg">
<g clip-path="url(#clip0_3402_23619)">
<path d="M5.9535 10.43C9.05734 10.43 11.5735 9.32025 11.5735 7.95132C11.5735 6.58239 9.05734 5.47266 5.9535 5.47266C2.84966 5.47266 0.333496 6.58239 0.333496 7.95132C0.333496 9.32025 2.84966 10.43 5.9535 10.43Z" stroke="black" stroke-miterlimit="10"/>
<path d="M0.333496 7.95117V15.7456C0.333496 17.1108 2.84683 18.2243 5.9535 18.2243C9.06016 18.2243 11.5735 17.1184 11.5735 15.7456V8.34776" stroke="black" stroke-miterlimit="10"/>
<path d="M0.333496 11.5664C0.333496 12.9316 2.84683 14.0451 5.9535 14.0451C9.06016 14.0451 11.5735 12.9392 11.5735 11.5664" stroke="black" stroke-miterlimit="10"/>
<mask id="mask0_3402_23619" style="mask-type:alpha" maskUnits="userSpaceOnUse" x="-2" y="-5" width="23" height="23">
<path d="M-1.25 3.43164V-4.06836H21V17.9316H13.25V6.68164L10.25 3.43164H-1.25Z" fill="#D9D9D9"/>
</mask>
<g mask="url(#mask0_3402_23619)">
<path d="M9.9535 5.85382C13.0573 5.85382 15.5735 4.74408 15.5735 3.37515C15.5735 2.00622 13.0573 0.896484 9.9535 0.896484C6.84966 0.896484 4.3335 2.00622 4.3335 3.37515C4.3335 4.74408 6.84966 5.85382 9.9535 5.85382Z" stroke="black" stroke-miterlimit="10"/>
<path d="M4.3335 3.375V11.1695C4.3335 12.5346 6.84683 13.6481 9.9535 13.6481C13.0602 13.6481 15.5735 12.5423 15.5735 11.1695V3.77159" stroke="black" stroke-miterlimit="10"/>
<path d="M4.3335 6.99023C4.3335 8.35541 6.84683 9.4689 9.9535 9.4689C13.0602 9.4689 15.5735 8.36303 15.5735 6.99023" stroke="black" stroke-miterlimit="10"/>
</g>
</g>
<defs>
<clipPath id="clip0_3402_23619">
<rect width="16" height="18.304" fill="white" transform="translate(0 0.431641)"/>
</clipPath>
</defs>
</svg>
