<svg width="28" height="25" viewBox="0 0 28 25" fill="none" xmlns="http://www.w3.org/2000/svg">
<path d="M14.5 19.5C15.6004 20.8755 18.0856 23.3861 20.4943 24.2214C21.178 24.4585 21.6732 23.7531 21.4247 23.0734C20.8731 21.5645 20.409 19.7955 21 19.5" stroke="#C11718" stroke-linecap="round"/>
<path d="M14.5 19.5H7C3.68629 19.5 1 16.8137 1 13.5V6.5C1 3.18629 3.68629 0.5 7 0.5H21C24.3137 0.5 27 3.18629 27 6.5V13.5C27 16.8137 24.3137 19.5 21 19.5V19.5" stroke="#C11718" stroke-linecap="round"/>
<path d="M10.129 7.16107L9.92867 7.07763L9.66675 7.67839L9.86974 7.7644C10.5049 8.0237 11.2553 8.16619 12.0987 8.19058C12.1799 8.19315 12.2611 8.19443 12.3436 8.19443C12.7195 8.19443 13.1137 8.17133 13.517 8.12511C14.9275 7.96465 16.1389 7.55901 17.0176 6.9544L17.1643 6.85298L16.7819 6.31641L16.6352 6.41782C15.8455 6.96081 14.7402 7.32666 13.4397 7.47429C12.1419 7.62448 10.9973 7.51537 10.129 7.16107Z" fill="#C11718"/>
<path d="M20.5737 11.7799C20.5043 10.7028 19.5365 10.5283 19.0166 10.4346C18.9969 10.4307 18.9773 10.4281 18.9589 10.4243C18.955 10.3575 18.9458 10.2908 18.9327 10.224C18.5805 8.46667 17.7397 5.40893 16.9814 4.68494C16.6592 4.37685 15.7242 4.15349 14.6005 4.1137C14.1304 4.09701 13.617 4.1137 13.0761 4.16248C11.2008 4.33963 9.82961 4.87749 9.40791 5.32421H9.39874L9.34243 5.40252C9.33981 5.40637 9.33588 5.4115 9.33326 5.41535L9.31362 5.44359V5.44616C8.72822 6.35501 8.5082 9.36781 8.50166 11.2022C8.50166 11.2253 8.50165 11.2484 8.50296 11.2702C7.97388 11.5064 7.11346 11.9442 7.19204 13.0186C7.2824 14.2599 9.83353 14.912 12.1646 14.9929C12.3284 14.998 12.4934 15.0019 12.6623 15.0019C13.139 15.0019 13.6301 14.9788 14.1304 14.9339C15.7844 14.7772 17.4319 14.3575 18.6486 13.7824C19.9359 13.1739 20.6195 12.4628 20.575 11.7786L20.5737 11.7799ZM12.1869 14.3408C9.64888 14.2522 7.89923 13.5629 7.85602 12.9737C7.81411 12.4037 8.19782 12.138 8.69548 11.9044C9.13289 12.613 10.288 13.0314 11.9813 13.0905C12.5824 13.111 13.2412 13.0879 13.9418 13.0225C16.2952 12.8017 18.0134 12.1919 18.6564 11.3485C18.7258 11.2574 18.7834 11.1637 18.8293 11.0661C18.8489 11.07 18.8686 11.0738 18.8895 11.0777H18.8961C19.5561 11.1971 19.877 11.3395 19.9084 11.8222C19.9333 12.2073 19.3125 12.7529 18.3277 13.2124C17.1661 13.7542 15.6522 14.1341 14.0662 14.2843C13.4206 14.3434 12.788 14.3626 12.1882 14.3421L12.1869 14.3408ZM14.5757 4.76838C15.8853 4.81331 16.4458 5.08802 16.5139 5.15348C16.9893 5.60791 17.813 8.03663 18.2766 10.3524C18.3211 10.5668 18.2714 10.7593 18.1208 10.9583C17.5982 11.6438 16.0123 12.1714 13.8776 12.3716C13.2071 12.4345 12.5772 12.4576 12.0049 12.4371C10.2264 12.3755 9.16432 11.9146 9.16694 11.2048C9.17218 9.07642 9.46029 6.40379 9.88068 5.78891L9.88854 5.77735C9.94747 5.69391 10.2434 5.49623 10.8131 5.29469C11.2689 5.13294 12.0429 4.91857 13.1377 4.81587C13.6498 4.76966 14.1343 4.75426 14.5757 4.76966V4.76838Z" fill="#C11718"/>
<path d="M14.4955 5.83381C13.994 5.93009 13.5749 6.12777 13.1702 6.32033C12.5927 6.59503 11.9955 6.87873 11.1508 6.85434C11.0958 6.85305 11.0369 6.85177 10.9766 6.84664L10.9543 6.94163C10.9701 6.94805 11.3525 7.10209 12.1304 7.12391C12.793 7.14188 13.5356 7.05844 14.3345 6.87616C15.3389 6.64381 15.6716 6.32161 15.648 6.09568C15.6284 5.91083 15.3979 5.79402 15.0299 5.78375C14.8701 5.77989 14.6881 5.79658 14.4955 5.83253V5.83381Z" fill="#C11718"/>
<path d="M10.5366 6.19848C10.5563 6.38205 10.7881 6.50015 11.1548 6.51042C11.3171 6.51555 11.4966 6.49887 11.6904 6.46164C12.192 6.36536 12.6097 6.16639 13.0131 5.97384C13.5906 5.69913 14.1891 5.41415 15.0338 5.43854C15.0902 5.43983 15.1478 5.44239 15.2067 5.44753L15.2316 5.35254C15.2133 5.34484 14.8335 5.18951 14.0582 5.16769C13.3942 5.14843 12.6516 5.23444 11.8528 5.41672C10.8483 5.64779 10.5144 5.97127 10.5379 6.1972L10.5366 6.19848Z" fill="#C11718"/>
</svg>
