<svg width="208" height="152" viewBox="0 0 208 152" fill="none" xmlns="http://www.w3.org/2000/svg">
<path d="M178.34 91.2812L188.99 92.5513C201.48 94.0413 205.67 99.2913 203.08 109.341C200.49 119.381 190.07 122.901 180.52 121.761L168.83 120.371" stroke="white" stroke-width="5" stroke-miterlimit="10"/>
<path d="M178.13 88.2109L188.41 89.4409C203.2 91.2009 208.29 98.6109 205.21 110.541C202.13 122.481 189.67 125.471 178.36 124.121L168.03 122.891" stroke="black" stroke-width="2" stroke-miterlimit="10"/>
<path d="M105.06 78.7612C105.05 79.4613 105.02 80.1712 105.02 80.8713C104.83 97.1712 105.81 111.251 107.92 122.851C108.75 127.441 109.76 131.631 110.95 135.421C111.64 137.661 113.45 139.371 115.68 140.031C121.1 141.641 127.49 142.951 134.4 143.771C141.31 144.591 147.98 144.821 153.67 144.521C156.01 144.391 158.17 143.141 159.37 141.121C161.36 137.751 163.29 133.941 165.16 129.731C170.1 118.601 174.59 104.611 178.63 88.0812C180.11 81.7412 181.03 75.4712 181.46 69.4012C181.62 66.9712 179.97 64.8012 177.61 64.3112C168.41 62.3712 158.06 60.6812 147.05 59.3612C134.28 57.8412 122.24 57.0312 111.75 56.8812C109.37 56.8512 107.31 58.5612 106.89 60.9212C105.89 66.6512 105.26 72.6313 105.08 78.8013" fill="white"/>
<path d="M105.06 78.7612C105.05 79.4612 105.02 80.1713 105.02 80.8713C104.83 97.1712 105.81 111.251 107.92 122.851C108.75 127.441 109.76 131.631 110.95 135.421C111.64 137.661 113.45 139.371 115.68 140.031C121.1 141.641 127.49 142.951 134.4 143.771C141.31 144.591 147.98 144.821 153.67 144.521C156.01 144.391 158.17 143.141 159.37 141.121C161.36 137.751 163.29 133.941 165.16 129.731C170.1 118.601 174.59 104.611 178.63 88.0812C180.11 81.7412 181.03 75.4712 181.46 69.4012C181.62 66.9712 179.97 64.8012 177.61 64.3112C168.41 62.3712 158.06 60.6812 147.05 59.3612C134.28 57.8412 122.24 57.0312 111.75 56.8812C109.37 56.8512 107.31 58.5612 106.89 60.9212C105.89 66.6512 105.26 72.6313 105.08 78.8013" stroke="black" stroke-width="2" stroke-miterlimit="10"/>
<path d="M106.91 58.9805C115.52 62.4105 128.76 65.5305 143.8 67.3205C158.83 69.1105 172.59 69.2005 181.77 67.8605" stroke="black" stroke-width="2" stroke-miterlimit="10"/>
<path d="M177.65 93.582L185.26 94.492C197.75 95.982 202.02 100.502 199.62 108.962C197.22 117.412 186.89 120.202 177.34 119.062L170.55 118.252" stroke="black" stroke-width="2" stroke-miterlimit="10"/>
<path d="M116.579 23.1275C115.857 20.6027 113.166 19.5169 110.944 20.9797C108.819 22.3822 108.499 24.8749 108.696 27.2063C108.743 27.8311 108.98 28.4616 108.869 29.0815C108.048 33.574 107.068 33.4268 106.998 34.2536C106.934 35.0077 107.239 35.4822 108.069 35.4571C109.285 35.425 113.88 31.3619 115.041 29.6259C116.275 27.7783 117.225 25.3684 116.589 23.1309L116.579 23.1275Z" fill="#EBD1B0"/>
<path d="M155.78 118.312C151.59 114.592 144.73 109.942 139.36 103.132C132.63 94.6018 122.66 63.2418 122.02 61.4218C121.64 60.3318 121.26 59.2118 120.92 58.0118C119.81 54.2018 118.93 50.9618 117.77 47.1618C117.5 46.2618 117.26 45.3518 117.07 44.4318C116.87 43.4718 116.71 42.5118 116.12 41.6918C114.92 40.0318 112.16 39.8518 111.33 41.9718C111 42.8218 111.11 43.7018 111.21 44.5918C111.34 45.8318 111.47 47.0818 111.61 48.3218C111.86 50.6918 111.55 77.4718 111.03 86.3018C110.97 87.3118 110.95 88.3218 110.96 89.3418C110.82 94.8718 112.93 109.932 115.97 119.722C116.64 122.752 118.16 125.322 119.07 127.832C119.62 129.322 120.96 130.452 122.62 130.902C123.5 131.142 124.42 131.372 125.36 131.582C129.22 132.912 134.17 133.802 138.9 133.682C143.08 134.062 147.02 134.162 150.5 134.012C152.22 133.942 153.79 133.132 154.64 131.812C156.09 129.572 158.13 127.412 159.47 124.602C160.04 122.662 158.45 120.672 155.78 118.302V118.312Z" fill="#EBD1B0"/>
<path d="M106.91 58.9805C115.52 62.4105 128.76 65.5305 143.8 67.3205C158.83 69.1105 172.59 69.2005 181.77 67.8605" stroke="black" stroke-width="2" stroke-miterlimit="10"/>
<path d="M88.5114 13.5005C88.2615 11.0901 89.2893 7.73324 92.091 7.38668C93.7897 7.17544 95.1988 8.25213 95.9285 9.70734C96.5689 10.9791 97.147 12.4993 96.9782 13.8965C96.5374 17.3975 93.5885 20.2931 98.4795 25.5688C100.234 27.4632 98.7813 28.8569 96.7033 27.3466C92.2939 24.1417 89.0816 18.9589 88.5194 13.4945L88.5114 13.5005Z" fill="#EBD1B0"/>
<path d="M29.6596 90.2988L19.0096 91.5688C6.51956 93.0588 2.32956 98.3088 4.91956 108.359C7.50956 118.399 17.9296 121.919 27.4796 120.779L39.1696 119.389" stroke="white" stroke-width="5" stroke-miterlimit="10"/>
<path d="M29.8696 87.2285L19.5896 88.4585C4.7996 90.2185 -0.290396 97.6285 2.7896 109.559C5.8696 121.499 18.3296 124.489 29.6396 123.139L39.9696 121.909" stroke="black" stroke-width="2" stroke-miterlimit="10"/>
<path d="M102.94 77.7788C102.95 78.4788 102.98 79.1888 102.98 79.8888C103.17 96.1888 102.19 110.269 100.08 121.869C99.2495 126.459 98.2395 130.649 97.0495 134.439C96.3595 136.679 94.5495 138.389 92.3195 139.049C86.8995 140.659 80.5095 141.969 73.5995 142.789C66.6895 143.609 60.0195 143.839 54.3295 143.539C51.9895 143.409 49.8295 142.159 48.6295 140.139C46.6395 136.769 44.7095 132.959 42.8395 128.749C37.8995 117.619 33.4095 103.629 29.3695 87.0988C27.8895 80.7588 26.9695 74.4888 26.5395 68.4188C26.3795 65.9888 28.0295 63.8188 30.3895 63.3288C39.5895 61.3888 49.9395 59.6988 60.9495 58.3788C73.7195 56.8588 85.7595 56.0488 96.2495 55.8988C98.6295 55.8688 100.69 57.5788 101.11 59.9388C102.11 65.6688 102.74 71.6488 102.92 77.8188" fill="white"/>
<path d="M102.94 77.7788C102.95 78.4788 102.98 79.1888 102.98 79.8888C103.17 96.1888 102.19 110.269 100.08 121.869C99.2495 126.459 98.2395 130.649 97.0495 134.439C96.3595 136.679 94.5495 138.389 92.3195 139.049C86.8995 140.659 80.5095 141.969 73.5995 142.789C66.6895 143.609 60.0195 143.839 54.3295 143.539C51.9895 143.409 49.8295 142.159 48.6295 140.139C46.6395 136.769 44.7095 132.959 42.8395 128.749C37.8995 117.619 33.4095 103.629 29.3695 87.0988C27.8895 80.7588 26.9695 74.4888 26.5395 68.4188C26.3795 65.9888 28.0295 63.8188 30.3895 63.3288C39.5895 61.3888 49.9395 59.6988 60.9495 58.3788C73.7195 56.8588 85.7595 56.0488 96.2495 55.8988C98.6295 55.8688 100.69 57.5788 101.11 59.9388C102.11 65.6688 102.74 71.6488 102.92 77.8188" stroke="black" stroke-width="2" stroke-miterlimit="10"/>
<path d="M101.09 57.998C92.4796 61.428 79.2396 64.548 64.1996 66.338C49.1696 68.128 35.4096 68.218 26.2296 66.878" stroke="black" stroke-width="2" stroke-miterlimit="10"/>
<path d="M30.3496 92.5996L22.7396 93.5096C10.2496 94.9996 5.97959 99.5196 8.37959 107.98C10.7796 116.43 21.1096 119.22 30.6596 118.08L37.4496 117.27" stroke="black" stroke-width="2" stroke-miterlimit="10"/>
<path d="M51.0196 117.81C79.1496 91.8497 83.4096 84.3497 87.6496 62.9597C88.2796 59.7797 88.8896 56.4697 88.9296 53.2197C88.9596 50.7197 88.0496 47.0997 84.8496 47.4897C82.8196 47.7397 82.0596 45.0397 83.8396 43.7597C94.6496 36.0397 96.3496 56.0897 96.4096 57.3497C96.5196 59.7297 96.4696 76.4997 96.9896 85.3297C97.0496 86.3397 97.0696 87.3497 97.0596 88.3697C97.1996 93.8997 95.0896 108.96 92.0496 118.75C91.3796 121.78 89.8596 124.35 88.9496 126.86C88.3996 128.35 87.0596 129.48 85.3996 129.93C84.5196 130.17 83.5996 130.4 82.6596 130.61C78.7996 131.94 73.8496 132.83 69.1196 132.71C64.9396 133.09 60.9996 133.19 57.5196 133.04C55.7996 132.97 54.3596 132.07 53.3796 130.84C51.6796 128.72 51.2096 128.77 49.8796 125.95C49.3096 124.01 48.4096 120.23 51.0296 117.81H51.0196Z" fill="#EBD1B0"/>
<path d="M101.089 57.998C92.4794 61.428 79.2394 64.548 64.1994 66.338C49.1694 68.128 35.4094 68.218 26.2294 66.878" stroke="black" stroke-width="2" stroke-miterlimit="10"/>
<path d="M112.875 149.876C112.875 149.876 109.622 148.407 107.391 145.273" stroke="black" stroke-width="1.5" stroke-linecap="round"/>
<path d="M99.8239 143.384C99.8239 143.384 98.1604 147.843 94.3086 151.031" stroke="black" stroke-width="1.5" stroke-linecap="round"/>
<path d="M114.139 5.5235C113.339 8.50849 108.128 9.70166 107.907 9.74936C107.848 9.76236 107.787 9.761 107.729 9.74541C107.671 9.72983 107.617 9.70049 107.573 9.66004C107.406 9.50818 103.489 5.86907 104.289 2.88408C104.477 2.18335 104.945 1.58838 105.589 1.22969C106.233 0.871 107 0.777891 107.724 0.970789C108.632 1.21411 109.325 1.80582 109.649 2.57868C110.316 2.07141 111.213 1.90578 112.121 2.1491C112.844 2.34358 113.462 2.80808 113.84 3.44068C114.219 4.07328 114.326 4.82234 114.139 5.5235Z" fill="#C11718"/>
<path d="M80.7969 24.058C82.7548 28.0663 78.2107 34.3044 78.0151 34.5659C77.9638 34.6353 77.8961 34.6917 77.818 34.7298C77.7399 34.768 77.6538 34.7868 77.5675 34.7845C77.241 34.778 69.5274 34.5272 67.5696 30.5189C67.1109 29.5772 67.0562 28.4862 67.4175 27.4854C67.7787 26.4846 68.5264 25.6556 69.4966 25.1804C70.716 24.5848 72.032 24.5718 73.1173 25.1062C73.363 23.9217 74.1823 22.8917 75.4017 22.2961C76.3728 21.823 77.4863 21.7429 78.4977 22.0732C79.5092 22.4035 80.3361 23.1173 80.7969 24.058Z" fill="#C11718"/>
<path d="M132.213 39.0565C130.645 40.6387 126.956 39.5216 126.801 39.4724C126.759 39.4597 126.722 39.437 126.691 39.4064C126.66 39.3759 126.637 39.3384 126.624 39.2973C126.573 39.1423 125.423 35.464 126.991 33.8818C127.36 33.5107 127.866 33.3056 128.397 33.3114C128.928 33.3172 129.442 33.5334 129.826 33.9128C130.307 34.3898 130.529 35.0082 130.456 35.6078C131.055 35.5289 131.675 35.7458 132.156 36.2229C132.539 36.603 132.76 37.1149 132.771 37.6461C132.781 38.1773 132.58 38.6846 132.213 39.0565Z" fill="#C11718"/>
<path d="M129.799 11.7653C128.997 13.0471 126.388 12.8588 126.278 12.8495C126.249 12.8472 126.22 12.8378 126.195 12.8222C126.17 12.8066 126.15 12.7852 126.135 12.7599C126.078 12.6649 124.767 10.4015 125.569 9.11969C125.757 8.81891 126.061 8.60756 126.414 8.532C126.767 8.45644 127.139 8.52285 127.45 8.71665C127.84 8.96054 128.079 9.33669 128.12 9.74466C128.505 9.60291 128.948 9.65384 129.338 9.89774C129.648 10.0922 129.871 10.3981 129.957 10.7482C130.044 11.0983 129.987 11.4641 129.799 11.7653Z" fill="#C11718"/>
</svg>
