<svg width="50" height="35" viewBox="0 0 50 35" fill="none" xmlns="http://www.w3.org/2000/svg">
<rect x="0.25" y="0.25" width="49.5" height="34.5" rx="4.75" stroke="#D5D5D5" stroke-width="0.5"/>
<path d="M27.3175 28.1952C33.1638 28.2232 38.5 23.4273 38.5 17.5929C38.5 11.2127 33.1638 6.80257 27.3175 6.80469H22.2861C16.3697 6.80257 11.5 11.214 11.5 17.5929C11.5 23.4286 16.3697 28.2232 22.2861 28.1952H27.3175Z" fill="#0079BE"/>
<path d="M22.31 7.68652C16.9038 7.68822 12.523 12.0703 12.5217 17.4787C12.523 22.8861 16.9038 27.2678 22.31 27.2695C27.7175 27.2678 32.0992 22.8861 32.0999 17.4787C32.0991 12.0703 27.7175 7.68822 22.31 7.68652ZM16.1055 17.4787C16.1106 14.8358 17.7611 12.5822 20.0886 11.6866V23.2693C17.7611 22.3743 16.1105 20.1219 16.1055 17.4787ZM24.5305 23.2719V11.6863C26.8589 12.5796 28.512 14.8346 28.5162 17.4787C28.512 20.1236 26.8589 22.3768 24.5305 23.2719Z" fill="white"/>
</svg>
