<svg width="106" height="200" viewBox="0 0 106 200" fill="none" xmlns="http://www.w3.org/2000/svg">
<mask id="mask0_1574_7856" style="mask-type:alpha" maskUnits="userSpaceOnUse" x="0" y="0" width="106" height="200">
<path d="M105.016 0H0V199.805H105.016V0Z" fill="#D9D9D9"/>
</mask>
<g mask="url(#mask0_1574_7856)">
<path opacity="0.2" d="M29.9101 164.4C20.6798 163.668 10.6256 162.146 0.00543976 159.881C-34.7152 152.496 -58.9236 140.87 -66.4211 127.992C-68.8345 123.82 -69.3533 119.765 -68.0084 115.615C-57.3252 82.0877 -39.2773 41.1049 -29.4555 33.5244C-26.7645 31.443 -15.3201 28.7167 3.92653 30.2423C11.0836 30.8087 18.8404 31.9633 26.9754 33.6674C58.3181 40.3549 76.0404 51.8653 78.5603 56.537L78.5614 56.5457C84.6093 67.7302 84.1293 112.278 80.2081 147.142C78.7079 160.514 60.3742 166.808 29.9139 164.395L29.9101 164.4ZM-15.7103 52.5894C-16.4964 56.1837 -11.8345 61.9983 3.64774 67.569C15.9493 71.9671 27.558 74.6747 38.0883 75.5808C50.443 76.644 56.7964 74.8441 57.0491 74.7773L56.8614 73.2006C55.9021 73.1699 54.9673 73.0876 54.082 73.0123C40.6586 71.8569 31.7223 66.2083 23.0924 60.7116C17.0484 56.8682 10.7813 52.9024 3.01637 50.4405C0.0315552 49.491 -2.80803 48.8903 -5.34779 48.6721C-11.183 48.1707 -15.059 49.6529 -15.7054 52.5932L-15.7103 52.5894ZM45.6225 48.5146C33.2975 44.1062 21.7046 41.3833 11.1612 40.4789C-1.15325 39.4195 -7.4658 41.2275 -7.76747 41.327L-7.55416 42.8961C-6.61718 42.9251 -5.69328 42.9912 -4.80804 43.0664C8.61974 44.2213 17.5768 49.8938 26.2018 55.3867C32.231 59.2187 38.4736 63.2008 46.2375 65.654C49.2446 66.6052 52.0515 67.1923 54.6359 67.4138C60.4575 67.9124 64.3471 66.4329 64.9946 63.5013C65.7764 59.9076 61.108 54.0761 45.6219 48.5103L45.6225 48.5146ZM71.0583 82.3703L70.4697 82.5454C55.6725 86.799 36.9066 86.5396 15.9975 81.6145C-4.78476 76.7487 -22.0283 68.6174 -33.877 58.0941L-37.1388 61.7716C-24.6876 72.8341 -6.69772 81.3454 14.869 86.4006C22.4432 88.1836 29.8259 89.3892 36.8011 89.9871C49.8533 91.1092 61.6469 90.1914 71.8495 87.2619L72.4632 87.0749L71.0578 82.366L71.0583 82.3703Z" fill="black" fill-opacity="0.12"/>
<path opacity="0.2" d="M-76.633 124.246C-75.4183 124.161 -74.282 124.085 -73.235 123.968C-72.7736 126.143 -71.9241 128.309 -70.6788 130.456C-62.4788 144.533 -37.0894 157.01 -1.01814 164.691C9.80669 167.001 20.0809 168.549 29.5213 169.299C57.4528 171.51 76.1807 166.391 82.6894 155.121C90.0714 159.514 100.047 165.55 97.6536 178.287C95.3339 190.656 62.7608 197.908 23.4954 194.803C13.8318 194.036 3.73886 192.558 -6.50021 190.405C-60.6216 178.84 -99.4103 152.059 -96.6576 136.74C-94.7732 126.309 -86.4731 124.902 -76.6286 124.245L-76.633 124.246Z" fill="black" fill-opacity="0.12"/>
</g>
</svg>
