<svg width="15" height="15" viewBox="0 0 15 15" fill="none" xmlns="http://www.w3.org/2000/svg">
<path fill-rule="evenodd" clip-rule="evenodd" d="M1.23774 9.37862L1.23877 9.37501C1.22924 9.15203 1.3091 8.92591 1.47823 8.75586C1.47823 8.75586 7.13807 3.0687 9.51513 0.68078C10.4029 -0.211598 11.8342 -0.228902 12.7423 0.642053L14.1344 1.97691C14.5864 2.41033 14.8455 3.00937 14.8529 3.63807C14.8611 4.2676 14.6159 4.8724 14.1744 5.31736C11.9321 7.57392 6.93507 12.6031 6.13718 13.4062C6.13013 13.5133 6.10036 13.5944 5.96049 13.635L5.79636 13.6793C5.70996 13.7198 5.61795 13.7442 5.52476 13.7525L0.99076 14.9751C0.719063 15.0545 0.427182 14.9783 0.226902 14.7756C0.0273989 14.5737 -0.0479003 14.2776 0.0305038 14.0026L1.23774 9.37862ZM5.43501 11.7844L3.11174 9.44107C4.26235 8.28506 7.24282 5.29058 9.36944 3.15374L11.6864 5.49233L5.43501 11.7844ZM12.8663 4.30468L13.0194 4.15059C13.1494 4.0204 13.2205 3.84324 13.2189 3.65867C13.2164 3.4741 13.1404 3.29776 13.008 3.17087L11.6159 1.83683C11.3494 1.5814 10.9293 1.58634 10.6693 1.84755C10.6305 1.88662 10.5907 1.92658 10.5501 1.96738L12.8663 4.30468ZM1.91065 13.0725L2.49131 11.0339L3.92975 12.4849L1.91065 13.0725Z" fill="#D5D5D5"/>
</svg>
