<svg width="35" height="32" viewBox="0 0 35 32" fill="none" xmlns="http://www.w3.org/2000/svg">
<path d="M34.5688 5.38282C34.3477 5.08232 33.9911 4.90218 33.6082 4.90218L29.9994 4.92674C29.5795 4.93002 29.2393 5.2731 29.241 5.69233C29.2435 6.10911 29.5853 6.4481 30.0043 6.4481L33.1645 6.36131L29.0676 19.1381H11.1041C11.0901 19.1381 11.0778 19.1275 11.0753 19.1144L7.99485 2.28197C7.88721 1.69488 7.39585 1.24207 6.79767 1.18148L1.61863 0.671358H1.6063C1.17821 0.646794 0.825709 0.93993 0.784626 1.35261C0.74272 1.76939 1.04921 2.14277 1.46826 2.18535L6.51912 2.68319L9.57658 19.3887C9.70969 20.1092 10.3292 20.6365 11.0589 20.6586L9.58398 23.3255C9.39417 23.6678 9.39992 24.0739 9.59877 24.4105C9.79762 24.7478 10.1518 24.9484 10.5437 24.9484H11.2019C10.4886 25.6051 10.0704 26.5328 10.0704 27.5285C10.0704 29.4683 11.6538 31.0461 13.6003 31.0461C15.5469 31.0461 17.1303 29.4683 17.1303 27.5285C17.1303 26.5328 16.712 25.6051 15.9988 24.9484H23.306C22.5928 25.6051 22.1746 26.5328 22.1746 27.5285C22.1746 29.4683 23.7579 31.0461 25.7045 31.0461C27.651 31.0461 29.2344 29.4683 29.2344 27.5285C29.2344 26.5328 28.8162 25.6051 28.103 24.9484H29.6527C30.0733 24.9484 30.416 24.607 30.416 24.1877C30.416 23.7685 30.0733 23.4271 29.6527 23.4271H11.2684L12.7984 20.6586H29.1859C29.7792 20.6586 30.3018 20.2795 30.4858 19.7129L34.743 6.43991C34.8588 6.08045 34.7939 5.68578 34.5696 5.382L34.5688 5.38282ZM13.5995 29.5256C12.4944 29.5256 11.5954 28.6298 11.5954 27.5285C11.5954 26.4272 12.4944 25.5314 13.5995 25.5314C14.7047 25.5314 15.6036 26.4272 15.6036 27.5285C15.6036 28.6298 14.7047 29.5256 13.5995 29.5256ZM27.7077 27.5285C27.7077 28.6298 26.8088 29.5256 25.7037 29.5256C24.5985 29.5256 23.6996 28.6298 23.6996 27.5285C23.6996 26.4272 24.5985 25.5314 25.7037 25.5314C26.8088 25.5314 27.7077 26.4272 27.7077 27.5285Z" fill="black"/>
</svg>
