<svg width="98" height="78" viewBox="0 0 98 78" fill="none" xmlns="http://www.w3.org/2000/svg">
<g clip-path="url(#clip0_705_1176)">
<path d="M35.2501 60.875C39.307 61.3728 43.7923 61.5951 48.5923 61.5418C64.2689 61.3817 75.8004 58.863 80.1807 53.8579C81.5884 52.231 82.1742 50.4975 81.9556 48.5505C80.2682 32.833 76.0539 13.1771 72.4605 8.96324C71.4812 7.80754 66.7599 5.58503 58.2965 4.5449C55.1489 4.15374 51.6866 3.97594 48.0144 4.00261C33.8592 4.16263 25.1771 7.65641 23.6821 9.48775C20.0798 13.8794 16.3815 33.5442 15.0263 49.2528C14.5017 55.2803 21.8555 59.2303 35.2501 60.875Z" stroke="black" stroke-linecap="round" stroke-linejoin="round"/>
<path d="M38.7415 54.4842C41.8911 54.8632 45.3777 55.0307 49.0951 54.9954C61.2674 54.872 70.1926 52.6243 73.5906 48.8251C74.6818 47.5911 75.1343 46.2777 74.9657 44.7969C73.6616 32.8706 70.3789 17.965 67.5931 14.7653C66.8301 13.8927 63.166 12.2091 56.6008 11.4158C54.161 11.1249 51.4728 10.9838 48.6249 11.0015C37.6414 11.1161 30.8987 13.7693 29.7365 15.162C26.9418 18.4939 24.0762 33.4083 23.0204 45.3257C22.6123 49.8917 28.3436 53.2325 38.7504 54.4842H38.7415Z" fill="#FEDB52"/>
<path d="M85.3192 50.5659C84.7961 50.4266 82.6059 50.148 82.1537 50C81.7547 50.8968 81.1735 52.744 80.4375 53.5625C75.5873 58.9173 65.0494 61.2494 48.5302 61.4235C43.5736 61.4758 38.9273 61.2494 34.7155 60.7531C22.2574 59.2729 16.4375 56.1875 14.4375 49.6875C10.802 50.9413 4.08902 52.9865 4.00035 58.6895C3.92055 64.2272 17.5757 70.1914 35.0879 72.2811C39.3973 72.7948 43.9637 73.0386 48.6455 72.995C73.4375 72.7251 92.8473 64.5493 92.998 57.7056C93.0956 53.0387 89.5754 51.7153 85.3192 50.5659Z" stroke="black" stroke-linecap="round" stroke-linejoin="round"/>
<path d="M34.9597 25.3804L40.0674 30.4881" stroke="black" stroke-width="1.5" stroke-miterlimit="10" stroke-linecap="round"/>
<path d="M40.3509 25.3804L35.2432 30.4881" stroke="black" stroke-width="1.5" stroke-miterlimit="10" stroke-linecap="round"/>
<path d="M56.7803 25.3804L61.888 30.4881" stroke="black" stroke-width="1.5" stroke-miterlimit="10" stroke-linecap="round"/>
<path d="M62.1712 25.3804L57.0635 30.4881" stroke="black" stroke-width="1.5" stroke-miterlimit="10" stroke-linecap="round"/>
<path d="M53 32.1594C53 32.1594 53 32.144 53 32.1362C53 32.1285 53 32.113 53 32.1053C53 31.9737 52.9839 31.8498 52.9517 31.7337C52.9276 31.6486 52.9035 31.5635 52.8713 31.4861C52.5657 30.6269 51.7292 30 50.7399 30H46.2601C45.0214 30 44 30.9752 44 32.1749C44 33.096 44.6032 33.8777 45.4477 34.195C46.252 34.6981 47.3378 35 48.5362 35C49.8231 35 50.9812 34.644 51.7936 34.0789C52.429 33.7461 52.8794 33.1424 52.9678 32.4226C52.9678 32.3916 52.9678 32.3684 52.9759 32.3375C52.9759 32.2833 52.992 32.2291 52.992 32.1672L53 32.1594Z" fill="black"/>
</g>
<defs>
<clipPath id="clip0_705_1176">
<rect width="98" height="78" fill="white"/>
</clipPath>
</defs>
</svg>
