<svg width="21" height="16" viewBox="0 0 21 16" fill="none" xmlns="http://www.w3.org/2000/svg">
<path d="M19.1231 3.06023C18.4585 2.41023 17.5538 2.05023 16.5754 2.05023C16.4646 2.05023 16.3631 2.05023 16.2523 2.07023C16.2523 1.83023 16.2523 1.56023 16.2523 1.30023C16.2523 0.950234 16.1231 0.620234 15.9015 0.370234C15.6708 0.120234 15.3662 -0.00976562 15.0431 -0.00976562H3.50462C3.18154 -0.00976562 2.87692 0.130234 2.64615 0.380234C2.41539 0.630234 2.29539 0.960234 2.29539 1.31023C2.32308 4.94023 2.49846 7.46023 2.83077 8.78023C3.15385 10.0702 3.92 11.6202 4.75077 12.6802H0.947693V13.1902C0.947693 14.4202 1.87077 15.4202 3.00615 15.4202H15.5508C16.6862 15.4202 17.6092 14.4102 17.6092 13.1702V12.6602H13.7415C14.3969 11.8702 14.9046 11.0302 15.3108 10.0702C15.5046 10.0502 15.8092 10.0202 16.2062 9.98023H16.28C16.4923 9.95023 16.5938 9.94023 16.6308 9.94023C17.7662 9.80023 18.5877 9.39023 19.2062 8.66023C19.8523 7.90023 20.2308 6.87023 20.2308 5.85023C20.2308 4.76023 19.8338 3.78023 19.1231 3.08023V3.06023ZM2 13.6702H16.5662C16.3908 14.0902 15.9938 14.3802 15.5508 14.3802H3.00615C2.56308 14.3802 2.17539 14.1002 2 13.6702ZM14.9415 9.07023C14.7108 9.12023 14.6092 9.19023 14.5446 9.38023C14.0646 10.6102 13.4369 11.5902 12.5046 12.5602C12.4769 12.5902 12.44 12.6202 12.4123 12.6502H6.06154C6.06154 12.6502 6.04308 12.6302 6.03385 12.6202C5.24 11.9102 4.16923 10.1702 3.75385 8.50023C3.44923 7.28023 3.27385 4.79023 3.25539 1.29023C3.25539 1.21023 3.28308 1.14023 3.32923 1.09023C3.37539 1.04023 3.44 1.01023 3.51385 1.01023H15.0523C15.1262 1.01023 15.1908 1.04023 15.2369 1.09023C15.2831 1.14023 15.3108 1.21023 15.3108 1.29023C15.3108 1.83023 15.3108 2.48023 15.3108 2.63023C15.3108 2.79023 15.3846 2.95023 15.4954 3.05023C15.6892 3.22023 15.92 3.17023 16.0215 3.15023C16.2062 3.11023 16.3908 3.09023 16.5846 3.09023C17.3323 3.09023 18.0062 3.35023 18.4954 3.83023C19.0123 4.33023 19.2892 5.05023 19.2892 5.84023C19.2892 6.63023 19.0031 7.38023 18.5138 7.96023C18.0523 8.50023 17.4246 8.80023 16.52 8.91023C16.4923 8.91023 16.3354 8.93023 16.16 8.94023H16.1138C15.4492 9.01023 15.1169 9.04023 14.9415 9.08023V9.07023Z" fill="black"/>
<path d="M17.8677 7.72091C18.4493 7.27091 18.7262 6.64091 18.7262 5.80091C18.7262 4.67091 17.9416 3.80091 16.8616 3.73091C16.5754 3.71091 16.1693 3.76091 15.8 3.86091C15.5693 3.92091 15.4031 4.14091 15.3847 4.39091C15.3385 5.17091 15.1539 6.69091 14.96 7.70091C14.9231 7.87091 14.96 8.04091 15.0616 8.17091C15.1631 8.30091 15.3108 8.38091 15.4677 8.38091H15.4862L16.8247 8.17091C17.2123 8.11091 17.5723 7.96091 17.8677 7.72091ZM15.9662 7.32091C16.04 6.70091 16.2247 5.32091 16.2893 4.81091C16.4831 4.78091 16.677 4.76091 16.76 4.76091H16.8062C17.3877 4.80091 17.7754 5.22091 17.7754 5.81091C17.7754 6.49091 17.517 6.87091 16.8616 7.15091C16.677 7.23091 16.3447 7.29091 15.9662 7.33091V7.32091Z" fill="black"/>
</svg>
