<svg width="78" height="17" viewBox="0 0 78 17" fill="none" xmlns="http://www.w3.org/2000/svg">
<g clip-path="url(#clip0_4127_28124)">
<path d="M12.9303 8.92195C12.5037 7.14866 11.726 4.94619 11.2062 4.48664C11.024 4.32621 10.3709 4.14844 9.37554 4.14844C8.9801 4.14844 8.56243 4.1788 8.13142 4.23081C6.47407 4.44325 5.42094 4.96783 5.22995 5.25404C4.84341 5.83505 4.68343 8.10686 4.74557 9.97112C4.77225 10.7428 5.75423 11.185 7.44716 11.185C7.93599 11.185 8.47806 11.1461 9.05571 11.0723C10.9486 10.8295 12.3038 10.3092 12.7704 9.65025C12.9348 9.41617 12.9881 9.17336 12.9259 8.91752L12.9304 8.92183L12.9303 8.92195ZM10.433 5.27137C10.4597 5.45787 10.1886 5.73522 9.34886 5.95639C8.68238 6.12986 8.06026 6.21653 7.5004 6.21653C6.84727 6.21653 6.51842 6.09519 6.50953 6.09077L6.52732 6.0127H6.67395C7.3849 6.0127 7.87817 5.76129 8.35798 5.51848C8.69128 5.34944 9.04224 5.17167 9.45991 5.08057C9.61989 5.0459 9.77097 5.02856 9.90871 5.02856C10.2198 5.02856 10.4152 5.11966 10.4374 5.27567L10.433 5.27137ZM7.22936 4.79018C7.89584 4.61671 8.51796 4.53004 9.07782 4.53004C9.73095 4.53004 10.0554 4.65138 10.0687 4.65581L10.0509 4.73387H9.90427C9.19332 4.73387 8.69572 4.98541 8.22024 5.22809C7.88694 5.39714 7.54043 5.57491 7.12275 5.666C6.95833 5.70067 6.81169 5.71801 6.67395 5.71801C6.36734 5.71801 6.16746 5.62691 6.14522 5.4709C6.11854 5.2844 6.39402 5.00262 7.22936 4.78588V4.79018ZM11.5883 5.97385C10.8284 6.47679 9.76208 6.82361 8.50462 6.98404C8.06471 7.04047 7.63369 7.07072 7.23381 7.07072C6.48284 7.07072 5.82082 6.97532 5.26096 6.78463L5.22983 6.7716V6.74124C5.24762 6.6285 5.26096 6.53752 5.2743 6.45073L5.28319 6.39873L5.33211 6.41606C6.12298 6.71087 7.23826 6.78894 8.46471 6.6285C9.70439 6.46807 10.7308 6.12555 11.4284 5.63133L11.4729 5.60097L11.4952 5.64867C11.5263 5.7094 11.5485 5.77444 11.5795 5.84378L11.624 5.95221L11.5929 5.96954L11.5884 5.97385H11.5883Z" fill="#C11718"/>
<path d="M14.352 10.1414C14.3921 9.82493 14.0766 9.61249 13.7877 9.48242C13.459 10.5966 11.615 11.5548 9.16666 11.867C8.64682 11.932 8.14021 11.9667 7.6604 11.9667C5.8831 11.9667 4.54559 11.5071 4.06565 10.7311C3.8213 10.9305 3.57682 11.2167 3.70135 11.5115C4.01241 12.2443 5.6742 12.7733 7.6604 12.7733C8.18468 12.7733 8.72675 12.7386 9.27339 12.6691C12.1572 12.2964 14.2278 11.0607 14.3522 10.1415L14.352 10.1414Z" fill="#C11718"/>
<path d="M8.70897 0C3.90124 0 0 3.80229 0 8.49343C0 13.1846 3.89679 16.9913 8.70897 16.9913C13.5212 16.9913 17.4181 13.1846 17.4181 8.49343C17.4181 3.80229 13.5212 0 8.70897 0ZM9.38001 13.4577C8.79792 13.5314 8.21582 13.5705 7.65151 13.5705C5.13214 13.5705 3.22587 12.8378 2.91036 11.7495C2.65711 10.878 3.39474 10.2277 3.8701 9.91117C3.81674 7.8518 3.99895 5.47156 4.53658 4.77781C4.77203 4.47428 5.80738 3.82392 8.04238 3.53784C8.5889 3.4685 9.10885 3.43383 9.58422 3.43383C10.7795 3.43383 11.4993 3.6593 11.7526 3.85441C12.4547 4.38772 13.2678 6.64219 13.7611 8.64525C14.3031 8.82733 15.1874 9.26954 15.1741 10.18C15.1518 11.6065 12.6102 13.0502 9.37989 13.4663V13.4577H9.38001Z" fill="#C11718"/>
<path d="M21.2406 8.95951C21.2778 9.94102 22.0603 10.3591 22.9544 10.3591C23.6065 10.3591 24.0722 10.2682 24.4913 10.1137L24.6962 11.0588C24.2212 11.2496 23.5599 11.3951 22.7589 11.3951C20.9518 11.3951 19.8993 10.3137 19.8993 8.65956C19.8993 7.15993 20.8307 5.74219 22.6192 5.74219C24.4076 5.74219 25.0129 7.18719 25.0129 8.37779C25.0129 8.63231 24.985 8.83219 24.9663 8.9594H21.2406V8.95951ZM23.6809 8.00527C23.6902 7.50543 23.4667 6.68747 22.526 6.68747C21.6598 6.68747 21.2965 7.45091 21.2406 8.00527H23.6809Z" fill="black"/>
<path d="M25.5065 10.0228C25.8232 10.2137 26.4286 10.4136 26.9316 10.4136C27.5463 10.4136 27.8165 10.1682 27.8165 9.81382C27.8165 9.45947 27.5929 9.25947 26.9037 9.02312C25.8232 8.65956 25.3668 8.07795 25.376 7.44171C25.376 6.48746 26.1864 5.74219 27.4718 5.74219C28.0865 5.74219 28.6267 5.89665 28.9435 6.0694L28.6733 7.04181C28.4405 6.90553 27.9934 6.72369 27.4997 6.72369C27.0061 6.72369 26.7267 6.96004 26.7267 7.28713C26.7267 7.61422 26.9874 7.79606 27.6954 8.04149C28.7014 8.39596 29.167 8.90488 29.1764 9.70467C29.1764 10.6862 28.3846 11.3951 26.9223 11.3951C26.2517 11.3951 25.6462 11.2406 25.2363 11.0134L25.5065 10.0228Z" fill="black"/>
<path d="M29.7258 5.8603H30.9646L31.0299 6.69644H31.0578C31.4677 6.08757 32.1196 5.74219 32.9579 5.74219C34.234 5.74219 35.2958 6.80558 35.2958 8.50499C35.2958 10.4681 34.029 11.4133 32.7623 11.4133C32.0637 11.4133 31.4862 11.1224 31.1975 10.6862H31.1788V12.7674H29.7818V7.66885M31.1696 9.01391C31.1696 9.1502 31.1788 9.26843 31.2162 9.39563C31.3559 9.94999 31.8588 10.3499 32.4456 10.3499C33.3398 10.3499 33.8614 9.63186 33.8614 8.5595C33.8614 7.60525 33.3864 6.82364 32.4829 6.82364C31.9054 6.82364 31.3651 7.23262 31.2254 7.84148C31.1882 7.95051 31.1696 8.07783 31.1696 8.18686V9.023V9.01391Z" fill="black"/>
<path d="M35.8826 7.61514C35.8826 6.87895 35.8733 6.36094 35.836 5.87019H37.0562L37.1027 6.90621H37.1493C37.4287 6.14276 38.0715 5.75195 38.6675 5.75195C38.8073 5.75195 38.8818 5.76104 39.0029 5.7883V7.07884C38.8911 7.06067 38.7607 7.03341 38.5931 7.03341C37.9224 7.03341 37.466 7.46056 37.3356 8.06943C37.3077 8.18754 37.289 8.33304 37.289 8.49658V11.3049H35.8826V7.61502V7.61514Z" fill="black"/>
<path d="M40.2603 8.95951C40.2976 9.94102 41.0799 10.3591 41.9648 10.3591C42.6168 10.3591 43.0826 10.2682 43.511 10.1137L43.7159 11.0588C43.2316 11.2496 42.5795 11.3951 41.7785 11.3951C39.9716 11.3951 38.9191 10.3137 38.9191 8.65956C38.9191 7.15993 39.8505 5.74219 41.6388 5.74219C43.4271 5.74219 44.0326 7.18719 44.0326 8.37779C44.0326 8.63231 44.014 8.83219 43.986 8.9594H40.2603V8.95951ZM42.7006 8.00527C42.71 7.50543 42.4864 6.68747 41.5457 6.68747C40.6794 6.68747 40.3162 7.45091 40.2603 8.00527H42.7006Z" fill="black"/>
<path d="M44.5263 10.0228C44.8429 10.2137 45.4484 10.4136 45.9513 10.4136C46.5661 10.4136 46.8362 10.1682 46.8362 9.81382C46.8362 9.45947 46.6127 9.25947 45.9234 9.02312C44.8429 8.65956 44.3772 8.07795 44.3959 7.44171C44.3959 6.48746 45.2063 5.74219 46.4915 5.74219C47.1064 5.74219 47.6466 5.89665 47.9632 6.0694L47.6931 7.04181C47.4509 6.90553 47.0132 6.72369 46.5196 6.72369C46.0259 6.72369 45.7465 6.96004 45.7465 7.28713C45.7465 7.61422 46.0073 7.79606 46.7151 8.04149C47.7211 8.39596 48.1868 8.90488 48.1961 9.70467C48.1961 10.6862 47.4137 11.3951 45.9328 11.3951C45.2621 11.3951 44.6567 11.2406 44.2469 11.0134L44.5169 10.0228H44.5263Z" fill="black"/>
<path d="M48.7178 10.0228C49.0344 10.2137 49.6398 10.4136 50.1429 10.4136C50.7576 10.4136 51.037 10.1682 51.037 9.81382C51.037 9.45947 50.8041 9.25947 50.1242 9.02312C49.0438 8.65956 48.5873 8.07795 48.5967 7.44171C48.5967 6.48746 49.407 5.74219 50.6923 5.74219C51.307 5.74219 51.8473 5.89665 52.164 6.0694L51.8938 7.04181C51.6517 6.90553 51.2139 6.72369 50.7203 6.72369C50.2266 6.72369 49.9472 6.96004 49.9472 7.28713C49.9472 7.61422 50.208 7.79606 50.9159 8.04149C51.9219 8.39596 52.3875 8.90488 52.3969 9.70467C52.3969 10.6862 51.6144 11.3951 50.1429 11.3951C49.4722 11.3951 48.8667 11.2406 48.457 11.0134L48.727 10.0228H48.7178Z" fill="black"/>
<path d="M58.2555 8.52455C58.2555 10.5149 56.8212 11.4056 55.4053 11.4056C53.8313 11.4056 52.6204 10.3422 52.6204 8.60632C52.6204 6.87046 53.8126 5.73438 55.4985 5.73438C57.1844 5.73438 58.2555 6.87046 58.2555 8.51546V8.52455ZM54.0549 8.56998C54.0549 9.61509 54.5857 10.4149 55.4426 10.4149C56.2436 10.4149 56.8025 9.64234 56.8025 8.55181C56.8025 7.70659 56.4113 6.73417 55.4519 6.73417C54.4925 6.73417 54.0549 7.67025 54.0549 8.56998Z" fill="black"/>
<path d="M64.1514 11.1147C63.8534 11.251 63.276 11.3965 62.5774 11.3965C60.8449 11.3965 59.7179 10.3149 59.7179 8.63358C59.7179 6.95223 60.8542 5.73438 62.8102 5.73438C63.3225 5.73438 63.8534 5.8434 64.1701 5.9889L63.9186 7.01583C63.6951 6.91589 63.3597 6.80686 62.8568 6.80686C61.7856 6.80686 61.1429 7.57939 61.1523 8.56998C61.1523 9.67881 61.8974 10.3149 62.8568 10.3149C63.3504 10.3149 63.6857 10.215 63.9652 10.106L64.1607 11.1238L64.1514 11.1147Z" fill="black"/>
<path d="M64.6265 4.31641H66.0423V11.2872H64.6265V4.31641Z" fill="black"/>
<path d="M71.6774 9.66039C71.6774 10.3056 71.696 10.8419 71.7239 11.2872H70.4945L70.4293 10.4602H70.4106C70.1685 10.851 69.6189 11.4053 68.6316 11.4053C67.6443 11.4053 66.6942 10.8146 66.6942 9.04231V5.86133H68.1008V8.81505C68.1008 9.71478 68.3987 10.2964 69.1346 10.2964C69.6935 10.2964 70.0567 9.90558 70.2057 9.5602C70.2523 9.44209 70.2803 9.2966 70.2803 9.14214V5.87029H71.6868" fill="black"/>
<path d="M72.4225 11.2872C72.4411 10.9146 72.4691 10.3148 72.4691 9.76035V4.31641H73.8755V6.61583H73.8942C74.2388 6.08873 74.8443 5.74335 75.6732 5.74335C77.0331 5.74335 78.0018 6.84309 77.9924 8.4881C77.9924 10.4331 76.7257 11.4055 75.4682 11.4055C74.7511 11.4055 74.1084 11.1419 73.7079 10.4694H73.6799L73.6147 11.2783H72.4225V11.2874V11.2872ZM73.8662 9.05142C73.8662 9.16045 73.8755 9.26948 73.9035 9.37863C74.0525 9.9239 74.5462 10.3329 75.1516 10.3329C76.0271 10.3329 76.5673 9.64212 76.5673 8.55158C76.5673 7.58825 76.1016 6.81572 75.1703 6.81572C74.602 6.81572 74.0897 7.21561 73.9315 7.81539C73.9036 7.91534 73.8849 8.04266 73.8849 8.16986" fill="black"/>
</g>
<defs>
<clipPath id="clip0_4127_28124">
<rect width="78" height="17" fill="white"/>
</clipPath>
</defs>
</svg>
