<svg width="64" height="63" viewBox="0 0 64 63" fill="none" xmlns="http://www.w3.org/2000/svg">
<path d="M50.214 34.8452C49.2297 38.8355 42.9148 42.5002 33.6168 43.7269C24.3111 44.9535 17.2618 43.0454 15.278 39.4488C14.271 40.2514 13.2791 41.4099 13.7712 42.629C15.1266 45.9151 23.5615 48.3759 34.0408 46.9979C44.5201 45.6198 52.0312 41.054 52.4931 37.5256C52.6597 36.2233 51.3952 35.3601 50.214 34.8452Z" fill="#CE171E"/>
<path d="M19.7379 23.8889C22.4864 24.9338 26.3707 25.3124 31.1106 24.684C35.8505 24.0631 39.5001 22.6926 41.8852 20.9738C42.0215 21.2918 42.1578 21.6174 42.2941 21.9657C39.7424 23.6921 36.0095 25.055 31.2393 25.6834C26.4616 26.3119 22.5015 25.956 19.594 24.949C19.6319 24.5855 19.6849 24.2297 19.7379 23.8889ZM26.6887 17.8618C33.4957 16.0598 36.8349 17.3621 36.8349 17.3621C32.0647 17.1349 30.0279 19.9516 26.2193 20.8072C22.2593 21.6931 21.1386 19.3383 26.6963 17.8618M34.268 21.8597C27.461 23.6618 24.1219 22.3594 24.1219 22.3594C28.8921 22.5866 30.9365 19.7699 34.7375 18.9143C38.6975 18.036 39.8181 20.3832 34.268 21.8597ZM33.2761 41.0995C42.3395 39.9032 48.2909 36.882 47.3747 32.9523C45.8604 26.4558 43.0588 18.2404 41.1129 16.4686C40.1588 15.5979 35.9641 14.6968 29.9067 15.4994C23.8493 16.2945 20.0332 18.2556 19.329 19.3383C17.8979 21.5568 17.33 30.2113 17.5496 36.882C17.6783 40.9178 24.2128 42.2958 33.2761 41.0995Z" fill="#CE171E"/>
<path d="M34.3891 49.61C22.6681 51.1547 12.5825 48.2471 11.212 43.4012C10.3261 40.2741 12.8475 37.942 14.6799 36.7229C14.4754 28.871 15.1948 20.2165 17.0574 17.7557C17.966 16.5518 21.7822 14.2576 29.5962 13.2278C37.4103 12.1981 41.6883 13.4247 42.8771 14.356C45.3076 16.2565 48.253 24.4264 50.0853 32.0587C52.1676 32.7705 55.2038 34.3606 55.1584 37.6164C55.0903 42.644 46.1026 48.0654 34.3891 49.61ZM31.9965 0C14.642 0 0.57373 14.0683 0.57373 31.4151C0.57373 48.762 14.642 62.8454 32.004 62.8454C49.366 62.8454 63.4268 48.7696 63.4268 31.4151C63.4268 14.0607 49.3509 0 31.9965 0Z" fill="#CE171E"/>
</svg>
