<svg width="115" height="114" viewBox="0 0 115 114" fill="none" xmlns="http://www.w3.org/2000/svg">
<g clip-path="url(#clip0_746_821)">
<path d="M90.8515 63.2035C89.0425 70.4392 77.4941 77.0912 60.4765 79.3015C43.459 81.5327 30.5433 78.0712 26.9252 71.5444C25.0741 73.0041 23.2651 75.0893 24.1696 77.2997C26.6518 83.2635 42.0917 87.7259 61.2548 85.2236C80.418 82.7213 94.1751 74.4429 95.0165 68.0412C95.311 65.6849 93.0181 64.121 90.8515 63.1826V63.2035Z" fill="white"/>
<path d="M59.8454 74.5473C76.4212 72.3787 87.3175 66.8945 85.6347 59.7838C82.8791 48.0022 77.7465 33.0928 74.1705 29.8815C72.4245 28.3176 64.7466 26.6702 53.661 28.109C42.5754 29.5479 35.5917 33.0928 34.3086 35.0737C31.7002 39.0982 30.6484 54.8001 31.0481 66.8945C31.2795 74.2137 43.2486 76.716 59.8244 74.5473H59.8454ZM61.6545 39.6613C49.2016 42.9351 43.0803 40.5788 43.0803 40.5788C51.8099 40.9958 55.5542 35.887 62.5169 34.3231C69.7741 32.7174 71.8145 36.9922 61.6545 39.6613ZM47.8132 32.4046C60.2661 29.1308 66.3664 31.4871 66.3664 31.4871C57.6367 31.0701 53.9135 36.1789 46.9297 37.7428C39.6936 39.3485 37.6321 35.0737 47.7922 32.4046H47.8132ZM35.0869 43.3313C40.1143 45.2289 47.2242 45.917 55.8908 44.7701C64.5573 43.6441 71.2466 41.1626 75.6009 38.0348C75.8533 38.6186 76.1057 39.2025 76.3581 39.8281C71.6883 42.9559 64.8518 45.4374 56.1222 46.5634C47.3925 47.7103 40.1353 47.0639 34.8134 45.2289C34.8975 44.5616 34.9817 43.9152 35.0658 43.3104L35.0869 43.3313Z" fill="white"/>
<path d="M57.5105 0C25.7472 0 0 25.5233 0 56.9896C0 88.4558 25.7472 114 57.5105 114C89.2738 114 115 88.4767 115 56.9896C115 25.5025 89.2528 0 57.5105 0ZM61.8859 89.9989C40.4299 92.7931 21.9819 87.5175 19.4787 78.7386C17.859 73.0668 22.4657 68.8337 25.8103 66.6234C25.4317 52.3812 26.7569 36.6793 30.1646 32.2169C31.8264 30.0274 38.8101 25.8778 53.1141 24.0011C67.4182 22.1244 75.2433 24.3556 77.4099 26.0446C81.8694 29.4853 87.2334 44.3113 90.5991 58.1573C94.4064 59.4502 99.9808 62.3278 99.8756 68.229C99.7494 77.3624 83.2998 87.1838 61.8648 89.9781L61.8859 89.9989Z" fill="white"/>
</g>
<defs>
<clipPath id="clip0_746_821">
<rect width="115" height="114" fill="white"/>
</clipPath>
</defs>
</svg>
