<svg width="51" height="51" viewBox="0 0 51 51" fill="none" xmlns="http://www.w3.org/2000/svg">
<g clip-path="url(#clip0_5518_11275)">
<path d="M40.2909 28.275C39.4886 31.512 34.3671 34.4879 26.8202 35.4767C19.2733 36.4749 13.5455 34.9263 11.9409 32.0064C11.12 32.6594 10.3178 33.5923 10.7189 34.5812C11.8197 37.2492 18.6669 39.2455 27.1654 38.1261C35.6638 37.0066 41.7648 33.3031 42.1379 30.4392C42.2686 29.3851 41.2517 28.6854 40.2909 28.2656V28.275Z" fill="#C11718"/>
<path d="M26.5404 33.3505C33.8914 32.3803 38.7237 29.9269 37.9774 26.7458C36.7553 21.475 34.4791 14.805 32.8932 13.3684C32.1189 12.6688 28.714 11.9318 23.7977 12.5755C18.8815 13.2192 15.7844 14.805 15.2153 15.6913C14.0586 17.4917 13.5921 24.5162 13.7694 29.9269C13.872 33.2012 19.18 34.3207 26.5311 33.3505H26.5404ZM27.3427 17.7436C21.8201 19.2082 19.1054 18.154 19.1054 18.154C22.9768 18.3406 24.6373 16.0551 27.7251 15.3554C30.9435 14.6371 31.8484 16.5495 27.3427 17.7436ZM21.2044 14.4972C26.727 13.0326 29.4323 14.0867 29.4323 14.0867C25.5609 13.9001 23.9097 16.1857 20.8126 16.8853C17.6035 17.6036 16.6893 15.6913 21.195 14.4972H21.2044ZM15.5605 19.3854C17.7901 20.2343 20.9432 20.5422 24.7866 20.0291C28.63 19.5254 31.5965 18.4152 33.5276 17.0159C33.6395 17.2771 33.7515 17.5383 33.8634 17.8182C31.7924 19.2175 28.7606 20.3276 24.8892 20.8314C21.0178 21.3444 17.7994 21.0553 15.4392 20.2343C15.4765 19.9358 15.5139 19.6466 15.5512 19.3761L15.5605 19.3854Z" fill="#C11718"/>
<path d="M25.5047 0C11.4183 0 0 11.4183 0 25.4953C0 39.5723 11.4183 51 25.5047 51C39.591 51 51 39.5817 51 25.4953C51 11.409 39.5817 0 25.5047 0ZM27.445 40.2627C17.9298 41.5127 9.74849 39.1525 8.63838 35.2252C7.92007 32.6878 9.96305 30.794 11.4463 29.8052C11.2784 23.4337 11.8661 16.4092 13.3774 14.4128C14.1143 13.4333 17.2115 11.5769 23.555 10.7373C29.8985 9.89775 33.3688 10.8959 34.3296 11.6515C36.3073 13.1908 38.6861 19.8235 40.1787 26.0177C41.8672 26.5961 44.3393 27.8835 44.2927 30.5235C44.2367 34.6095 36.9417 39.0033 27.4357 40.2533L27.445 40.2627Z" fill="#C11718"/>
</g>
<defs>
<clipPath id="clip0_5518_11275">
<rect width="51" height="51" fill="white"/>
</clipPath>
</defs>
</svg>
