<svg width="9" height="9" viewBox="0 0 9 9" fill="none" xmlns="http://www.w3.org/2000/svg">
<path d="M6.89466 6.38952C6.96173 6.45659 6.99941 6.54755 6.99941 6.64239C6.99941 6.73723 6.96173 6.82819 6.89466 6.89526C6.82759 6.96232 6.73662 7 6.64177 7C6.54692 7 6.45596 6.96232 6.38889 6.89526L4.5 5.00589L2.61051 6.89466C2.54345 6.96173 2.45248 6.9994 2.35763 6.9994C2.26278 6.9994 2.17182 6.96173 2.10475 6.89466C2.03768 6.8276 2 6.73664 2 6.6418C2 6.54695 2.03768 6.45599 2.10475 6.38893L3.99423 4.50015L2.10534 2.61078C2.03827 2.54371 2.0006 2.45275 2.0006 2.35791C2.0006 2.26306 2.03827 2.1721 2.10534 2.10504C2.17241 2.03797 2.26338 2.0003 2.35823 2.0003C2.45308 2.0003 2.54404 2.03797 2.61111 2.10504L4.5 3.99441L6.38948 2.10474C6.45655 2.03768 6.54752 2 6.64237 2C6.73722 2 6.82818 2.03768 6.89525 2.10474C6.96232 2.17181 7 2.26277 7 2.35761C7 2.45245 6.96232 2.54341 6.89525 2.61048L5.00577 4.50015L6.89466 6.38952Z" fill="white"/>
</svg>
