<svg width="20" height="21" viewBox="0 0 20 21" fill="none" xmlns="http://www.w3.org/2000/svg">
<path d="M11.6666 1.80664H4.99992C4.55789 1.80664 4.13397 1.98224 3.82141 2.2948C3.50885 2.60736 3.33325 3.03128 3.33325 3.47331V16.8066C3.33325 17.2487 3.50885 17.6726 3.82141 17.9851C4.13397 18.2977 4.55789 18.4733 4.99992 18.4733H14.9999C15.4419 18.4733 15.8659 18.2977 16.1784 17.9851C16.491 17.6726 16.6666 17.2487 16.6666 16.8066V6.80664L11.6666 1.80664Z" stroke="#C11718" stroke-linecap="round" stroke-linejoin="round"/>
<path d="M11.6667 1.80664V6.80664H16.6667" stroke="#C11718" stroke-linecap="round" stroke-linejoin="round"/>
<path d="M13.3334 10.9746H6.66675" stroke="#C11718" stroke-linecap="round" stroke-linejoin="round"/>
<path d="M13.3334 14.3066H6.66675" stroke="#C11718" stroke-linecap="round" stroke-linejoin="round"/>
<path d="M8.33329 7.64062H7.49996H6.66663" stroke="#C11718" stroke-linecap="round" stroke-linejoin="round"/>
</svg>
