<svg width="47" height="47" viewBox="0 0 47 47" fill="none" xmlns="http://www.w3.org/2000/svg">
<path d="M30.4901 9.80449L30.481 9.80695C30.4547 9.8135 30.4293 9.82005 30.4038 9.8266C30.4038 9.96907 30.389 10.1148 30.3586 10.263C30.0735 11.6378 28.3783 13.3287 25.7071 14.9008C24.9125 15.3692 24.1418 15.7622 23.4171 16.0701C21.3711 16.9388 19.7606 17.0731 18.8387 16.4606C18.3785 17.0183 18.0745 17.5521 18.4475 18.2178C18.8329 18.9056 21.3045 18.7681 24.3702 17.4661C25.0949 17.1583 25.8353 16.7841 26.569 16.3542C28.3685 15.293 29.951 13.9927 31.0241 12.6949C31.9346 11.5936 32.3618 10.5906 32.1137 10.1386C31.8023 9.57277 31.3413 9.57932 30.4892 9.80285L30.4901 9.80449Z" fill="#C11718"/>
<path d="M23.0737 15.2676C23.7639 14.9745 24.5001 14.5978 25.2618 14.1491C27.685 12.7228 29.2692 11.2047 29.5009 10.0878C29.5666 9.76519 29.5165 9.50481 29.3415 9.26981C27.4754 6.72984 25.1172 4.25292 24.2939 3.96798C24.1748 3.92704 23.3531 3.90657 21.7713 4.57799C21.2373 4.80481 20.6711 5.09221 20.0886 5.43284C18.847 6.16486 18.0491 6.85266 17.5989 7.30137C17.0368 7.86062 16.7977 8.26348 16.7747 8.39777L16.7714 8.41578C16.6219 9.39181 17.7985 12.7809 19.0006 15.3552C19.4008 16.2142 20.9234 16.1814 23.0729 15.2684L23.0737 15.2676ZM23.7984 5.58923C23.9537 5.8488 23.7426 6.42279 22.6801 7.26043C21.8354 7.92367 20.9998 8.43789 20.2019 8.78261C19.2652 9.18792 18.7229 9.21331 18.7007 9.21495L18.6736 9.08721C18.7476 9.05937 18.8182 9.02907 18.8856 9.00042C19.9029 8.55989 20.4526 7.88683 20.9825 7.23423C21.3531 6.77733 21.7385 6.30488 22.28 5.91021C22.4879 5.75791 22.6941 5.63754 22.8864 5.55402C23.3284 5.36242 23.6702 5.37716 23.7976 5.58841L23.7984 5.58923ZM18.9037 6.87231C19.75 6.20744 20.584 5.69322 21.3827 5.34686C22.3161 4.94319 22.8568 4.91862 22.8823 4.91862L22.9069 5.04636C22.8346 5.07338 22.7639 5.10204 22.6966 5.13151C21.6785 5.57204 21.128 6.24674 20.5988 6.90015C20.2291 7.35623 19.8453 7.82869 19.3038 8.22254C19.0943 8.37484 18.8905 8.49439 18.6942 8.57873C18.2529 8.76951 17.9103 8.75559 17.7829 8.54434C17.6276 8.28477 17.8396 7.70914 18.902 6.8715L18.9037 6.87231ZM17.5619 9.94533L17.847 9.9355C19.0787 9.88228 20.501 9.37707 21.9587 8.47637C23.4205 7.57568 24.5256 6.52104 25.155 5.42629L25.2725 5.2224L26.0318 5.65719L25.9151 5.86026C25.2142 7.07948 24.0055 8.24056 22.4205 9.2174C21.9669 9.49744 21.5125 9.74472 21.0655 9.9527C20.9677 9.99855 20.87 10.0428 20.7722 10.0845C19.7566 10.5234 18.7845 10.7666 17.8815 10.8067L17.5906 10.8157L17.5611 9.94451L17.5619 9.94533Z" fill="#C11718"/>
<path d="M20.7721 10.0862C20.869 10.0444 20.9668 10.0002 21.0654 9.95434C21.5116 9.74554 21.9668 9.49908 22.4204 9.21904C24.0054 8.24138 25.2141 7.0803 25.915 5.8619L26.0316 5.65883L25.2724 5.22404L25.1549 5.42793C24.5247 6.52268 23.4195 7.57732 21.9586 8.47801C20.5009 9.37871 19.0786 9.8831 17.8469 9.93714L17.5618 9.94697L17.5913 10.8182L17.8822 10.8092C18.7844 10.7699 19.7573 10.5267 20.7729 10.087L20.7721 10.0862Z" fill="white"/>
<path d="M30.2674 8.95948C30.2419 8.96603 30.2173 8.97258 30.1926 8.97913C30.1507 8.90052 30.1022 8.82437 30.048 8.75232C28.6314 6.82401 25.8944 3.59705 24.5822 3.14343C24.0243 2.95019 22.7868 3.19829 21.4294 3.77474C20.8616 4.01629 20.261 4.32007 19.6456 4.68035C17.5166 5.93559 16.1929 7.34559 15.9455 8.11937L15.9349 8.12428L15.9135 8.24956C15.9118 8.25693 15.911 8.2643 15.9102 8.27167L15.9012 8.32162L15.9028 8.32408C15.7286 9.75045 17.1748 13.5064 18.2093 15.7221C18.2224 15.7499 18.2356 15.7769 18.2503 15.804C17.7557 16.3837 16.9825 17.3884 17.6858 18.6444C18.4977 20.0937 21.8994 19.4665 24.7169 18.2702C24.915 18.1867 25.113 18.0975 25.3127 18.0049C25.8788 17.7405 26.4499 17.4399 27.0176 17.1083C28.8944 16.0013 30.6133 14.5806 31.7333 13.2099C32.9173 11.7615 33.3265 10.5226 32.8853 9.72016C32.1901 8.45754 30.9412 8.78425 30.2699 8.95948H30.2674ZM16.7721 8.41496L16.7754 8.39695C16.7984 8.26266 17.0375 7.85981 17.5996 7.30056C18.0499 6.85266 18.8477 6.16486 20.0893 5.43202C20.6718 5.09139 21.238 4.80399 21.7721 4.57718C23.3538 3.90575 24.1755 3.92622 24.2946 3.96716C25.1179 4.25211 27.4761 6.72902 29.3422 9.26899C29.5164 9.50399 29.5673 9.76437 29.5016 10.087C29.2707 11.2038 27.6857 12.7228 25.2625 14.1483C24.5008 14.597 23.7646 14.9737 23.0744 15.2668C20.9249 16.1798 19.4032 16.2117 19.0022 15.3536C17.8001 12.7792 16.6234 9.39017 16.773 8.41415L16.7721 8.41496ZM31.025 12.6965C29.9519 13.9944 28.3693 15.2947 26.5698 16.3558C25.8353 16.7857 25.0957 17.1599 24.371 17.4678C21.3053 18.7697 18.8337 18.9073 18.4484 18.2195C18.0753 17.5538 18.3793 17.0199 18.8395 16.4623C19.7614 17.0748 21.3719 16.9405 23.4179 16.0717C24.1434 15.7638 24.9142 15.37 25.7079 14.9024C28.3792 13.3295 30.0743 11.6395 30.3594 10.2647C30.3898 10.1165 30.4046 9.96989 30.4046 9.82824C30.4301 9.82169 30.4556 9.81514 30.4818 9.80859L30.4909 9.80613C31.343 9.58341 31.8039 9.57604 32.1153 10.1418C32.3635 10.5938 31.9362 11.5969 31.0258 12.6982L31.025 12.6965Z" fill="white"/>
<path d="M22.2799 5.91021C21.7384 6.30488 21.3531 6.77651 20.9825 7.23423C20.4525 7.88765 19.9028 8.56071 18.8856 9.00042C18.8182 9.02908 18.7475 9.06019 18.6736 9.08721L18.7007 9.21495C18.7221 9.21331 19.2652 9.18793 20.2019 8.78261C20.9998 8.43707 21.8354 7.92367 22.6801 7.26043C23.7425 6.42279 23.9545 5.8488 23.7984 5.58923C23.671 5.37716 23.3292 5.36324 22.8872 5.55484C22.6949 5.63836 22.4886 5.75873 22.2808 5.91103L22.2799 5.91021Z" fill="white"/>
<path d="M18.6958 8.57955C18.8913 8.49521 19.0951 8.37566 19.3054 8.22336C19.8469 7.82951 20.2298 7.35705 20.6004 6.90097C21.1296 6.24838 21.6801 5.57286 22.6981 5.13233C22.7655 5.10367 22.8354 5.0742 22.9085 5.04718L22.8838 4.91944C22.8584 4.91944 22.3177 4.94401 21.3843 5.34768C20.5848 5.69322 19.7516 6.20826 18.9053 6.87313C17.8429 7.71078 17.6309 8.28641 17.7862 8.54597C17.9135 8.75723 18.2562 8.77115 18.6974 8.58036L18.6958 8.57955Z" fill="white"/>
<path d="M38.5687 16.3829C38.3477 16.0824 37.9911 15.9022 37.6082 15.9022L33.9994 15.9268C33.5795 15.9301 33.2393 16.2731 33.241 16.6924C33.2434 17.1091 33.5852 17.4481 34.0043 17.4481L37.1645 17.3613L33.0676 30.1381H15.1041C15.0901 30.1381 15.0778 30.1275 15.0753 30.1144L11.9948 13.282C11.8872 12.6949 11.3958 12.2421 10.7976 12.1815L5.6186 11.6714H5.60627C5.17818 11.6468 4.82568 11.94 4.7846 12.3526C4.74269 12.7694 5.04918 13.1428 5.46823 13.1854L10.5191 13.6832L13.5766 30.3887C13.7097 31.1093 14.3292 31.6366 15.0589 31.6587L13.5839 34.3256C13.3941 34.6678 13.3999 35.074 13.5987 35.4105C13.7976 35.7478 14.1517 35.9485 14.5437 35.9485H15.2018C14.4886 36.6051 14.0704 37.5329 14.0704 38.5285C14.0704 40.4683 15.6538 42.0462 17.6003 42.0462C19.5469 42.0462 21.1302 40.4683 21.1302 38.5285C21.1302 37.5329 20.712 36.6051 19.9988 35.9485H27.306C26.5928 36.6051 26.1745 37.5329 26.1745 38.5285C26.1745 40.4683 27.7579 42.0462 29.7045 42.0462C31.651 42.0462 33.2344 40.4683 33.2344 38.5285C33.2344 37.5329 32.8162 36.6051 32.1029 35.9485H33.6526C34.0733 35.9485 34.416 35.607 34.416 35.1878C34.416 34.7685 34.0733 34.4271 33.6526 34.4271H15.2684L16.7984 31.6587H33.1859C33.7792 31.6587 34.3017 31.2796 34.4858 30.7129L38.7429 17.4399C38.8588 17.0805 38.7939 16.6858 38.5695 16.382L38.5687 16.3829ZM17.5995 40.5256C16.4943 40.5256 15.5954 39.6298 15.5954 38.5285C15.5954 37.4272 16.4943 36.5314 17.5995 36.5314C18.7046 36.5314 19.6036 37.4272 19.6036 38.5285C19.6036 39.6298 18.7046 40.5256 17.5995 40.5256ZM31.7077 38.5285C31.7077 39.6298 30.8088 40.5256 29.7036 40.5256C28.5985 40.5256 27.6996 39.6298 27.6996 38.5285C27.6996 37.4272 28.5985 36.5314 29.7036 36.5314C30.8088 36.5314 31.7077 37.4272 31.7077 38.5285Z" fill="black"/>
</svg>
