<svg width="87" height="87" viewBox="0 0 87 87" fill="none" xmlns="http://www.w3.org/2000/svg">
<path d="M43.5 30.8591C40.9999 30.8591 38.5559 31.6004 36.4771 32.9894C34.3983 34.3785 32.7781 36.3527 31.8213 38.6625C30.8645 40.9724 30.6142 43.514 31.102 45.9661C31.5897 48.4182 32.7936 50.6706 34.5615 52.4385C36.3294 54.2064 38.5818 55.4103 41.0339 55.898C43.486 56.3858 46.0276 56.1355 48.3375 55.1787C50.6473 54.2219 52.6215 52.6017 54.0106 50.5229C55.3996 48.4441 56.1409 46.0001 56.1409 43.5C56.1371 40.1486 54.8041 36.9355 52.4343 34.5657C50.0645 32.1959 46.8514 30.8629 43.5 30.8591ZM67.6614 56.8132L60.5739 57.6004C60.2912 57.6318 60.0301 57.7669 59.8413 57.9796C59.2586 58.637 58.637 59.2586 57.9796 59.8413C57.7669 60.0301 57.6318 60.2912 57.6004 60.5739L56.8132 67.6586C55.0255 68.6468 53.1329 69.4321 51.1707 70L45.603 65.5441C45.3989 65.3817 45.1456 65.2935 44.8848 65.2941H44.8158C43.9394 65.3487 43.0605 65.3487 42.1842 65.2941C41.8999 65.277 41.6194 65.3661 41.397 65.5441L35.8321 69.9971C33.8691 69.4315 31.9756 68.6481 30.1868 67.6614L29.3996 60.5739C29.3682 60.2912 29.2331 60.0301 29.0204 59.8413C28.363 59.2586 27.7414 58.637 27.1587 57.9796C26.9699 57.7669 26.7088 57.6318 26.4261 57.6004L19.3414 56.8132C18.3532 55.0255 17.5679 53.1329 17 51.1707L21.4559 45.603C21.6339 45.3806 21.723 45.1001 21.7059 44.8158C21.6542 43.9394 21.6542 43.0606 21.7059 42.1842C21.723 41.8999 21.6339 41.6194 21.4559 41.397L17.0029 35.8321C17.5685 33.8691 18.3519 31.9756 19.3386 30.1868L26.4261 29.3996C26.7088 29.3682 26.9699 29.2331 27.1587 29.0204C27.7414 28.363 28.363 27.7414 29.0204 27.1587C29.2331 26.9699 29.3682 26.7088 29.3996 26.4261L30.1868 19.3414C31.9745 18.3532 33.8671 17.5679 35.8293 17L41.397 21.4559C41.6194 21.6339 41.8999 21.723 42.1842 21.7059C43.0605 21.6513 43.9394 21.6513 44.8158 21.7059C45.1001 21.723 45.3806 21.6339 45.603 21.4559L51.1679 17.0029C53.1309 17.5685 55.0244 18.3519 56.8132 19.3386L57.6004 26.4261C57.6318 26.7088 57.7669 26.9699 57.9796 27.1587C58.637 27.7414 59.2586 28.363 59.8413 29.0204C60.0301 29.2331 60.2912 29.3682 60.5739 29.3996L67.6586 30.1868C68.6468 31.9745 69.4321 33.8671 70 35.8293L65.5441 41.397C65.3661 41.6194 65.277 41.8999 65.2941 42.1842C65.3458 43.0606 65.3458 43.9394 65.2941 44.8158C65.277 45.1001 65.3661 45.3806 65.5441 45.603L69.9971 51.1679C69.4315 53.1309 68.6481 55.0244 67.6614 56.8132Z" fill="#DCDDDE"/>
<path d="M43.62 55.9593C41.1784 55.9593 38.7872 55.2329 36.7592 53.8809C34.7313 52.529 33.1473 50.5918 32.209 48.3419C31.2706 46.0819 31.0285 43.5999 31.5027 41.2087C31.9769 38.8176 33.1574 36.6181 34.8826 34.8928C36.6079 33.1675 38.8074 31.9871 41.1986 31.5129C43.5897 31.0387 46.0717 31.2808 48.3317 32.2191C50.5917 33.1574 52.5188 34.7314 53.8708 36.7694C55.2227 38.7974 55.9492 41.1885 55.9492 43.6302C55.9492 46.8991 54.6477 50.047 52.3372 52.3575C50.0267 54.6679 46.8789 55.9694 43.6099 55.9694L43.62 55.9593ZM72.4553 59.5007L64.0005 60.439C63.6675 60.4794 63.3548 60.6408 63.1227 60.893C62.4265 61.68 61.69 62.4165 60.903 63.1127C60.6508 63.3347 60.4894 63.6474 60.449 63.9905L59.5107 72.4453C57.3819 73.6258 55.1218 74.5641 52.7811 75.2401L46.1322 69.923C45.8901 69.7313 45.5874 69.6203 45.2747 69.6203H45.1939C44.1446 69.6809 43.0954 69.6809 42.0562 69.6203C41.7131 69.6001 41.3802 69.7111 41.1178 69.923L34.4791 75.2401C32.1383 74.5641 29.8783 73.6258 27.7394 72.4554L26.8011 64.0006C26.7607 63.6676 26.5993 63.3548 26.347 63.1228C25.5601 62.4266 24.8236 61.6901 24.1274 60.9031C23.9054 60.6509 23.5927 60.4895 23.2496 60.4491L14.7947 59.5108C13.6143 57.3819 12.676 55.1219 12 52.7812L17.3171 46.1323C17.529 45.87 17.6399 45.5371 17.6198 45.194C17.5592 44.1447 17.5592 43.0954 17.6198 42.0562C17.6399 41.7132 17.529 41.3802 17.3171 41.1179L12 34.469C12.676 32.1283 13.6143 29.8683 14.7847 27.7294L23.2395 26.7911C23.5725 26.7507 23.8852 26.5893 24.1173 26.337C24.8135 25.5501 25.55 24.8135 26.337 24.1174C26.5892 23.8954 26.7506 23.5826 26.791 23.2396L27.7293 14.7847C29.8581 13.6043 32.1181 12.666 34.4589 11.99L41.1078 17.3071C41.3701 17.5189 41.703 17.6299 42.0461 17.6098C43.0954 17.5492 44.1446 17.5492 45.1838 17.6098C45.5269 17.6299 45.8598 17.5189 46.1222 17.3071L52.7609 11.99C55.1017 12.666 57.3617 13.6043 59.5006 14.7746L60.4389 23.2295C60.4793 23.5625 60.6407 23.8752 60.893 24.1073C61.6799 24.8035 62.4164 25.54 63.1126 26.3269C63.3346 26.5792 63.6473 26.7406 63.9904 26.781L72.4453 27.7193C73.6257 29.8481 74.564 32.1081 75.24 34.4489L69.9229 41.0977C69.711 41.3601 69.6001 41.693 69.6202 42.0361C69.6808 43.0853 69.6808 44.1346 69.6202 45.1738C69.6001 45.5169 69.711 45.8498 69.9229 46.1121L75.24 52.7509C74.564 55.0917 73.6257 57.3517 72.4553 59.4906V59.5007Z" stroke="black" stroke-miterlimit="10"/>
</svg>
