<svg width="16" height="16" viewBox="0 0 16 16" fill="none" xmlns="http://www.w3.org/2000/svg">
<path d="M13.8666 8V15.3333H2.1333V8" stroke="#419639" stroke-linecap="round" stroke-linejoin="round"/>
<path d="M15.3332 4.33203H0.666504V7.9987H15.3332V4.33203Z" stroke="#419639" stroke-linecap="round" stroke-linejoin="round"/>
<path d="M8 15.332V4.33203" stroke="#419639" stroke-linecap="round" stroke-linejoin="round"/>
<path d="M8.00003 4.33268H4.70003C4.2138 4.33268 3.74749 4.13953 3.40367 3.79571C3.05985 3.45189 2.8667 2.98558 2.8667 2.49935C2.8667 2.01312 3.05985 1.5468 3.40367 1.20299C3.74749 0.85917 4.2138 0.666016 4.70003 0.666016C7.2667 0.666016 8.00003 4.33268 8.00003 4.33268Z" stroke="#419639" stroke-linecap="round" stroke-linejoin="round"/>
<path d="M8 4.33268H11.3C11.7862 4.33268 12.2525 4.13953 12.5964 3.79571C12.9402 3.45189 13.1333 2.98558 13.1333 2.49935C13.1333 2.01312 12.9402 1.5468 12.5964 1.20299C12.2525 0.85917 11.7862 0.666016 11.3 0.666016C8.73333 0.666016 8 4.33268 8 4.33268Z" stroke="#419639" stroke-linecap="round" stroke-linejoin="round"/>
</svg>
