<svg width="27" height="27" viewBox="0 0 27 27" fill="none" xmlns="http://www.w3.org/2000/svg">
<path d="M23.5027 13.5V25.9999H3.50293V13.5" stroke="black" stroke-linecap="round" stroke-linejoin="round"/>
<path d="M25.9997 7.25H1V13.4999H25.9997V7.25Z" stroke="black" stroke-linecap="round" stroke-linejoin="round"/>
<path d="M13.5 25.9998V7.25" stroke="black" stroke-linecap="round" stroke-linejoin="round"/>
<path d="M13.497 7.24993H7.87204C7.04324 7.24993 6.2484 6.9207 5.66235 6.33465C5.07631 5.74861 4.74707 4.95376 4.74707 4.12497C4.74707 3.29617 5.07631 2.50133 5.66235 1.91528C6.2484 1.32924 7.04324 1 7.87204 1C12.247 1 13.497 7.24993 13.497 7.24993Z" stroke="black" stroke-linecap="round" stroke-linejoin="round"/>
<path d="M13.5 7.24993H19.1249C19.9537 7.24993 20.7486 6.9207 21.3346 6.33465C21.9207 5.74861 22.2499 4.95376 22.2499 4.12497C22.2499 3.29617 21.9207 2.50133 21.3346 1.91528C20.7486 1.32924 19.9537 1 19.1249 1C14.75 1 13.5 7.24993 13.5 7.24993Z" stroke="black" stroke-linecap="round" stroke-linejoin="round"/>
</svg>
