<svg width="25" height="25" viewBox="0 0 25 25" fill="none" xmlns="http://www.w3.org/2000/svg">
<rect width="24" height="24" transform="translate(0.5 0.5)" fill="white"/>
<path d="M20 12.0029L12.9083 19.0946C12.0396 19.9634 10.8612 20.4514 9.6326 20.4514C8.40396 20.4514 7.22564 19.9634 6.35686 19.0946C5.48808 18.2258 5 17.0475 5 15.8188C5 14.5902 5.48808 13.4119 6.35686 12.5431L13.4485 5.45145C14.0277 4.87226 14.8132 4.54687 15.6323 4.54688C16.4514 4.54688 17.237 4.87226 17.8162 5.45145C18.3954 6.03063 18.7207 6.81618 18.7207 7.63527C18.7207 8.45437 18.3954 9.23992 17.8162 9.8191L10.7168 16.9108C10.4272 17.2004 10.0344 17.363 9.62488 17.363C9.21534 17.363 8.82256 17.2004 8.53297 16.9108C8.24338 16.6212 8.08068 16.2284 8.08068 15.8188C8.08068 15.4093 8.24338 15.0165 8.53297 14.7269L15.0845 8.18316" stroke="#E3E3E3" stroke-width="1.5" stroke-linecap="round" stroke-linejoin="round"/>
</svg>
