<svg width="66" height="65" viewBox="0 0 66 65" fill="none" xmlns="http://www.w3.org/2000/svg">
<rect x="0.672852" width="65" height="65" rx="32.5" fill="#419639"/>
<path d="M35.6729 43.75C35.6729 44.2445 35.5262 44.7278 35.2515 45.1389C34.9768 45.55 34.5864 45.8705 34.1296 46.0597C33.6727 46.2489 33.1701 46.2984 32.6851 46.202C32.2002 46.1055 31.7547 45.8674 31.4051 45.5178C31.0555 45.1681 30.8174 44.7227 30.7209 44.2377C30.6244 43.7528 30.6739 43.2501 30.8632 42.7933C31.0524 42.3365 31.3728 41.946 31.7839 41.6713C32.1951 41.3966 32.6784 41.25 33.1729 41.25C33.8359 41.25 34.4718 41.5134 34.9406 41.9822C35.4095 42.4511 35.6729 43.087 35.6729 43.75ZM33.1729 37.5C33.5044 37.5 33.8223 37.3683 34.0567 37.1339C34.2912 36.8995 34.4229 36.5815 34.4229 36.25V20C34.4229 19.6685 34.2912 19.3505 34.0567 19.1161C33.8223 18.8817 33.5044 18.75 33.1729 18.75C32.8413 18.75 32.5234 18.8817 32.289 19.1161C32.0545 19.3505 31.9229 19.6685 31.9229 20V36.25C31.9229 36.5815 32.0545 36.8995 32.289 37.1339C32.5234 37.3683 32.8413 37.5 33.1729 37.5Z" fill="white"/>
</svg>
