<svg width="52" height="52" viewBox="0 0 43 43" fill="none" xmlns="http://www.w3.org/2000/svg">
<circle cx="21.5" cy="21.5" r="21.5" fill="#419639"/>
<path d="M29.8646 21.3477V31.9953H12.8284V21.3477" stroke="white" stroke-linecap="round" stroke-linejoin="round"/>
<path d="M31.9941 16.0234H10.6989V21.3472H31.9941V16.0234Z" stroke="white" stroke-linecap="round" stroke-linejoin="round"/>
<path d="M21.3464 31.9949V16.0234" stroke="white" stroke-linecap="round" stroke-linejoin="round"/>
<path d="M21.3465 16.023H16.5551C15.8491 16.023 15.172 15.7426 14.6728 15.2434C14.1736 14.7442 13.8932 14.0671 13.8932 13.3611C13.8932 12.6551 14.1736 11.9781 14.6728 11.4789C15.172 10.9797 15.8491 10.6992 16.5551 10.6992C20.2818 10.6992 21.3465 16.023 21.3465 16.023Z" stroke="white" stroke-linecap="round" stroke-linejoin="round"/>
<path d="M21.3464 16.023H26.1379C26.8438 16.023 27.5209 15.7426 28.0201 15.2434C28.5193 14.7442 28.7998 14.0671 28.7998 13.3611C28.7998 12.6551 28.5193 11.9781 28.0201 11.4789C27.5209 10.9797 26.8438 10.6992 26.1379 10.6992C22.4112 10.6992 21.3464 16.023 21.3464 16.023Z" stroke="white" stroke-linecap="round" stroke-linejoin="round"/>
</svg>
