<svg width="18" height="16" viewBox="0 0 18 16" fill="none" xmlns="http://www.w3.org/2000/svg">
<path fill-rule="evenodd" clip-rule="evenodd" d="M8.84375 15.3022C8.83816 15.3026 8.83255 15.3027 8.82694 15.3027C8.78823 15.3027 8.7491 15.2944 8.71292 15.2786C7.34424 14.6824 6.3576 14.1362 5.30826 13.3938C5.29606 13.3852 5.28467 13.3757 5.27412 13.3656C3.43686 12.1193 1.955 10.6833 1.19518 9.35922C1.09203 9.19476 0.997739 9.03167 0.913176 8.87127C0.36116 7.82505 0.0944092 5.85158 0.651894 4.10509C1.07685 2.77305 1.92927 1.77293 3.11661 1.21272C3.72226 0.926956 4.34227 0.785859 4.96365 0.788426C5.78815 0.785019 6.61562 1.03464 7.41572 1.53497C8.07731 1.94875 8.56888 2.43796 8.84375 2.74581C9.11862 2.43796 9.61019 1.94875 10.2718 1.53497C11.0719 1.03464 11.8993 0.785019 12.7238 0.788426C13.3452 0.785859 13.9652 0.926957 14.5709 1.21272C15.7582 1.77293 16.6106 2.77305 17.0356 4.10509C17.5931 5.85158 17.3263 7.82505 16.7743 8.87127C16.6898 9.03166 16.5955 9.19475 16.4923 9.3592C15.7325 10.6833 14.2506 12.1193 12.4134 13.3656C12.4028 13.3757 12.3914 13.3852 12.3792 13.3938C11.3299 14.1362 10.3433 14.6824 8.97458 15.2786C8.93839 15.2944 8.89968 15.3023 8.86097 15.3023L8.86055 15.3027C8.85494 15.3027 8.84934 15.3026 8.84375 15.3022ZM8.84375 14.6539C5.92729 13.3576 3.24024 11.3079 1.97708 9.4786C1.96758 9.44832 1.95338 9.41906 1.93432 9.39197C1.85169 9.27471 1.77365 9.15784 1.7005 9.04189C1.61356 8.89048 1.53753 8.74121 1.47314 8.59468C1.08563 7.71266 0.732209 5.77914 1.34607 4.06733C1.72643 3.00618 2.4156 2.23392 3.39341 1.77249C3.9158 1.52602 4.44177 1.40158 4.96867 1.39899C5.66768 1.40243 6.3682 1.62028 7.06403 2.05216C8.00691 2.63739 8.58838 3.41449 8.59385 3.42239C8.64981 3.4979 8.73564 3.54181 8.82694 3.54181C8.83256 3.54181 8.83817 3.54164 8.84375 3.54131C8.84933 3.54164 8.85493 3.54181 8.86055 3.54181C8.95185 3.54181 9.03769 3.4979 9.09365 3.42239C9.09911 3.41449 9.68058 2.63739 10.6235 2.05216C11.3193 1.62028 12.0198 1.40243 12.7188 1.39899C13.2457 1.40158 13.7717 1.52602 14.2941 1.77249C15.2719 2.23392 15.9611 3.00618 16.3414 4.06733C16.9553 5.77914 16.6019 7.71266 16.2144 8.59468C16.15 8.74121 16.0739 8.89048 15.987 9.0419C15.9138 9.15784 15.8358 9.27471 15.7532 9.39197C15.7341 9.41906 15.7199 9.44832 15.7104 9.4786C14.4473 11.3079 11.7602 13.3576 8.84375 14.6539Z" fill="black"/>
</svg>
