<svg width="22" height="22" viewBox="0 0 22 22" fill="none" xmlns="http://www.w3.org/2000/svg">
<circle cx="11" cy="11" r="10.5" stroke="white"/>
<path d="M7.92888 6.536C8.09954 6.38133 8.28621 6.23467 8.48888 6.096C8.69154 5.95733 8.91288 5.83467 9.15288 5.728C9.39288 5.62133 9.65154 5.53867 9.92888 5.48C10.2115 5.416 10.5155 5.384 10.8409 5.384C11.2729 5.384 11.6702 5.44533 12.0329 5.568C12.4009 5.69067 12.7155 5.86667 12.9769 6.096C13.2435 6.32533 13.4515 6.60267 13.6009 6.928C13.7502 7.248 13.8249 7.608 13.8249 8.008C13.8249 8.41333 13.7635 8.76533 13.6409 9.064C13.5235 9.35733 13.3742 9.61333 13.1929 9.832C13.0115 10.0507 12.8115 10.2427 12.5929 10.408C12.3795 10.568 12.1769 10.72 11.9849 10.864C11.7982 11.008 11.6355 11.152 11.4969 11.296C11.3635 11.4347 11.2835 11.592 11.2569 11.768L11.1049 12.976H10.0409L9.92888 11.656C9.90221 11.4107 9.94488 11.1973 10.0569 11.016C10.1689 10.8347 10.3129 10.6667 10.4889 10.512C10.6702 10.352 10.8702 10.1973 11.0889 10.048C11.3075 9.89867 11.5102 9.73333 11.6969 9.552C11.8835 9.36533 12.0409 9.15733 12.1689 8.928C12.2969 8.69333 12.3609 8.416 12.3609 8.096C12.3609 7.87733 12.3182 7.68 12.2329 7.504C12.1475 7.328 12.0302 7.17867 11.8809 7.056C11.7315 6.928 11.5555 6.832 11.3529 6.768C11.1502 6.69867 10.9342 6.664 10.7049 6.664C10.3849 6.664 10.1129 6.704 9.88888 6.784C9.66488 6.85867 9.47288 6.94133 9.31288 7.032C9.15821 7.12267 9.03021 7.208 8.92888 7.288C8.82754 7.36267 8.74221 7.4 8.67288 7.4C8.51821 7.4 8.40621 7.33333 8.33688 7.2L7.92888 6.536ZM9.48088 16.064C9.48088 15.92 9.50754 15.784 9.56088 15.656C9.61421 15.528 9.68621 15.416 9.77688 15.32C9.87288 15.224 9.98488 15.1493 10.1129 15.096C10.2409 15.0373 10.3795 15.008 10.5289 15.008C10.6729 15.008 10.8089 15.0373 10.9369 15.096C11.0649 15.1493 11.1769 15.224 11.2729 15.32C11.3689 15.416 11.4435 15.528 11.4969 15.656C11.5555 15.784 11.5849 15.92 11.5849 16.064C11.5849 16.2133 11.5555 16.352 11.4969 16.48C11.4435 16.608 11.3689 16.72 11.2729 16.816C11.1769 16.912 11.0649 16.9867 10.9369 17.04C10.8089 17.0933 10.6729 17.12 10.5289 17.12C10.3795 17.12 10.2409 17.0933 10.1129 17.04C9.98488 16.9867 9.87288 16.912 9.77688 16.816C9.68621 16.72 9.61421 16.608 9.56088 16.48C9.50754 16.352 9.48088 16.2133 9.48088 16.064Z" fill="white"/>
</svg>
