<svg width="23" height="22" viewBox="0 0 23 22" fill="none" xmlns="http://www.w3.org/2000/svg">
    <circle cx="11.75" cy="11" r="10.5" stroke="#C11718
    "/>
    <path d="M8.67888 6.536C8.84954 6.38133 9.03621 6.23467 9.23888 6.096C9.44154 5.95733 9.66288 5.83467 9.90288 5.728C10.1429 5.62133 10.4015 5.53867 10.6789 5.48C10.9615 5.416 11.2655 5.384 11.5909 5.384C12.0229 5.384 12.4202 5.44533 12.7829 5.568C13.1509 5.69067 13.4655 5.86667 13.7269 6.096C13.9935 6.32533 14.2015 6.60267 14.3509 6.928C14.5002 7.248 14.5749 7.608 14.5749 8.008C14.5749 8.41333 14.5135 8.76533 14.3909 9.064C14.2735 9.35733 14.1242 9.61333 13.9429 9.832C13.7615 10.0507 13.5615 10.2427 13.3429 10.408C13.1295 10.568 12.9269 10.72 12.7349 10.864C12.5482 11.008 12.3855 11.152 12.2469 11.296C12.1135 11.4347 12.0335 11.592 12.0069 11.768L11.8549 12.976H10.7909L10.6789 11.656C10.6522 11.4107 10.6949 11.1973 10.8069 11.016C10.9189 10.8347 11.0629 10.6667 11.2389 10.512C11.4202 10.352 11.6202 10.1973 11.8389 10.048C12.0575 9.89867 12.2602 9.73333 12.4469 9.552C12.6335 9.36533 12.7909 9.15733 12.9189 8.928C13.0469 8.69333 13.1109 8.416 13.1109 8.096C13.1109 7.87733 13.0682 7.68 12.9829 7.504C12.8975 7.328 12.7802 7.17867 12.6309 7.056C12.4815 6.928 12.3055 6.832 12.1029 6.768C11.9002 6.69867 11.6842 6.664 11.4549 6.664C11.1349 6.664 10.8629 6.704 10.6389 6.784C10.4149 6.85867 10.2229 6.94133 10.0629 7.032C9.90821 7.12267 9.78021 7.208 9.67888 7.288C9.57754 7.36267 9.49221 7.4 9.42288 7.4C9.26821 7.4 9.15621 7.33333 9.08688 7.2L8.67888 6.536ZM10.2309 16.064C10.2309 15.92 10.2575 15.784 10.3109 15.656C10.3642 15.528 10.4362 15.416 10.5269 15.32C10.6229 15.224 10.7349 15.1493 10.8629 15.096C10.9909 15.0373 11.1295 15.008 11.2789 15.008C11.4229 15.008 11.5589 15.0373 11.6869 15.096C11.8149 15.1493 11.9269 15.224 12.0229 15.32C12.1189 15.416 12.1935 15.528 12.2469 15.656C12.3055 15.784 12.3349 15.92 12.3349 16.064C12.3349 16.2133 12.3055 16.352 12.2469 16.48C12.1935 16.608 12.1189 16.72 12.0229 16.816C11.9269 16.912 11.8149 16.9867 11.6869 17.04C11.5589 17.0933 11.4229 17.12 11.2789 17.12C11.1295 17.12 10.9909 17.0933 10.8629 17.04C10.7349 16.9867 10.6229 16.912 10.5269 16.816C10.4362 16.72 10.3642 16.608 10.3109 16.48C10.2575 16.352 10.2309 16.2133 10.2309 16.064Z" fill="#C11718"/>
    </svg>
    