<svg width="28" height="23" viewBox="0 0 28 23" fill="none" xmlns="http://www.w3.org/2000/svg">
<path d="M27.0667 20.9561H25.2V10.4258C25.2 10.1736 25.1465 9.92413 25.0426 9.69317C24.9388 9.46221 24.787 9.2548 24.5968 9.08408L15.2635 0.486705C15.2589 0.482819 15.2546 0.478633 15.2507 0.474176C14.907 0.169069 14.4592 0 13.9948 0C13.5303 0 13.0825 0.169069 12.7388 0.474176L12.726 0.486705L3.40317 9.08408C3.213 9.2548 3.0612 9.46221 2.95737 9.69317C2.85355 9.92413 2.79996 10.1736 2.8 10.4258V20.9561H0.933333C0.685798 20.9561 0.448401 21.0522 0.273367 21.223C0.098333 21.3939 0 21.6257 0 21.8674C0 22.109 0.098333 22.3408 0.273367 22.5117C0.448401 22.6826 0.685798 22.7786 0.933333 22.7786H27.0667C27.3142 22.7786 27.5516 22.6826 27.7266 22.5117C27.9017 22.3408 28 22.109 28 21.8674C28 21.6257 27.9017 21.3939 27.7266 21.223C27.5516 21.0522 27.3142 20.9561 27.0667 20.9561ZM4.66667 10.4258L4.6795 10.4145L14 1.82051L23.3217 10.4122L23.3345 10.4236V20.9561H17.7333V15.4888C17.7333 15.0055 17.5367 14.5419 17.1866 14.2002C16.8365 13.8584 16.3617 13.6664 15.8667 13.6664H12.1333C11.6383 13.6664 11.1635 13.8584 10.8134 14.2002C10.4633 14.5419 10.2667 15.0055 10.2667 15.4888V20.9561H4.66667V10.4258ZM15.8667 20.9561H12.1333V15.4888H15.8667V20.9561Z" fill="#C11718"/>
</svg>
