<svg width="19" height="19" viewBox="0 0 19 19" fill="none" xmlns="http://www.w3.org/2000/svg">
<path d="M18.2129 15.4372H17.0254V8.57569C17.0254 8.41134 16.9913 8.24878 16.9253 8.09828C16.8592 7.94779 16.7627 7.81264 16.6417 7.7014L10.7042 2.09936C10.7013 2.09683 10.6985 2.0941 10.696 2.0912C10.4774 1.89239 10.1925 1.78223 9.89705 1.78223C9.60156 1.78223 9.31669 1.89239 9.09809 2.0912L9.08992 2.09936L3.1591 7.7014C3.03812 7.81264 2.94155 7.94779 2.87551 8.09828C2.80946 8.24878 2.77537 8.41134 2.77539 8.57569V15.4372H1.58789C1.43042 15.4372 1.2794 15.4998 1.16805 15.6111C1.0567 15.7225 0.994141 15.8735 0.994141 16.031C0.994141 16.1884 1.0567 16.3395 1.16805 16.4508C1.2794 16.5622 1.43042 16.6247 1.58789 16.6247H18.2129C18.3704 16.6247 18.5214 16.5622 18.6327 16.4508C18.7441 16.3395 18.8066 16.1884 18.8066 16.031C18.8066 15.8735 18.7441 15.7225 18.6327 15.6111C18.5214 15.4998 18.3704 15.4372 18.2129 15.4372ZM3.96289 8.57569L3.97105 8.56827L9.90039 2.96846L15.8305 8.56679L15.8386 8.57421V15.4372H12.2754V11.8747C12.2754 11.5598 12.1503 11.2577 11.9276 11.035C11.7049 10.8123 11.4028 10.6872 11.0879 10.6872H8.71289C8.39795 10.6872 8.0959 10.8123 7.8732 11.035C7.6505 11.2577 7.52539 11.5598 7.52539 11.8747V15.4372H3.96289V8.57569ZM11.0879 15.4372H8.71289V11.8747H11.0879V15.4372Z" fill="#C11718"/>
</svg>
