<svg width="32" height="32" viewBox="0 0 32 32" fill="none" xmlns="http://www.w3.org/2000/svg">
<path d="M26.9338 13.905L16.9338 4.46748L16.9225 4.45748C16.6012 4.16322 16.1813 4 15.7456 4C15.31 4 14.8901 4.16322 14.5688 4.45748L14.5575 4.46748L4.55752 13.905C4.38064 14.0697 4.23979 14.2692 4.14384 14.491C4.04789 14.7128 3.99892 14.9521 4.00002 15.1937V26.75C4.00002 27.2141 4.18439 27.6592 4.51258 27.9874C4.84077 28.3156 5.28589 28.5 5.75002 28.5H11.75C12.2141 28.5 12.6593 28.3156 12.9875 27.9874C13.3156 27.6592 13.5 27.2141 13.5 26.75V20.75C13.5 20.6837 13.5264 20.6201 13.5732 20.5732C13.6201 20.5263 13.6837 20.5 13.75 20.5H17.75C17.8163 20.5 17.8799 20.5263 17.9268 20.5732C17.9737 20.6201 18 20.6837 18 20.75V26.75C18 27.2141 18.1844 27.6592 18.5126 27.9874C18.8408 28.3156 19.2859 28.5 19.75 28.5H25.75C26.2141 28.5 26.6593 28.3156 26.9875 27.9874C27.3156 27.6592 27.5 27.2141 27.5 26.75V15.1937C27.5 14.9514 27.4497 14.7118 27.3522 14.4899C27.2547 14.2681 27.1122 14.0689 26.9338 13.905ZM26 26.75C26 26.8163 25.9737 26.8799 25.9268 26.9268C25.8799 26.9736 25.8163 27 25.75 27H19.75C19.6837 27 19.6201 26.9736 19.5732 26.9268C19.5264 26.8799 19.5 26.8163 19.5 26.75V20.75C19.5 20.2859 19.3156 19.8407 18.9875 19.5125C18.6593 19.1844 18.2141 19 17.75 19H13.75C13.2859 19 12.8408 19.1844 12.5126 19.5125C12.1844 19.8407 12 20.2859 12 20.75V26.75C12 26.8163 11.9737 26.8799 11.9268 26.9268C11.8799 26.9736 11.8163 27 11.75 27H5.75002C5.68371 27 5.62013 26.9736 5.57324 26.9268C5.52636 26.8799 5.50002 26.8163 5.50002 26.75V15.1937C5.49994 15.1589 5.50713 15.1245 5.52112 15.0927C5.53511 15.0608 5.5556 15.0322 5.58127 15.0087L5.59252 14.9987L15.585 5.56373C15.6306 5.52399 15.689 5.5021 15.7494 5.5021C15.8098 5.5021 15.8682 5.52399 15.9138 5.56373L25.9075 15L25.9175 15.01C25.9434 15.0334 25.9641 15.0619 25.9783 15.0938C25.9926 15.1256 25.9999 15.1601 26 15.195V26.75Z"/>
</svg>
