<svg width="37" height="39" viewBox="0 0 37 39" fill="none" xmlns="http://www.w3.org/2000/svg">
<path d="M18.2895 29.9013C18.235 29.9013 18.181 29.8901 18.1294 29.8676C13.0103 27.6149 8.48094 23.8495 7.11633 20.7114C6.51175 19.3224 5.95938 16.2793 6.91401 13.5908C7.53105 11.8528 8.64885 10.5877 10.2371 9.83099C12.2087 8.89104 14.2889 9.04989 16.2521 10.29C17.2044 10.8916 17.9069 11.6052 18.2895 12.0417C18.6722 11.6052 19.3747 10.8916 20.327 10.29C22.2896 9.04989 24.3698 8.89104 26.342 9.83099C28.0163 10.629 29.2183 12.0536 29.8176 13.951C30.6037 16.4388 30.2275 19.2498 29.4491 20.7401C29.2343 21.1516 28.9751 21.5756 28.6784 22.0009C28.5425 22.1954 28.2827 22.2373 28.0976 22.0941C27.9124 21.9509 27.8733 21.6769 28.0092 21.4818C28.2845 21.0872 28.5236 20.6957 28.7211 20.3174C29.3951 19.026 29.7321 16.4525 29.0291 14.2268C28.4974 12.5439 27.4776 11.3325 25.999 10.6283C24.2695 9.8041 22.5121 9.93793 20.7755 11.0267C19.4459 11.8603 18.626 12.9673 18.6182 12.9785C18.5393 13.0861 18.4183 13.1486 18.2895 13.1486C18.1608 13.1486 18.0392 13.0855 17.9609 12.9779C17.9531 12.9673 17.1332 11.8597 15.8036 11.0267C14.067 9.93793 12.3096 9.8041 10.5801 10.6283C9.20122 11.2856 8.22938 12.3857 7.69303 13.8972C6.82739 16.3356 7.32577 19.0897 7.87221 20.3461C9.1235 23.2223 13.4891 26.8382 18.2907 28.9883C20.0837 28.1903 21.3961 27.4505 22.7857 26.4574C22.9755 26.3217 23.2336 26.3742 23.3624 26.5743C23.4911 26.7744 23.4413 27.0465 23.2514 27.1822C21.7717 28.2397 20.3804 29.0177 18.4503 29.8669C18.3993 29.8895 18.3447 29.9007 18.2901 29.9007L18.2895 29.9013Z" fill="#C11718" stroke="#C11718" stroke-width="0.5"/>
<path d="M23.5575 24.6437L23.4056 24.6299L23.3652 25.1202L23.5195 25.1346C24.0001 25.1727 24.5305 25.1021 25.0959 24.9238C25.1499 24.907 25.2045 24.8888 25.2597 24.8694C25.5095 24.7825 25.7658 24.6749 26.0239 24.548C26.9257 24.1065 27.6394 23.5374 28.0886 22.9014L28.1633 22.795L27.789 22.5005L27.7136 22.6068C27.3102 23.1778 26.6575 23.6943 25.8263 24.1008C24.9974 24.508 24.2119 24.6956 23.5557 24.643L23.5575 24.6437Z" fill="#C11718"/>
<path d="M31.5335 25.53C31.2458 24.7764 30.5641 24.8752 30.1974 24.929C30.1838 24.9309 30.1701 24.9328 30.1565 24.9353C30.1393 24.8884 30.1185 24.8427 30.0942 24.7983C29.467 23.6232 28.2235 21.632 27.5572 21.2906C27.2742 21.1448 26.6025 21.2011 25.8472 21.4331C25.531 21.5301 25.194 21.6608 24.8451 21.8209C23.6378 22.3812 22.8475 23.0823 22.6665 23.4994L22.6606 23.5013L22.641 23.5701C22.6398 23.5738 22.6386 23.5776 22.638 23.5813L22.6309 23.6063V23.6076C22.4458 24.3924 22.9733 26.5969 23.3803 27.9096C23.3856 27.9258 23.3909 27.9421 23.3969 27.9584C23.0978 28.2498 22.6244 28.7607 22.9169 29.5118C23.2545 30.378 25.0961 30.2548 26.6642 29.7732C26.774 29.7395 26.8849 29.7032 26.9965 29.6644C27.3133 29.5543 27.6349 29.4243 27.9565 29.276C29.0209 28.7814 30.0218 28.101 30.7023 27.408C31.4214 26.6757 31.7175 26.0091 31.5347 25.5306L31.5335 25.53ZM26.5319 29.2998C24.8256 29.8239 23.5078 29.7351 23.3476 29.3242C23.1928 28.9265 23.3874 28.6475 23.6668 28.3661C24.116 28.7714 24.9775 28.8033 26.1166 28.4537C26.5207 28.3298 26.9538 28.161 27.4041 27.9521C28.9188 27.2498 29.9245 26.4168 30.163 25.6657C30.1885 25.5844 30.2057 25.5038 30.2146 25.4243C30.2283 25.4225 30.2425 25.4206 30.2567 25.4181H30.2615C30.7272 25.3493 30.9711 25.3768 31.1004 25.7145C31.2031 25.984 30.9129 26.5175 30.3606 27.0735C29.7097 27.7289 28.7889 28.3511 27.7684 28.8251C27.3519 29.0165 26.9366 29.1766 26.5331 29.3004L26.5319 29.2998ZM25.9772 21.9053C26.8577 21.6351 27.2914 21.7014 27.3519 21.7327C27.7696 21.9472 28.8607 23.4932 29.6872 25.041C29.7643 25.1842 29.775 25.3336 29.7192 25.51C29.5258 26.1204 28.5895 26.8646 27.2154 27.5012C26.7835 27.702 26.37 27.8633 25.9855 27.9809C24.7894 28.348 23.9807 28.2642 23.8235 27.7564C23.3512 26.2336 22.9442 24.2567 23.0854 23.7202L23.0884 23.7102C23.1091 23.6364 23.261 23.4269 23.5944 23.1511C23.8614 22.9303 24.3278 22.5982 25.032 22.2712C25.3625 22.1192 25.6805 21.9966 25.9778 21.9053H25.9772Z" fill="#C11718"/>
<path d="M26.1615 22.6856C25.8494 22.8701 25.6151 23.109 25.3896 23.3404C25.0674 23.6706 24.7334 24.0108 24.1668 24.1897C24.1294 24.2016 24.0897 24.2141 24.0493 24.2241L24.0552 24.2972C24.0665 24.2979 24.3561 24.3198 24.8776 24.1559C25.3226 24.0158 25.7972 23.7844 26.2873 23.4692C26.9031 23.0709 27.0521 22.7638 26.9862 22.6081C26.9322 22.4811 26.7524 22.4499 26.5056 22.5274C26.3982 22.5612 26.2813 22.615 26.1615 22.6863V22.6856Z" fill="#C11718"/>
<path d="M23.6128 23.8608C23.6668 23.9877 23.8471 24.0184 24.0934 23.9408C24.2025 23.9064 24.3182 23.8533 24.4387 23.782C24.7508 23.5975 24.9839 23.3586 25.2088 23.1278C25.531 22.7976 25.865 22.4562 26.4322 22.2779C26.4696 22.2661 26.5087 22.2548 26.5491 22.2442L26.5443 22.171C26.5307 22.1691 26.2429 22.1466 25.7226 22.3105C25.277 22.4505 24.803 22.6832 24.3123 22.999C23.6958 23.3967 23.5475 23.7051 23.6128 23.8608Z" fill="#C11718"/>
</svg>
