<svg width="25" height="19" viewBox="0 0 25 19" fill="none" xmlns="http://www.w3.org/2000/svg">
<g clip-path="url(#clip0_1574_7892)">
<path d="M9.18127 7.13225C9.33167 7.13593 9.48407 7.13838 9.63782 7.13838C10.3377 7.13838 11.071 7.09731 11.8236 7.01641C14.4513 6.7357 16.706 6.03025 18.343 4.97605L18.6164 4.80015L17.9039 3.8667L17.6298 4.04322C16.1592 4.98954 14.1017 5.62634 11.6793 5.88438C9.26215 6.14486 7.1298 5.9567 5.51416 5.33951L5.14116 5.19364L4.65186 6.24047L5.03087 6.39002C6.21469 6.84112 7.61108 7.09118 9.18127 7.13225Z" fill="#C11718"/>
<path d="M24.964 13.385C24.8336 11.5083 23.0315 11.2049 22.0629 11.0419C22.0261 11.0357 21.99 11.0296 21.9546 11.0235C21.9479 10.9076 21.9312 10.7906 21.9058 10.6754C21.2507 7.6139 19.6839 2.28655 18.2708 1.0258C17.6705 0.489514 15.9305 0.0990935 13.8376 0.0310612C12.9619 0.00286768 12.0067 0.0310618 10.998 0.116868C7.50406 0.426384 4.95125 1.36167 4.16515 2.14067H4.14844L4.04483 2.27613C4.03882 2.28409 4.0328 2.29206 4.02679 2.30003L3.98534 2.35458V2.35825C2.89978 3.94874 2.48868 9.18784 2.47866 12.3786C2.47866 12.4184 2.47932 12.4583 2.48133 12.4981C1.49604 12.91 -0.105569 13.6712 0.0394848 15.5449C0.206597 17.7072 4.95794 18.8435 9.30085 18.9845C9.60566 18.9943 9.91448 18.9992 10.2267 18.9992C11.1144 18.9992 12.0295 18.9594 12.9599 18.8797C16.0408 18.6069 19.1083 17.8757 21.375 16.8743C23.7714 15.8152 25.0455 14.5759 24.9633 13.3844L24.964 13.385ZM5.05085 2.94725L5.06556 2.92764C5.17652 2.78177 5.72665 2.43732 6.78681 2.08613C7.63641 1.8048 9.07692 1.43216 11.115 1.25135C12.0696 1.17045 12.9706 1.14287 13.7935 1.16984C16.232 1.2489 17.2754 1.72696 17.4031 1.84096C18.2888 2.63222 19.8229 6.86309 20.6859 10.8966C20.7681 11.2705 20.6758 11.6064 20.3958 11.952C19.4238 13.1454 16.47 14.0659 12.4947 14.4141C11.2447 14.5244 10.0716 14.563 9.0074 14.5281C5.6939 14.4208 3.71863 13.6185 3.72264 12.3823C3.73334 8.67422 4.26876 4.01861 5.05085 2.94664V2.94725ZM20.7788 15.8777C18.6157 16.8203 15.7968 17.4835 12.843 17.7452C11.6398 17.8482 10.4633 17.8819 9.34564 17.8457C4.6197 17.6925 1.35967 16.4906 1.2808 15.464C1.20392 14.4711 1.91649 14.0071 2.8443 13.602C3.65847 14.8357 5.80954 15.5651 8.96395 15.6674C10.0823 15.7036 11.3102 15.6638 12.6137 15.5492C16.9967 15.1643 20.1966 14.1015 21.3931 12.633C21.5214 12.4742 21.6291 12.31 21.7146 12.1414C21.7514 12.1475 21.7881 12.1543 21.8256 12.1604L21.8383 12.1629C23.0682 12.3694 23.6638 12.6158 23.7226 13.4567C23.7688 14.1278 22.613 15.0778 20.7781 15.8777H20.7788Z" fill="#C11718"/>
<path d="M13.6417 3.02715C12.7072 3.19447 11.9271 3.54015 11.1744 3.87602C10.0989 4.35531 8.98592 4.84808 7.41306 4.80702C7.30945 4.80457 7.19982 4.8015 7.08819 4.79292L7.04541 4.95841C7.07415 4.96883 7.78739 5.23789 9.23525 5.27589C10.4699 5.30838 11.8529 5.16189 13.3395 4.84379C15.2105 4.43989 15.8295 3.87786 15.7867 3.48499C15.7506 3.16383 15.3208 2.9585 14.6363 2.94073C14.3382 2.93276 14.0006 2.96218 13.6417 3.02654V3.02715Z" fill="#C11718"/>
<path d="M7.42339 4.20383C7.7262 4.2118 8.05975 4.1836 8.42205 4.11863C9.35587 3.95192 10.1339 3.60441 10.8846 3.26976C11.9588 2.78986 13.0745 2.29586 14.6487 2.33692C14.7523 2.33938 14.8606 2.34428 14.9702 2.35225L15.0156 2.18799C14.9822 2.17389 14.2737 1.90421 12.8298 1.86621C11.5932 1.83373 10.2115 1.98144 8.72219 2.30076C6.85053 2.70405 6.23088 3.26792 6.27299 3.66018C6.30908 3.98012 6.7409 4.18544 7.42339 4.20322V4.20383Z" fill="#C11718"/>
</g>
<defs>
<clipPath id="clip0_1574_7892">
<rect width="25" height="19" fill="white"/>
</clipPath>
</defs>
</svg>
