<svg width="31" height="22" viewBox="0 0 31 22" fill="none" xmlns="http://www.w3.org/2000/svg">
<g clip-path="url(#clip0_1574_7878)">
<path d="M30.9543 21.8442H12.4639V16.5901C12.4639 14.2836 14.5029 12.4071 17.0091 12.4071H18.6006C18.669 12.4071 18.736 12.4248 18.7954 12.4589L18.9399 12.5427C19.7758 13.0278 20.7332 13.284 21.7094 13.284C22.6856 13.284 23.643 13.0278 24.4782 12.5427L24.6088 12.4671C24.6765 12.4275 24.7547 12.4064 24.8336 12.4064L26.4383 12.3989C28.9445 12.3989 30.9543 14.2829 30.9543 16.5894V21.8435V21.8442ZM13.5812 20.754H29.837V16.5901C29.837 14.8853 28.2993 13.498 26.409 13.498H25.1081C25.0494 13.498 24.9921 13.5137 24.9412 13.5416C23.9593 14.0874 22.8442 14.3749 21.7087 14.3749C20.5733 14.3749 19.4511 14.0853 18.4665 13.5361C18.4218 13.5109 18.3715 13.4973 18.3198 13.4973H17.0084C15.1181 13.4973 13.5805 14.8846 13.5805 16.5901V20.754H13.5812Z" fill="#C11718"/>
<path d="M11.2026 13.7426C11.0804 13.7426 10.9575 13.7153 10.8409 13.6588L10.366 13.4278C9.25643 12.8874 8.01554 12.2837 7.21179 11.2106C7.15034 11.1288 7.05188 11.0811 6.94783 11.0811H4.43045C2.06319 11.0811 0.143555 9.20869 0.143555 6.89815V4.75523C0.143555 2.44536 2.06249 0.572266 4.43045 0.572266H10.5036C12.8709 0.572266 14.7905 2.44468 14.7905 4.75523V6.89815C14.7905 8.91774 13.3282 10.611 11.359 10.998C11.4519 11.3939 11.5832 11.8844 11.7117 12.1597L11.9226 12.6108C12.0664 12.9181 12.0077 13.2867 11.7585 13.5211C11.6034 13.6669 11.4051 13.7432 11.2026 13.7432V13.7426ZM4.43045 1.66315C2.6798 1.66315 1.26084 3.0477 1.26084 4.75591V6.89883C1.26084 8.60704 2.6798 9.99159 4.43045 9.99159H7.55955C7.68036 9.99159 7.79139 10.055 7.85074 10.1572L7.91499 10.2682C8.47153 11.2269 9.47779 11.7727 10.572 12.3103C10.482 12.0596 10.3905 11.7427 10.299 11.3639C10.1077 10.5721 10.0783 10.4508 10.2187 10.2376L10.2676 10.164C10.3346 10.0625 10.4477 9.9984 10.572 9.99227L10.6621 9.98818C12.3513 9.90778 13.6739 8.55116 13.6739 6.89951V4.75659C13.6739 3.04838 12.2549 1.66383 10.5043 1.66383H4.43114L4.43045 1.66315Z" fill="#C11718"/>
<path d="M21.7351 12.236C18.4398 12.236 15.7583 9.62024 15.7583 6.40415C15.7583 3.18806 18.4398 0.572266 21.7351 0.572266C25.0304 0.572266 27.7119 3.18875 27.7119 6.40415C27.7119 9.61956 25.0304 12.236 21.7351 12.236ZM21.7351 1.66247C19.0557 1.66247 16.8756 3.78972 16.8756 6.40415C16.8756 9.01859 19.0557 11.1458 21.7351 11.1458C24.4145 11.1458 26.5946 9.01859 26.5946 6.40415C26.5946 3.78972 24.4145 1.66247 21.7351 1.66247Z" fill="#C11718"/>
<path d="M5.43156 4.37266L5.32472 4.32837L5.18506 4.64726L5.29329 4.69291C5.63197 4.83055 6.0321 4.90618 6.48181 4.91912C6.5251 4.92049 6.5684 4.92117 6.61239 4.92117C6.8128 4.92117 7.02299 4.9089 7.23807 4.88437C7.99014 4.7992 8.63608 4.58389 9.10464 4.26296L9.18285 4.20913L8.97894 3.92432L8.90073 3.97814C8.47966 4.26637 7.89029 4.46056 7.19687 4.53892C6.50485 4.61864 5.89454 4.56072 5.43156 4.37266Z" fill="#C11718"/>
<path d="M11.0007 6.82446C10.9637 6.25279 10.4477 6.16012 10.1705 6.11038C10.16 6.10833 10.1495 6.10697 10.1397 6.10493C10.1376 6.0695 10.1327 6.03406 10.1258 5.99863C9.93792 5.06583 9.48961 3.44279 9.08529 3.0585C8.91351 2.89497 8.41492 2.77641 7.81578 2.75529C7.56509 2.74643 7.29135 2.75529 7.00295 2.78118C6.00298 2.87521 5.27186 3.1607 5.047 3.39782H5.04212L5.01209 3.43939C5.01069 3.44143 5.0086 3.44416 5.0072 3.4462L4.99673 3.46119V3.46255C4.68458 3.94497 4.56727 5.54415 4.56378 6.51784C4.56378 6.53011 4.56378 6.54237 4.56448 6.55395C4.28236 6.67933 3.82358 6.91168 3.86547 7.48199C3.91366 8.14088 5.27395 8.48702 6.51693 8.52994C6.60422 8.53267 6.69221 8.53471 6.78229 8.53471C7.03647 8.53471 7.29833 8.52245 7.56508 8.4986C8.44704 8.41547 9.32551 8.19266 9.97423 7.8874C10.6607 7.56443 11.0252 7.18695 11.0014 6.82378L11.0007 6.82446ZM6.5288 8.1838C5.17549 8.13679 4.24256 7.77089 4.21951 7.45814C4.19717 7.15561 4.40177 7.01456 4.66713 6.89055C4.90036 7.26667 5.51626 7.4888 6.41917 7.52014C6.73969 7.53105 7.09094 7.51878 7.46453 7.48403C8.71938 7.36683 9.63555 7.04318 9.97842 6.59552C10.0154 6.54714 10.0462 6.4974 10.0706 6.44561C10.0811 6.44766 10.0915 6.4497 10.1027 6.45175H10.1062C10.4582 6.51511 10.6292 6.59075 10.646 6.84694C10.6593 7.05136 10.3283 7.34094 9.80315 7.58487C9.18375 7.87241 8.37651 8.0741 7.53087 8.15382C7.18661 8.18516 6.84932 8.19539 6.5295 8.18448L6.5288 8.1838ZM7.80251 3.10279C8.50081 3.12664 8.79969 3.27245 8.836 3.3072C9.08948 3.54841 9.52871 4.83757 9.77591 6.06677C9.79966 6.18056 9.77312 6.28277 9.69281 6.38838C9.41419 6.75223 8.56855 7.03228 7.43031 7.13857C7.07278 7.17196 6.7369 7.18422 6.43174 7.17332C5.48344 7.14062 4.91712 6.896 4.91852 6.5192C4.92131 5.38948 5.07494 3.97086 5.29909 3.64448L5.30328 3.63835C5.3347 3.59406 5.49252 3.48913 5.79628 3.38215C6.03929 3.2963 6.45199 3.18251 7.03577 3.128C7.30881 3.10347 7.56718 3.09529 7.80251 3.10347V3.10279Z" fill="#C11718"/>
<path d="M7.75931 3.66846C7.49186 3.71957 7.2684 3.8245 7.05262 3.9267C6.74467 4.07252 6.42625 4.2231 5.97584 4.21016C5.94651 4.20948 5.91509 4.20879 5.88296 4.20607L5.87109 4.25649C5.87947 4.2599 6.08338 4.34166 6.49817 4.35325C6.85151 4.36278 7.24745 4.3185 7.67342 4.22174C8.20901 4.09841 8.38638 3.92739 8.37381 3.80746C8.36334 3.70935 8.24044 3.64734 8.04421 3.64189C7.95902 3.63985 7.86196 3.6487 7.75931 3.66778V3.66846Z" fill="#C11718"/>
<path d="M5.64893 3.86203C5.6594 3.95946 5.783 4.02215 5.97852 4.0276C6.06511 4.03033 6.16078 4.02147 6.26413 4.00171C6.53158 3.95061 6.75434 3.84499 6.96942 3.74279C7.27737 3.59697 7.59649 3.44571 8.0469 3.45865C8.07693 3.45933 8.10765 3.4607 8.13907 3.46342L8.15234 3.413C8.14257 3.40891 7.94006 3.32647 7.52666 3.31488C7.17262 3.30466 6.77668 3.35031 6.35072 3.44707C5.81512 3.56972 5.63705 3.74142 5.64962 3.86134L5.64893 3.86203Z" fill="#C11718"/>
</g>
<defs>
<clipPath id="clip0_1574_7878">
<rect width="31" height="21.6061" fill="white"/>
</clipPath>
</defs>
</svg>
