<svg width="25" height="25" viewBox="0 0 25 25" fill="none" xmlns="http://www.w3.org/2000/svg">
<circle cx="12.5" cy="12.5" r="12.5" fill="#F7E49A"/>
<path d="M8.78609 6.92C8.99943 6.72667 9.23276 6.54333 9.48609 6.37C9.73943 6.19667 10.0161 6.04333 10.3161 5.91C10.6161 5.77667 10.9394 5.67333 11.2861 5.6C11.6394 5.52 12.0194 5.48 12.4261 5.48C12.9661 5.48 13.4628 5.55667 13.9161 5.71C14.3761 5.86333 14.7694 6.08333 15.0961 6.37C15.4294 6.65667 15.6894 7.00333 15.8761 7.41C16.0628 7.81 16.1561 8.26 16.1561 8.76C16.1561 9.26667 16.0794 9.70667 15.9261 10.08C15.7794 10.4467 15.5928 10.7667 15.3661 11.04C15.1394 11.3133 14.8894 11.5533 14.6161 11.76C14.3494 11.96 14.0961 12.15 13.8561 12.33C13.6228 12.51 13.4194 12.69 13.2461 12.87C13.0794 13.0433 12.9794 13.24 12.9461 13.46L12.7561 14.97H11.4261L11.2861 13.32C11.2528 13.0133 11.3061 12.7467 11.4461 12.52C11.5861 12.2933 11.7661 12.0833 11.9861 11.89C12.2128 11.69 12.4628 11.4967 12.7361 11.31C13.0094 11.1233 13.2628 10.9167 13.4961 10.69C13.7294 10.4567 13.9261 10.1967 14.0861 9.91C14.2461 9.61667 14.3261 9.27 14.3261 8.87C14.3261 8.59667 14.2728 8.35 14.1661 8.13C14.0594 7.91 13.9128 7.72333 13.7261 7.57C13.5394 7.41 13.3194 7.29 13.0661 7.21C12.8128 7.12333 12.5428 7.08 12.2561 7.08C11.8561 7.08 11.5161 7.13 11.2361 7.23C10.9561 7.32333 10.7161 7.42667 10.5161 7.54C10.3228 7.65333 10.1628 7.76 10.0361 7.86C9.90943 7.95333 9.80276 8 9.71609 8C9.52276 8 9.38276 7.91667 9.29609 7.75L8.78609 6.92ZM10.7261 18.83C10.7261 18.65 10.7594 18.48 10.8261 18.32C10.8928 18.16 10.9828 18.02 11.0961 17.9C11.2161 17.78 11.3561 17.6867 11.5161 17.62C11.6761 17.5467 11.8494 17.51 12.0361 17.51C12.2161 17.51 12.3861 17.5467 12.5461 17.62C12.7061 17.6867 12.8461 17.78 12.9661 17.9C13.0861 18.02 13.1794 18.16 13.2461 18.32C13.3194 18.48 13.3561 18.65 13.3561 18.83C13.3561 19.0167 13.3194 19.19 13.2461 19.35C13.1794 19.51 13.0861 19.65 12.9661 19.77C12.8461 19.89 12.7061 19.9833 12.5461 20.05C12.3861 20.1167 12.2161 20.15 12.0361 20.15C11.8494 20.15 11.6761 20.1167 11.5161 20.05C11.3561 19.9833 11.2161 19.89 11.0961 19.77C10.9828 19.65 10.8928 19.51 10.8261 19.35C10.7594 19.19 10.7261 19.0167 10.7261 18.83Z" fill="black"/>
</svg>
