<svg width="78" height="79" viewBox="0 0 78 79" fill="none" xmlns="http://www.w3.org/2000/svg">
<circle cx="49" cy="29" r="16" fill="#F8E59A"/>
<path d="M48.8889 50.9537C46.1484 50.9537 43.4287 50.4392 40.8862 49.4204C40.6465 49.3175 40.386 49.2866 40.1359 49.3381C39.8859 49.3895 39.6566 49.5027 39.469 49.688L35.6553 53.4954H28.5591C28.2257 53.4954 27.9027 53.6292 27.663 53.8659C27.4233 54.1026 27.2879 54.4319 27.2879 54.7612V61.1104H20.942C20.6085 61.1104 20.2855 61.2441 20.0459 61.4808C19.8062 61.7175 19.6707 62.0468 19.6707 62.3761V68.7253H9.52148V57.8174L28.5696 38.7595C28.7467 38.5743 28.8717 38.3479 28.9238 38.0906C28.9759 37.8333 28.9447 37.5761 28.8405 37.3394C27.1316 33.0483 26.8398 28.325 28.0069 23.8486C29.1843 19.3826 31.7581 15.4002 35.3531 12.5085C38.948 9.61692 43.387 7.94986 48.0032 7.75434C52.6193 7.56912 57.1729 8.85542 60.9971 11.4486C64.8213 14.0418 67.7181 17.7875 69.2499 22.1507C70.7817 26.5036 70.8859 31.2475 69.5312 35.6621C68.1766 40.0767 65.4465 43.9459 61.7265 46.6934C58.0169 49.441 53.5154 50.9228 48.8993 50.9228L48.8889 50.9537ZM57.7773 23.0048C57.7773 23.509 57.6314 24.003 57.3501 24.4146C57.0687 24.8365 56.6727 25.1555 56.2143 25.351C55.7454 25.5465 55.2348 25.598 54.745 25.4951C54.2553 25.3922 53.7968 25.1555 53.4425 24.7953C53.0882 24.4352 52.8485 23.9824 52.7443 23.4987C52.6506 23.0048 52.6922 22.4903 52.8902 22.0272C53.0778 21.5641 53.4112 21.1628 53.828 20.885C54.2448 20.6071 54.7346 20.4528 55.2348 20.4528C55.9121 20.4528 56.5581 20.7203 57.027 21.1937C57.5064 21.667 57.7669 22.3153 57.7669 22.9945L57.7773 23.0048Z" stroke="black" stroke-miterlimit="10"/>
</svg>
