<svg width="23" height="20" viewBox="0 0 23 20" fill="none" xmlns="http://www.w3.org/2000/svg">
<path d="M16.442 10V10.5H16.942H20.3348C21.1826 10.5 21.8705 11.188 21.8705 12.0357L21.8705 17.4643C21.8705 18.312 21.1826 19 20.3348 19L14.9063 19C14.0585 19 13.3705 18.312 13.3705 17.4643L13.3705 7.28571C13.3705 3.81275 16.1833 1 19.6562 1L19.9955 1C20.2835 1 20.5134 1.22994 20.5134 1.51786V3.55357C20.5134 3.84149 20.2835 4.07143 19.9955 4.07143H19.6562C17.883 4.07143 16.442 5.51247 16.442 7.28571V10ZM4.22768 10V10.5H4.72768L8.12054 10.5C8.96828 10.5 9.65625 11.188 9.65625 12.0357V17.4643C9.65625 18.312 8.96828 19 8.12054 19H2.69196C1.84422 19 1.15625 18.312 1.15625 17.4643L1.15625 7.28571C1.15625 3.81275 3.969 1 7.44196 1H7.78125C8.06917 1 8.29911 1.22994 8.29911 1.51786V3.55357C8.29911 3.84149 8.06917 4.07143 7.78125 4.07143H7.44196C5.66872 4.07143 4.22768 5.51247 4.22768 7.28571L4.22768 10Z" fill="white" stroke="#C11718"/>
</svg>
