<svg width="25" height="31" viewBox="0 0 25 31" fill="none" xmlns="http://www.w3.org/2000/svg">
<path d="M11.902 5.54492C9.01942 5.54492 6.67438 7.88997 6.67438 10.7726C6.67438 13.6552 9.01942 16.0011 11.902 16.0011C14.7846 16.0011 17.1306 13.6552 17.1306 10.7726C17.1306 7.88997 14.7846 5.54492 11.902 5.54492ZM15.4854 10.7726C15.4854 12.7505 13.8782 14.3596 11.902 14.3596C9.92588 14.3596 8.31952 12.7505 8.31952 10.7726C8.31952 8.79462 9.92678 7.19006 11.902 7.19006C13.8773 7.19006 15.4854 8.79732 15.4854 10.7726Z" fill="#C11718"/>
<path d="M12.1663 0C12.1347 0 12.105 0.00180416 12.0743 0.00450998C12.0599 0.00541192 12.0454 0.00721569 12.0382 0.00721569C12.0238 0.00721569 12.0093 0.00541192 11.9949 0.00450998C11.9642 0.0027061 11.9336 0 11.9029 0C5.33949 0 0 5.33949 0 11.9029C0 15.5305 3.17664 20.0538 5.56588 23.1411C8.25817 26.619 10.9974 29.4177 11.3383 29.7623C11.5106 29.9589 11.7667 30.0572 12.0346 30.0301C12.0635 30.0328 12.0923 30.0346 12.1212 30.0346C12.3566 30.0346 12.5776 29.9372 12.7318 29.7623C13.0727 29.4168 15.811 26.6199 18.5042 23.1411C20.8935 20.0538 24.0701 15.5305 24.0701 11.9029C24.0701 5.33949 18.7306 0 12.1672 0H12.1663ZM22.4241 11.9029C22.4241 12.4089 22.3185 13.0141 22.1111 13.7023C21.2119 16.6823 18.6494 20.2639 17.2027 22.1336C15.1219 24.8214 13.0294 27.0808 12.0337 28.1216C11.1453 27.1917 8.97341 24.8584 6.86467 22.1336C5.41796 20.2639 2.85555 16.6823 1.95631 13.7023C1.74886 13.0141 1.64334 12.4089 1.64334 11.9038C1.64334 6.24775 6.24504 1.64604 11.9011 1.64604C11.9164 1.64604 11.9318 1.64785 11.9471 1.64875C11.9742 1.65055 12.0021 1.65236 12.0364 1.65326C12.0644 1.65326 12.0914 1.65145 12.1185 1.64875C12.1338 1.64785 12.1491 1.64604 12.1645 1.64604C17.8206 1.64604 22.4223 6.24775 22.4223 11.9038L22.4241 11.9029Z" fill="#C11718"/>
</svg>
