<svg width="82" height="82" viewBox="0 0 82 82" fill="none" xmlns="http://www.w3.org/2000/svg">
<rect x="19.1328" y="34.6221" width="43.7333" height="28.2444" rx="3" fill="#F58026"/>
<path d="M29.3284 26.4221V17.4568C29.3284 14.3955 30.5402 11.4617 32.7087 9.30234C34.868 7.14301 37.8018 5.92212 40.8631 5.92212C43.9244 5.92212 46.8582 7.1339 49.0176 9.30234C51.1769 11.4617 52.3978 14.3955 52.3978 17.4568V26.4221M54.9489 26.4221H15.2336C14.2131 26.4221 13.2382 26.823 12.5184 27.5519C11.7987 28.2717 11.3887 29.2466 11.3887 30.267V66.1466C11.3887 67.167 11.7896 68.1419 12.5184 68.8617C13.2382 69.5815 14.2131 69.9915 15.2336 69.9915H66.4836C67.504 69.9915 68.4789 69.5906 69.1987 68.8617C69.9184 68.1419 70.3284 67.167 70.3284 66.1466V30.267C70.3284 29.2466 69.9276 28.2717 69.1987 27.5519C68.4789 26.8321 67.504 26.4221 66.4836 26.4221H54.9489Z" stroke="black" stroke-miterlimit="10"/>
<path d="M37.2993 41.5336C38.3081 40.6059 39.6287 40.0903 40.9999 40.0889C42.371 40.0903 43.6917 40.6059 44.7005 41.5336C45.7093 42.4612 46.3327 43.7334 46.4474 45.0983C46.562 46.4632 46.1596 47.8214 45.3197 48.9041C44.4798 49.9868 43.2637 50.715 41.9119 50.9448V55.5778C41.9119 55.8194 41.8159 56.0511 41.6448 56.222C41.4738 56.3929 41.2418 56.4889 40.9999 56.4889C40.758 56.4889 40.526 56.3929 40.3549 56.222C40.1839 56.0511 40.0878 55.8194 40.0878 55.5778V50.9448C38.7361 50.715 37.5199 49.9868 36.68 48.9041C35.8401 47.8214 35.4377 46.4632 35.5524 45.0983C35.6671 43.7334 36.2905 42.4612 37.2993 41.5336Z" fill="white"/>
</svg>
