<svg width="44" height="44" viewBox="0 0 44 44" fill="none" xmlns="http://www.w3.org/2000/svg">
<circle cx="22.4229" cy="22" r="21.5" fill="#419639"/>
<path d="M29.4229 19.2148H15.4229C14.3183 19.2148 13.4229 20.0463 13.4229 21.072V27.572C13.4229 28.5977 14.3183 29.4291 15.4229 29.4291H29.4229C30.5274 29.4291 31.4229 28.5977 31.4229 27.572V21.072C31.4229 20.0463 30.5274 19.2148 29.4229 19.2148Z" stroke="white" stroke-linecap="round" stroke-linejoin="round"/>
<path d="M17.4229 19.2146V15.5003C17.4229 14.2689 17.9496 13.088 18.8873 12.2173C19.825 11.3466 21.0968 10.8574 22.4229 10.8574C23.7489 10.8574 25.0207 11.3466 25.9584 12.2173C26.8961 13.088 27.4229 14.2689 27.4229 15.5003V19.2146" stroke="white" stroke-linecap="round" stroke-linejoin="round"/>
<path d="M22.584 23.4082L22.584 25.6355" stroke="white" stroke-linecap="round"/>
<path d="M21.584 23.0098H23.584" stroke="white" stroke-linecap="round"/>
</svg>
