<svg width="50" height="35" viewBox="0 0 50 35" fill="none" xmlns="http://www.w3.org/2000/svg">
<rect x="0.25" y="0.25" width="49.5" height="34.5" rx="4.75" stroke="#D5D5D5" stroke-width="0.5"/>
<path d="M21.4707 17.5C21.4707 14.437 22.8441 11.7088 24.9812 9.94367C23.405 8.64204 21.4138 7.86328 19.2458 7.86328C14.1402 7.86328 10 12.1786 10 17.5C10 22.8215 14.1402 27.1368 19.2458 27.1368C21.4126 27.1368 23.405 26.3581 24.9812 25.0564C22.8429 23.2913 21.4707 20.5631 21.4707 17.5Z" fill="#E30D17"/>
<path d="M21.4712 17.4997C21.4712 20.5628 22.8445 23.291 24.9817 25.0561C27.12 23.291 28.4921 20.5628 28.4921 17.4997C28.4921 14.4366 27.1188 11.7085 24.9817 9.94336C22.8434 11.7085 21.4712 14.4366 21.4712 17.4997Z" fill="#EB610A"/>
<path d="M39.3369 22.7135V22.4317H39.2278V22.3538H39.5278V22.4317H39.4187V22.7135H39.3381H39.3369ZM39.9168 22.7135V22.4638L39.8397 22.6789H39.7544L39.6773 22.4638V22.7122H39.5966V22.3525H39.7128L39.7982 22.5825L39.8836 22.3525H39.9998V22.7122H39.9192L39.9168 22.7135Z" fill="#F69F00"/>
<path d="M30.7166 7.86328C28.5498 7.86328 26.5574 8.64204 24.9812 9.94367C27.1195 11.7088 28.4917 14.437 28.4917 17.5C28.4917 20.5631 27.1183 23.2913 24.9812 25.0564C26.5574 26.3581 28.5486 27.1368 30.7166 27.1368C35.8234 27.1368 39.9624 22.8215 39.9624 17.5C39.9624 12.1786 35.8234 7.86328 30.7166 7.86328Z" fill="#F69F00"/>
</svg>
