<svg width="51" height="51" viewBox="0 0 51 51" fill="none" xmlns="http://www.w3.org/2000/svg">
<g clip-path="url(#clip0_4583_983)">
<path d="M40.2906 28.2754C39.4884 31.5125 34.3669 34.4884 26.82 35.4772C19.2731 36.4754 13.5452 34.9268 11.9407 32.0069C11.1198 32.6599 10.3175 33.5928 10.7186 34.5816C11.8194 37.2497 18.6667 39.246 27.1651 38.1265C35.6636 37.0071 41.7646 33.3036 42.1377 30.4397C42.2683 29.3856 41.2515 28.6859 40.2906 28.2661V28.2754Z" fill="#C11718"/>
<path d="M26.5401 33.35C33.8912 32.3798 38.7234 29.9264 37.9771 26.7453C36.7551 21.4746 34.4789 14.8045 32.893 13.3679C32.1187 12.6683 28.7137 11.9313 23.7975 12.575C18.8813 13.2187 15.7841 14.8045 15.2151 15.6908C14.0583 17.4912 13.5919 24.5157 13.7692 29.9264C13.8718 33.2007 19.1798 34.3202 26.5308 33.35H26.5401ZM27.3424 17.7431C21.8198 19.2077 19.1052 18.1535 19.1052 18.1535C22.9766 18.3401 24.6371 16.0546 27.7249 15.3549C30.9433 14.6366 31.8482 16.549 27.3424 17.7431ZM21.2041 14.4967C26.7267 13.0321 29.432 14.0862 29.432 14.0862C25.5606 13.8997 23.9094 16.1852 20.8123 16.8848C17.6032 17.6032 16.689 15.6908 21.1948 14.4967H21.2041ZM15.5603 19.3849C17.7898 20.2338 20.9429 20.5417 24.7863 20.0286C28.6298 19.5249 31.5963 18.4147 33.5273 17.0154C33.6393 17.2766 33.7512 17.5379 33.8632 17.8177C31.7922 19.217 28.7604 20.3271 24.889 20.8309C21.0175 21.344 17.7991 21.0548 15.439 20.2338C15.4763 19.9353 15.5136 19.6461 15.5509 19.3756L15.5603 19.3849Z" fill="#C11718"/>
<path d="M25.5047 0C11.4183 0 0 11.4183 0 25.4953C0 39.5723 11.4183 51 25.5047 51C39.591 51 51 39.5817 51 25.4953C51 11.409 39.5817 0 25.5047 0ZM27.445 40.2627C17.9298 41.5127 9.74849 39.1525 8.63838 35.2252C7.92007 32.6878 9.96305 30.794 11.4463 29.8052C11.2784 23.4337 11.8661 16.4092 13.3774 14.4128C14.1143 13.4333 17.2115 11.5769 23.555 10.7373C29.8985 9.89775 33.3688 10.8959 34.3296 11.6515C36.3073 13.1908 38.6861 19.8235 40.1787 26.0177C41.8672 26.5961 44.3393 27.8835 44.2927 30.5235C44.2367 34.6095 36.9417 39.0033 27.4357 40.2533L27.445 40.2627Z" fill="#C11718"/>
</g>
<defs>
<clipPath id="clip0_4583_983">
<rect width="51" height="51" fill="white"/>
</clipPath>
</defs>
</svg>
