<svg width="50" height="34" viewBox="0 0 50 34" fill="none" xmlns="http://www.w3.org/2000/svg">
<rect x="0.25" y="0.25" width="49.5" height="33.5" rx="4.75" stroke="#C6C7C8" stroke-width="0.5"/>
<path d="M28.4124 27.6094C28.4466 27.6094 28.4784 27.6162 28.5092 27.6288C28.5387 27.6414 28.5649 27.6586 28.5877 27.6804C28.6105 27.7021 28.6275 27.7273 28.64 27.7571C28.6526 27.7869 28.6594 27.8178 28.6594 27.851C28.6594 27.8843 28.6526 27.9152 28.64 27.945C28.6275 27.9747 28.6093 27.9999 28.5877 28.0217C28.5649 28.0435 28.5387 28.0607 28.5092 28.0744C28.4796 28.087 28.4477 28.0939 28.4124 28.0939C28.3771 28.0939 28.3453 28.087 28.3145 28.0744C28.2838 28.0618 28.2576 28.0446 28.236 28.0217C28.2132 27.9999 28.1962 27.9736 28.1837 27.945C28.1711 27.9152 28.1643 27.8843 28.1643 27.851C28.1643 27.8178 28.1711 27.7869 28.1837 27.7571C28.1962 27.7273 28.2132 27.7021 28.236 27.6804C28.2588 27.6586 28.2849 27.6414 28.3145 27.6288C28.3453 27.6162 28.3771 27.6094 28.4124 27.6094ZM28.4124 28.0263C28.4363 28.0263 28.4591 28.0217 28.4796 28.0125C28.5001 28.0034 28.5194 27.9908 28.5342 27.9747C28.5501 27.9587 28.5615 27.9404 28.5706 27.9198C28.5797 27.8992 28.5843 27.8762 28.5843 27.851C28.5843 27.8258 28.5797 27.8041 28.5706 27.7835C28.5615 27.7617 28.549 27.7434 28.5342 27.7285C28.5183 27.7125 28.5001 27.701 28.4796 27.6918C28.4591 27.6827 28.4363 27.6781 28.4124 27.6781C28.3885 27.6781 28.3646 27.6827 28.3441 27.6918C28.3225 27.701 28.3043 27.7136 28.2884 27.7285C28.2724 27.7445 28.2599 27.7629 28.2519 27.7835C28.2428 27.8052 28.2383 27.827 28.2383 27.851C28.2383 27.8751 28.2428 27.898 28.2519 27.9198C28.261 27.9404 28.2736 27.9599 28.2884 27.9747C28.3043 27.9908 28.3225 28.0034 28.3441 28.0125C28.3658 28.0217 28.3885 28.0263 28.4124 28.0263ZM28.4261 27.7445C28.4557 27.7445 28.4773 27.7514 28.4921 27.764C28.5069 27.7766 28.5148 27.7949 28.5148 27.8167C28.5148 27.8339 28.5092 27.8476 28.4989 27.8591C28.4875 27.8705 28.4727 27.8774 28.4511 27.8808L28.5171 27.9576H28.4454L28.3862 27.8831H28.3794V27.9576H28.3191V27.7434H28.4249L28.4261 27.7445ZM28.3805 27.7972V27.8362H28.4249C28.434 27.8362 28.4409 27.835 28.4466 27.8316C28.4511 27.8281 28.4545 27.8236 28.4545 27.8167C28.4545 27.8098 28.4523 27.8052 28.4466 27.8018C28.442 27.7984 28.434 27.7972 28.4249 27.7972H28.3805Z" fill="#1D1D1B"/>
<path d="M23.9465 11.9266V15.8316H26.3894C26.9714 15.8316 27.4524 15.6392 27.8326 15.2534C28.2239 14.8687 28.419 14.4097 28.419 13.8786C28.419 13.3474 28.2239 12.9048 27.8326 12.519C27.4513 12.1234 26.9703 11.9255 26.3894 11.9255H23.9465V11.9266ZM23.9465 17.2065V21.7366H22.4878V10.5518H26.3573C27.3405 10.5518 28.174 10.8753 28.8623 11.5201C29.5618 12.1649 29.9098 12.9518 29.9098 13.8786C29.9098 14.8053 29.5618 15.6185 28.8623 16.2524C28.1862 16.8884 27.3504 17.2054 26.3573 17.2054H23.9465V17.2065Z" fill="#5F6368"/>
<path d="M31.3833 19.3918C31.3833 19.7677 31.544 20.0792 31.8677 20.3295C32.1902 20.5787 32.5682 20.7043 33.0016 20.7043C33.6157 20.7043 34.161 20.4803 34.6421 20.0333C35.1231 19.5852 35.3637 19.0595 35.3637 18.4562C34.9092 18.101 34.2741 17.9251 33.4605 17.9251C32.8686 17.9251 32.3742 18.0661 31.9785 18.3469C31.5828 18.6278 31.3833 18.9754 31.3833 19.3918ZM33.271 13.8311C34.3494 13.8311 35.2007 14.1141 35.8248 14.6824C36.4488 15.2507 36.7592 16.0278 36.7592 17.0169V21.7349H35.3637V20.6726H35.3005C34.6975 21.547 33.895 21.9841 32.8908 21.9841C32.0339 21.9841 31.3168 21.7349 30.7415 21.2355C30.1651 20.7349 29.877 20.1109 29.877 19.3601C29.877 18.5688 30.1796 17.9393 30.7881 17.4715C31.3966 17.0027 32.208 16.7688 33.2222 16.7688C34.089 16.7688 34.8028 16.9251 35.3625 17.2376V16.9098C35.3625 16.4103 35.1619 15.9863 34.7607 15.6376C34.3583 15.2879 33.8895 15.1141 33.3496 15.1141C32.535 15.1141 31.891 15.4518 31.4154 16.1294L30.1297 15.3327C30.8391 14.3327 31.8854 13.8332 33.271 13.8332" fill="#5F6368"/>
<path d="M44.7685 14.0801L39.8992 25.1075H38.3928L40.2007 21.2495L36.9973 14.0801H38.5835L40.899 19.5785H40.93L43.1823 14.0801H44.7685Z" fill="#5F6368"/>
<path d="M18.2245 16.229C18.2245 15.7765 18.1857 15.3394 18.1126 14.9219H11.9597V17.3973H15.4834C15.3327 18.2039 14.8749 18.8902 14.181 19.3503V20.958H16.2848C17.5163 19.8389 18.2256 18.1853 18.2256 16.2301" fill="#4285F4"/>
<path d="M11.9593 22.5112C13.7206 22.5112 15.2026 21.9418 16.2844 20.9593L14.1806 19.3516C13.5954 19.7396 12.8416 19.9669 11.9593 19.9669C10.2579 19.9669 8.81362 18.8369 8.29599 17.3145H6.13013V18.9702C7.20419 21.0697 9.41106 22.5123 11.9604 22.5123" fill="#34A853"/>
<path d="M8.29677 17.3121C8.16486 16.9241 8.09171 16.5099 8.09171 16.0825C8.09171 15.6552 8.16376 15.241 8.29677 14.853V13.1973H6.1298C5.68532 14.065 5.43481 15.0443 5.43481 16.0825C5.43481 17.1208 5.68532 18.1011 6.1298 18.9678L8.29677 17.3121Z" fill="#FABB05"/>
<path d="M11.9584 12.1985C12.9194 12.1985 13.7817 12.5242 14.4612 13.1624L16.3233 11.3285C15.1927 10.2924 13.7185 9.65527 11.9584 9.65527C9.41008 9.65527 7.20321 11.0968 6.12915 13.1963L8.29612 14.852C8.81264 13.3296 10.2569 12.1996 11.9595 12.1996" fill="#E94235"/>
</svg>
