<svg width="50" height="35" viewBox="0 0 50 35" fill="none" xmlns="http://www.w3.org/2000/svg">
<rect x="0.25" y="0.25" width="49.5" height="34.5" rx="4.75" stroke="#D5D5D5" stroke-width="0.5"/>
<path d="M21.0134 16.1904C20.3074 16.9139 20.3074 18.087 21.0134 18.8105L28.964 26.9574C29.67 27.6809 30.8139 27.6809 31.5198 26.9574L39.4705 18.8105C40.1765 18.087 40.1765 16.9139 39.4705 16.1904L31.5198 8.04261C30.8139 7.31913 29.67 7.31913 28.964 8.04261L21.0134 16.1904Z" fill="#352AFF"/>
<path d="M10.5295 16.1904C9.82351 16.9139 9.82351 18.087 10.5295 18.8105L18.4802 26.9574C19.1861 27.6809 20.33 27.6809 21.036 26.9574L28.9866 18.8105C29.6926 18.087 29.6926 16.9139 28.9866 16.1904L21.036 8.04261C20.33 7.31913 19.1861 7.31913 18.4802 8.04261L10.5295 16.1904Z" fill="#EE2D24"/>
</svg>
