<svg width="221" height="31" viewBox="0 0 221 31" fill="none" xmlns="http://www.w3.org/2000/svg">
<g clip-path="url(#clip0_746_825)">
<path d="M13.839 13.6985C13.8871 11.8327 13.0523 8.77092 9.63268 8.77092C6.46995 8.77092 5.13743 11.6254 4.92872 13.6985H13.855H13.839ZM4.91267 17.2547C5.04111 20.9065 7.91486 22.4693 11.1579 22.4693C13.5339 22.4693 15.2518 22.1344 16.793 21.5603L17.5475 25.0846C15.7976 25.7862 13.3734 26.3284 10.4675 26.3284C3.88518 26.3284 0 22.3098 0 16.1384C0 10.541 3.4196 5.27856 9.92167 5.27856C16.4237 5.27856 18.6714 10.6686 18.6714 15.1018C18.6714 16.0586 18.5911 16.7922 18.5108 17.2547H4.92872H4.91267Z" fill="white"/>
<path d="M20.4694 21.2412C21.6414 21.9429 23.8409 22.6924 25.6871 22.6924C27.9348 22.6924 28.9462 21.7834 28.9462 20.4598C28.9462 19.1362 28.1114 18.3867 25.6069 17.5256C21.6414 16.1542 19.9717 14.0014 20.0199 11.6412C20.0199 8.08506 22.9739 5.3103 27.6939 5.3103C29.9416 5.3103 31.9002 5.88439 33.0722 6.50632L32.0768 10.1103C31.2099 9.61596 29.5723 8.94619 27.7742 8.94619C25.9761 8.94619 24.9326 9.80732 24.9326 11.0512C24.9326 12.295 25.8958 12.9489 28.4806 13.8738C32.141 15.1974 33.8589 17.0631 33.907 20.0452C33.907 23.6971 31.0333 26.3442 25.655 26.3442C23.1987 26.3442 20.9832 25.7702 19.4901 24.9409L20.4855 21.2572L20.4694 21.2412Z" fill="white"/>
<path d="M41.1476 17.4778C41.1476 17.9721 41.1958 18.4346 41.3082 18.8811C41.8059 20.9542 43.6521 22.4372 45.8034 22.4372C49.0625 22.4372 50.973 19.7422 50.973 15.7715C50.973 12.2153 49.223 9.31297 45.9319 9.31297C43.8127 9.31297 41.838 10.8439 41.3403 13.0764C41.2119 13.4911 41.1316 13.9376 41.1316 14.3522V17.4618L41.1476 17.4778ZM36.0263 12.4704C36.0263 9.82327 35.946 7.67044 35.8657 5.75681H40.361L40.6018 8.86646H40.6821C42.1751 6.58606 44.5672 5.3103 47.6497 5.3103C52.3216 5.3103 56.1907 9.28108 56.1907 15.5801C56.1907 22.8678 51.567 26.3921 46.9273 26.3921C44.3906 26.3921 42.2554 25.3077 41.2119 23.6971H41.1316V31.4153H36.0102V12.4704H36.0263Z" fill="white"/>
<path d="M58.326 12.2473C58.326 9.52043 58.2938 7.57492 58.1654 5.74103H62.6285L62.7891 9.58422H62.9496C63.945 6.72973 66.3211 5.27856 68.5045 5.27856C69.0022 5.27856 69.2912 5.32641 69.7086 5.40614V10.2061C69.2912 10.1264 68.8256 10.0467 68.1995 10.0467C65.7431 10.0467 64.0735 11.6254 63.6079 13.9058C63.5276 14.3683 63.4473 14.8945 63.4473 15.4846V25.9138H58.326V12.2473Z" fill="white"/>
<path d="M83.2585 13.6985C83.3067 11.8327 82.4718 8.77092 79.0522 8.77092C75.8895 8.77092 74.557 11.6254 74.3483 13.6985H83.2746H83.2585ZM74.3322 17.2547C74.4607 20.9065 77.3344 22.4693 80.5774 22.4693C82.9535 22.4693 84.6713 22.1344 86.2125 21.5603L86.9671 25.0846C85.2172 25.7862 82.7929 26.3284 79.8871 26.3284C73.3047 26.3284 69.4196 22.3098 69.4196 16.1384C69.4196 10.541 72.8392 5.27856 79.3412 5.27856C85.8433 5.27856 88.0909 10.6686 88.0909 15.1018C88.0909 16.0586 88.0106 16.7922 87.9304 17.2547H74.3322Z" fill="white"/>
<path d="M89.8891 21.2412C91.061 21.9429 93.2605 22.6924 95.1068 22.6924C97.3544 22.6924 98.3658 21.7834 98.3658 20.4598C98.3658 19.1362 97.531 18.3867 95.0265 17.5256C91.061 16.1542 89.3914 14.0014 89.4395 11.6412C89.4395 8.08506 92.3936 5.3103 97.1136 5.3103C99.3612 5.3103 101.32 5.88439 102.492 6.50632L101.496 10.1103C100.613 9.61596 98.9919 8.94619 97.1938 8.94619C95.3957 8.94619 94.3522 9.80732 94.3522 11.0512C94.3522 12.295 95.3155 12.9489 97.9002 13.8738C101.577 15.1974 103.278 17.0631 103.327 20.0452C103.327 23.6971 100.453 26.3442 95.0746 26.3442C92.6183 26.3442 90.4028 25.7702 88.9097 24.9409L89.9051 21.2572L89.8891 21.2412Z" fill="white"/>
<path d="M105.189 21.2412C106.361 21.9429 108.56 22.6924 110.407 22.6924C112.654 22.6924 113.666 21.7834 113.666 20.4598C113.666 19.1362 112.831 18.3867 110.326 17.5256C106.361 16.1542 104.691 14.0014 104.739 11.6412C104.739 8.08506 107.693 5.3103 112.413 5.3103C114.661 5.3103 116.62 5.88439 117.792 6.50632L116.796 10.1103C115.913 9.61596 114.292 8.94619 112.51 8.94619C110.728 8.94619 109.668 9.80732 109.668 11.0512C109.668 12.295 110.631 12.9489 113.216 13.8738C116.877 15.1974 118.594 17.0631 118.643 20.0452C118.643 23.6971 115.769 26.3442 110.391 26.3442C107.934 26.3442 105.719 25.7702 104.226 24.9409L105.221 21.2572L105.189 21.2412Z" fill="white"/>
<path d="M124.727 15.8513C124.727 19.7423 126.638 22.6925 129.768 22.6925C132.69 22.6925 134.729 19.838 134.729 15.7715C134.729 12.63 133.316 9.02601 129.817 9.02601C126.317 9.02601 124.727 12.5024 124.727 15.8513ZM140.027 15.644C140.027 23.0593 134.777 26.3762 129.608 26.3762C123.86 26.3762 119.429 22.4373 119.429 15.9788C119.429 9.52036 123.812 5.29443 129.929 5.29443C136.046 5.29443 140.027 9.52037 140.027 15.644Z" fill="white"/>
<path d="M161.54 25.2918C160.448 25.7862 158.329 26.3284 155.793 26.3284C149.451 26.3284 145.325 22.3098 145.325 16.0586C145.325 9.8074 149.499 5.29443 156.627 5.29443C158.506 5.29443 160.416 5.70906 161.588 6.25126L160.673 10.0626C159.838 9.69578 158.634 9.28115 156.788 9.28115C152.871 9.28115 150.527 12.1357 150.575 15.8194C150.575 19.9656 153.288 22.3257 156.788 22.3257C158.586 22.3257 159.838 21.9589 160.834 21.5443L161.54 25.3078V25.2918Z" fill="white"/>
<path d="M168.427 0.0158691H163.258V25.9295H168.427V0.0158691Z" fill="white"/>
<path d="M189.026 19.8701C189.026 22.2781 189.106 24.2555 189.186 25.914H184.691L184.434 22.8522H184.354C183.471 24.3034 181.48 26.3765 177.852 26.3765C174.223 26.3765 170.756 24.1758 170.756 17.5897V5.74121H175.877V16.7127C175.877 20.0774 176.969 22.2143 179.666 22.2143C181.705 22.2143 183.037 20.7632 183.583 19.4874C183.744 19.025 183.872 18.4987 183.872 17.9087V5.74121H188.993V19.8701H189.026Z" fill="white"/>
<path d="M196.973 17.5894C196.973 18.004 197.021 18.4187 197.101 18.7854C197.647 20.8107 199.429 22.3416 201.644 22.3416C204.855 22.3416 206.814 19.7741 206.814 15.7236C206.814 12.1675 205.112 9.26514 201.693 9.26514C199.605 9.26514 197.727 10.7641 197.149 12.9967C197.069 13.3635 196.973 13.8259 196.973 14.3203V17.5894ZM191.675 25.9137C191.755 24.5422 191.835 22.3097 191.835 20.2366V0H196.956V8.51564H197.037C198.289 6.57012 200.505 5.27842 203.539 5.27842C208.5 5.27842 212.048 9.37677 212 15.5163C212 22.7562 207.376 26.3602 202.784 26.3602C200.151 26.3602 197.823 25.3715 196.362 22.8838H196.282L196.025 25.9137H191.642H191.675Z" fill="white"/>
</g>
<defs>
<clipPath id="clip0_746_825">
<rect width="221" height="31" fill="white"/>
</clipPath>
</defs>
</svg>
