<svg width="50" height="35" viewBox="0 0 50 35" fill="none" xmlns="http://www.w3.org/2000/svg">
<rect x="0.25" y="0.25" width="49.5" height="34.5" rx="4.75" stroke="#D5D5D5" stroke-width="0.5"/>
<path fill-rule="evenodd" clip-rule="evenodd" d="M16.2504 23.1604H13.2213L10.9499 14.24C10.8421 13.8297 10.6132 13.4669 10.2765 13.2959C9.43616 12.8662 8.51017 12.5243 7.5 12.3518V12.0084H12.3795C13.053 12.0084 13.5581 12.5243 13.6422 13.1235L14.8208 19.558L17.8483 12.0084H20.7932L16.2504 23.1604ZM22.4769 23.1604H19.6162L21.9718 12.0084H24.8325L22.4769 23.1604ZM28.5335 15.0976C28.6177 14.497 29.1227 14.1535 29.712 14.1535C30.638 14.0673 31.6467 14.2398 32.4885 14.6679L32.9936 12.2669C32.1518 11.9234 31.2258 11.751 30.3855 11.751C27.609 11.751 25.5886 13.2957 25.5886 15.4396C25.5886 17.0705 27.0197 17.9269 28.0299 18.4428C29.1227 18.9572 29.5436 19.3006 29.4595 19.815C29.4595 20.5866 28.6177 20.9301 27.7773 20.9301C26.7672 20.9301 25.757 20.6729 24.8325 20.2432L24.3274 22.6458C25.3376 23.0739 26.4304 23.2464 27.4406 23.2464C30.5538 23.3311 32.4885 21.7879 32.4885 19.4716C32.4885 16.5546 28.5335 16.3836 28.5335 15.0976ZM42.5 23.1604L40.2286 12.0084H37.7889C37.2838 12.0084 36.7787 12.3518 36.6103 12.8662L32.4042 23.1604H35.3491L35.9369 21.5309H39.5552L39.8919 23.1604H42.5ZM38.2098 15.0113L39.0501 19.2143H36.6946L38.2098 15.0113Z" fill="#172B85"/>
</svg>
