<svg width="29" height="26" viewBox="0 0 29 26" fill="none" xmlns="http://www.w3.org/2000/svg">
<g clip-path="url(#clip0_4583_1838)">
<path d="M28.9997 4.82195V4.76349C28.9997 4.74718 28.9997 4.73086 28.9977 4.71455C28.9336 4.05857 28.1662 3.71596 26.4316 3.56913C25.7922 3.51475 25.1638 3.49979 24.7659 3.49639C24.5202 2.57598 24.059 1.89756 23.3907 1.47542C22.9901 1.22255 22.5709 1.10019 22.1944 1.04785L17.6549 0.0540168C17.4822 0.000314649 17.297 -0.0132808 17.1174 0.0145899L2.8163 2.22861C2.52445 2.27348 2.29387 2.48693 2.22917 2.77107C2.20852 2.86284 2.20645 2.95529 2.22091 3.04366H2.21953L2.30213 8.76328C2.31039 9.31118 2.66487 9.80062 3.18455 9.98076C3.37383 10.0467 3.64296 10.1194 3.97611 10.186V18.1693C3.55142 18.1924 3.1226 18.2427 2.71167 18.3325L2.68345 18.3393C2.16171 18.4841 0.435424 19.0313 0.12706 20.0033C0.0795659 20.1522 0.0671763 20.3038 0.0871374 20.4527H0.0795659L0.00798139 23.2833C-0.091824 24.445 0.700424 25.4816 1.85679 25.6999C2.91817 25.8997 3.84257 26.0003 4.61279 26.0003C4.76354 26.0003 4.90946 25.9962 5.0485 25.9888C6.8209 25.8895 8.11493 25.5911 8.89617 25.1023C9.11299 24.9664 9.27061 24.8284 9.38556 24.6979L10.6892 25.1934C10.7739 25.2464 10.8716 25.2757 10.9707 25.2757C11.021 25.2757 11.0719 25.2689 11.1208 25.2539L24.1726 21.3765C24.6083 21.2473 24.927 20.8938 25.0165 20.4656C25.1913 20.4758 25.3978 20.4833 25.6242 20.4833C26.3125 20.4833 27.1819 20.4126 27.8668 20.125C28.5551 19.8354 28.9997 19.1597 28.9997 18.4038L28.9983 4.82263L28.9997 4.82195ZM17.2778 1.02134C17.3018 1.01726 17.3266 1.01998 17.35 1.02745L17.3782 1.03697L19.024 1.39725L9.09853 2.97229C8.96982 2.98996 6.00112 3.39375 4.57356 3.1735C4.38221 3.14427 4.21013 3.10824 4.05664 3.06814L17.2778 1.02134ZM3.33529 8.74765L3.26508 3.8859C3.57069 4.00282 3.94995 4.10955 4.41387 4.18092C4.77111 4.23599 5.20268 4.25774 5.65903 4.25774C6.73762 4.25774 7.95387 4.13742 8.6587 4.05585V9.10861C8.6587 9.16027 8.62153 9.20378 8.57059 9.21261C6.11538 9.63543 4.09725 9.21533 3.52664 9.0182C3.41375 8.97877 3.33735 8.87001 3.33529 8.74765ZM8.74818 10.216C9.2947 10.1215 9.69117 9.65583 9.69117 9.10725V4.77573C9.88527 5.21146 10.0752 5.87356 10.2122 6.88031C10.4056 8.30579 10.3788 9.6837 10.3788 9.69729V9.70409L10.4435 24.0059L9.69186 23.7204L9.67327 20.5023C9.70837 19.983 9.36628 19.4935 8.6525 19.0476C8.04954 18.671 7.43901 18.4317 6.83673 18.3372C6.38933 18.2672 5.73612 18.1849 5.00995 18.1605V10.341C6.02659 10.4484 7.32819 10.4607 8.74818 10.216ZM1.11341 20.3086C1.20702 20.0135 2.15689 19.5479 2.94983 19.3249C4.27139 19.0408 5.84901 19.2148 6.67429 19.3446C7.13684 19.4174 7.61659 19.607 8.09979 19.9095C8.5644 20.1998 8.64769 20.4044 8.64356 20.4398C8.6353 20.5098 8.41504 20.7756 7.5457 21.0665C5.38371 21.7898 2.7867 21.3024 1.28756 20.5438C1.26415 20.5315 1.22492 20.4846 1.1905 20.4425L1.16435 20.4112C1.14163 20.384 1.10515 20.3337 1.11341 20.3086ZM8.65732 23.9623C8.62635 24.0127 8.54513 24.1153 8.34414 24.2404C7.9105 24.5123 6.97715 24.859 4.99137 24.9698C4.23835 25.0119 3.22171 24.9174 2.05158 24.6972C1.4142 24.5769 0.979191 24.0018 1.03907 23.358L1.0845 21.5777C2.19269 22.0835 3.67462 22.4431 5.20474 22.4431C6.10093 22.4431 7.01363 22.32 7.87678 22.0311C8.17068 21.9325 8.42674 21.8279 8.64769 21.715L8.66076 23.9569C8.66076 23.9569 8.65801 23.9603 8.65732 23.9623ZM24.0108 20.2263C24.0088 20.3065 23.9551 20.3759 23.8766 20.399L11.4753 24.0827L11.4099 9.71157C11.4126 9.58853 11.4333 8.22014 11.2364 6.75591C11.0568 5.42219 10.7581 4.44468 10.3341 3.80773L21.1619 2.08994L21.2094 2.08042C21.2149 2.07906 21.5659 1.99681 22.0078 2.05051L22.054 2.06071V2.05663C22.3038 2.09198 22.5785 2.17151 22.8338 2.3333C23.348 2.65823 23.688 3.25167 23.8436 4.09731C24.344 6.81573 24.0707 18.0103 24.0108 20.2263ZM27.7057 4.79544C27.4662 4.87158 27.0532 4.96267 26.3573 5.02317C25.839 5.06803 25.3393 5.07959 24.9999 5.07551C24.9834 4.87497 24.9655 4.68804 24.9456 4.51605C26.0923 4.53169 27.1709 4.64249 27.7057 4.79544ZM27.4634 19.1856C26.7393 19.4901 25.6697 19.4813 25.064 19.4452C25.1404 16.3672 25.2642 9.85228 25.0674 6.09041H25.1858C25.9574 6.09041 27.1392 6.02855 27.9673 5.77703L27.9686 18.4025C27.9686 18.7492 27.7704 19.0564 27.4634 19.1856Z"/>
</g>
<defs>
<clipPath id="clip0_4583_1838">
<rect width="29" height="26" fill="white"/>
</clipPath>
</defs>
</svg>
