<svg width="78" height="180" viewBox="0 0 78 180" fill="none" xmlns="http://www.w3.org/2000/svg">
<rect x="3" width="75" height="180" rx="37" fill="white"/>
<path d="M69.1335 157.841H78L74.9233 31.2324L74.9211 30.9575C74.8724 24.7181 72.9526 18.7177 69.3696 13.6057C65.7865 8.49324 60.7977 4.63734 54.9428 2.45415L53.5796 1.94588L53.5625 1.99113C52.8627 1.70251 52.138 1.47569 51.3979 1.31675C48.7932 0.757713 44.69 0.0871941 39.7543 0.0093808V0L39.1318 0.00275866L38.5006 0.00165385V0.0093808C33.566 0.0877459 29.4644 0.757713 26.8609 1.31675C26.0278 1.49556 25.2153 1.76101 24.4353 2.10317C24.4298 2.10482 24.4242 2.10648 24.4187 2.10868L23.2115 2.56453C17.3355 4.75544 12.3213 8.59147 8.71003 13.6576C5.075 18.758 3.12758 24.7402 3.07894 30.9575L3.07673 31.2324L0.0121611 157.332L0 157.841H8.5442L8.43972 159.846C8.39827 160.638 8.74707 161.4 9.3728 161.883C10.7409 162.94 13.3815 163.853 17.0082 164.524C22.3055 165.503 29.712 166 39.0235 166C48.3349 166 55.6641 165.506 60.879 164.531C64.5124 163.852 67.0219 162.963 68.3375 161.887C68.9124 161.418 69.2391 160.689 69.2115 159.938L69.1341 157.841L69.1335 157.841ZM68.5537 14.1753C72.0212 19.1222 73.8785 24.9278 73.9255 30.9653L73.9277 31.2484L76.9801 156.847H73.1472L70.5309 35.0949C70.4746 29.4647 69.3043 23.9715 67.2353 19.6272C66.0756 17.1918 64.6461 15.1289 62.9867 13.4948C61.3417 11.8751 59.4705 10.6792 57.4159 9.93195L57.4269 5.11084C57.4269 4.91714 57.3877 4.72895 57.3136 4.55511C61.8071 6.75596 65.656 10.0407 68.5542 14.1753H68.5537ZM39.0257 128.555C39.0357 128.555 39.0915 128.555 39.1899 128.555C41.1776 128.555 60.4473 128.646 66.0938 132.041C66.7931 132.461 67.2287 133.205 67.2591 134.029L67.3055 135.283C66.5145 135.575 64.252 136.345 60.5341 137.096C52.6875 138.681 44.507 138.966 39.0268 138.927C29.1515 138.854 21.8881 137.833 17.5334 136.988C13.8187 136.268 11.533 135.551 10.7177 135.275L10.7835 134.009C10.8316 133.088 11.3777 132.269 12.2085 131.873C17.854 129.181 31.4356 128.639 39.0263 128.556L39.0257 128.555ZM50.4288 127.962C44.4119 127.536 39.0732 127.561 39.0174 127.561C31.257 127.647 24.82 128.078 19.8849 128.844C18.577 129.048 17.3836 129.272 16.3068 129.518V60.5415C17.9065 60.3958 23.6382 59.9057 31.1808 59.6431C39.2662 59.361 51.1231 59.2904 61.963 60.5316V129.503C59.0703 128.817 55.2158 128.301 50.4288 127.963V127.962ZM62.4826 59.5917C51.4692 58.2943 39.3607 58.3633 31.1382 58.6502C22.5205 58.951 16.2548 59.547 15.7883 59.5923L7.99861 59.4907L8.52264 35.112V35.1065C8.57736 29.6165 9.71331 24.2706 11.7221 20.0532C12.8321 17.7227 14.1941 15.7542 15.7711 14.2017C17.2758 12.7205 18.98 11.619 20.845 10.9176L20.9379 51.3049L20.9937 51.412C21.0871 51.5913 21.2635 51.6973 21.6443 51.8038C22.0877 51.9274 22.8074 52.0477 23.7836 52.1614C25.7288 52.3871 28.654 52.5775 32.4035 52.7254L32.3427 52.764C32.4035 52.8589 33.8595 55.0504 38.7803 55.0504C38.8626 55.0504 38.9467 55.0499 39.0312 55.0488C43.3567 54.9847 45.4113 53.3037 45.9746 52.7475C49.4969 52.6145 52.237 52.4439 54.1562 52.2386C56.8786 51.9473 57.0881 51.6702 57.213 51.5047C57.2882 51.4053 57.3258 51.2878 57.3225 51.1702L57.4148 10.9948C59.2024 11.6985 60.8386 12.7735 62.2897 14.2023C63.8662 15.7547 65.2288 17.7238 66.3387 20.0538C68.3475 24.2711 69.4834 29.6171 69.5382 35.107L70.06 59.3897L62.4842 59.5923L62.4826 59.5917ZM39.6343 51.9362L39.4779 51.9395L39.3209 51.9362C25.9681 51.6509 22.6963 51.0703 21.9312 50.8568L21.8389 10.72C24.4812 10.9292 38.4984 11.9054 56.4187 10.72L56.3264 50.8915C55.647 51.0935 52.6151 51.6597 39.6343 51.9368V51.9362ZM40.1462 52.9185C41.595 52.886 42.9559 52.8496 44.2295 52.8087C44.1372 52.8623 44.0393 52.9158 43.9349 52.9699C43.0134 53.4456 41.412 54.0206 39.0152 54.0559C36.6455 54.0913 35.1801 53.5869 34.368 53.1575C34.1226 53.0278 33.9209 52.897 33.7572 52.7762C35.3199 52.8308 37.0097 52.8783 38.8162 52.9191V52.9472L39.4773 52.9334L40.1462 52.9478V52.9191V52.9185ZM27.0698 2.28749C29.7154 1.71962 33.9336 1.03475 39.0053 0.996672L39.1042 0.995567L39.2529 0.996672C44.3246 1.0353 48.5428 1.72017 51.1883 2.28749C53.0556 2.68814 54.8184 3.55458 56.2855 4.79297C56.3783 4.87133 56.4314 4.98612 56.4314 5.10753L56.4209 9.7228C38.1396 10.9386 24.2562 9.92202 21.8367 9.7228L21.8262 5.10753C21.8262 4.98612 21.8793 4.87133 21.9721 4.79297C23.4397 3.55458 25.202 2.68814 27.0692 2.28749H27.0698ZM4.07117 31.2522L4.07338 30.9653C4.12036 24.9527 6.00366 19.1663 9.51984 14.2332C12.4606 10.1074 16.3637 6.82439 20.9174 4.62244C20.8605 4.77641 20.8307 4.94142 20.8307 5.10974L20.8417 9.86187C18.7091 10.603 16.7694 11.8226 15.0713 13.4943C13.4119 15.1283 11.9824 17.1912 10.8227 19.6266C8.7537 23.9709 7.58348 29.4642 7.5271 35.0943L4.91083 156.847H1.01876L4.07117 31.2522ZM5.90637 156.847L7.97705 60.4841L15.3112 60.5796V129.759C13.8928 130.125 12.7115 130.532 11.779 130.976C10.6188 131.529 9.85648 132.671 9.78959 133.956L8.59561 156.847H5.90637V156.847ZM67.7068 161.118C66.892 161.784 65.0143 162.747 60.6949 163.554C55.5409 164.518 48.2493 165.006 39.0229 165.006C29.7966 165.006 22.4265 164.515 17.189 163.546C12.8028 162.735 10.8482 161.767 9.98085 161.097C9.61326 160.812 9.40818 160.364 9.4325 159.896L10.6635 136.304C11.6723 136.635 13.874 137.288 17.3051 137.955C25.2794 139.505 33.5146 139.878 39.0191 139.919C39.3563 139.921 39.6885 139.923 40.019 139.923C49.545 139.923 56.5381 138.919 60.7745 138.06C64.1591 137.374 66.3315 136.684 67.3437 136.326L68.2165 159.973C68.2325 160.416 68.0424 160.844 67.7068 161.118V161.118ZM68.2535 133.993C68.2104 132.832 67.5952 131.784 66.6074 131.19C65.7191 130.656 64.5008 130.178 62.958 129.757V60.573L70.0793 60.3825L72.1522 156.847H69.0971L68.2535 133.993Z" fill="black"/>
<path d="M54.1893 97.1259C50.4504 95.7203 39.7161 95.7578 38.5669 95.7655C37.5028 95.7573 27.5557 95.7203 23.8162 97.1259C23.097 97.3963 22.6913 98.1573 22.8637 98.9046L22.9013 99.0674C23.1672 100.217 23.4884 101.354 23.8532 102.477C24.2893 103.819 24.9311 106.438 25.066 110.498C25.1478 112.96 25.4623 115.408 26.0283 117.805C27.3323 123.328 30.0155 131.753 34.2752 131.936C35.1248 131.972 35.8948 131.999 36.5935 132.018C37.1551 132.042 37.9411 132.061 39.0025 132.057C40.0638 132.06 40.8498 132.041 41.4114 132.018C42.1101 131.999 42.8802 131.972 43.7298 131.936C47.9894 131.753 50.6726 123.328 51.9766 117.805C52.5426 115.408 52.8571 112.959 52.9389 110.498C53.0738 106.438 53.7161 103.819 54.1517 102.477C54.5166 101.354 54.8377 100.218 55.1036 99.0674L55.1412 98.9046C55.3137 98.1573 54.9079 97.3958 54.1888 97.1259H54.1893Z" fill="white"/>
<path d="M39.2532 132.556C39.1697 132.556 39.0852 132.556 38.9995 132.556C38.0819 132.559 37.2649 132.546 36.5745 132.517C35.8426 132.497 35.0615 132.469 34.2523 132.435C32.1722 132.345 30.2685 130.547 28.5941 127.092C27.8059 125.465 26.6362 122.552 25.5428 117.921C24.9795 115.537 24.6517 113.045 24.5672 110.516C24.4312 106.422 23.764 103.819 23.3781 102.633C22.9978 101.462 22.6739 100.301 22.4152 99.1814L22.3776 99.0186C22.1493 98.0318 22.6922 97.0192 23.6396 96.6632C27.4521 95.23 37.4224 95.2626 38.5656 95.2714C39.7993 95.2631 50.5508 95.2306 54.3627 96.6632C55.3101 97.0192 55.8524 98.0318 55.6247 99.0186L55.5871 99.1814C55.3284 100.301 55.0044 101.462 54.6241 102.633C54.2383 103.82 53.5711 106.422 53.4351 110.516C53.3511 113.045 53.0228 115.537 52.4595 117.921C51.8559 120.477 50.8365 124.144 49.4082 127.092C47.7338 130.547 45.8301 132.345 43.75 132.435C42.9408 132.469 42.1597 132.497 41.4278 132.517C40.8015 132.543 40.0708 132.557 39.2532 132.557V132.556ZM38.9995 131.563C39.9105 131.566 40.7131 131.553 41.3891 131.524H41.3963C42.1238 131.504 42.901 131.477 43.7069 131.442C45.3928 131.37 47.0092 129.76 48.5121 126.659C49.9013 123.792 50.8985 120.201 51.4905 117.693C52.0383 115.372 52.3578 112.947 52.4401 110.483C52.5734 106.478 53.1864 103.836 53.6772 102.326C54.0487 101.182 54.3649 100.049 54.6175 98.9579L54.6551 98.7951C54.7717 98.2912 54.4953 97.7741 54.0122 97.5926C52.5142 97.0297 49.5292 96.6218 45.3801 96.4138C42.0972 96.2488 39.1299 96.2604 38.5689 96.2642H38.5617C38.0421 96.2604 35.2943 96.2488 32.2197 96.4138C28.3343 96.6218 25.4881 97.0297 23.9901 97.5926C23.5069 97.7741 23.2306 98.2907 23.3472 98.7951L23.3848 98.9579C23.6368 100.049 23.9536 101.182 24.325 102.326C24.8159 103.836 25.4289 106.478 25.5622 110.483C25.644 112.947 25.9635 115.372 26.5113 117.693C27.1033 120.201 28.101 123.792 29.4896 126.659C30.9926 129.76 32.6089 131.37 34.2948 131.442C35.1002 131.477 35.8774 131.504 36.6049 131.524H36.6121C37.2881 131.552 38.0913 131.565 38.9989 131.562L38.9995 131.563Z" fill="black"/>
<path d="M51.6225 99.1421C47.6442 99.6509 43.6261 99.6454 39.6191 99.7237V62.2382C39.6191 62.2382 39.6401 55.6577 40.8678 54.3906L37.1377 54.56C37.1377 54.56 37.9038 56.6665 37.9038 62.0881V99.7403C34.517 99.764 31.1285 99.785 27.7571 99.4555C27.3309 99.4108 26.8716 99.3463 26.4454 99.2734C26.0142 99.1857 25.5726 99.1123 25.1724 98.918C25.4089 99.1029 25.6942 99.2127 25.9689 99.3297C26.373 99.4826 26.8362 99.6272 27.2563 99.7298C31.1771 100.666 35.2544 100.731 39.2625 100.725C42.976 100.656 46.7233 100.484 50.3743 99.7337C50.7967 99.6443 51.2704 99.5323 51.6817 99.4131C52.1581 99.2751 52.7153 99.0946 53.1531 98.865C53.2189 98.8292 53.2841 98.7928 53.3438 98.7481C52.8198 98.9655 52.1786 99.0532 51.6231 99.1426L51.6225 99.1421Z" fill="black"/>
</svg>
