<svg width="16" height="13" viewBox="0 0 16 13" fill="none" xmlns="http://www.w3.org/2000/svg">
<path d="M14.542 0.910156H0.749492C0.597076 0.910156 0.450902 0.972818 0.343127 1.08436C0.235352 1.19589 0.174805 1.34717 0.174805 1.50491V11.6158C0.174805 11.9312 0.295899 12.2338 0.511449 12.4569C0.726998 12.6799 1.01935 12.8053 1.32418 12.8053H13.9673C14.2721 12.8053 14.5645 12.6799 14.78 12.4569C14.9956 12.2338 15.1167 11.9312 15.1167 11.6158V1.50491C15.1167 1.34717 15.0561 1.19589 14.9484 1.08436C14.8406 0.972818 14.6944 0.910156 14.542 0.910156ZM7.64574 7.24058L2.22716 2.09967H13.0643L7.64574 7.24058ZM5.54167 6.85771L1.32418 10.8582V2.85724L5.54167 6.85771ZM6.39221 7.66435L7.25424 8.48585C7.36026 8.58658 7.49895 8.64247 7.64287 8.64247C7.78679 8.64247 7.92548 8.58658 8.0315 8.48585L8.89353 7.66435L13.06 11.6158H2.22716L6.39221 7.66435ZM9.74982 6.85771L13.9673 2.85649V10.8589L9.74982 6.85771Z" fill="#F58026"/>
</svg>
