<svg width="23" height="32" viewBox="0 0 23 32" fill="none" xmlns="http://www.w3.org/2000/svg">
    <path
        d="M14.9669 31.7428H0.398926V0.257812H22.7918V23.4307C22.7918 25.3316 22.1722 27.1902 21.0463 28.664C19.9374 30.1162 18.385 31.1386 16.6768 31.5432C16.119 31.6754 15.5433 31.7428 14.9669 31.7428ZM1.7533 30.3041H14.9669C15.4443 30.3041 15.9209 30.2484 16.3822 30.1396C17.7941 29.8051 19.0774 28.9589 19.995 27.7576C20.9253 26.5392 21.4383 25.0025 21.4383 23.4307V1.69651H1.75415V30.3041H1.7533Z"
        fill="#C11718" />
    <path
        d="M16.4927 31.5179C16.1236 31.5179 15.8214 31.2032 15.8155 30.8094L15.7478 25.9942C15.7402 25.4619 15.934 24.9584 16.2938 24.5771C16.6637 24.1842 17.18 23.9648 17.7108 23.9729L21.9119 24.0403C22.286 24.0466 22.5848 24.373 22.5789 24.7705C22.573 25.1679 22.2648 25.4862 21.8915 25.479L17.6905 25.4116C17.5212 25.4089 17.3654 25.4736 17.2511 25.595C17.1529 25.6993 17.1005 25.8333 17.1021 25.9736L17.1699 30.7887C17.1758 31.1861 16.877 31.5126 16.5028 31.5188C16.4995 31.5188 16.4961 31.5188 16.4927 31.5188V31.5179Z"
        fill="#C11718" />
    <path
        d="M7.4557 12.9836C7.45462 12.994 7.46003 13.0032 7.46976 13.0043C8.08493 13.1111 8.77902 13.0847 9.53257 12.9228C9.93908 12.8355 10.364 12.708 10.7953 12.5438C12.0214 12.0775 13.016 11.4229 13.6744 10.6477C13.6798 10.6408 13.6798 10.6305 13.6733 10.6236L13.4214 10.3835C13.4139 10.3766 13.403 10.3778 13.3976 10.3847C12.7803 11.1105 11.8376 11.7284 10.6699 12.1717C9.49798 12.6184 8.41251 12.7689 7.53138 12.615C7.52273 12.6138 7.51408 12.6196 7.513 12.6288L7.4557 12.9825V12.9836Z"
        fill="black" />
    <path
        d="M8.24178 13.1829C7.96717 13.1829 7.70338 13.1611 7.45255 13.1175C7.41904 13.1117 7.39093 13.0922 7.37147 13.0635C7.35201 13.0348 7.34444 12.9992 7.34984 12.9636L7.40715 12.6087C7.41904 12.5375 7.48282 12.4893 7.54985 12.5007C8.41801 12.6523 9.48509 12.5007 10.6343 12.0632C11.7836 11.6268 12.7123 11.0192 13.3188 10.3072C13.3642 10.2532 13.4442 10.2486 13.495 10.298L13.7469 10.538C13.7718 10.5622 13.7859 10.5943 13.788 10.6299C13.7902 10.6655 13.7783 10.6988 13.7567 10.7252C13.0864 11.5131 12.0755 12.1792 10.8333 12.6523C10.3954 12.8189 9.96512 12.9486 9.55537 13.0359C9.0948 13.1347 8.65586 13.1841 8.24286 13.1841L8.24178 13.1829ZM7.57905 12.905C8.15854 12.9923 8.8083 12.9601 9.51212 12.8097C9.91214 12.7235 10.3316 12.5984 10.7598 12.4353C11.9295 11.9897 12.8863 11.3718 13.5329 10.6425L13.4172 10.5323C12.7869 11.242 11.8528 11.845 10.7079 12.2791C9.56402 12.7155 8.49369 12.8751 7.60608 12.7419L7.58013 12.905H7.57905Z"
        fill="black" />
    <path
        d="M8.7309 20.027C7.70598 20.027 6.43132 19.8432 6.17076 18.9692C5.86372 17.9333 6.57835 17.2856 6.98054 16.9526C6.97297 16.9273 6.96648 16.9009 6.96107 16.8745C6.45618 14.5994 6.11346 11.8385 6.4378 10.9645C6.63349 10.4374 7.79139 9.53124 9.55256 8.88926C10.0326 8.71584 10.4953 8.58147 10.9278 8.48845C11.4305 8.38049 11.9084 8.32422 12.3095 8.32422C12.5938 8.32422 12.9809 8.35408 13.2101 8.49878C14.0587 9.03626 15.5021 11.8569 16.2113 13.5083C16.2405 13.5749 16.2643 13.6439 16.2826 13.7128C16.3064 13.7116 16.3291 13.7105 16.3529 13.7093C16.4394 13.7047 16.5367 13.699 16.6448 13.699C16.9238 13.699 17.7735 13.699 18.0525 14.6637C18.4352 15.9867 16.0729 18.0838 12.8933 19.2437C12.29 19.4608 11.6932 19.6342 11.1191 19.7571C10.2899 19.9351 9.46391 20.0293 8.7309 20.0293V20.027ZM7.27893 17.4992C6.80971 17.9035 6.57511 18.2537 6.73187 18.7809C6.84323 19.1564 7.63679 19.3988 8.7536 19.3988C9.44445 19.3988 10.2218 19.3103 11.0024 19.1427C11.5548 19.0244 12.1268 18.859 12.703 18.6511C15.9053 17.4831 17.7054 15.587 17.4903 14.8451C17.3649 14.4099 17.073 14.3226 16.6437 14.3226C16.5605 14.3226 16.4729 14.326 16.3843 14.3306C16.3583 14.3318 16.3324 14.3341 16.3064 14.3352C16.287 14.4432 16.2545 14.5546 16.2102 14.6648C15.8145 15.641 14.3885 16.6367 12.2987 17.397C11.6748 17.6244 11.0802 17.799 10.531 17.9161C9.98502 18.0332 9.48661 18.093 9.04767 18.093C8.24006 18.093 7.63246 17.8885 7.28001 17.4992H7.27893ZM12.3051 8.94898C12.0532 8.94898 11.6294 8.97539 11.0445 9.10057C10.6369 9.18786 10.198 9.31533 9.74284 9.47956C7.99572 10.117 7.07459 10.9519 6.98486 11.1931C6.75349 11.8167 7.00432 14.3525 7.533 16.7298C7.63895 17.2064 8.17627 17.4682 9.04551 17.4682C9.44553 17.4682 9.90609 17.4131 10.4142 17.304C10.9418 17.1903 11.5116 17.0226 12.1084 16.8055C14.0133 16.1119 15.3453 15.2195 15.6707 14.4179C15.7648 14.1848 15.7669 13.9723 15.6772 13.7667C14.8447 11.8304 13.503 9.41066 12.9095 9.03396C12.8587 9.00181 12.6749 8.94783 12.3051 8.94783V8.94898Z"
        fill="black" />
    <path
        d="M12.3101 8.43982C12.6906 8.43982 12.988 8.49265 13.1544 8.59831C13.9383 9.09444 15.3567 11.7968 16.1135 13.5562C16.1524 13.6469 16.1806 13.7376 16.1989 13.8307C16.2487 13.8295 16.3049 13.8261 16.3589 13.8226C16.4433 13.818 16.5395 13.8123 16.6444 13.8123C17.1114 13.8123 17.7244 13.9214 17.9482 14.6955C18.3082 15.9381 15.9297 18.0122 12.8571 19.1331C12.2603 19.3478 11.669 19.519 11.097 19.6418C10.31 19.8107 9.47858 19.9117 8.73043 19.9117C7.49253 19.9117 6.48167 19.6361 6.27409 18.9344C5.97353 17.9226 6.70978 17.3197 7.1044 16.9958H7.10656C7.09034 16.9464 7.07737 16.8982 7.06548 16.8477C6.57681 14.6449 6.22544 11.8496 6.53788 11.0066C6.72708 10.4967 7.9185 9.6055 9.58669 8.99797C10.0624 8.82685 10.5197 8.69363 10.9489 8.60176C11.4538 8.4938 11.9241 8.43868 12.309 8.43868M9.04504 17.5838C9.44723 17.5838 9.91428 17.5287 10.4354 17.4173C10.9662 17.3036 11.5403 17.1348 12.1425 16.9143C14.0767 16.2114 15.4313 15.2949 15.7686 14.4635C15.8757 14.1993 15.8768 13.9547 15.774 13.7193C14.9178 11.7267 13.5837 9.32873 12.9631 8.93596C12.8766 8.88083 12.6528 8.83374 12.3036 8.83374C11.9803 8.83374 11.55 8.87394 11.0214 8.98764C10.6084 9.07607 10.1662 9.20469 9.70562 9.37122C7.9585 10.0075 6.99088 10.8585 6.88169 11.1513C6.63951 11.8036 6.88385 14.3188 7.4255 16.7569C7.54659 17.299 8.12607 17.5838 9.04288 17.5838M9.04396 17.9777C8.2104 17.9777 7.60821 17.7607 7.28819 17.3403C6.8179 17.7308 6.42545 18.1431 6.62546 18.815C6.75952 19.2674 7.59524 19.5132 8.74989 19.5132C9.42344 19.5132 10.2062 19.4294 11.0203 19.2548C11.576 19.1354 12.1522 18.9688 12.7339 18.7587C15.7892 17.6435 17.8531 15.721 17.5904 14.8103C17.4444 14.305 17.0833 14.2062 16.64 14.2062C16.5546 14.2062 16.466 14.2097 16.3752 14.2154C16.3168 14.2188 16.2616 14.2223 16.2097 14.2234C16.1946 14.3532 16.16 14.4853 16.107 14.6185C15.7232 15.5648 14.321 16.5376 12.2593 17.2875C11.6419 17.5126 11.0516 17.686 10.5046 17.8032C9.96077 17.9203 9.47101 17.9777 9.0418 17.9777M12.3047 8.20898C11.896 8.20898 11.4106 8.26641 10.9014 8.37666C10.4646 8.47083 9.99752 8.60635 9.51318 8.78091C7.93904 9.35514 6.57248 10.2751 6.33247 10.9228C5.96056 11.9254 6.43842 15.0469 6.85033 16.9005C6.85033 16.9039 6.85142 16.9062 6.8525 16.9097C6.42328 17.2714 5.74757 17.941 6.06326 19.0044C6.2849 19.7486 7.20495 20.1426 8.72611 20.1426C9.46561 20.1426 10.2992 20.0472 11.1349 19.8681C11.7133 19.7441 12.3144 19.5706 12.922 19.3513C14.4107 18.8081 15.8313 18.0018 16.8228 17.1382C17.8812 16.216 18.3526 15.3248 18.1504 14.6288C17.9504 13.9352 17.4422 13.5837 16.64 13.5837C16.5352 13.5837 16.4368 13.5895 16.3557 13.5929C16.3406 13.5481 16.3243 13.5045 16.3049 13.4609C15.5892 11.7968 14.1307 8.95203 13.2604 8.40078C13.0604 8.27445 12.7382 8.21013 12.3047 8.21013V8.20898ZM9.04072 17.3541C8.56934 17.3541 7.75957 17.2691 7.63308 16.7041C7.05467 14.1006 6.87952 11.7749 7.07953 11.2352C7.14008 11.0721 7.96715 10.2463 9.77265 9.58828C10.2235 9.42634 10.657 9.30002 11.0603 9.21273C11.6365 9.0887 12.0528 9.06343 12.2993 9.06343C12.6528 9.06343 12.8182 9.11511 12.8485 9.13349C13.3696 9.46424 14.6432 11.6509 15.573 13.8146C15.6497 13.9914 15.6476 14.1695 15.5654 14.3739C15.2573 15.1353 13.9167 16.0254 12.0679 16.6984C11.4765 16.9143 10.9111 17.0808 10.3878 17.1933C9.88617 17.3013 9.43317 17.3553 9.04072 17.3553V17.3541ZM16.3892 14.4451C16.4908 14.4393 16.5676 14.437 16.639 14.437C17.093 14.437 17.2876 14.553 17.3817 14.8781C17.4574 15.1399 17.212 15.7302 16.2703 16.5284C15.3416 17.3162 14.0604 18.0317 12.6625 18.5416C12.0928 18.7472 11.5252 18.9114 10.976 19.0297C10.2019 19.1962 9.43209 19.2835 8.74773 19.2835C7.90012 19.2835 6.93899 19.1158 6.82871 18.746C6.69789 18.3039 6.8752 18.0041 7.26657 17.6527C7.64713 18.0214 8.24284 18.2074 9.04072 18.2074C9.48723 18.2074 9.9932 18.1477 10.5457 18.0283C11.0992 17.91 11.6992 17.7331 12.3274 17.5046C14.4464 16.734 15.8951 15.7141 16.3027 14.7092C16.3384 14.6208 16.3665 14.5312 16.3871 14.4439L16.3892 14.4451Z"
        fill="black" />
    <path
        d="M11.2358 10.1894C10.799 10.3972 10.4595 10.6878 10.1319 10.9692C9.66486 11.3711 9.18051 11.7857 8.40425 11.9511C8.35344 11.9626 8.29938 11.9741 8.24316 11.9821V12.0809C8.2583 12.0832 8.64102 12.1498 9.35566 11.997C9.96434 11.8661 10.6238 11.6169 11.3136 11.2563C12.1807 10.8015 12.4142 10.4076 12.3439 10.1894C12.2866 10.0114 12.0499 9.94705 11.7125 10.0194C11.5655 10.0504 11.4033 10.1078 11.2358 10.1882V10.1894Z"
        fill="black" />
    <path
        d="M8.33361 11.6095C8.48281 11.5773 8.64282 11.5211 8.81256 11.4407C9.24934 11.2328 9.58773 10.9422 9.91424 10.662C10.3813 10.2601 10.8667 9.84432 11.643 9.6778C11.6938 9.66631 11.7479 9.65598 11.8019 9.64794L11.8041 9.54917C11.7857 9.54572 11.4051 9.47796 10.6937 9.63071C10.084 9.76163 9.42557 10.012 8.73471 10.3726C7.86764 10.8274 7.63411 11.2225 7.7033 11.4395C7.7606 11.6164 7.99737 11.6818 8.33469 11.6095H8.33361Z"
        fill="black" />
</svg>