<svg width="22" height="22" viewBox="0 0 22 22" fill="none" xmlns="http://www.w3.org/2000/svg">
<path d="M19.25 9.16797C19.25 15.5846 11 21.0846 11 21.0846C11 21.0846 2.75 15.5846 2.75 9.16797C2.75 6.97993 3.61919 4.88151 5.16637 3.33434C6.71354 1.78716 8.81196 0.917969 11 0.917969C13.188 0.917969 15.2865 1.78716 16.8336 3.33434C18.3808 4.88151 19.25 6.97993 19.25 9.16797Z" stroke="black" stroke-linecap="round" stroke-linejoin="round"/>
<path d="M11 11.918C12.5188 11.918 13.75 10.6868 13.75 9.16797C13.75 7.64919 12.5188 6.41797 11 6.41797C9.48122 6.41797 8.25 7.64919 8.25 9.16797C8.25 10.6868 9.48122 11.918 11 11.918Z" stroke="black" stroke-linecap="round" stroke-linejoin="round"/>
</svg>
