<svg width="50" height="35" viewBox="0 0 50 35" fill="none" xmlns="http://www.w3.org/2000/svg">
<rect x="0.25" y="0.25" width="49.5" height="34.5" rx="4.75" stroke="#D5D5D5" stroke-width="0.5"/>
<path d="M15.5976 26.5458C15.5162 26.4597 15.4178 26.3937 15.3058 26.3454C15.1926 26.2982 15.0693 26.2746 14.9359 26.2746C14.8646 26.2746 14.7911 26.2805 14.7153 26.2935C14.6383 26.3065 14.5637 26.3289 14.4902 26.3607C14.4166 26.3925 14.3476 26.4373 14.2809 26.4939C14.2141 26.5505 14.1576 26.6224 14.1078 26.7085C14.0286 26.5729 13.9223 26.4668 13.7877 26.389C13.653 26.3123 13.4992 26.2734 13.325 26.2734C13.2662 26.2734 13.2062 26.2793 13.144 26.2899C13.0818 26.3006 13.0196 26.3206 12.9585 26.3477C12.8974 26.3748 12.8386 26.4114 12.782 26.4585C12.7266 26.5057 12.6757 26.5647 12.6293 26.6354V26.3371H12.1372V28.7766H12.6338V27.4242C12.6338 27.3204 12.6497 27.2285 12.6813 27.1483C12.713 27.0681 12.7549 26.9997 12.808 26.9455C12.8612 26.8913 12.9223 26.85 12.9935 26.8217C13.0648 26.7934 13.1406 26.7793 13.2209 26.7793C13.3883 26.7793 13.5173 26.8347 13.6101 26.9443C13.7017 27.0552 13.7481 27.212 13.7481 27.4183V28.7754H14.2447V27.423C14.2447 27.3193 14.2605 27.2273 14.2922 27.1471C14.3239 27.0669 14.3657 26.9986 14.4189 26.9443C14.4721 26.8901 14.5331 26.8488 14.6044 26.8205C14.6757 26.7922 14.7515 26.7781 14.8318 26.7781C14.9992 26.7781 15.1282 26.8335 15.2209 26.9431C15.3126 27.054 15.3589 27.2108 15.3589 27.4171V28.7742H15.8555V27.2414C15.8555 27.0988 15.8329 26.9679 15.7877 26.8488C15.7424 26.7297 15.6791 26.6283 15.5976 26.5423V26.5458Z" fill="#1D1D1B"/>
<path d="M18.2148 26.6358C18.1334 26.5273 18.0327 26.4401 17.9116 26.3752C17.7906 26.3104 17.6469 26.2773 17.4795 26.2773C17.3121 26.2773 17.1616 26.3092 17.0202 26.3728C16.8788 26.4365 16.7544 26.5249 16.6492 26.6393C16.5428 26.7525 16.4603 26.8881 16.4003 27.0449C16.3404 27.2017 16.3098 27.3739 16.3098 27.5602C16.3098 27.7464 16.3404 27.9186 16.4003 28.0754C16.4603 28.2322 16.544 28.3678 16.6492 28.481C16.7555 28.5942 16.8788 28.6838 17.0202 28.7475C17.1616 28.8111 17.3155 28.843 17.4795 28.843C17.6435 28.843 17.7917 28.8111 17.9116 28.7463C18.0327 28.6814 18.1334 28.5954 18.2148 28.4869V28.7793H18.725V26.3398H18.2148V26.6346V26.6358ZM18.1956 27.8702C18.1616 27.9658 18.113 28.0471 18.0519 28.1167C17.9897 28.1862 17.9162 28.2405 17.8302 28.2806C17.7442 28.3206 17.6481 28.3407 17.5417 28.3407C17.4354 28.3407 17.3324 28.3195 17.2453 28.2782C17.1582 28.2369 17.0847 28.1803 17.0247 28.1096C16.9648 28.0389 16.9184 27.9563 16.8856 27.8608C16.8528 27.7653 16.837 27.6651 16.837 27.5578C16.837 27.4505 16.8528 27.3503 16.8856 27.2548C16.9184 27.1593 16.9648 27.0767 17.0247 27.006C17.0847 26.9353 17.1582 26.8798 17.2453 26.8374C17.3324 26.7961 17.4309 26.7749 17.5417 26.7749C17.6526 26.7749 17.7431 26.7949 17.8302 26.835C17.9162 26.8751 17.9908 26.9294 18.0519 26.9989C18.1141 27.0685 18.1616 27.151 18.1956 27.2453C18.2295 27.3409 18.2465 27.4434 18.2465 27.5554C18.2465 27.6675 18.2295 27.7712 18.1956 27.8655V27.8702Z" fill="#1D1D1B"/>
<path d="M21.0735 27.5574C20.9298 27.4407 20.7307 27.364 20.4751 27.3239L20.233 27.2862C20.1787 27.278 20.1289 27.2685 20.0814 27.2567C20.0339 27.2461 19.9932 27.2308 19.9592 27.2119C19.9253 27.1931 19.8981 27.1695 19.8778 27.1412C19.8574 27.1129 19.8472 27.0763 19.8472 27.0339C19.8472 26.9478 19.8857 26.8771 19.9637 26.824C20.0407 26.771 20.1493 26.7438 20.2895 26.7438C20.3631 26.7438 20.4343 26.7509 20.5056 26.7639C20.5769 26.778 20.6436 26.7945 20.707 26.8146C20.7703 26.8346 20.828 26.857 20.88 26.8818C20.9321 26.9066 20.9762 26.9301 21.0124 26.9514L21.2318 26.5363C21.1097 26.455 20.9671 26.3913 20.8042 26.3465C20.6413 26.3017 20.4683 26.2793 20.2839 26.2793C20.1346 26.2793 19.9999 26.297 19.8812 26.3335C19.7624 26.3701 19.6606 26.422 19.5769 26.4892C19.4932 26.5564 19.4287 26.6377 19.3834 26.7344C19.3382 26.8311 19.3167 26.9396 19.3167 27.0598C19.3167 27.2567 19.3834 27.4159 19.518 27.5373C19.6527 27.6588 19.8495 27.7378 20.1108 27.7755L20.3551 27.8085C20.4954 27.8286 20.5984 27.8616 20.6628 27.9064C20.7284 27.9512 20.7601 28.009 20.7601 28.0785C20.7601 28.1705 20.7149 28.2424 20.6255 28.2967C20.5361 28.3497 20.4027 28.3768 20.2273 28.3768C20.1312 28.3768 20.0452 28.3698 19.9694 28.3568C19.8936 28.3426 19.8246 28.325 19.7613 28.3026C19.699 28.2802 19.6425 28.253 19.5927 28.2236C19.5429 28.1941 19.4965 28.1623 19.4547 28.1281L19.2183 28.5278C19.3031 28.5938 19.3913 28.648 19.4841 28.6881C19.5769 28.7282 19.6685 28.7612 19.7579 28.7836C19.8472 28.806 19.9321 28.8213 20.0124 28.8296C20.0916 28.8367 20.1617 28.8414 20.2228 28.8414C20.3902 28.8414 20.5407 28.8213 20.673 28.7824C20.8054 28.7435 20.9174 28.6881 21.0079 28.6185C21.0984 28.5478 21.1674 28.4641 21.216 28.3662C21.2646 28.2684 21.2884 28.1611 21.2884 28.0443C21.2884 27.8357 21.2171 27.6729 21.0735 27.5562V27.5574Z" fill="#1D1D1B"/>
<path d="M25.8537 26.6322C25.7564 26.519 25.6399 26.4318 25.5042 26.3705C25.3684 26.308 25.2191 26.2773 25.0562 26.2773C24.8831 26.2773 24.7259 26.308 24.5833 26.3705C24.4408 26.433 24.3186 26.5202 24.2157 26.6322C24.1127 26.7454 24.0336 26.881 23.9759 27.0378C23.9193 27.1958 23.8899 27.3691 23.8899 27.5602C23.8899 27.7512 23.9193 27.9292 23.9781 28.0872C24.037 28.2452 24.1184 28.3796 24.2247 28.4916C24.3311 28.6036 24.4566 28.6897 24.6037 28.751C24.7508 28.8123 24.9114 28.843 25.0879 28.843C25.2643 28.843 25.434 28.817 25.5947 28.7663C25.7553 28.7156 25.9069 28.626 26.0505 28.4987L25.796 28.119C25.6987 28.2004 25.5901 28.2641 25.4725 28.3089C25.3548 28.3537 25.2372 28.3761 25.1195 28.3761C25.037 28.3761 24.9566 28.3643 24.8797 28.3407C24.8028 28.3171 24.7338 28.2806 24.6716 28.2299C24.6094 28.1803 24.5573 28.1155 24.5132 28.0377C24.4691 27.9599 24.4385 27.8655 24.4227 27.7547H26.1523C26.1557 27.724 26.158 27.6922 26.1603 27.658C26.1614 27.6238 26.1625 27.5896 26.1625 27.5566C26.1625 27.3668 26.1354 27.1935 26.0811 27.0355C26.0268 26.8787 25.951 26.7431 25.8537 26.6311V26.6322ZM24.4261 27.3515C24.4397 27.263 24.4623 27.1817 24.4951 27.1086C24.5279 27.0343 24.5698 26.9706 24.6207 26.9176C24.6716 26.8645 24.7327 26.8232 24.8039 26.7938C24.8752 26.7655 24.9555 26.7501 25.0471 26.7501C25.21 26.7501 25.3424 26.8032 25.4453 26.9081C25.5483 27.0131 25.6127 27.1616 25.641 27.3515H24.4272H24.4261Z" fill="#1D1D1B"/>
<path d="M32.6362 26.6358C32.5547 26.5273 32.4541 26.4401 32.333 26.3752C32.212 26.3104 32.0683 26.2773 31.9009 26.2773C31.7335 26.2773 31.583 26.3092 31.4416 26.3728C31.3002 26.4365 31.1758 26.5249 31.0706 26.6393C30.9642 26.7525 30.8817 26.8881 30.8217 27.0449C30.7617 27.2017 30.7312 27.3739 30.7312 27.5602C30.7312 27.7464 30.7617 27.9186 30.8217 28.0754C30.8817 28.2322 30.9654 28.3678 31.0706 28.481C31.1769 28.5942 31.3002 28.6838 31.4416 28.7475C31.583 28.8111 31.7369 28.843 31.9009 28.843C32.0649 28.843 32.2131 28.8111 32.333 28.7463C32.4529 28.6814 32.5547 28.5954 32.6362 28.4869V28.7793H33.1464V26.3398H32.6362V26.6346V26.6358ZM32.617 27.8702C32.583 27.9658 32.5344 28.0471 32.4733 28.1167C32.4111 28.1862 32.3375 28.2405 32.2504 28.2806C32.1645 28.3206 32.0683 28.3407 31.962 28.3407C31.8556 28.3407 31.7527 28.3195 31.6656 28.2782C31.5785 28.2369 31.505 28.1803 31.445 28.1096C31.385 28.0389 31.3387 27.9563 31.3059 27.8608C31.2731 27.7653 31.2572 27.6651 31.2572 27.5578C31.2572 27.4505 31.2731 27.3503 31.3059 27.2548C31.3387 27.1593 31.385 27.0767 31.445 27.006C31.505 26.9353 31.5785 26.8798 31.6656 26.8374C31.7527 26.7961 31.8511 26.7749 31.962 26.7749C32.0728 26.7749 32.1645 26.7949 32.2504 26.835C32.3364 26.8751 32.4111 26.9294 32.4733 26.9989C32.5355 27.0685 32.583 27.151 32.617 27.2453C32.6509 27.3409 32.6679 27.4434 32.6679 27.5554C32.6679 27.6675 32.6509 27.7712 32.617 27.8655V27.8702Z" fill="#1D1D1B"/>
<path d="M23.262 28.2931C23.1794 28.325 23.0991 28.3415 23.0187 28.3415C22.9667 28.3415 22.9181 28.3332 22.8739 28.3155C22.8287 28.299 22.7902 28.2719 22.7563 28.2354C22.7224 28.1988 22.6963 28.1517 22.6771 28.0939C22.6579 28.0361 22.6477 27.9665 22.6477 27.8852V26.824H23.4678V26.3406H22.6477V25.6025H22.1353V26.3406H21.6692V26.824H22.1353V27.8958C22.1353 28.22 22.2088 28.4594 22.3558 28.6127C22.5029 28.7659 22.7099 28.8426 22.9746 28.8426C23.1228 28.8426 23.2563 28.819 23.3739 28.7718C23.452 28.74 23.5244 28.7046 23.5923 28.6645L23.4181 28.2189C23.3683 28.246 23.3174 28.2707 23.262 28.2931Z" fill="#1D1D1B"/>
<path d="M27.8708 26.2746C27.7271 26.2746 27.5982 26.3017 27.4828 26.356C27.3674 26.4102 27.2701 26.5411 27.1921 26.6578V26.3383H26.7283V28.7778H27.1966V27.436C27.1966 27.3322 27.2102 27.2403 27.2385 27.1589C27.2656 27.0776 27.3041 27.0092 27.3527 26.9526C27.4013 26.896 27.4602 26.8547 27.528 26.8252C27.5959 26.7969 27.6717 26.7816 27.7532 26.7816C27.8154 26.7816 27.8821 26.7887 27.9534 26.804C27.9896 26.8123 28.0235 26.8217 28.0563 26.8323L28.2068 26.323C28.1661 26.31 28.1242 26.2982 28.0812 26.2899C28.019 26.2793 27.9477 26.2734 27.8697 26.2734L27.8708 26.2746Z" fill="#1D1D1B"/>
<path d="M34.9692 26.2746C34.8255 26.2746 34.6966 26.3017 34.5812 26.356C34.4658 26.4102 34.3685 26.5411 34.2905 26.6578V26.3383H33.8267V28.7778H34.295V27.436C34.295 27.3322 34.3086 27.2403 34.3368 27.1589C34.364 27.0776 34.4025 27.0092 34.4511 26.9526C34.4997 26.896 34.5586 26.8547 34.6264 26.8252C34.6943 26.7969 34.7701 26.7816 34.8516 26.7816C34.9138 26.7816 34.9805 26.7887 35.0518 26.804C35.088 26.8123 35.1219 26.8217 35.1547 26.8323L35.3052 26.323C35.2644 26.31 35.2226 26.2982 35.1796 26.2899C35.1174 26.2793 35.0461 26.2734 34.9681 26.2734L34.9692 26.2746Z" fill="#1D1D1B"/>
<path d="M37.3532 25.3488V26.6352C37.2718 26.5267 37.1711 26.4395 37.0501 26.3746C36.929 26.3098 36.7854 26.2768 36.6179 26.2768C36.4505 26.2768 36.3001 26.3086 36.1587 26.3723C36.0172 26.4359 35.8928 26.5244 35.7876 26.6387C35.6813 26.7519 35.5987 26.8875 35.5387 27.0443C35.4788 27.2011 35.4482 27.3733 35.4482 27.5596C35.4482 27.7459 35.4788 27.918 35.5387 28.0748C35.5987 28.2316 35.6824 28.3672 35.7876 28.4804C35.8939 28.5936 36.0172 28.6832 36.1587 28.7469C36.3001 28.8105 36.4539 28.8424 36.6179 28.8424C36.782 28.8424 36.9301 28.8105 37.0501 28.7457C37.17 28.6808 37.2718 28.5948 37.3532 28.4863V28.7787H37.8634V25.3477H37.3532V25.3488ZM37.334 27.8708C37.3001 27.9663 37.2514 28.0477 37.1903 28.1173C37.1281 28.1868 37.0546 28.2411 36.9686 28.2811C36.8826 28.3212 36.7865 28.3413 36.6801 28.3413C36.5738 28.3413 36.4709 28.3201 36.3838 28.2788C36.2967 28.2375 36.2231 28.1809 36.1632 28.1102C36.1032 28.0394 36.0568 27.9569 36.024 27.8614C35.9912 27.7659 35.9754 27.6657 35.9754 27.5584C35.9754 27.4511 35.9912 27.3509 36.024 27.2554C36.0568 27.1599 36.1032 27.0773 36.1632 27.0066C36.2231 26.9358 36.2967 26.8804 36.3838 26.838C36.4709 26.7967 36.5693 26.7755 36.6801 26.7755C36.791 26.7755 36.8815 26.7955 36.9686 26.8356C37.0546 26.8757 37.1292 26.9299 37.1903 26.9995C37.2525 27.0691 37.3001 27.1516 37.334 27.2459C37.3679 27.3414 37.3849 27.444 37.3849 27.556C37.3849 27.668 37.3679 27.7718 37.334 27.8661V27.8708Z" fill="#1D1D1B"/>
<path d="M29.0939 26.9954C29.1596 26.927 29.2365 26.8728 29.3258 26.835C29.4152 26.7973 29.5125 26.7773 29.6166 26.7773C29.7308 26.7773 29.8383 26.7961 29.9367 26.835C30.0317 26.8716 30.1143 26.9235 30.1844 26.9895L30.4299 26.5639C30.3383 26.4872 30.2342 26.4247 30.1188 26.3752C29.965 26.3104 29.7976 26.2773 29.6166 26.2773C29.4356 26.2773 29.2681 26.3104 29.1143 26.3752C28.9605 26.4401 28.8281 26.5308 28.7161 26.6452C28.6041 26.7596 28.517 26.8952 28.4537 27.0508C28.3903 27.2064 28.3586 27.3762 28.3586 27.5602C28.3586 27.7441 28.3903 27.9127 28.4537 28.0695C28.517 28.2251 28.6053 28.3607 28.7161 28.4751C28.8281 28.5895 28.9605 28.6803 29.1143 28.7451C29.2681 28.81 29.4356 28.843 29.6166 28.843C29.7976 28.843 29.965 28.81 30.1188 28.7451C30.2342 28.6956 30.3383 28.6331 30.4299 28.5565L30.1844 28.1308C30.1143 28.1968 30.0317 28.2475 29.9367 28.2853C29.8383 28.323 29.7319 28.343 29.6166 28.343C29.5125 28.343 29.4152 28.3242 29.3258 28.2853C29.2365 28.2475 29.1584 28.1933 29.0939 28.1249C29.0283 28.0565 28.9774 27.974 28.9401 27.8785C28.9028 27.783 28.8835 27.6769 28.8835 27.5613C28.8835 27.4458 28.9028 27.3409 28.9401 27.2442C28.9774 27.1487 29.0283 27.0661 29.0939 26.9977V26.9954Z" fill="#1D1D1B"/>
<path d="M28.2793 28.4219C28.3133 28.4219 28.3449 28.4289 28.3755 28.4419C28.4049 28.4549 28.4309 28.4726 28.4535 28.495C28.4762 28.5174 28.4931 28.5433 28.5056 28.574C28.518 28.6046 28.5248 28.6365 28.5248 28.6707C28.5248 28.7048 28.518 28.7367 28.5056 28.7673C28.4931 28.798 28.475 28.8239 28.4535 28.8463C28.4309 28.8687 28.4049 28.8864 28.3755 28.9006C28.3461 28.9135 28.3144 28.9206 28.2793 28.9206C28.2443 28.9206 28.2126 28.9135 28.182 28.9006C28.1515 28.8876 28.1255 28.8699 28.104 28.8463C28.0814 28.8239 28.0644 28.7968 28.0519 28.7673C28.0395 28.7367 28.0327 28.7048 28.0327 28.6707C28.0327 28.6365 28.0395 28.6046 28.0519 28.574C28.0644 28.5433 28.0814 28.5174 28.104 28.495C28.1266 28.4726 28.1526 28.4549 28.182 28.4419C28.2126 28.4289 28.2443 28.4219 28.2793 28.4219ZM28.2793 28.8511C28.3031 28.8511 28.3257 28.8463 28.3461 28.8369C28.3664 28.8275 28.3857 28.8145 28.4004 28.798C28.4162 28.7815 28.4275 28.7626 28.4366 28.7414C28.4456 28.7202 28.4501 28.6966 28.4501 28.6707C28.4501 28.6447 28.4456 28.6223 28.4366 28.6011C28.4275 28.5787 28.4151 28.5598 28.4004 28.5445C28.3845 28.528 28.3664 28.5162 28.3461 28.5068C28.3257 28.4973 28.3031 28.4926 28.2793 28.4926C28.2556 28.4926 28.2318 28.4973 28.2114 28.5068C28.19 28.5162 28.1719 28.5292 28.156 28.5445C28.1402 28.561 28.1277 28.5799 28.1198 28.6011C28.1108 28.6235 28.1062 28.6459 28.1062 28.6707C28.1062 28.6954 28.1108 28.719 28.1198 28.7414C28.1289 28.7626 28.1413 28.7827 28.156 28.798C28.1719 28.8145 28.19 28.8275 28.2114 28.8369C28.2329 28.8463 28.2556 28.8511 28.2793 28.8511ZM28.2929 28.561C28.3223 28.561 28.3438 28.5681 28.3585 28.581C28.3732 28.594 28.3811 28.6129 28.3811 28.6353C28.3811 28.653 28.3755 28.6671 28.3653 28.6789C28.354 28.6907 28.3393 28.6978 28.3178 28.7013L28.3834 28.7803H28.3121L28.2533 28.7037H28.2465V28.7803H28.1866V28.5598H28.2918L28.2929 28.561ZM28.2476 28.6152V28.6553H28.2918C28.3008 28.6553 28.3076 28.6541 28.3133 28.6506C28.3178 28.6471 28.3212 28.6424 28.3212 28.6353C28.3212 28.6282 28.3189 28.6235 28.3133 28.62C28.3087 28.6164 28.3008 28.6152 28.2918 28.6152H28.2476Z" fill="#1D1D1B"/>
<path d="M21.6336 14.938C21.6336 12.0163 22.9436 9.41414 24.982 7.73045C23.4786 6.4889 21.5793 5.74609 19.5114 5.74609C14.6415 5.74609 10.6924 9.86218 10.6924 14.938C10.6924 20.0139 14.6415 24.1299 19.5114 24.1299C21.5782 24.1299 23.4786 23.3871 24.982 22.1456C22.9424 20.4619 21.6336 17.8597 21.6336 14.938Z" fill="#E30D17"/>
<path d="M21.634 14.938C21.634 17.8597 22.944 20.4619 24.9825 22.1456C27.0221 20.4619 28.3309 17.8597 28.3309 14.938C28.3309 12.0163 27.0209 9.41416 24.9825 7.73047C22.9429 9.41416 21.634 12.0163 21.634 14.938Z" fill="#EB610A"/>
<path d="M38.6751 19.9107V19.6419H38.571V19.5676H38.8572V19.6419H38.7532V19.9107H38.6762H38.6751ZM39.2283 19.9107V19.6725L39.1548 19.8777H39.0733L38.9998 19.6725V19.9095H38.9229V19.5664H39.0337L39.1152 19.7857L39.1966 19.5664H39.3075V19.9095H39.2305L39.2283 19.9107Z" fill="#F69F00"/>
<path d="M30.4525 5.74609C28.3858 5.74609 26.4853 6.4889 24.9819 7.73045C27.0215 9.41414 28.3304 12.0163 28.3304 14.938C28.3304 17.8597 27.0204 20.4619 24.9819 22.1456C26.4853 23.3871 28.3847 24.1299 30.4525 24.1299C35.3236 24.1299 39.2716 20.0139 39.2716 14.938C39.2716 9.86218 35.3236 5.74609 30.4525 5.74609Z" fill="#F69F00"/>
</svg>
