<svg width="203" height="222" viewBox="0 0 203 222" fill="none" xmlns="http://www.w3.org/2000/svg">
<g clip-path="url(#clip0_4127_27388)">
<path d="M21.7578 218.197V116.398C21.7578 115.58 22.2231 114.906 22.8006 114.906H93.4549C94.0325 114.906 94.4977 115.58 94.4977 116.398V218.197" stroke="#C11718" stroke-linecap="round" stroke-linejoin="round"/>
<path d="M49.2871 104.75V67.8169C49.2871 67.1911 49.8486 66.6777 50.5385 66.6777H116.717C117.407 66.6777 117.968 67.1911 117.968 67.8169V218.5" stroke="#C11718" stroke-linecap="round" stroke-linejoin="round"/>
<path d="M98.1543 51.9993V2.05443C98.1543 1.10783 99.165 0.514208 99.9993 0.963439L170.557 39.2122C170.958 39.4368 171.215 39.854 171.215 40.3032V102.04" stroke="#C11718" stroke-linecap="round" stroke-linejoin="round"/>
<path d="M51.4217 158.018H36.0844C35.5793 158.018 35.1699 158.427 35.1699 158.932V174.27C35.1699 174.775 35.5793 175.185 36.0844 175.185H51.4217C51.9267 175.185 52.3362 174.775 52.3362 174.27V158.932C52.3362 158.427 51.9267 158.018 51.4217 158.018Z" stroke="black" stroke-linecap="round" stroke-linejoin="round"/>
<path d="M77.6522 158.018H62.3149C61.8098 158.018 61.4004 158.427 61.4004 158.932V174.27C61.4004 174.775 61.8098 175.185 62.3149 175.185H77.6522C78.1572 175.185 78.5666 174.775 78.5666 174.27V158.932C78.5666 158.427 78.1572 158.018 77.6522 158.018Z" stroke="black" stroke-linecap="round" stroke-linejoin="round"/>
<path d="M51.4217 128.432H36.0844C35.5793 128.432 35.1699 128.841 35.1699 129.346V144.684C35.1699 145.189 35.5793 145.599 36.0844 145.599H51.4217C51.9267 145.599 52.3362 145.189 52.3362 144.684V129.346C52.3362 128.841 51.9267 128.432 51.4217 128.432Z" stroke="black" stroke-linecap="round" stroke-linejoin="round"/>
<path d="M77.6522 128.432H62.3149C61.8098 128.432 61.4004 128.841 61.4004 129.346V144.684C61.4004 145.189 61.8098 145.599 62.3149 145.599H77.6522C78.1572 145.599 78.5666 145.189 78.5666 144.684V129.346C78.5666 128.841 78.1572 128.432 77.6522 128.432Z" stroke="black" stroke-linecap="round" stroke-linejoin="round"/>
<path d="M159.793 45.918H129.022C128.517 45.918 128.107 46.3274 128.107 46.8325V62.1705C128.107 62.6756 128.517 63.085 129.022 63.085H159.793C160.298 63.085 160.707 62.6756 160.707 62.1705V46.8325C160.707 46.3274 160.298 45.918 159.793 45.918Z" stroke="black" stroke-linecap="round" stroke-linejoin="round"/>
<path d="M159.793 76.1289H129.022C128.517 76.1289 128.107 76.5383 128.107 77.0434V92.3814C128.107 92.8865 128.517 93.2959 129.022 93.2959H159.793C160.298 93.2959 160.707 92.8865 160.707 92.3814V77.0434C160.707 76.5383 160.298 76.1289 159.793 76.1289Z" stroke="black" stroke-linecap="round" stroke-linejoin="round"/>
<path d="M147.344 123.491H129.343C128.653 123.491 128.092 122.93 128.092 122.24V107.576C128.092 106.886 128.653 106.324 129.343 106.324H159.456" stroke="black" stroke-linecap="round" stroke-linejoin="round"/>
<path d="M144.263 153.685H129.343C128.653 153.685 128.092 153.123 128.092 152.433V137.769C128.092 137.079 128.653 136.518 129.343 136.518H147.681H147.568" stroke="black" stroke-linecap="round" stroke-linejoin="round"/>
<path d="M51.4217 186.447H36.0844C35.5793 186.447 35.1699 186.857 35.1699 187.362V202.7C35.1699 203.205 35.5793 203.614 36.0844 203.614H51.4217C51.9267 203.614 52.3362 203.205 52.3362 202.7V187.362C52.3362 186.857 51.9267 186.447 51.4217 186.447Z" stroke="black" stroke-linecap="round" stroke-linejoin="round"/>
<path d="M77.6522 186.447H62.3149C61.8098 186.447 61.4004 186.857 61.4004 187.362V202.7C61.4004 203.205 61.8098 203.614 62.3149 203.614H77.6522C78.1572 203.614 78.5666 203.205 78.5666 202.7V187.362C78.5666 186.857 78.1572 186.447 77.6522 186.447Z" stroke="black" stroke-linecap="round" stroke-linejoin="round"/>
<path d="M188.19 144.958C193.115 140.979 196.259 134.899 196.259 128.064C196.259 116.063 186.521 106.324 174.521 106.324C162.521 106.324 152.782 116.063 152.782 128.064C152.782 134.882 155.927 140.963 160.852 144.958C152.782 149.675 147.344 158.403 147.344 168.414C147.344 183.415 159.505 195.593 174.521 195.593C189.537 195.593 201.698 183.431 201.698 168.414C201.698 158.403 196.259 149.675 188.19 144.958Z" stroke="#34A853" stroke-linecap="round" stroke-linejoin="round"/>
<path d="M174.521 129.717L174.457 218.973" stroke="#34A853" stroke-linecap="round" stroke-linejoin="round"/>
<path d="M164.783 132.107L174.457 141.782" stroke="#34A853" stroke-linecap="round" stroke-linejoin="round"/>
<path d="M174.633 169.538L184.628 159.543" stroke="#34A853" stroke-linecap="round" stroke-linejoin="round"/>
<path d="M5.74609 218.973H192" stroke="#34A853" stroke-linecap="round" stroke-linejoin="round"/>
<path d="M58.207 66.0043V55.6079C58.207 55.1105 58.6081 54.6934 59.1215 54.6934H85.0152C85.5126 54.6934 85.9297 55.0945 85.9297 55.6079V66.0043" stroke="#C11718" stroke-linecap="round" stroke-linejoin="round"/>
<path d="M68.2344 54.7108V34.6719" stroke="#C11718" stroke-linecap="round" stroke-linejoin="round"/>
<path d="M75.8223 54.7091V44.6816" stroke="#C11718" stroke-linecap="round" stroke-linejoin="round"/>
<path d="M94.7857 84.3594H72.4375" stroke="black" stroke-linecap="round" stroke-linejoin="round"/>
<path d="M94.7857 102.039H72.4375" stroke="black" stroke-linecap="round" stroke-linejoin="round"/>
<path d="M21.7568 53.2007C21.7568 45.1627 27.3399 38.6328 34.2064 38.6328C41.0729 38.6328 46.6559 45.1467 46.6559 53.2007" stroke="black" stroke-linecap="round" stroke-linejoin="round"/>
<path d="M57.8057 28.6382C57.8057 20.6002 63.3887 14.0703 70.2552 14.0703C77.1217 14.0703 82.7047 20.5842 82.7047 28.6382" stroke="black" stroke-linecap="round" stroke-linejoin="round"/>
<path d="M9.30664 53.2019C9.30664 49.1749 12.0982 45.918 15.5314 45.918C18.9647 45.918 21.7562 49.1749 21.7562 53.2019" stroke="black" stroke-linecap="round" stroke-linejoin="round"/>
<path d="M45.3564 28.6375C45.3564 24.6104 48.148 21.3535 51.5812 21.3535C55.0145 21.3535 57.806 24.6104 57.806 28.6375" stroke="black" stroke-linecap="round" stroke-linejoin="round"/>
<path d="M1.30176 53.2024C1.30176 50.6193 3.0986 48.5176 5.31256 48.5176C7.52652 48.5176 9.32336 50.6193 9.32336 53.2024" stroke="black" stroke-linecap="round" stroke-linejoin="round"/>
<path d="M82.7207 28.638C82.7207 26.0549 84.5175 23.9531 86.7315 23.9531C88.9455 23.9531 90.7423 26.0549 90.7423 28.638" stroke="black" stroke-linecap="round" stroke-linejoin="round"/>
</g>
<defs>
<clipPath id="clip0_4127_27388">
<rect width="202" height="222" fill="white" transform="translate(0.5)"/>
</clipPath>
</defs>
</svg>
