<svg width="155" height="137" viewBox="0 0 155 137" fill="none" xmlns="http://www.w3.org/2000/svg">
<path d="M85.6284 98.6227L109.696 116.999H136V58.9414L85.6284 98.6227Z" stroke="black" stroke-width="2" stroke-linecap="round" stroke-linejoin="round"/>
<path d="M14 58.9414V116.999H40.7514L64.6062 98.8058L14 58.9414Z" stroke="black" stroke-width="2" stroke-linecap="round" stroke-linejoin="round"/>
<path d="M75.0001 106.997L64.6062 98.8042L40.7515 116.997H109.696L85.6282 98.6211L75.0001 106.997Z" stroke="black" stroke-width="2" stroke-linecap="round" stroke-linejoin="round"/>
<path d="M136 58.1891L119.195 46.541" stroke="black" stroke-width="2" stroke-linecap="round" stroke-linejoin="round"/>
<path d="M31.4012 46.123L14 58.183" stroke="black" stroke-width="2" stroke-linecap="round" stroke-linejoin="round"/>
<path d="M31.9766 72.3952V15.7109H118.599V72.3952" stroke="black" stroke-width="2" stroke-linecap="round" stroke-linejoin="round"/>
<path d="M111.5 69.0276L74.9132 98.6211L38.2397 69.0276V22.8125H111.5V69.0276Z" fill="#FCF3F3"/>
<circle cx="117" cy="17" r="12.5" fill="#C11718"/>
<path d="M113.008 17.2344C113.008 15.2604 113.331 13.7943 113.977 12.8359C114.628 11.8776 115.62 11.3984 116.953 11.3984C118.292 11.3984 119.299 11.8984 119.977 12.8984C120.654 13.8984 120.992 15.3802 120.992 17.3438C120.992 19.3021 120.664 20.7604 120.008 21.7188C119.357 22.6771 118.362 23.1562 117.023 23.1562C115.685 23.1562 114.68 22.6615 114.008 21.6719C113.341 20.6823 113.008 19.2031 113.008 17.2344ZM118.203 14.2734C117.953 13.6589 117.544 13.3516 116.977 13.3516C116.414 13.3516 116.01 13.6589 115.766 14.2734C115.526 14.888 115.406 15.8958 115.406 17.2969C115.406 18.6979 115.526 19.7005 115.766 20.3047C116.01 20.9089 116.417 21.2109 116.984 21.2109C117.552 21.2109 117.961 20.9036 118.211 20.2891C118.461 19.6693 118.586 18.6641 118.586 17.2734C118.586 15.8776 118.458 14.8776 118.203 14.2734Z" fill="white"/>
</svg>
