<svg width="15" height="15" viewBox="0 0 15 15" fill="none" xmlns="http://www.w3.org/2000/svg">
<rect width="15" height="15" rx="7.5" fill="#C11718"/>
<path d="M9.89466 9.38952C9.96173 9.45659 9.99941 9.54755 9.99941 9.64239C9.99941 9.73723 9.96173 9.82819 9.89466 9.89526C9.82759 9.96232 9.73662 10 9.64177 10C9.54692 10 9.45596 9.96232 9.38889 9.89526L7.5 8.00589L5.61051 9.89466C5.54345 9.96173 5.45248 9.9994 5.35763 9.9994C5.26278 9.9994 5.17182 9.96173 5.10475 9.89466C5.03768 9.8276 5 9.73664 5 9.6418C5 9.54695 5.03768 9.45599 5.10475 9.38893L6.99423 7.50015L5.10534 5.61078C5.03827 5.54371 5.0006 5.45275 5.0006 5.35791C5.0006 5.26306 5.03827 5.1721 5.10534 5.10504C5.17241 5.03797 5.26338 5.0003 5.35823 5.0003C5.45308 5.0003 5.54404 5.03797 5.61111 5.10504L7.5 6.99441L9.38948 5.10474C9.45655 5.03768 9.54752 5 9.64237 5C9.73722 5 9.82818 5.03768 9.89525 5.10474C9.96232 5.17181 10 5.26277 10 5.35761C10 5.45245 9.96232 5.54341 9.89525 5.61048L8.00577 7.50015L9.89466 9.38952Z" fill="white"/>
</svg>
