<svg width="15" height="15" viewBox="0 0 15 15" fill="none" xmlns="http://www.w3.org/2000/svg">
<rect width="15" height="15" rx="7.5" fill="#419639"/>
<path d="M11.0819 5.14407L7.08187 10.1441C7.03832 10.1878 6.98657 10.2224 6.92959 10.2461C6.87262 10.2698 6.81153 10.2819 6.74984 10.2819C6.68814 10.2819 6.62706 10.2698 6.57008 10.2461C6.5131 10.2224 6.46135 10.1878 6.41781 10.1441L4.23031 7.95658C4.1867 7.91297 4.15211 7.86121 4.12852 7.80424C4.10492 7.74727 4.09277 7.68621 4.09277 7.62454C4.09277 7.56288 4.10492 7.50182 4.12852 7.44485C4.15211 7.38788 4.1867 7.33612 4.23031 7.29251C4.27391 7.24891 4.32567 7.21432 4.38264 7.19072C4.43961 7.16713 4.50067 7.15498 4.56234 7.15498C4.624 7.15498 4.68506 7.16713 4.74203 7.19072C4.799 7.21432 4.85076 7.24891 4.89437 7.29251L6.75023 9.14837L10.4186 4.48079C10.5066 4.39273 10.6261 4.34326 10.7506 4.34326C10.8752 4.34326 10.9946 4.39273 11.0826 4.48079C11.1707 4.56885 11.2202 4.68829 11.2202 4.81282C11.2202 4.93736 11.1707 5.0568 11.0826 5.14486L11.0819 5.14407Z" fill="white"/>
</svg>
