<svg width="23" height="27" viewBox="0 0 23 27" fill="none" xmlns="http://www.w3.org/2000/svg">
<path d="M11.9409 25.7589H0.398964C0.178407 25.7589 2.40173e-05 25.5795 2.40173e-05 25.3576V6.11367C-0.00567512 3.80543 1.00307 1.94324 2.84047 0.869964C4.81693 -0.284156 7.47729 -0.28989 9.46116 0.856204C11.3117 1.92547 12.3341 3.79167 12.3398 6.11195V25.3576C12.3398 25.5795 12.1614 25.7589 11.9409 25.7589ZM0.797903 24.9563H11.5419V6.1131C11.5374 4.09267 10.6574 2.473 9.06393 1.5528C7.31885 0.544884 4.97879 0.550044 3.24112 1.56484C1.66075 2.48791 0.792774 4.10299 0.797903 6.11195V24.9563Z" fill="#C11718"/>
<path d="M10.1166 24.7947H2.36574C2.14518 24.7947 1.9668 24.6152 1.9668 24.3934V10.4155C1.9668 10.1936 2.14518 10.0142 2.36574 10.0142H10.1166C10.3371 10.0142 10.5155 10.1936 10.5155 10.4155V24.3934C10.5155 24.6152 10.3371 24.7947 10.1166 24.7947ZM2.76468 23.992H9.71762V10.8168H2.76468V23.992Z" fill="#C11718"/>
<path d="M6.79067 8.82518H5.59499C5.36247 8.82518 5.17383 8.63483 5.17383 8.40148V8.12399C5.17383 7.90211 5.35221 7.72266 5.57277 7.72266H6.81347C7.03403 7.72266 7.21241 7.90211 7.21241 8.12399V8.40148C7.21241 8.6354 7.0232 8.82518 6.79124 8.82518H6.79067Z" fill="#C11718"/>
<path d="M10.096 20.8159H2.43237C2.12861 20.8159 1.88184 21.063 1.88184 21.368V25.9857C1.88184 26.1565 2.00608 26.3004 2.1742 26.3268C4.68638 26.7258 7.4915 26.6547 10.4699 26.3073C10.6095 26.2913 10.7155 26.1714 10.7155 26.0304V21.4374C10.7155 21.094 10.4379 20.8159 10.096 20.8159Z" fill="white"/>
<path d="M5.89526 26.9999C4.52576 26.9999 3.27081 26.9076 2.11161 26.7235C1.74686 26.6656 1.48242 26.3554 1.48242 25.9856V21.368C1.48242 20.8423 1.90815 20.4146 2.4319 20.4146H10.0955C10.6569 20.4146 11.114 20.8738 11.114 21.4374V26.0304C11.114 26.3755 10.8569 26.6662 10.5156 26.7057C8.84001 26.9012 7.30694 26.9993 5.89526 26.9993V26.9999ZM2.2803 25.938C4.5269 26.2895 7.15705 26.2838 10.3161 25.922V21.4385C10.3161 21.317 10.2169 21.2184 10.0955 21.2184H2.4319C2.34869 21.2184 2.2803 21.286 2.2803 21.3692V25.9386V25.938Z" fill="#C11718"/>
<path d="M6.3814 22.955C5.07744 22.955 3.75467 22.9086 2.42221 22.8157C2.20223 22.8002 2.03638 22.6087 2.05177 22.3874C2.06716 22.1661 2.25751 21.9993 2.4775 22.0147C5.10537 22.1982 7.69391 22.1982 10.1713 22.0147C10.3913 21.9987 10.5822 22.1644 10.5982 22.3857C10.6142 22.607 10.4494 22.7991 10.2295 22.8151C8.97166 22.908 7.68594 22.955 6.3814 22.955Z" fill="#C11718"/>
<path d="M3.29835 2.684C3.0778 2.684 2.89941 2.50455 2.89941 2.28267V1.25583C2.89941 1.03395 3.0778 0.854492 3.29835 0.854492C3.51891 0.854492 3.69729 1.03395 3.69729 1.25583V2.28267C3.69729 2.50455 3.51891 2.684 3.29835 2.684Z" fill="#C11718"/>
<path d="M9.00441 2.75425C8.78385 2.75425 8.60547 2.57479 8.60547 2.35291V1.14547C8.60547 0.923594 8.78385 0.744141 9.00441 0.744141C9.22496 0.744141 9.40335 0.923594 9.40335 1.14547V2.35291C9.40335 2.57479 9.22496 2.75425 9.00441 2.75425Z" fill="#C11718"/>
<path d="M3.84898 8.52494C3.39305 8.52494 3.01691 8.1775 3.00836 7.74865L2.8995 2.11106C2.89722 2.00327 2.93826 1.89892 3.01349 1.8221C3.08872 1.74527 3.1913 1.7017 3.29844 1.7017H8.68755C8.7605 1.60538 8.87562 1.54346 9.00499 1.54346C9.22554 1.54346 9.40393 1.72291 9.40393 1.94479L9.40222 7.7045C9.4045 8.13737 9.02949 8.49398 8.56672 8.49685L3.85411 8.52494H3.84898ZM3.80567 7.71195C3.81365 7.71654 3.82846 7.72399 3.84955 7.72227L8.56217 7.69418C8.58211 7.69418 8.59636 7.68902 8.60434 7.68443L8.60605 2.50436H3.70536L3.80567 7.71195Z" fill="#C11718"/>
<path d="M6.23887 3.85506C5.27742 3.85506 4.29375 3.79773 3.29412 3.68249C3.07528 3.65726 2.91798 3.45832 2.94306 3.23816C2.96813 3.018 3.16589 2.85976 3.38474 2.88498C5.32131 3.10801 7.19518 3.10801 8.9545 2.88498C9.17278 2.85746 9.37282 3.01341 9.40018 3.233C9.42753 3.45316 9.27251 3.65382 9.05424 3.68134C8.14238 3.79658 7.20145 3.85449 6.2383 3.85449L6.23887 3.85506Z" fill="#C11718"/>
<path d="M16.0048 20.0509L15.8715 20.0142L15.7598 20.4252L15.8954 20.4631C16.3183 20.5743 16.8027 20.6013 17.3356 20.5428C17.3869 20.537 17.4382 20.5307 17.49 20.5233C17.7265 20.49 17.9722 20.4407 18.2224 20.3754C19.0955 20.1477 19.821 19.7797 20.3202 19.3118L20.4034 19.2339L20.115 18.9214L20.0313 18.9994C19.5827 19.4196 18.9205 19.7527 18.1152 19.9626C17.3122 20.173 16.5822 20.2039 16.0048 20.0514V20.0509Z" fill="#C11718"/>
<path d="M22.9867 22.1161C22.8471 21.427 22.2225 21.3994 21.8868 21.3845C21.8743 21.3845 21.8617 21.3834 21.8492 21.3828C21.8412 21.3404 21.8292 21.2974 21.815 21.2561C21.4371 20.1524 20.6358 18.2518 20.0939 17.8511C19.8636 17.6808 19.2561 17.6177 18.5454 17.6917C18.2479 17.7226 17.927 17.7783 17.5908 17.8574C16.4265 18.1366 15.6121 18.6039 15.3864 18.9295H15.3807L15.3527 18.9857C15.3527 18.9857 15.3499 18.992 15.3482 18.9949L15.3379 19.0149V19.0161C15.0513 19.6542 15.1801 21.619 15.3402 22.8035C15.3419 22.8184 15.3448 22.8328 15.347 22.8477C15.0353 23.0466 14.5332 23.4044 14.678 24.0918C14.8449 24.8853 16.508 25.0825 17.9823 24.93C18.086 24.9191 18.1903 24.9065 18.2958 24.8916C18.5955 24.8498 18.9027 24.7919 19.2128 24.7185C20.2397 24.4719 21.2382 24.0568 21.9529 23.5787C22.708 23.073 23.0756 22.5536 22.9867 22.1161ZM17.9384 24.5058C16.3341 24.6714 15.1715 24.3802 15.0923 24.0035C15.0154 23.6389 15.2325 23.4336 15.5254 23.2398C15.8634 23.6584 16.6271 23.8281 17.6979 23.7169C18.0775 23.6773 18.4907 23.605 18.925 23.5007C20.3862 23.1515 21.4126 22.6069 21.742 22.006C21.7774 21.9412 21.8053 21.8753 21.8252 21.8088C21.8378 21.8094 21.8509 21.8099 21.864 21.8105H21.868C22.2943 21.8294 22.508 21.8925 22.5707 22.2015C22.6208 22.4481 22.2789 22.8546 21.6999 23.2375C21.0171 23.6888 20.099 24.0677 19.1147 24.3039C18.7135 24.3985 18.3174 24.4668 17.9384 24.5058ZM18.5887 18.1154C19.4162 18.03 19.7935 18.1578 19.8425 18.1939C20.1822 18.4456 20.9168 19.9414 21.4143 21.3954C21.4611 21.5302 21.4474 21.6592 21.3705 21.8002C21.1032 22.2881 20.1526 22.7686 18.8269 23.085C18.4103 23.1848 18.0159 23.2542 17.6546 23.292C16.5296 23.4084 15.8218 23.2043 15.7597 22.7456C15.5739 21.3708 15.5169 19.6198 15.726 19.1858L15.73 19.1778C15.7602 19.1187 15.9284 18.9651 16.2686 18.7845C16.541 18.64 17.0089 18.4342 17.6882 18.2713C18.0063 18.1962 18.3095 18.1435 18.5887 18.1148V18.1154Z" fill="#C11718"/>
<path d="M18.6327 18.8108C18.3255 18.9169 18.0799 19.082 17.8422 19.2414C17.5037 19.4696 17.1526 19.7047 16.6192 19.7637C16.5839 19.7677 16.5468 19.7717 16.5086 19.774L16.5029 19.8377C16.5132 19.84 16.7679 19.9065 17.2592 19.852C17.6781 19.8056 18.1374 19.6863 18.6236 19.4983C19.2351 19.2603 19.4152 19.023 19.381 18.8796C19.3525 18.7621 19.1969 18.7065 18.9644 18.7323C18.8635 18.7432 18.7507 18.7701 18.6327 18.8108Z" fill="#C11718"/>
<path d="M16.1754 19.3931C16.2039 19.5101 16.3601 19.5657 16.5915 19.5405C16.6941 19.529 16.8058 19.5032 16.9243 19.4619C17.2315 19.3558 17.4766 19.1907 17.7131 19.0313C18.0516 18.8032 18.4032 18.5669 18.9367 18.5085C18.972 18.5044 19.0085 18.501 19.0461 18.4993L19.0529 18.4362C19.041 18.4328 18.7879 18.3657 18.2984 18.4202C17.8789 18.4666 17.4196 18.5864 16.9329 18.7751C16.3213 19.013 16.1407 19.2509 16.1749 19.3943V19.3931H16.1754Z" fill="#C11718"/>
<path d="M16.0755 11.4362L15.9763 11.3398L15.6816 11.646L15.7825 11.7446C16.1 12.0473 16.5114 12.3053 17.0067 12.5117C17.054 12.5318 17.1024 12.5507 17.1514 12.5696C17.3743 12.6551 17.6136 12.7308 17.8638 12.7944C18.7381 13.018 19.5502 13.0472 20.2119 12.8787L20.3224 12.8506L20.2193 12.4372L20.1087 12.4653C19.5143 12.6161 18.7746 12.5868 17.9687 12.381C17.164 12.1763 16.5097 11.8495 16.0766 11.4362H16.0755Z" fill="#C11718"/>
<path d="M21.2057 16.629C21.4132 15.957 20.8792 15.6302 20.5925 15.4548C20.5817 15.4479 20.5708 15.4416 20.5606 15.4353C20.5737 15.394 20.5839 15.351 20.5914 15.3074C20.7885 14.1567 20.9966 12.1031 20.7133 11.489C20.5931 11.2281 20.0904 10.8784 19.4327 10.5986C19.1575 10.4817 18.8491 10.3745 18.5169 10.281C17.3628 9.96166 16.4253 9.97599 16.0714 10.1526L16.0662 10.1503L16.015 10.1853C16.015 10.1853 16.0093 10.1893 16.0064 10.191L15.9876 10.2036V10.2047C15.4302 10.625 14.6027 12.4092 14.1753 13.5249C14.1701 13.5387 14.165 13.553 14.1605 13.5674C13.7917 13.5909 13.1808 13.6608 12.9785 14.3333C12.7448 15.1096 14.108 16.0883 15.473 16.6691C15.5687 16.7098 15.6662 16.7494 15.7659 16.7878C16.0486 16.8961 16.3455 16.9947 16.6527 17.0807C17.6706 17.3622 18.7448 17.4821 19.5997 17.4093C20.5036 17.3324 21.0741 17.0549 21.2063 16.6284H21.2057V16.629ZM15.6377 16.2769C14.1519 15.6451 13.2731 14.8258 13.3842 14.4577C13.4914 14.1011 13.7803 14.026 14.1297 13.9985C14.2254 14.5294 14.8141 15.0477 15.8052 15.4697C16.1569 15.6193 16.5535 15.7558 16.9838 15.875C18.4314 16.2769 19.5917 16.297 20.1679 15.9301C20.23 15.8905 20.2859 15.8458 20.3355 15.7976C20.3463 15.8045 20.3571 15.8114 20.3685 15.8183L20.3719 15.8206C20.7367 16.0436 20.8934 16.2024 20.8005 16.5034C20.7264 16.7436 20.2317 16.9345 19.541 16.9896C18.7266 17.0544 17.7407 16.9414 16.765 16.6714C16.3677 16.5602 15.9887 16.4277 15.6371 16.2786V16.2769H15.6377ZM19.2674 10.9919C20.034 11.3182 20.303 11.6129 20.3286 11.6685C20.5059 12.0538 20.4335 13.7204 20.173 15.2358C20.1497 15.3768 20.0756 15.4829 19.9405 15.5689C19.4726 15.867 18.4092 15.8274 17.0966 15.4628C16.684 15.3487 16.305 15.2186 15.9705 15.0758C14.9293 14.6326 14.4061 14.1109 14.5714 13.6792C15.0666 12.3846 15.8548 10.8222 16.2463 10.543L16.2537 10.5379C16.3085 10.5006 16.5296 10.4473 16.9137 10.4541C17.2215 10.4599 17.7304 10.5058 18.4035 10.6921C18.7181 10.7804 19.0093 10.8813 19.268 10.9914L19.2674 10.9919Z" fill="#C11718"/>
<path d="M18.972 11.6226C18.6523 11.567 18.3576 11.5922 18.0732 11.6174C17.6669 11.6536 17.2469 11.6897 16.751 11.4827C16.7186 11.4689 16.6838 11.4546 16.6496 11.438L16.6143 11.4907C16.6222 11.4976 16.8137 11.6794 17.2697 11.8697C17.6589 12.032 18.1188 12.1501 18.6346 12.2212C19.2843 12.3089 19.5562 12.1879 19.5943 12.0457C19.6257 11.9293 19.5157 11.8049 19.3003 11.7149C19.2062 11.6759 19.0951 11.6444 18.972 11.6232V11.6226Z" fill="#C11718"/>
<path d="M16.5402 10.9428C16.5095 11.0592 16.6195 11.1836 16.8349 11.2736C16.9301 11.3131 17.0406 11.3441 17.1643 11.3659C17.484 11.4221 17.7781 11.3957 18.0613 11.3705C18.4671 11.3344 18.8883 11.2977 19.3841 11.5052C19.4166 11.519 19.4508 11.5339 19.4844 11.5499L19.5209 11.4978C19.5123 11.4886 19.322 11.3074 18.8672 11.1176C18.4774 10.9548 18.0175 10.8378 17.5006 10.7668C16.8509 10.6785 16.5784 10.8 16.5397 10.9422L16.5402 10.9428Z" fill="#C11718"/>
</svg>
