<svg width="14" height="16" viewBox="0 0 14 16" fill="none" xmlns="http://www.w3.org/2000/svg">
<path d="M13.1901 10.8016L10.0932 9.23481L10.0847 9.23036C9.92389 9.15272 9.7485 9.12157 9.57438 9.13971C9.40026 9.15785 9.23289 9.22472 9.08741 9.33426C9.07028 9.34704 9.05382 9.36091 9.03811 9.37583L7.43804 10.9159C6.42435 10.36 5.3778 9.18731 4.88542 8.0577L6.25146 6.22376C6.26461 6.2052 6.2771 6.18665 6.28893 6.16661C6.38388 6.00281 6.44148 5.81505 6.45662 5.62004C6.47176 5.42503 6.44397 5.22882 6.37571 5.04887V5.03997L4.98403 1.53758C4.8938 1.30251 4.73864 1.10668 4.54173 0.979339C4.34482 0.851997 4.11671 0.799969 3.89146 0.831022C3.00069 0.963359 2.18304 1.45726 1.59123 2.22047C0.999427 2.98368 0.673932 3.96401 0.675543 4.97837C0.675543 10.8713 4.92223 15.6659 10.1419 15.6659C11.0403 15.6677 11.9086 15.3002 12.5846 14.632C13.2606 13.9639 13.6981 13.0408 13.8153 12.0351C13.8429 11.7809 13.7969 11.5234 13.6842 11.3011C13.5715 11.0788 13.3982 10.9036 13.1901 10.8016ZM10.1419 14.4784C7.91094 14.4756 5.77209 13.4738 4.19459 11.6928C2.6171 9.91184 1.72979 7.49708 1.72736 4.97837C1.72488 4.25361 1.95616 3.55262 2.37799 3.0063C2.79982 2.45999 3.38337 2.1057 4.01965 2.00962C4.01939 2.01258 4.01939 2.01556 4.01965 2.01852L5.40015 5.5068L4.04134 7.34298C4.02755 7.36089 4.01502 7.38 4.00387 7.40012C3.90494 7.57151 3.84691 7.76884 3.83539 7.97299C3.82388 8.17714 3.85927 8.38119 3.93813 8.56536C4.53372 9.94063 5.76105 11.3159 6.99233 11.9876C7.15665 12.0758 7.33843 12.1144 7.51991 12.0995C7.70139 12.0847 7.87635 12.017 8.02771 11.903C8.04459 11.8901 8.06083 11.8763 8.07636 11.8614L9.67445 10.3221L12.7642 11.8844C12.7642 11.8844 12.7694 11.8844 12.7714 11.8844C12.6873 12.6038 12.374 13.2639 11.89 13.7414C11.406 14.2188 10.7845 14.4808 10.1419 14.4784Z" fill="#C11718"/>
</svg>
