<svg width="14" height="13" viewBox="0 0 14 13" fill="none" xmlns="http://www.w3.org/2000/svg">
<path d="M13.25 6.39062C13.25 6.58954 13.171 6.7803 13.0303 6.92095C12.8897 7.06161 12.6989 7.14062 12.5 7.14062H7.75V11.8906C7.75 12.0895 7.67098 12.2803 7.53033 12.421C7.38968 12.5616 7.19891 12.6406 7 12.6406C6.80109 12.6406 6.61032 12.5616 6.46967 12.421C6.32902 12.2803 6.25 12.0895 6.25 11.8906V7.14062H1.5C1.30109 7.14062 1.11032 7.06161 0.96967 6.92095C0.829018 6.7803 0.75 6.58954 0.75 6.39062C0.75 6.19171 0.829018 6.00095 0.96967 5.86029C1.11032 5.71964 1.30109 5.64062 1.5 5.64062H6.25V0.890625C6.25 0.691713 6.32902 0.500947 6.46967 0.360295C6.61032 0.219643 6.80109 0.140625 7 0.140625C7.19891 0.140625 7.38968 0.219643 7.53033 0.360295C7.67098 0.500947 7.75 0.691713 7.75 0.890625V5.64062H12.5C12.6989 5.64062 12.8897 5.71964 13.0303 5.86029C13.171 6.00095 13.25 6.19171 13.25 6.39062Z" fill="#DCDDDE"/>
</svg>
