<svg width="66" height="65" viewBox="0 0 66 65" fill="none" xmlns="http://www.w3.org/2000/svg">
<rect x="0.671875" width="65" height="65" rx="32.5" fill="#C11718"/>
<path d="M35.6719 43.75C35.6719 44.2445 35.5253 44.7278 35.2506 45.1389C34.9758 45.55 34.5854 45.8705 34.1286 46.0597C33.6718 46.2489 33.1691 46.2984 32.6842 46.202C32.1992 46.1055 31.7537 45.8674 31.4041 45.5178C31.0545 45.1681 30.8164 44.7227 30.7199 44.2377C30.6234 43.7528 30.673 43.2501 30.8622 42.7933C31.0514 42.3365 31.3718 41.946 31.783 41.6713C32.1941 41.3966 32.6774 41.25 33.1719 41.25C33.8349 41.25 34.4708 41.5134 34.9396 41.9822C35.4085 42.4511 35.6719 43.087 35.6719 43.75ZM33.1719 37.5C33.5034 37.5 33.8213 37.3683 34.0558 37.1339C34.2902 36.8995 34.4219 36.5815 34.4219 36.25V20C34.4219 19.6685 34.2902 19.3505 34.0558 19.1161C33.8213 18.8817 33.5034 18.75 33.1719 18.75C32.8404 18.75 32.5224 18.8817 32.288 19.1161C32.0536 19.3505 31.9219 19.6685 31.9219 20V36.25C31.9219 36.5815 32.0536 36.8995 32.288 37.1339C32.5224 37.3683 32.8404 37.5 33.1719 37.5Z" fill="white"/>
</svg>
