<svg width="23" height="20" viewBox="0 0 23 20" fill="none" xmlns="http://www.w3.org/2000/svg">
<g clip-path="url(#clip0_3586_19881)">
<path d="M8.44183 8.01309C8.56777 8.00114 8.69524 7.98789 8.82357 7.9723C9.40773 7.90132 10.0153 7.79005 10.6347 7.64102C12.7973 7.1223 14.6023 6.25974 15.8536 5.14644L16.0626 4.96065L15.3659 4.19414L15.1564 4.38054C14.0322 5.38003 12.3844 6.16091 10.3906 6.63845C8.40154 7.11764 6.60116 7.16482 5.18523 6.77407L4.85797 6.68082L4.56385 7.67111L4.89653 7.76705C5.9339 8.05234 7.12674 8.13543 8.44183 8.01309Z" />
<path d="M22.2981 12.0312C21.9844 10.358 20.4471 10.2682 19.6208 10.2199C19.5895 10.2181 19.5587 10.2163 19.5284 10.2144C19.5102 10.111 19.4835 10.0075 19.4497 9.9065C18.5687 7.22198 16.6792 2.59383 15.3621 1.60426C14.8025 1.18324 13.3076 1.00887 11.5532 1.15999C10.8192 1.22347 10.025 1.34567 9.19244 1.52507C6.30988 2.15754 4.28121 3.25687 3.71012 4.03658L3.69617 4.03827L3.62448 4.1705C3.62033 4.17827 3.61618 4.18604 3.61203 4.19381L3.58339 4.24703L3.58379 4.25033C2.85134 5.7896 3.08021 10.539 3.4202 13.4072C3.42455 13.443 3.42946 13.4787 3.43548 13.5143C2.65804 13.9844 1.40433 14.8308 1.72996 16.4997C2.10553 18.4258 6.19544 18.965 9.83577 18.6512C10.0913 18.6291 10.3496 18.6022 10.6101 18.5706C11.3511 18.4805 12.1105 18.3519 12.8785 18.186C15.4203 17.6284 17.9008 16.6603 19.6835 15.5305C21.5681 14.3358 22.4962 13.093 22.2975 12.0307L22.2981 12.0312ZM4.53746 4.67153L4.54759 4.65242C4.62428 4.51009 5.04586 4.14478 5.89241 3.72169C6.57084 3.38274 7.73252 2.9018 9.41394 2.53263C10.2019 2.36313 10.9509 2.24697 11.6407 2.18775C13.6847 2.01149 14.6079 2.33525 14.7269 2.42474C15.5525 3.04593 17.2949 6.69212 18.4556 10.229C18.565 10.5566 18.5247 10.8678 18.3287 11.2068C17.6477 12.3777 15.2827 13.5045 12.0026 14.2205C10.9713 14.4464 9.99635 14.6 9.10429 14.6766C6.32686 14.9162 4.59055 14.3956 4.45893 13.2844C4.06302 9.95128 4.00163 5.71355 4.53739 4.67098L4.53746 4.67153ZM19.077 14.6955C17.3744 15.7619 15.094 16.6437 12.657 17.1784C11.6639 17.393 10.6856 17.5426 9.74882 17.6234C5.78745 17.965 2.93515 17.2156 2.75723 16.3011C2.58466 15.4167 3.12877 14.9275 3.85896 14.4694C4.67323 15.4955 6.54832 15.9327 9.19242 15.7048C10.1298 15.6239 11.1504 15.4635 12.2259 15.2284C15.8423 14.438 18.3971 13.1585 19.2355 11.7176C19.3253 11.5619 19.3972 11.4034 19.4502 11.2433C19.4815 11.245 19.513 11.2474 19.5449 11.2491L19.5557 11.25C20.6049 11.3109 21.1289 11.4719 21.2698 12.2215C21.3816 12.8199 20.5206 13.7908 19.0764 14.6956L19.077 14.6955Z" />
<path d="M11.717 3.87176C10.9553 4.11688 10.3419 4.50661 9.75032 4.88475C8.90492 5.42451 8.02975 5.98017 6.71243 6.10279C6.62568 6.11109 6.53384 6.11945 6.43973 6.12307L6.42209 6.2761C6.44722 6.28255 7.07192 6.452 8.28457 6.33931C9.31863 6.24329 10.457 5.9714 11.6632 5.5348C13.1807 4.98211 13.636 4.41431 13.5574 4.06562C13.4922 3.78069 13.1111 3.63978 12.5378 3.69323C12.2881 3.7163 12.0095 3.77698 11.7169 3.87121L11.717 3.87176Z" />
<path d="M6.65459 5.55988C6.90821 5.53633 7.18354 5.47717 7.47885 5.38205C8.24009 5.13754 8.8516 4.74636 9.44163 4.36953C10.2858 3.82936 11.1631 3.27232 12.4816 3.14957C12.5683 3.14126 12.6592 3.13469 12.7516 3.13073L12.7716 2.97852C12.7422 2.96924 12.1213 2.79877 10.912 2.91106C9.87626 3.00728 8.73912 3.28013 7.53089 3.71811C6.01269 4.27031 5.55704 4.83983 5.63502 5.18804C5.70008 5.47187 6.08292 5.61257 6.65452 5.55933L6.65459 5.55988Z" />
</g>
<defs>
<clipPath id="clip0_3586_19881">
<rect width="21.0205" height="17.1986" fill="white" transform="translate(0 2.53516) rotate(-6.92757)"/>
</clipPath>
</defs>
</svg>
