<svg width="18" height="16" viewBox="0 0 18 16" fill="none" xmlns="http://www.w3.org/2000/svg">
<g clip-path="url(#clip0_5381_16595)">
<path fill-rule="evenodd" clip-rule="evenodd" d="M8.84326 15.3027C8.84326 15.3027 8.83326 15.3027 8.82326 15.3027C8.78326 15.3027 8.74326 15.3027 8.71326 15.2827C7.34326 14.6827 6.35326 14.1427 5.31326 13.4027C5.30326 13.4027 5.29326 13.3827 5.28326 13.3727C3.44326 12.1227 1.96326 10.6927 1.20326 9.36272C1.10326 9.20272 1.00326 9.03272 0.923263 8.87272C0.363263 7.83272 0.0932634 5.85272 0.653263 4.11272C1.07326 2.77272 1.93326 1.77272 3.11326 1.21272C3.72326 0.932725 4.34326 0.792725 4.96326 0.792725C5.78326 0.792725 6.61326 1.04272 7.41326 1.54272C8.07326 1.95272 8.56326 2.44272 8.84326 2.75272C9.11326 2.44272 9.61326 1.95272 10.2733 1.54272C11.0733 1.04272 11.9033 0.792725 12.7233 0.792725C13.3433 0.792725 13.9633 0.932725 14.5733 1.21272C15.7633 1.77272 16.6133 2.77272 17.0333 4.10272C17.5933 5.85272 17.3233 7.82272 16.7733 8.87272C16.6933 9.03272 16.5933 9.19272 16.4933 9.36272C15.7333 10.6827 14.2533 12.1227 12.4133 13.3727C12.4033 13.3827 12.3933 13.3927 12.3833 13.4027C11.3333 14.1427 10.3433 14.6927 8.98326 15.2827C8.94326 15.3027 8.91326 15.3027 8.87326 15.3027C8.87326 15.3027 8.86326 15.3027 8.85326 15.3027H8.84326Z" fill="#C11718"/>
</g>
<defs>
<clipPath id="clip0_5381_16595">
<rect width="17" height="14.51" fill="white" transform="translate(0.34375 0.792725)"/>
</clipPath>
</defs>
</svg>
