<svg width="17" height="16" viewBox="0 0 17 16" fill="none" xmlns="http://www.w3.org/2000/svg">
<circle cx="8.25" cy="8" r="7.5" stroke="#C11718"/>
<path d="M6.27771 4.53256C6.39504 4.42623 6.52337 4.3254 6.66271 4.23006C6.80204 4.13473 6.95421 4.0504 7.11921 3.97706C7.28421 3.90373 7.46204 3.8469 7.65271 3.80656C7.84704 3.76256 8.05604 3.74056 8.27971 3.74056C8.57671 3.74056 8.84987 3.78273 9.09921 3.86706C9.35221 3.9514 9.56854 4.0724 9.74821 4.23006C9.93154 4.38773 10.0745 4.5784 10.1772 4.80206C10.2799 5.02206 10.3312 5.26956 10.3312 5.54456C10.3312 5.82323 10.289 6.06523 10.2047 6.27056C10.124 6.47223 10.0214 6.64823 9.89671 6.79856C9.77204 6.9489 9.63454 7.0809 9.48421 7.19456C9.33754 7.30456 9.19821 7.40906 9.06621 7.50806C8.93787 7.60706 8.82604 7.70606 8.73071 7.80506C8.63904 7.9004 8.58404 8.00856 8.56571 8.12956L8.46121 8.96006H7.72971L7.65271 8.05256C7.63437 7.8839 7.66371 7.73723 7.74071 7.61256C7.81771 7.4879 7.91671 7.3724 8.03771 7.26606C8.16237 7.15606 8.29987 7.04973 8.45021 6.94706C8.60054 6.8444 8.73987 6.73073 8.86821 6.60606C8.99654 6.47773 9.10471 6.33473 9.19271 6.17706C9.28071 6.01573 9.32471 5.82506 9.32471 5.60506C9.32471 5.45473 9.29537 5.31906 9.23671 5.19806C9.17804 5.07706 9.09737 4.9744 8.99471 4.89006C8.89204 4.80206 8.77104 4.73606 8.63171 4.69206C8.49237 4.6444 8.34387 4.62056 8.18621 4.62056C7.96621 4.62056 7.77921 4.64806 7.62521 4.70306C7.47121 4.7544 7.33921 4.81123 7.22921 4.87356C7.12287 4.9359 7.03487 4.99456 6.96521 5.04956C6.89554 5.1009 6.83687 5.12656 6.78921 5.12656C6.68287 5.12656 6.60587 5.08073 6.55821 4.98906L6.27771 4.53256ZM7.34471 11.0831C7.34471 10.9841 7.36304 10.8906 7.39971 10.8026C7.43637 10.7146 7.48587 10.6376 7.54821 10.5716C7.61421 10.5056 7.69121 10.4542 7.77921 10.4176C7.86721 10.3772 7.96254 10.3571 8.06521 10.3571C8.16421 10.3571 8.25771 10.3772 8.34571 10.4176C8.43371 10.4542 8.51071 10.5056 8.57671 10.5716C8.64271 10.6376 8.69404 10.7146 8.73071 10.8026C8.77104 10.8906 8.79121 10.9841 8.79121 11.0831C8.79121 11.1857 8.77104 11.2811 8.73071 11.3691C8.69404 11.4571 8.64271 11.5341 8.57671 11.6001C8.51071 11.6661 8.43371 11.7174 8.34571 11.7541C8.25771 11.7907 8.16421 11.8091 8.06521 11.8091C7.96254 11.8091 7.86721 11.7907 7.77921 11.7541C7.69121 11.7174 7.61421 11.6661 7.54821 11.6001C7.48587 11.5341 7.43637 11.4571 7.39971 11.3691C7.36304 11.2811 7.34471 11.1857 7.34471 11.0831Z" fill="#C11718"/>
</svg>
