<svg width="25" height="25" viewBox="0 0 25 25" fill="none" xmlns="http://www.w3.org/2000/svg">
<path d="M23.1251 18.3682L14.585 3.53717C14.3716 3.17382 14.067 2.87254 13.7013 2.66321C13.3355 2.45387 12.9215 2.34375 12.5001 2.34375C12.0787 2.34375 11.6646 2.45387 11.2989 2.66321C10.9332 2.87254 10.6285 3.17382 10.4151 3.53717L1.87507 18.3682C1.66974 18.7197 1.56152 19.1194 1.56152 19.5264C1.56152 19.9335 1.66974 20.3332 1.87507 20.6846C2.08575 21.0502 2.38989 21.3531 2.75628 21.5623C3.12268 21.7715 3.53814 21.8794 3.96003 21.8751H21.0401C21.4617 21.8791 21.8767 21.771 22.2428 21.5618C22.6088 21.3526 22.9126 21.0499 23.1231 20.6846C23.3288 20.3334 23.4373 19.9337 23.4376 19.5267C23.438 19.1197 23.3301 18.7199 23.1251 18.3682ZM11.7188 10.1563C11.7188 9.94911 11.8011 9.7504 11.9476 9.60389C12.0942 9.45738 12.2929 9.37507 12.5001 9.37507C12.7073 9.37507 12.906 9.45738 13.0525 9.60389C13.199 9.7504 13.2813 9.94911 13.2813 10.1563V14.0626C13.2813 14.2698 13.199 14.4685 13.0525 14.615C12.906 14.7615 12.7073 14.8438 12.5001 14.8438C12.2929 14.8438 12.0942 14.7615 11.9476 14.615C11.8011 14.4685 11.7188 14.2698 11.7188 14.0626V10.1563ZM12.5001 18.7501C12.2683 18.7501 12.0417 18.6813 11.849 18.5526C11.6563 18.4238 11.5061 18.2408 11.4174 18.0266C11.3287 17.8125 11.3055 17.5769 11.3507 17.3496C11.3959 17.1222 11.5075 16.9134 11.6714 16.7496C11.8353 16.5857 12.0441 16.4741 12.2715 16.4288C12.4988 16.3836 12.7344 16.4068 12.9485 16.4955C13.1627 16.5842 13.3457 16.7344 13.4745 16.9271C13.6032 17.1198 13.6719 17.3464 13.6719 17.5782C13.6719 17.889 13.5485 18.1871 13.3287 18.4068C13.1089 18.6266 12.8109 18.7501 12.5001 18.7501Z" fill="#C11718"/>
</svg>
