<svg width="22" height="20" viewBox="0 0 22 20" fill="none" xmlns="http://www.w3.org/2000/svg">
<path d="M6.21429 10L6.21429 9.5L5.71429 9.5L2.32143 9.5C1.47369 9.5 0.785714 8.81203 0.785714 7.96428L0.785715 2.53571C0.785715 1.68797 1.47369 0.999998 2.32143 0.999998L7.75 0.999999C8.59774 0.999999 9.28571 1.68797 9.28571 2.53571L9.28571 12.7143C9.28571 16.1872 6.47296 19 3 19L2.66071 19C2.37279 19 2.14286 18.7701 2.14286 18.4821L2.14286 16.4464C2.14286 16.1585 2.37279 15.9286 2.66071 15.9286L3 15.9286C4.77324 15.9286 6.21429 14.4875 6.21429 12.7143L6.21429 10ZM18.4286 10L18.4286 9.5L17.9286 9.5L14.5357 9.5C13.688 9.5 13 8.81203 13 7.96429L13 2.53571C13 1.68797 13.688 0.999999 14.5357 0.999999L19.9643 1C20.812 1 21.5 1.68797 21.5 2.53572L21.5 12.7143C21.5 16.1873 18.6873 19 15.2143 19L14.875 19C14.5871 19 14.3571 18.7701 14.3571 18.4821L14.3571 16.4464C14.3571 16.1585 14.5871 15.9286 14.875 15.9286L15.2143 15.9286C16.9875 15.9286 18.4286 14.4875 18.4286 12.7143L18.4286 10Z" fill="white" stroke="#C11718"/>
</svg>
