<svg width="27" height="19" viewBox="0 0 27 19" fill="none" xmlns="http://www.w3.org/2000/svg">
<path d="M26.2457 13.6692H0.418191C0.186991 13.6692 0 13.4752 0 13.2353V8.20192C0 7.96203 0.186991 7.76801 0.418191 7.76801H2.05093L2.80009 4.34382C2.8431 4.14608 3.01277 4.00599 3.20812 4.00599H7.04771L6.99812 0.966742C6.99633 0.850206 7.03935 0.738008 7.1182 0.654945C7.19706 0.571882 7.304 0.525391 7.41632 0.525391H26.2468C26.478 0.525391 26.665 0.719411 26.665 0.959303V13.2359C26.665 13.4758 26.478 13.6698 26.2468 13.6698L26.2457 13.6692ZM0.835784 12.8014H25.8275V1.3926H7.84048L7.89006 4.43184C7.89186 4.54838 7.84884 4.66057 7.76998 4.74364C7.69113 4.8267 7.58419 4.87319 7.47187 4.87319H3.54088L2.79172 8.29738C2.74871 8.49512 2.57904 8.63521 2.38369 8.63521H0.835186V12.8008L0.835784 12.8014Z" fill="black"/>
<path d="M7.47288 13.6687C7.24168 13.6687 7.05469 13.4747 7.05469 13.2348V4.4388C7.05469 4.1989 7.24168 4.00488 7.47288 4.00488C7.70408 4.00488 7.89107 4.1989 7.89107 4.4388V13.2348C7.89107 13.4747 7.70408 13.6687 7.47288 13.6687Z" fill="white"/>
<path d="M7.47288 13.6687C7.24168 13.6687 7.05469 13.4747 7.05469 13.2348V4.4388C7.05469 4.1989 7.24168 4.00488 7.47288 4.00488C7.70408 4.00488 7.89107 4.1989 7.89107 4.4388V13.2348C7.89107 13.4747 7.70408 13.6687 7.47288 13.6687Z" fill="black"/>
<path d="M5.64833 18.1932C3.90806 18.1932 2.49219 16.724 2.49219 14.9184C2.49219 13.1127 3.90806 11.6436 5.64833 11.6436C7.3886 11.6436 8.80448 13.1127 8.80448 14.9184C8.80448 16.724 7.3886 18.1932 5.64833 18.1932ZM5.64833 12.5108C4.36927 12.5108 3.32857 13.5906 3.32857 14.9177C3.32857 16.2449 4.36927 17.3247 5.64833 17.3247C6.9274 17.3247 7.9681 16.2449 7.9681 14.9177C7.9681 13.5906 6.9274 12.5108 5.64833 12.5108Z" fill="white"/>
<path d="M7.58542 16.9268C8.65466 15.8173 8.65466 14.0186 7.58542 12.9092C6.51619 11.7997 4.78261 11.7997 3.71337 12.9092C2.64413 14.0186 2.64413 15.8173 3.71337 16.9268C4.78261 18.0362 6.51619 18.0362 7.58542 16.9268Z" fill="white"/>
<path d="M5.64833 18.1922C3.90806 18.1922 2.49219 16.7231 2.49219 14.9174C2.49219 13.1117 3.90806 11.6426 5.64833 11.6426C7.3886 11.6426 8.80448 13.1117 8.80448 14.9174C8.80448 16.7231 7.3886 18.1922 5.64833 18.1922ZM5.64833 12.5098C4.36927 12.5098 3.32857 13.5896 3.32857 14.9168C3.32857 16.2439 4.36927 17.3237 5.64833 17.3237C6.9274 17.3237 7.9681 16.2439 7.9681 14.9168C7.9681 13.5896 6.9274 12.5098 5.64833 12.5098Z" fill="black"/>
<path d="M22.0175 18.1932C20.2772 18.1932 18.8613 16.724 18.8613 14.9184C18.8613 13.1127 20.2772 11.6436 22.0175 11.6436C23.7577 11.6436 25.1736 13.1127 25.1736 14.9184C25.1736 16.724 23.7577 18.1932 22.0175 18.1932ZM22.0175 12.5108C20.7384 12.5108 19.6977 13.5906 19.6977 14.9177C19.6977 16.2449 20.7384 17.3247 22.0175 17.3247C23.2965 17.3247 24.3372 16.2449 24.3372 14.9177C24.3372 13.5906 23.2965 12.5108 22.0175 12.5108Z" fill="white"/>
<path d="M24.7346 15.291C24.9312 13.7354 23.8751 12.3089 22.3758 12.1049C20.8765 11.9009 19.5018 12.9967 19.3052 14.5524C19.1086 16.108 20.1646 17.5345 21.6639 17.7385C23.1632 17.9425 24.538 16.8467 24.7346 15.291Z" fill="white"/>
<path d="M22.0175 18.1941C20.2772 18.1941 18.8613 16.725 18.8613 14.9193C18.8613 13.1136 20.2772 11.6445 22.0175 11.6445C23.7577 11.6445 25.1736 13.1136 25.1736 14.9193C25.1736 16.725 23.7577 18.1941 22.0175 18.1941ZM22.0175 12.5117C20.7384 12.5117 19.6977 13.5916 19.6977 14.9187C19.6977 16.2459 20.7384 17.3257 22.0175 17.3257C23.2965 17.3257 24.3372 16.2459 24.3372 14.9187C24.3372 13.5916 23.2965 12.5117 22.0175 12.5117Z" fill="black"/>
<path d="M6.20464 8.30097H4.09159C4.02886 8.30097 3.96971 8.27183 3.93029 8.22224C3.89086 8.17265 3.87472 8.10633 3.88667 8.04248L4.2971 5.85804C4.31622 5.75638 4.40224 5.68262 4.50261 5.68262H6.20524C6.32054 5.68262 6.41434 5.77994 6.41434 5.89957V8.08401C6.41434 8.20365 6.32054 8.30097 6.20524 8.30097H6.20464ZM4.34549 7.86706H5.99555V6.11653H4.67407L4.34549 7.86706Z" fill="black"/>
<path d="M14.3278 6.22264L14.2214 6.21334L14.1934 6.55117L14.3015 6.56109C14.6378 6.58712 15.0094 6.53877 15.4055 6.41604C15.4438 6.40426 15.4814 6.39186 15.5202 6.37884C15.6953 6.31872 15.8745 6.24495 16.0555 6.15755C16.687 5.85319 17.187 5.46081 17.5012 5.02256L17.5538 4.94941L17.2916 4.74609L17.239 4.81924C16.9564 5.21286 16.4994 5.56929 15.9175 5.84947C15.3368 6.13028 14.7866 6.25921 14.3278 6.22326V6.22264Z" fill="black"/>
<path d="M19.9137 6.8335C19.7124 6.31404 19.2344 6.38223 18.9781 6.4188C18.9686 6.42004 18.959 6.42128 18.9495 6.42314C18.9375 6.39091 18.9226 6.35929 18.9059 6.32892C18.4668 5.51936 17.5957 4.14634 17.1291 3.91079C16.9308 3.81037 16.4606 3.8488 15.9319 4.00873C15.7103 4.07567 15.4743 4.16556 15.23 4.27589C14.3846 4.66208 13.8308 5.14558 13.7042 5.4332L13.7 5.43444L13.6862 5.48217C13.6862 5.48217 13.6844 5.48775 13.6838 5.49023L13.6791 5.50758V5.50883C13.5494 6.04998 13.9186 7.56991 14.2036 8.47431C14.2072 8.48546 14.2108 8.49662 14.2149 8.50778C14.0059 8.70862 13.6737 9.06133 13.8786 9.5783C14.1152 10.1752 15.4044 10.0903 16.503 9.75869C16.5801 9.73513 16.6578 9.71033 16.7354 9.68368C16.9571 9.60744 17.1823 9.51818 17.4075 9.4159C18.1531 9.07497 18.8539 8.60572 19.3306 8.12841C19.8342 7.62384 20.0415 7.16389 19.9137 6.83412V6.8335ZM16.4116 9.43201C15.2168 9.7934 14.2938 9.73203 14.1815 9.44875C14.0728 9.17414 14.2096 8.98198 14.4049 8.78858C14.7192 9.06752 15.3226 9.08984 16.1201 8.84933C16.4027 8.76379 16.7062 8.64725 17.0216 8.50344C18.0826 8.01932 18.7864 7.44531 18.9536 6.9271C18.9716 6.87131 18.9835 6.81552 18.9895 6.76035C18.999 6.75911 19.0092 6.75787 19.0194 6.75601H19.0223C19.3485 6.7089 19.5194 6.7275 19.6096 6.95995C19.6813 7.14591 19.4782 7.5135 19.0916 7.89658C18.6358 8.34847 17.9912 8.77742 17.2761 9.1041C16.9846 9.23613 16.6936 9.34647 16.411 9.43201H16.4116ZM16.0233 4.33478C16.6399 4.1482 16.9439 4.19407 16.9858 4.21577C17.2785 4.36392 18.0426 5.42886 18.6209 6.49629C18.6752 6.59485 18.6824 6.69774 18.6436 6.81924C18.508 7.24013 17.8526 7.75339 16.8902 8.19164C16.5879 8.32988 16.2981 8.44083 16.0287 8.52266C15.1911 8.77557 14.6248 8.71792 14.5148 8.36831C14.1839 7.31886 13.8989 5.95575 13.9981 5.58569L13.9999 5.57887C14.0142 5.52804 14.1212 5.38361 14.3541 5.19331C14.5411 5.04082 14.8679 4.81209 15.3608 4.58707C15.592 4.48231 15.8148 4.39739 16.0227 4.33478H16.0233Z" fill="black"/>
<path d="M16.1536 4.8734C15.935 5.00048 15.7713 5.16536 15.613 5.32467C15.3871 5.55217 15.1536 5.7871 14.7563 5.90983C14.73 5.91789 14.7025 5.92657 14.6738 5.93401L14.678 5.98422C14.6858 5.98422 14.8883 5.99971 15.2539 5.88628C15.5652 5.78958 15.8979 5.63027 16.2408 5.41269C16.6722 5.13809 16.7761 4.92609 16.7301 4.81885C16.6925 4.73145 16.5664 4.70976 16.3938 4.76368C16.3185 4.78724 16.2367 4.82381 16.153 4.8734H16.1536Z" fill="black"/>
<path d="M14.3674 5.68407C14.405 5.77147 14.5317 5.79254 14.7038 5.73923C14.7802 5.71568 14.8609 5.67911 14.9457 5.62952C15.1644 5.50244 15.3275 5.33755 15.4852 5.17887C15.7104 4.95137 15.9446 4.71582 16.3419 4.59309C16.3682 4.58503 16.3956 4.57697 16.4237 4.57015L16.4201 4.51994C16.4106 4.5187 16.2092 4.5032 15.8448 4.61602C15.533 4.71272 15.2008 4.87265 14.8573 5.09023C14.426 5.36421 14.3214 5.57683 14.3674 5.68407Z" fill="black"/>
</svg>
