<svg width="91" height="63" viewBox="0 0 91 63" fill="none" xmlns="http://www.w3.org/2000/svg">
<path d="M89.5687 44.856H1.42716C0.638146 44.856 0 44.1939 0 43.3752V26.1978C0 25.3791 0.638146 24.7169 1.42716 24.7169H6.99922L9.55588 13.0312C9.70267 12.3564 10.2817 11.8783 10.9484 11.8783H24.0518L23.8826 1.5062C23.8764 1.1085 24.0232 0.725602 24.2924 0.442132C24.5615 0.158661 24.9264 0 25.3097 0H89.5728C90.3619 0 91 0.662136 91 1.48082V43.3773C91 44.196 90.3619 44.8582 89.5728 44.8582L89.5687 44.856ZM2.85229 41.8944H88.1416V2.95952H26.7573L26.9265 13.3316C26.9326 13.7293 26.7858 14.1122 26.5167 14.3956C26.2476 14.6791 25.8826 14.8378 25.4993 14.8378H12.084L9.52733 26.5235C9.38054 27.1984 8.80152 27.6765 8.13483 27.6765H2.85025V41.8923L2.85229 41.8944Z" fill="black"/>
<path d="M25.5004 44.8549C24.7114 44.8549 24.0732 44.1928 24.0732 43.3741V13.3558C24.0732 12.5371 24.7114 11.875 25.5004 11.875C26.2894 11.875 26.9276 12.5371 26.9276 13.3558V43.3741C26.9276 44.1928 26.2894 44.8549 25.5004 44.8549Z" fill="white"/>
<path d="M25.5004 44.8549C24.7114 44.8549 24.0732 44.1928 24.0732 43.3741V13.3558C24.0732 12.5371 24.7114 11.875 25.5004 11.875C26.2894 11.875 26.9276 12.5371 26.9276 13.3558V43.3741C26.9276 44.1928 26.2894 44.8549 25.5004 44.8549Z" fill="black"/>
<path d="M19.2749 60.2962C13.3359 60.2962 8.50391 55.2826 8.50391 49.1203C8.50391 42.958 13.3359 37.9443 19.2749 37.9443C25.2139 37.9443 30.0459 42.958 30.0459 49.1203C30.0459 55.2826 25.2139 60.2962 19.2749 60.2962ZM19.2749 40.9039C14.9098 40.9039 11.3582 44.589 11.3582 49.1182C11.3582 53.6473 14.9098 57.3324 19.2749 57.3324C23.64 57.3324 27.1916 53.6473 27.1916 49.1182C27.1916 44.589 23.64 40.9039 19.2749 40.9039Z" fill="white"/>
<path d="M25.8823 55.9727C29.5313 52.1865 29.5313 46.0479 25.8823 42.2617C22.2333 38.4755 16.3171 38.4755 12.6681 42.2617C9.01913 46.0479 9.01913 52.1865 12.6681 55.9727C16.3171 59.7588 22.2333 59.7588 25.8823 55.9727Z" fill="white"/>
<path d="M19.2691 60.2933C13.33 60.2933 8.49805 55.2796 8.49805 49.1173C8.49805 42.955 13.33 37.9414 19.2691 37.9414C25.2081 37.9414 30.0401 42.955 30.0401 49.1173C30.0401 55.2796 25.2081 60.2933 19.2691 60.2933ZM19.2691 40.9009C14.904 40.9009 11.3524 44.586 11.3524 49.1152C11.3524 53.6444 14.904 57.3295 19.2691 57.3295C23.6341 57.3295 27.1857 53.6444 27.1857 49.1152C27.1857 44.586 23.6341 40.9009 19.2691 40.9009Z" fill="black"/>
<path d="M75.1314 60.2962C69.1923 60.2962 64.3604 55.2826 64.3604 49.1203C64.3604 42.958 69.1923 37.9443 75.1314 37.9443C81.0704 37.9443 85.9024 42.958 85.9024 49.1203C85.9024 55.2826 81.0704 60.2962 75.1314 60.2962ZM75.1314 40.9039C70.7663 40.9039 67.2147 44.589 67.2147 49.1182C67.2147 53.6473 70.7663 57.3324 75.1314 57.3324C79.4964 57.3324 83.048 53.6473 83.048 49.1182C83.048 44.589 79.4964 40.9039 75.1314 40.9039Z" fill="white"/>
<path d="M84.3977 50.3924C85.0686 45.0834 81.4645 40.2153 76.3479 39.5191C71.2312 38.823 66.5395 42.5625 65.8686 47.8715C65.1977 53.1806 68.8017 58.0487 73.9184 58.7448C79.035 59.4409 83.7268 55.7014 84.3977 50.3924Z" fill="white"/>
<path d="M75.1328 60.2982C69.1938 60.2982 64.3618 55.2845 64.3618 49.1222C64.3618 42.9599 69.1938 37.9463 75.1328 37.9463C81.0719 37.9463 85.9038 42.9599 85.9038 49.1222C85.9038 55.2845 81.0719 60.2982 75.1328 60.2982ZM75.1328 40.9058C70.7677 40.9058 67.2161 44.5909 67.2161 49.1201C67.2161 53.6493 70.7677 57.3344 75.1328 57.3344C79.4979 57.3344 83.0495 53.6493 83.0495 49.1201C83.0495 44.5909 79.4979 40.9058 75.1328 40.9058Z" fill="black"/>
<path d="M21.1737 26.5372H13.9625C13.7484 26.5372 13.5466 26.4378 13.412 26.2686C13.2774 26.0993 13.2224 25.873 13.2632 25.6551L14.6638 18.2002C14.7291 17.8533 15.0227 17.6016 15.3652 17.6016H21.1758C21.5693 17.6016 21.8894 17.9337 21.8894 18.342V25.7968C21.8894 26.2051 21.5693 26.5372 21.1758 26.5372H21.1737ZM14.829 25.0564H20.4602V19.0824H15.9503L14.829 25.0564Z" fill="black"/>
<path d="M48.9084 19.4423L48.5455 19.4106L48.4497 20.5635L48.8187 20.5974C49.9666 20.6862 51.2347 20.5212 52.5864 20.1023C52.7169 20.0622 52.8454 20.0198 52.9779 19.9754C53.5753 19.7702 54.1869 19.5185 54.8047 19.2202C56.9597 18.1815 58.6662 16.8424 59.7386 15.3468L59.918 15.0972L59.023 14.4033L58.8435 14.6529C57.8792 15.9963 56.3195 17.2126 54.3337 18.1688C52.352 19.1271 50.4742 19.5671 48.9084 19.4444V19.4423Z" fill="black"/>
<path d="M67.9643 21.5274C67.2773 19.7547 65.6462 19.9874 64.7716 20.1122C64.739 20.1164 64.7063 20.1206 64.6737 20.127C64.6329 20.017 64.582 19.9091 64.5249 19.8054C63.0264 17.0426 60.0538 12.3569 58.4615 11.553C57.7846 11.2103 56.1801 11.3415 54.3757 11.8873C53.6193 12.1158 52.814 12.4225 51.9801 12.799C49.0952 14.117 47.2052 15.767 46.773 16.7486L46.7587 16.7528L46.7118 16.9157C46.7118 16.9157 46.7057 16.9348 46.7037 16.9432L46.6874 17.0024V17.0067C46.245 18.8535 47.5049 24.0406 48.4774 27.127C48.4897 27.1651 48.5019 27.2032 48.5162 27.2412C47.8026 27.9266 46.669 29.1303 47.3683 30.8946C48.1757 32.9318 52.5754 32.642 56.3248 31.5102C56.5878 31.4298 56.8529 31.3452 57.1179 31.2542C57.8743 30.994 58.6429 30.6894 59.4116 30.3404C61.956 29.1769 64.3475 27.5755 65.9745 25.9466C67.6932 24.2246 68.4006 22.6549 67.9643 21.5295V21.5274ZM56.0129 30.3954C51.9353 31.6287 48.7853 31.4193 48.402 30.4525C48.031 29.5153 48.4978 28.8596 49.1645 28.1995C50.2369 29.1515 52.2961 29.2276 55.0179 28.4068C55.9823 28.1149 57.018 27.7172 58.0945 27.2264C61.7154 25.5743 64.1171 23.6153 64.688 21.8468C64.7491 21.6564 64.7899 21.466 64.8103 21.2778C64.8429 21.2735 64.8776 21.2693 64.9122 21.263H64.9224C66.0356 21.1022 66.6187 21.1657 66.9266 21.9589C67.1712 22.5936 66.4781 23.848 65.1589 25.1554C63.6033 26.6976 61.4035 28.1615 58.963 29.2763C57.9681 29.7269 56.9752 30.1034 56.0108 30.3954H56.0129ZM54.6876 13C56.7917 12.3633 57.8294 12.5198 57.9722 12.5938C58.9712 13.0994 61.5788 16.7338 63.5524 20.3766C63.7379 20.713 63.7624 21.0641 63.6298 21.4787C63.167 22.9151 60.9305 24.6667 57.646 26.1624C56.6143 26.6341 55.6255 27.0128 54.706 27.292C51.8476 28.1551 49.9148 27.9584 49.5397 26.7653C48.4102 23.1838 47.4377 18.5319 47.7761 17.269L47.7822 17.2457C47.8311 17.0723 48.1961 16.5794 48.9912 15.9299C49.6294 15.4095 50.7446 14.6289 52.4266 13.861C53.2156 13.5035 53.9761 13.2137 54.6856 13H54.6876Z" fill="black"/>
<path d="M55.1278 14.8368C54.3815 15.2704 53.8229 15.8331 53.2826 16.3768C52.512 17.1532 51.7148 17.9549 50.359 18.3738C50.2693 18.4013 50.1755 18.4309 50.0776 18.4563L50.0919 18.6277C50.1184 18.6277 50.8096 18.6805 52.0573 18.2934C53.1195 17.9634 54.2551 17.4197 55.4254 16.6772C56.8974 15.7401 57.2522 15.0166 57.0952 14.6506C56.9668 14.3523 56.5366 14.2783 55.9474 14.4623C55.6905 14.5427 55.4111 14.6675 55.1257 14.8368H55.1278Z" fill="black"/>
<path d="M49.0419 17.6025C49.1703 17.9008 49.6026 17.9728 50.1897 17.7908C50.4507 17.7104 50.7259 17.5856 51.0155 17.4164C51.7617 16.9827 52.3183 16.42 52.8565 15.8785C53.6251 15.1021 54.4243 14.2982 55.7801 13.8794C55.8698 13.8519 55.9636 13.8244 56.0595 13.8011L56.0472 13.6297C56.0146 13.6255 55.3275 13.5726 54.0839 13.9576C53.0196 14.2876 51.886 14.8334 50.7137 15.5759C49.2417 16.511 48.8849 17.2366 49.0419 17.6025Z" fill="black"/>
</svg>
