<svg width="36" height="24" viewBox="0 0 36 24" fill="none" xmlns="http://www.w3.org/2000/svg">
<path d="M35.4338 17.1023H0.564592C0.252453 17.1023 0 16.8498 0 16.5377V9.98844C0 9.6763 0.252453 9.42385 0.564592 9.42385H2.76892L3.78035 4.96841C3.83842 4.71112 4.06748 4.52884 4.33123 4.52884H9.51499L9.44804 0.574272C9.44562 0.422638 9.5037 0.276651 9.61016 0.168572C9.71663 0.0604929 9.861 0 10.0126 0H35.4354C35.7475 0 36 0.252453 36 0.564592V16.5385C36 16.8507 35.7475 17.1031 35.4354 17.1031L35.4338 17.1023ZM1.12838 15.9731H34.8692V1.12838H10.5853L10.6522 5.08294C10.6547 5.23458 10.5966 5.38056 10.4901 5.48864C10.3837 5.59672 10.2393 5.65721 10.0876 5.65721H4.78048L3.76905 10.1127C3.71098 10.3699 3.48192 10.5522 3.21817 10.5522H1.12757V15.9723L1.12838 15.9731Z" fill="#C11718"/>
<path d="M10.0875 17.1016C9.7754 17.1016 9.52295 16.8492 9.52295 16.537V5.09194C9.52295 4.7798 9.7754 4.52734 10.0875 4.52734C10.3997 4.52734 10.6521 4.7798 10.6521 5.09194V16.537C10.6521 16.8492 10.3997 17.1016 10.0875 17.1016Z" fill="white"/>
<path d="M10.0875 17.1016C9.7754 17.1016 9.52295 16.8492 9.52295 16.537V5.09194C9.52295 4.7798 9.7754 4.52734 10.0875 4.52734C10.3997 4.52734 10.6521 4.7798 10.6521 5.09194V16.537C10.6521 16.8492 10.3997 17.1016 10.0875 17.1016Z" fill="#C11718"/>
<path d="M7.62531 22.9889C5.2758 22.9889 3.36426 21.0774 3.36426 18.7279C3.36426 16.3783 5.2758 14.4668 7.62531 14.4668C9.97482 14.4668 11.8864 16.3783 11.8864 18.7279C11.8864 21.0774 9.97482 22.9889 7.62531 22.9889ZM7.62531 15.5952C5.89847 15.5952 4.49344 17.0002 4.49344 18.727C4.49344 20.4539 5.89847 21.8589 7.62531 21.8589C9.35216 21.8589 10.7572 20.4539 10.7572 18.727C10.7572 17.0002 9.35216 15.5952 7.62531 15.5952Z" fill="white"/>
<path d="M10.2403 21.3413C11.6839 19.8978 11.6839 17.5573 10.2403 16.1137C8.79675 14.6702 6.45628 14.6702 5.01272 16.1137C3.56916 17.5573 3.56916 19.8978 5.01272 21.3413C6.45628 22.7849 8.79675 22.7849 10.2403 21.3413Z" fill="white"/>
<path d="M7.6258 22.9899C5.27629 22.9899 3.36475 21.0783 3.36475 18.7288C3.36475 16.3793 5.27629 14.4678 7.6258 14.4678C9.97531 14.4678 11.8869 16.3793 11.8869 18.7288C11.8869 21.0783 9.97531 22.9899 7.6258 22.9899ZM7.6258 15.5961C5.89896 15.5961 4.49393 17.0012 4.49393 18.728C4.49393 20.4549 5.89896 21.8599 7.6258 21.8599C9.35265 21.8599 10.7577 20.4549 10.7577 18.728C10.7577 17.0012 9.35265 15.5961 7.6258 15.5961Z" fill="#C11718"/>
<path d="M29.723 22.9889C27.3735 22.9889 25.4619 21.0774 25.4619 18.7279C25.4619 16.3783 27.3735 14.4668 29.723 14.4668C32.0725 14.4668 33.984 16.3783 33.984 18.7279C33.984 21.0774 32.0725 22.9889 29.723 22.9889ZM29.723 15.5952C27.9961 15.5952 26.5911 17.0002 26.5911 18.727C26.5911 20.4539 27.9961 21.8589 29.723 21.8589C31.4498 21.8589 32.8548 20.4539 32.8548 18.727C32.8548 17.0002 31.4498 15.5952 29.723 15.5952Z" fill="white"/>
<path d="M33.3908 19.213C33.6562 17.1889 32.2305 15.3328 30.2063 15.0674C28.1821 14.802 26.3261 16.2277 26.0606 18.2519C25.7952 20.2761 27.221 22.1321 29.2452 22.3976C31.2693 22.663 33.1254 21.2372 33.3908 19.213Z" fill="white"/>
<path d="M29.7239 22.9899C27.3744 22.9899 25.4629 21.0783 25.4629 18.7288C25.4629 16.3793 27.3744 14.4678 29.7239 14.4678C32.0735 14.4678 33.985 16.3793 33.985 18.7288C33.985 21.0783 32.0735 22.9899 29.7239 22.9899ZM29.7239 15.5961C27.9971 15.5961 26.5921 17.0012 26.5921 18.728C26.5921 20.4549 27.9971 21.8599 29.7239 21.8599C31.4508 21.8599 32.8558 20.4549 32.8558 18.728C32.8558 17.0012 31.4508 15.5961 29.7239 15.5961Z" fill="#C11718"/>
<path d="M8.38125 10.1178H5.52844C5.44376 10.1178 5.36391 10.0799 5.31067 10.0154C5.25744 9.95089 5.23566 9.86459 5.25179 9.78151L5.8059 6.93919C5.83171 6.80692 5.94786 6.71094 6.08336 6.71094H8.38205C8.53772 6.71094 8.66435 6.83757 8.66435 6.99323V9.83555C8.66435 9.99121 8.53772 10.1178 8.38205 10.1178H8.38125ZM5.87123 9.55325H8.09895V7.27553H6.31484L5.87123 9.55325Z" fill="#C11718"/>
<path d="M19.3455 7.41341L19.202 7.40132L19.1641 7.84089L19.31 7.85379C19.7641 7.88767 20.2658 7.82476 20.8006 7.66506C20.8522 7.64973 20.903 7.6336 20.9554 7.61667C21.1918 7.53843 21.4337 7.44245 21.6781 7.32873C22.5306 6.9327 23.2057 6.42215 23.63 5.85191L23.701 5.75674L23.3469 5.49219L23.2759 5.58736C22.8944 6.09953 22.2774 6.5633 21.4918 6.92787C20.7078 7.29324 19.965 7.461 19.3455 7.41422V7.41341Z" fill="#C11718"/>
<path d="M26.8864 8.20792C26.6146 7.53202 25.9694 7.62074 25.6234 7.66833C25.6105 7.66994 25.5976 7.67155 25.5847 7.67397C25.5685 7.63203 25.5484 7.5909 25.5258 7.55137C24.933 6.49801 23.757 4.71148 23.1271 4.40499C22.8593 4.27432 22.2245 4.32433 21.5107 4.53242C21.2115 4.61953 20.8929 4.73648 20.563 4.88005C19.4217 5.38254 18.674 6.01165 18.5031 6.3859L18.4974 6.38751L18.4789 6.44961C18.4789 6.44961 18.4764 6.45687 18.4756 6.4601L18.4692 6.48268V6.4843C18.2942 7.18842 18.7926 9.16611 19.1773 10.3429C19.1822 10.3574 19.187 10.3719 19.1927 10.3864C18.9104 10.6478 18.4619 11.1067 18.7386 11.7794C19.058 12.5561 20.7985 12.4456 22.2818 12.0141C22.3858 11.9834 22.4907 11.9512 22.5955 11.9165C22.8948 11.8173 23.1988 11.7011 23.5029 11.568C24.5095 11.1244 25.4556 10.5139 26.0992 9.89282C26.7792 9.23628 27.059 8.63781 26.8864 8.20872V8.20792ZM22.1584 11.589C20.5453 12.0592 19.2991 11.9794 19.1475 11.6108C19.0007 11.2535 19.1854 11.0034 19.4491 10.7518C19.8734 11.1148 20.688 11.1438 21.7648 10.8308C22.1463 10.7195 22.556 10.5679 22.9819 10.3808C24.4143 9.75086 25.3645 9.00399 25.5903 8.3297C25.6145 8.25711 25.6306 8.18452 25.6387 8.11274C25.6516 8.11113 25.6653 8.10952 25.679 8.1071H25.6831C26.1234 8.0458 26.3541 8.06999 26.4759 8.37245C26.5727 8.61442 26.2985 9.09271 25.7766 9.59117C25.1612 10.1791 24.2909 10.7373 23.3255 11.1623C22.9319 11.3341 22.5391 11.4777 22.1576 11.589H22.1584ZM21.6341 4.95667C22.4665 4.7139 22.877 4.77358 22.9335 4.80181C23.3287 4.99458 24.3603 6.38025 25.141 7.76915C25.2144 7.89739 25.2241 8.03128 25.1717 8.18936C24.9886 8.73702 24.1038 9.40485 22.8044 9.97509C22.3963 10.155 22.0051 10.2993 21.6414 10.4058C20.5106 10.7349 19.746 10.6599 19.5976 10.205C19.1507 8.83945 18.766 7.06583 18.8999 6.58431L18.9023 6.57544C18.9217 6.5093 19.066 6.32137 19.3806 6.07376C19.633 5.87534 20.0742 5.57772 20.7396 5.28494C21.0518 5.14863 21.3526 5.03814 21.6333 4.95667H21.6341Z" fill="#C11718"/>
<path d="M21.8084 5.65648C21.5132 5.82183 21.2922 6.03637 21.0785 6.24366C20.7736 6.53967 20.4582 6.84535 19.9219 7.00505C19.8864 7.01554 19.8493 7.02683 19.8105 7.03651L19.8162 7.10184C19.8267 7.10184 20.1001 7.122 20.5937 6.9744C21.0139 6.84858 21.4632 6.64129 21.9262 6.35819C22.5085 6.00088 22.6488 5.72504 22.5867 5.58551C22.5359 5.47178 22.3657 5.44355 22.1326 5.51372C22.031 5.54437 21.9205 5.59196 21.8076 5.65648H21.8084Z" fill="#C11718"/>
<path d="M19.3978 6.71086C19.4486 6.82458 19.6196 6.85201 19.8519 6.78264C19.9551 6.75199 20.064 6.70441 20.1785 6.63988C20.4737 6.47454 20.6939 6.25999 20.9068 6.05351C21.2109 5.7575 21.5271 5.45101 22.0634 5.29131C22.0989 5.28083 22.136 5.27034 22.1739 5.26147L22.1691 5.19614C22.1562 5.19453 21.8844 5.17436 21.3924 5.32116C20.9714 5.44698 20.5229 5.65507 20.0591 5.93817C19.4768 6.29467 19.3357 6.57133 19.3978 6.71086Z" fill="#C11718"/>
</svg>
