<svg width="30" height="29" viewBox="0 0 30 29" fill="none" xmlns="http://www.w3.org/2000/svg">
<path d="M25.083 9.2097C24.9498 9.02855 24.7348 8.91996 24.5041 8.91996L22.3288 8.93476C22.0757 8.93674 21.8706 9.14356 21.8716 9.39628C21.8731 9.64752 22.0792 9.85187 22.3318 9.85187L24.2366 9.79955L21.7671 17.5017H10.9393C10.9309 17.5017 10.9235 17.4953 10.922 17.4874L9.06519 7.34043C9.00031 6.98652 8.70413 6.71356 8.34357 6.67703L5.22182 6.36952H5.21439C4.95635 6.35471 4.74387 6.53142 4.71911 6.78019C4.69385 7.03144 4.87859 7.25652 5.13118 7.28219L8.17567 7.5823L10.0186 17.6527C10.0988 18.0871 10.4723 18.405 10.9121 18.4183L10.0231 20.026C9.90865 20.2323 9.91212 20.4771 10.032 20.68C10.1518 20.8834 10.3653 21.0043 10.6015 21.0043H10.9983C10.5684 21.4002 10.3163 21.9594 10.3163 22.5596C10.3163 23.729 11.2707 24.6801 12.444 24.6801C13.6173 24.6801 14.5717 23.729 14.5717 22.5596C14.5717 21.9594 14.3196 21.4002 13.8897 21.0043H18.2942C17.8643 21.4002 17.6122 21.9594 17.6122 22.5596C17.6122 23.729 18.5666 24.6801 19.74 24.6801C20.9133 24.6801 21.8677 23.729 21.8677 22.5596C21.8677 21.9594 21.6156 21.4002 21.1857 21.0043H22.1198C22.3734 21.0043 22.5799 20.7985 22.5799 20.5457C22.5799 20.293 22.3734 20.0872 22.1198 20.0872H11.0384L11.9606 18.4183H21.8385C22.196 18.4183 22.511 18.1898 22.622 17.8482L25.188 9.84694C25.2579 9.63025 25.2187 9.39233 25.0835 9.20921L25.083 9.2097ZM12.4435 23.7635C11.7773 23.7635 11.2355 23.2235 11.2355 22.5596C11.2355 21.8957 11.7773 21.3557 12.4435 21.3557C13.1096 21.3557 13.6515 21.8957 13.6515 22.5596C13.6515 23.2235 13.1096 23.7635 12.4435 23.7635ZM20.9474 22.5596C20.9474 23.2235 20.4056 23.7635 19.7395 23.7635C19.0733 23.7635 18.5315 23.2235 18.5315 22.5596C18.5315 21.8957 19.0733 21.3557 19.7395 21.3557C20.4056 21.3557 20.9474 21.8957 20.9474 22.5596Z" />
<path d="M18.6353 8.54634H16.7889V6.7062C16.7889 6.52356 16.6403 6.37598 16.4576 6.37598C16.2748 6.37598 16.1262 6.52406 16.1262 6.7062V8.54634H14.2798C14.0971 8.54634 13.9485 8.69442 13.9485 8.87656C13.9485 9.0587 14.0971 9.20678 14.2798 9.20678H16.1262V11.0469C16.1262 11.2296 16.2748 11.3771 16.4576 11.3771C16.6403 11.3771 16.7889 11.2291 16.7889 11.0469V9.20678H18.6353C18.8181 9.20678 18.9667 9.0587 18.9667 8.87656C18.9667 8.69442 18.8181 8.54634 18.6353 8.54634Z" />
</svg>
