<svg width="24" height="25" viewBox="0 0 24 25" fill="none" xmlns="http://www.w3.org/2000/svg">
<path d="M1.82379 9.92479C1.83795 10.0664 1.84928 10.2108 1.86627 10.3524C2.22314 13.6571 2.7641 16.4861 3.47216 18.7827C3.75255 19.6917 4.05844 20.5157 4.39264 21.2548C4.58807 21.6909 4.99591 21.9939 5.46607 22.0732C6.60747 22.2686 7.93579 22.379 9.36042 22.379C10.785 22.379 12.1445 22.2629 13.2944 22.0647C13.7674 21.9826 14.1752 21.6768 14.3707 21.2378C14.6936 20.5072 14.9938 19.6888 15.2713 18.7912C16.0049 16.4181 16.5798 13.4759 16.999 10.0324C17.1463 8.71278 17.1803 7.42148 17.1208 6.18115C17.0953 5.68558 16.7073 5.2863 16.2145 5.24382C14.297 5.07392 12.153 4.98047 9.88438 4.98047C7.25322 4.98047 4.78633 5.1079 2.65081 5.33161C2.16649 5.38258 1.7898 5.77903 1.76148 6.2661C1.69634 7.4498 1.71333 8.67597 1.82662 9.93045" fill="white"/>
<path d="M1.82379 9.92479C1.83795 10.0664 1.84928 10.2108 1.86627 10.3524C2.22314 13.6571 2.7641 16.4861 3.47216 18.7827C3.75255 19.6917 4.05844 20.5157 4.39264 21.2548C4.58807 21.6909 4.99591 21.9939 5.46607 22.0732C6.60747 22.2686 7.93579 22.379 9.36042 22.379C10.785 22.379 12.1445 22.2629 13.2944 22.0647C13.7674 21.9826 14.1752 21.6768 14.3707 21.2378C14.6936 20.5072 14.9938 19.6888 15.2713 18.7912C16.0049 16.4181 16.5798 13.4759 16.999 10.0324C17.1463 8.71278 17.1803 7.42148 17.1208 6.18115C17.0953 5.68558 16.7073 5.2863 16.2145 5.24382C14.297 5.07392 12.153 4.98047 9.88438 4.98047C7.25322 4.98047 4.78633 5.1079 2.65081 5.33161C2.16649 5.38258 1.7898 5.77903 1.76148 6.2661C1.69634 7.4498 1.71333 8.67597 1.82662 9.93045" stroke="black" stroke-miterlimit="10"/>
<path d="M1.71771 5.87764C3.55018 6.36471 6.31729 6.67621 9.41577 6.67621C12.5143 6.67621 15.3125 6.36187 17.145 5.86914" stroke="black" stroke-miterlimit="10"/>
<path d="M17.6426 10.6914H19.2121C21.7874 10.6914 22.7648 11.6541 22.4815 13.7506C22.1982 15.847 20.1668 16.8097 18.1979 16.8097H16.7983" stroke="white" stroke-miterlimit="10"/>
<path d="M16.9006 10.0762H19.02C22.0675 10.0762 23.2825 11.4524 22.9455 13.9444C22.6084 16.4364 20.15 17.3426 17.8191 17.3426H15.6892" stroke="black" stroke-miterlimit="10"/>
<path d="M16.8766 11.4863H18.3416C20.7455 11.4863 21.6578 12.155 21.3934 13.6113C21.1289 15.0676 19.2328 15.7363 17.3949 15.7363H16.0886" stroke="black" stroke-miterlimit="10"/>
</svg>
