<svg width="24" height="25" viewBox="0 0 24 25" fill="none" xmlns="http://www.w3.org/2000/svg">
<path d="M20.1231 8.06023C19.4585 7.41023 18.5538 7.05023 17.5754 7.05023C17.4646 7.05023 17.3631 7.05023 17.2523 7.07023C17.2523 6.83023 17.2523 6.56023 17.2523 6.30023C17.2523 5.95023 17.1231 5.62023 16.9015 5.37023C16.6708 5.12023 16.3662 4.99023 16.0431 4.99023H4.50462C4.18154 4.99023 3.87692 5.13023 3.64615 5.38023C3.41539 5.63023 3.29539 5.96023 3.29539 6.31023C3.32308 9.94023 3.49846 12.4602 3.83077 13.7802C4.15385 15.0702 4.92 16.6202 5.75077 17.6802H1.94769V18.1902C1.94769 19.4202 2.87077 20.4202 4.00615 20.4202H16.5508C17.6862 20.4202 18.6092 19.4102 18.6092 18.1702V17.6602H14.7415C15.3969 16.8702 15.9046 16.0302 16.3108 15.0702C16.5046 15.0502 16.8092 15.0202 17.2062 14.9802H17.28C17.4923 14.9502 17.5938 14.9402 17.6308 14.9402C18.7662 14.8002 19.5877 14.3902 20.2062 13.6602C20.8523 12.9002 21.2308 11.8702 21.2308 10.8502C21.2308 9.76023 20.8338 8.78023 20.1231 8.08023V8.06023ZM3 18.6702H17.5662C17.3908 19.0902 16.9938 19.3802 16.5508 19.3802H4.00615C3.56308 19.3802 3.17539 19.1002 3 18.6702ZM15.9415 14.0702C15.7108 14.1202 15.6092 14.1902 15.5446 14.3802C15.0646 15.6102 14.4369 16.5902 13.5046 17.5602C13.4769 17.5902 13.44 17.6202 13.4123 17.6502H7.06154C7.06154 17.6502 7.04308 17.6302 7.03385 17.6202C6.24 16.9102 5.16923 15.1702 4.75385 13.5002C4.44923 12.2802 4.27385 9.79023 4.25539 6.29023C4.25539 6.21023 4.28308 6.14023 4.32923 6.09023C4.37539 6.04023 4.44 6.01023 4.51385 6.01023H16.0523C16.1262 6.01023 16.1908 6.04023 16.2369 6.09023C16.2831 6.14023 16.3108 6.21023 16.3108 6.29023C16.3108 6.83023 16.3108 7.48023 16.3108 7.63023C16.3108 7.79023 16.3846 7.95023 16.4954 8.05023C16.6892 8.22023 16.92 8.17023 17.0215 8.15023C17.2062 8.11023 17.3908 8.09023 17.5846 8.09023C18.3323 8.09023 19.0062 8.35023 19.4954 8.83023C20.0123 9.33023 20.2892 10.0502 20.2892 10.8402C20.2892 11.6302 20.0031 12.3802 19.5138 12.9602C19.0523 13.5002 18.4246 13.8002 17.52 13.9102C17.4923 13.9102 17.3354 13.9302 17.16 13.9402H17.1138C16.4492 14.0102 16.1169 14.0402 15.9415 14.0802V14.0702Z" fill="black"/>
<path d="M18.8677 12.7209C19.4493 12.2709 19.7262 11.6409 19.7262 10.8009C19.7262 9.67091 18.9416 8.80091 17.8616 8.73091C17.5754 8.71091 17.1693 8.76091 16.8 8.86091C16.5693 8.92091 16.4031 9.14091 16.3847 9.39091C16.3385 10.1709 16.1539 11.6909 15.96 12.7009C15.9231 12.8709 15.96 13.0409 16.0616 13.1709C16.1631 13.3009 16.3108 13.3809 16.4677 13.3809H16.4862L17.8247 13.1709C18.2123 13.1109 18.5723 12.9609 18.8677 12.7209ZM16.9662 12.3209C17.04 11.7009 17.2247 10.3209 17.2893 9.81091C17.4831 9.78091 17.677 9.76091 17.76 9.76091H17.8062C18.3877 9.80091 18.7754 10.2209 18.7754 10.8109C18.7754 11.4909 18.517 11.8709 17.8616 12.1509C17.677 12.2309 17.3447 12.2909 16.9662 12.3309V12.3209Z" fill="black"/>
</svg>
