<svg width="20" height="19" viewBox="0 0 20 19" fill="none" xmlns="http://www.w3.org/2000/svg">
<path d="M16.5657 7.125C16.566 7.0698 16.5581 7.01482 16.5422 6.96172L15.4211 3.23594C15.3458 2.98873 15.1883 2.7713 14.9721 2.61613C14.756 2.46096 14.4928 2.37638 14.2219 2.375H2.65942C2.38851 2.37638 2.12534 2.46096 1.9092 2.61613C1.69306 2.7713 1.53556 2.98873 1.46021 3.23594L0.339893 6.96172C0.323754 7.01479 0.3156 7.06976 0.315674 7.125V8.3125C0.315674 8.77338 0.428628 9.22794 0.645589 9.64017C0.862551 10.0524 1.17756 10.411 1.56567 10.6875V15.4375C1.56567 15.7524 1.69737 16.0545 1.93179 16.2772C2.16621 16.4999 2.48415 16.625 2.81567 16.625H14.0657C14.3972 16.625 14.7151 16.4999 14.9496 16.2772C15.184 16.0545 15.3157 15.7524 15.3157 15.4375V10.6875C15.7038 10.411 16.0188 10.0524 16.2358 9.64017C16.4527 9.22794 16.5657 8.77338 16.5657 8.3125V7.125ZM2.65942 3.5625H14.2219L15.1141 6.53125H1.76958L2.65942 3.5625ZM6.56567 7.71875H10.3157V8.3125C10.3157 8.78492 10.1181 9.23799 9.7665 9.57203C9.41487 9.90608 8.93795 10.0938 8.44067 10.0938C7.94339 10.0938 7.46648 9.90608 7.11485 9.57203C6.76322 9.23799 6.56567 8.78492 6.56567 8.3125V7.71875ZM5.31567 7.71875V8.3125C5.31567 8.78492 5.11813 9.23799 4.7665 9.57203C4.41487 9.90608 3.93795 10.0938 3.44067 10.0938C2.94339 10.0938 2.46648 9.90608 2.11485 9.57203C1.76322 9.23799 1.56567 8.78492 1.56567 8.3125V7.71875H5.31567ZM14.0657 15.4375H2.81567V11.2219C3.02142 11.2613 3.23079 11.2812 3.44067 11.2812C3.92581 11.2812 4.40429 11.1739 4.83822 10.9678C5.27214 10.7617 5.64959 10.4625 5.94067 10.0938C6.23176 10.4625 6.60921 10.7617 7.04313 10.9678C7.47705 11.1739 7.95553 11.2812 8.44067 11.2812C8.92581 11.2812 9.40429 11.1739 9.83822 10.9678C10.2721 10.7617 10.6496 10.4625 10.9407 10.0938C11.2318 10.4625 11.6092 10.7617 12.0431 10.9678C12.4771 11.1739 12.9555 11.2812 13.4407 11.2812C13.6506 11.2812 13.8599 11.2613 14.0657 11.2219V15.4375ZM13.4407 10.0938C12.9434 10.0938 12.4665 9.90608 12.1148 9.57203C11.7632 9.23799 11.5657 8.78492 11.5657 8.3125V7.71875H15.3157V8.3125C15.3157 8.78492 15.1181 9.23799 14.7665 9.57203C14.4149 9.90608 13.938 10.0938 13.4407 10.0938Z" fill="#D5D5D5"/>
</svg>
