<svg width="10" height="10" viewBox="0 0 10 10" fill="none" xmlns="http://www.w3.org/2000/svg">
<path d="M8.08187 3.14407L4.08187 8.14408C4.03832 8.18778 3.98657 8.22245 3.92959 8.24611C3.87262 8.26977 3.81153 8.28195 3.74984 8.28195C3.68814 8.28195 3.62706 8.26977 3.57008 8.24611C3.5131 8.22245 3.46135 8.18778 3.41781 8.14408L1.23031 5.95658C1.1867 5.91297 1.15211 5.86121 1.12852 5.80424C1.10492 5.74727 1.09277 5.68621 1.09277 5.62454C1.09277 5.56288 1.10492 5.50182 1.12852 5.44485C1.15211 5.38788 1.1867 5.33612 1.23031 5.29251C1.27391 5.24891 1.32567 5.21432 1.38264 5.19072C1.43961 5.16713 1.50067 5.15498 1.56234 5.15498C1.624 5.15498 1.68506 5.16713 1.74203 5.19072C1.799 5.21432 1.85076 5.24891 1.89437 5.29251L3.75023 7.14837L7.41859 2.48079C7.50665 2.39273 7.62608 2.34326 7.75062 2.34326C7.87515 2.34326 7.99459 2.39273 8.08265 2.48079C8.17071 2.56885 8.22018 2.68829 8.22018 2.81282C8.22018 2.93736 8.17071 3.0568 8.08265 3.14486L8.08187 3.14407Z" fill="white"/>
</svg>
