<svg width="36" height="35" viewBox="0 0 36 35" fill="none" xmlns="http://www.w3.org/2000/svg">
<path d="M18 3.28125C15.1878 3.28125 12.4388 4.11517 10.1005 5.67754C7.76223 7.23992 5.93978 9.46058 4.86359 12.0587C3.78741 14.6569 3.50583 17.5158 4.05447 20.2739C4.6031 23.0321 5.9573 25.5656 7.94583 27.5542C9.93436 29.5427 12.4679 30.8969 15.2261 31.4455C17.9842 31.9942 20.8431 31.7126 23.4413 30.6364C26.0394 29.5602 28.2601 27.7378 29.8225 25.3995C31.3848 23.0613 32.2188 20.3122 32.2188 17.5C32.2148 13.7302 30.7155 10.1159 28.0498 7.45022C25.3841 4.78455 21.7698 3.28523 18 3.28125ZM24.2426 14.9926L16.5863 22.6488C16.4848 22.7505 16.3641 22.8312 16.2313 22.8862C16.0986 22.9413 15.9562 22.9696 15.8125 22.9696C15.6688 22.9696 15.5264 22.9413 15.3937 22.8862C15.2609 22.8312 15.1403 22.7505 15.0387 22.6488L11.7574 19.3676C11.5522 19.1623 11.4369 18.884 11.4369 18.5938C11.4369 18.3035 11.5522 18.0252 11.7574 17.8199C11.9627 17.6147 12.241 17.4994 12.5313 17.4994C12.8215 17.4994 13.0999 17.6147 13.3051 17.8199L15.8125 20.3287L22.6949 13.4449C22.7965 13.3433 22.9172 13.2627 23.05 13.2077C23.1827 13.1527 23.325 13.1244 23.4688 13.1244C23.6125 13.1244 23.7548 13.1527 23.8875 13.2077C24.0203 13.2627 24.141 13.3433 24.2426 13.4449C24.3442 13.5465 24.4248 13.6672 24.4798 13.8C24.5348 13.9327 24.5631 14.075 24.5631 14.2188C24.5631 14.3625 24.5348 14.5048 24.4798 14.6375C24.4248 14.7703 24.3442 14.891 24.2426 14.9926Z" fill="#419639"/>
</svg>
