<svg width="16" height="15" viewBox="0 0 16 15" fill="none" xmlns="http://www.w3.org/2000/svg">
<path d="M3.64122 5.93845L3.42443 5.90824L3.31849 6.55605L3.53848 6.58808C4.22438 6.67881 4.99378 6.62734 5.82458 6.43804C5.90462 6.42003 5.98434 6.40078 6.06501 6.37995C6.43254 6.28506 6.81223 6.16317 7.1951 6.0166C8.53419 5.50517 9.61734 4.80659 10.3255 3.99933L10.4436 3.86411L9.93549 3.44111L9.81741 3.57633C9.18095 4.30144 8.19158 4.93471 6.95686 5.40594C5.72533 5.879 4.57882 6.0623 3.64122 5.93845Z" fill="#C11718"/>
<path d="M15.0079 7.77403C14.6708 6.74874 13.6808 6.82402 13.149 6.86454C13.1288 6.86577 13.109 6.86824 13.0901 6.86914C13.0696 6.8055 13.0439 6.74318 13.0144 6.68185C12.2307 5.06922 10.6442 2.32081 9.72172 1.81122C9.32968 1.59425 8.3595 1.61403 7.2508 1.85916C6.7869 1.9617 6.28908 2.10745 5.77239 2.29123C3.98286 2.93618 2.77653 3.80312 2.47585 4.34211L2.46688 4.34443L2.43139 4.43446C2.42979 4.43885 2.42723 4.44481 2.42564 4.4492L2.41348 4.48151L2.41413 4.48399C2.06889 5.51177 2.60687 8.48447 3.05901 10.2623C3.06478 10.2846 3.07056 10.307 3.07729 10.3278C2.61898 10.6901 1.88705 11.3311 2.23247 12.3516C2.63112 13.5307 5.28873 13.5181 7.5884 13.0079C7.74976 12.9716 7.91208 12.9336 8.07727 12.891C8.54341 12.7706 9.01785 12.6243 9.49581 12.4545C11.0741 11.8853 12.5801 11.063 13.626 10.199C14.7327 9.28486 15.2234 8.4237 15.0089 7.77246L15.0079 7.77403ZM7.44716 12.3709C4.94323 12.9259 3.06004 12.7001 2.8705 12.1405C2.68704 11.5992 2.99583 11.2451 3.42406 10.8932C4.02891 11.4689 5.263 11.5825 6.93357 11.2122C7.52649 11.0803 8.16486 10.8917 8.83361 10.6514C11.0796 9.8435 12.6074 8.81935 13.0253 7.84042C13.0704 7.73465 13.1033 7.62937 13.1238 7.52333C13.1439 7.5221 13.1641 7.52087 13.1855 7.51931L13.192 7.51766C13.8672 7.46662 14.2166 7.52359 14.368 7.983C14.4886 8.34959 14.0179 9.03455 13.1698 9.72813C12.1693 10.5459 10.7839 11.296 9.27069 11.8418C8.65412 12.0619 8.04041 12.2403 7.44876 12.3718L7.44716 12.3709ZM7.39012 2.49934C8.68195 2.21223 9.29871 2.33672 9.38167 2.38292C9.96012 2.7029 11.3727 4.84657 12.4049 6.97178C12.5021 7.16811 12.5015 7.36711 12.404 7.59779C12.0644 8.39343 10.6455 9.30463 8.60817 10.0374C7.96823 10.2676 7.35804 10.449 6.79329 10.5736C5.03884 10.9629 3.88508 10.7848 3.71019 10.0968C3.18329 8.0347 2.79693 5.37419 3.0543 4.6727L3.0591 4.65953C3.09586 4.56386 3.33586 4.29773 3.84254 3.95878C4.24776 3.68712 4.951 3.28416 5.99591 2.90834C6.48507 2.73432 6.95504 2.59708 7.39045 2.50058L7.39012 2.49934Z" fill="#C11718"/>
<path d="M7.57791 3.55152C7.11151 3.77136 6.75114 4.06857 6.40357 4.35717C5.9075 4.76895 5.39446 5.1944 4.56238 5.38402C4.50828 5.39667 4.45033 5.4103 4.39014 5.42054L4.39211 5.51813C4.40908 5.52038 4.82152 5.57299 5.58765 5.39774C6.24012 5.24785 6.94536 4.97961 7.68096 4.60144C8.6051 4.1229 8.84982 3.72695 8.7703 3.51414C8.70488 3.34012 8.4503 3.2852 8.08788 3.36816C7.93069 3.40476 7.75686 3.46687 7.57759 3.55028L7.57791 3.55152Z" fill="#C11718"/>
<path d="M3.79788 4.90396C3.86298 5.07674 4.11916 5.13257 4.4803 5.04994C4.64037 5.01392 4.81165 4.95247 4.99187 4.86749C5.45827 4.64765 5.81704 4.34953 6.16333 4.06126C6.6594 3.64948 7.1734 3.22246 8.00548 3.03283C8.06086 3.01986 8.11785 3.0078 8.17676 2.99789L8.17735 2.89963C8.15749 2.89681 7.7473 2.84229 6.98373 3.01688C6.32965 3.16585 5.62506 3.43658 4.88946 3.81475C3.965 4.29206 3.71932 4.68958 3.79884 4.90238L3.79788 4.90396Z" fill="#C11718"/>
</svg>
