<svg width="134" height="129" viewBox="0 0 134 129" fill="none" xmlns="http://www.w3.org/2000/svg">
<path d="M33.5085 70.8012C33.5584 71.3016 33.5983 71.8119 33.6581 72.3122C34.9143 83.99 36.8186 93.9867 39.3111 102.102C40.2981 105.314 41.3748 108.226 42.5513 110.838C43.2392 112.379 44.6749 113.45 46.3299 113.73C50.3478 114.42 55.0237 114.811 60.0386 114.811C65.0535 114.811 69.8391 114.4 73.8869 113.7C75.5519 113.41 76.9875 112.329 77.6755 110.778C78.812 108.196 79.8689 105.304 80.8459 102.132C83.4281 93.7465 85.452 83.3496 86.9276 71.1815C87.446 66.5184 87.5657 61.9553 87.3563 57.5724C87.2666 55.8212 85.9007 54.4103 84.1659 54.2602C77.4162 53.6598 69.869 53.3296 61.883 53.3296C52.621 53.3296 43.9371 53.7799 36.4198 54.5704C34.7149 54.7505 33.3889 56.1515 33.2892 57.8726C33.0599 62.0554 33.1197 66.3883 33.5185 70.8212" fill="white"/>
<path d="M33.5085 70.8012C33.5584 71.3016 33.5983 71.8119 33.6581 72.3122C34.9143 83.99 36.8186 93.9867 39.3111 102.102C40.2981 105.314 41.3748 108.226 42.5513 110.838C43.2392 112.379 44.6749 113.45 46.3299 113.73C50.3478 114.42 55.0237 114.811 60.0386 114.811C65.0535 114.811 69.8391 114.4 73.8869 113.7C75.5519 113.41 76.9875 112.329 77.6755 110.778C78.812 108.196 79.8689 105.304 80.8459 102.132C83.4281 93.7465 85.452 83.3496 86.9276 71.1815C87.446 66.5184 87.5657 61.9553 87.3563 57.5724C87.2666 55.8212 85.9007 54.4103 84.1659 54.2602C77.4162 53.6598 69.869 53.3296 61.883 53.3296C52.621 53.3296 43.9371 53.7799 36.4198 54.5704C34.7149 54.7505 33.3889 56.1515 33.2892 57.8726C33.0599 62.0554 33.1197 66.3883 33.5185 70.8212" stroke="black" stroke-miterlimit="10"/>
<path opacity="0.5" d="M82.0625 76.2249C81.9927 75.0841 81.0157 74.1635 79.7495 74.0435C74.9539 73.5932 67.9351 73.313 61.7138 73.2429V73.2229C61.2453 73.2229 60.7667 73.2229 60.2881 73.2229C59.8096 73.2229 59.331 73.2229 58.8624 73.2229V73.2429C52.6412 73.313 45.6223 73.5932 40.8268 74.0435C39.5706 74.1635 38.5935 75.0841 38.5138 76.2249C38.3443 78.9867 41.3153 91.1148 44.5855 98.5698C45.3133 100.691 46.5994 102.402 47.4568 104.123C47.9653 105.144 49.0221 105.845 50.2484 106.035C53.1696 106.485 56.5793 106.745 60.2184 106.745C60.2184 106.745 60.2682 106.745 60.2881 106.745C60.3081 106.745 60.338 106.745 60.3579 106.745C63.997 106.745 67.4067 106.475 70.3279 106.025C71.5542 105.835 72.611 105.134 73.1195 104.113C73.9769 102.392 75.263 100.681 75.9908 98.5598C79.261 91.1048 82.232 78.9767 82.0625 76.2149V76.2249Z" fill="#D6A461"/>
<path d="M33.1399 56.4917C39.5905 58.2128 49.3311 59.3136 60.2382 59.3136C71.1454 59.3136 80.9957 58.2028 87.4462 56.4617" stroke="black" stroke-miterlimit="10"/>
<path d="M89.1975 73.5083H94.7225C103.788 73.5083 107.228 76.9101 106.231 84.3184C105.234 91.7266 98.0833 95.1284 91.1522 95.1284H86.2256" stroke="white" stroke-width="5" stroke-miterlimit="10"/>
<path d="M86.586 71.3315H94.0464C104.774 71.3315 109.051 76.1948 107.865 85.0007C106.678 93.8065 98.0245 97.0087 89.8192 97.0087H82.3218" stroke="black" stroke-miterlimit="10"/>
<path d="M86.6986 75.2141H92.2219C101.285 75.2141 104.724 78.086 103.727 84.3402C102.73 90.5944 95.5818 93.4663 88.6527 93.4663H83.7275" stroke="black" stroke-miterlimit="10"/>
<mask id="mask0_433_723" style="mask-type:alpha" maskUnits="userSpaceOnUse" x="51" y="33" width="21" height="26">
<path d="M51.5107 49.366V35.3129V33.5112H60.5161V37.8353H71.3226V58.014H60.5161V49.366H51.5107Z" fill="#F58026"/>
</mask>
<g mask="url(#mask0_433_723)">
<path d="M55.4731 47.5643V38.9163M65.5592 47.5643V41.7989" stroke="black" stroke-linecap="round"/>
</g>
</svg>
