<svg width="55" height="55" viewBox="0 0 55 55" fill="none" xmlns="http://www.w3.org/2000/svg">
<circle cx="27.5" cy="27.5" r="22.5" fill="#D6A461"/>
<path d="M34.4286 21H18.7143C18.5248 21 18.3432 21.0761 18.2092 21.2115C18.0753 21.347 18 21.5307 18 21.7222V26.0556C18.0021 27.2851 18.2622 28.5003 18.763 29.6207C19.2638 30.7412 19.994 31.7415 20.9054 32.5556H18.7143C18.5248 32.5556 18.3432 32.6316 18.2092 32.7671C18.0753 32.9025 18 33.0862 18 33.2778C18 33.4693 18.0753 33.653 18.2092 33.7885C18.3432 33.9239 18.5248 34 18.7143 34H34.4286C34.618 34 34.7997 33.9239 34.9336 33.7885C35.0676 33.653 35.1429 33.4693 35.1429 33.2778C35.1429 33.0862 35.0676 32.9025 34.9336 32.7671C34.7997 32.6316 34.618 32.5556 34.4286 32.5556H32.2375C33.3314 31.5752 34.161 30.3298 34.6482 28.9363C35.5555 28.8798 36.4072 28.4756 37.03 27.8062C37.6528 27.1367 37.9997 26.2524 38 25.3333V24.6111C38 23.6534 37.6237 22.7349 36.954 22.0577C36.2842 21.3805 35.3758 21 34.4286 21ZM36.5714 25.3333C36.5711 25.8006 36.4214 26.2552 36.1446 26.6294C35.8679 27.0036 35.4789 27.2773 35.0357 27.4097C35.1065 26.9619 35.1423 26.5091 35.1429 26.0556V22.569C35.5605 22.7183 35.9222 22.9949 36.178 23.3606C36.4338 23.7263 36.5713 24.1632 36.5714 24.6111V25.3333Z" fill="white"/>
</svg>
