<svg width="55" height="55" viewBox="0 0 55 55" fill="none" xmlns="http://www.w3.org/2000/svg">
<circle cx="27.5" cy="27.5" r="22.5" fill="#419639"/>
<path d="M30.0536 30.2143C30.0536 30.5695 29.7839 30.8571 29.4509 30.8571H25.8348C25.5018 30.8571 25.2321 30.5695 25.2321 30.2143V28.2857H18V34.0714C18 35.1 18.8438 36 19.808 36H35.4777C36.442 36 37.2857 35.1 37.2857 34.0714V28.2857H30.0536V30.2143ZM35.4777 21.8571H32.4643V19.9286C32.4643 18.9 31.6205 18 30.6563 18H24.6295C23.6652 18 22.8214 18.9 22.8214 19.9286V21.8571H19.808C18.8438 21.8571 18 22.7571 18 23.7857V27H37.2857V23.7857C37.2857 22.7571 36.442 21.8571 35.4777 21.8571ZM30.0536 21.8571H25.2321V20.5714H30.0536V21.8571Z" fill="white"/>
</svg>
