<svg width="55" height="55" viewBox="0 0 55 55" fill="none" xmlns="http://www.w3.org/2000/svg">
<circle cx="27.5" cy="27.5" r="22.5" fill="#00AEEF"/>
<path d="M37 24C37.0004 23.9303 36.9911 23.8608 36.9726 23.7938L35.6618 19.0875C35.5737 18.7752 35.3895 18.5006 35.1368 18.3046C34.8841 18.1086 34.5764 18.0017 34.2596 18H20.7404C20.4236 18.0017 20.1159 18.1086 19.8632 18.3046C19.6105 18.5006 19.4263 18.7752 19.3382 19.0875L18.0283 23.7938C18.0094 23.8608 17.9999 23.9302 18 24V25.5C18 26.0822 18.1321 26.6563 18.3857 27.1771C18.6394 27.6978 19.0077 28.1507 19.4615 28.5V34.5C19.4615 34.8978 19.6155 35.2794 19.8896 35.5607C20.1637 35.842 20.5355 36 20.9231 36H34.0769C34.4645 36 34.8363 35.842 35.1104 35.5607C35.3845 35.2794 35.5385 34.8978 35.5385 34.5V28.5C35.9922 28.1507 36.3606 27.6978 36.6142 27.1771C36.8679 26.6563 37 26.0822 37 25.5V24ZM23.8462 25.5C23.846 25.8869 23.7487 26.2673 23.5635 26.6043C23.3784 26.9413 23.1117 27.2236 22.7892 27.424C22.4666 27.6244 22.0993 27.736 21.7224 27.7481C21.3456 27.7602 20.9722 27.6724 20.6381 27.4931C20.5872 27.4525 20.5313 27.4191 20.4718 27.3937C20.1622 27.1903 19.9074 26.9103 19.7309 26.5794C19.5544 26.2484 19.4617 25.8773 19.4615 25.5V24.75H23.8462V25.5ZM29.6923 25.5C29.6923 26.0967 29.4613 26.669 29.0502 27.091C28.6391 27.5129 28.0814 27.75 27.5 27.75C26.9186 27.75 26.3609 27.5129 25.9498 27.091C25.5387 26.669 25.3077 26.0967 25.3077 25.5V24.75H29.6923V25.5ZM35.5385 25.5C35.5382 25.8774 35.4454 26.2486 35.2687 26.5795C35.092 26.9104 34.837 27.1904 34.5272 27.3937C34.4685 27.4191 34.4133 27.4522 34.3628 27.4922C34.0288 27.6716 33.6553 27.7596 33.2784 27.7477C32.9016 27.7357 32.5341 27.6242 32.2115 27.424C31.8889 27.2237 31.622 26.9414 31.4368 26.6044C31.2515 26.2673 31.154 25.887 31.1538 25.5V24.75H35.5385V25.5Z" fill="white"/>
</svg>
