<svg width="55" height="55" viewBox="0 0 55 55" fill="none" xmlns="http://www.w3.org/2000/svg">
<path d="M27.6563 5.15625C23.2062 5.15625 18.856 6.47585 15.1559 8.94818C11.4558 11.4205 8.57194 14.9345 6.86897 19.0459C5.166 23.1572 4.72042 27.6812 5.58859 32.0458C6.45676 36.4103 8.59968 40.4195 11.7464 43.5661C14.893 46.7128 18.9022 48.8557 23.2667 49.7239C27.6313 50.5921 32.1553 50.1465 36.2666 48.4435C40.378 46.7406 43.892 43.8567 46.3643 40.1566C48.8366 36.4565 50.1562 32.1063 50.1562 27.6562C50.1499 21.6908 47.7774 15.9715 43.5592 11.7533C39.341 7.5351 33.6217 5.16255 27.6563 5.15625ZM15.9909 42.6923C17.2429 40.7341 18.9678 39.1226 21.0065 38.0064C23.0451 36.8901 25.332 36.305 27.6563 36.305C29.9805 36.305 32.2674 36.8901 34.306 38.0064C36.3447 39.1226 38.0696 40.7341 39.3216 42.6923C35.9863 45.2863 31.8815 46.6946 27.6563 46.6946C23.431 46.6946 19.3262 45.2863 15.9909 42.6923ZM20.7332 25.9255C20.7332 24.5562 21.1392 23.2177 21.8999 22.0792C22.6606 20.9407 23.7419 20.0534 25.0069 19.5294C26.2719 19.0054 27.6639 18.8683 29.0069 19.1354C30.3498 19.4026 31.5834 20.0619 32.5516 21.0301C33.5198 21.9983 34.1792 23.2319 34.4463 24.5749C34.7134 25.9178 34.5763 27.3098 34.0523 28.5748C33.5284 29.8398 32.641 30.9211 31.5025 31.6818C30.364 32.4425 29.0255 32.8486 27.6563 32.8486C25.8201 32.8486 24.0592 32.1192 22.7609 30.8208C21.4626 29.5225 20.7332 27.7616 20.7332 25.9255Z" fill="#FFC423"/>
</svg>
