<svg width="55" height="55" viewBox="0 0 55 55" fill="none" xmlns="http://www.w3.org/2000/svg">
<circle cx="27.5" cy="27.5" r="22.5" fill="#C11718"/>
<path d="M26.0317 31.92C26.9911 31.7193 28.0267 31.4234 29.112 31.0408C32.6605 29.7922 35.0498 28.2313 35.6684 26.7589C35.8671 26.282 35.8685 25.8429 35.673 25.4184C34.1126 21.9864 31.6815 17.8575 30.5512 17.18C30.2414 16.9939 29.0043 16.8553 27.0036 17.2737C26.2597 17.4292 25.4604 17.6554 24.6287 17.9452C21.4257 19.0745 19.7158 20.5371 19.5124 21.0685C19.0239 22.3412 19.6573 27.0844 20.5253 30.7487C20.8578 32.1542 22.8654 32.582 26.0317 31.92Z" fill="white"/>
<path d="M36.691 26.6238C36.5624 26.6309 36.4421 26.638 36.3307 26.6394C36.3107 26.8773 36.2499 27.1195 36.1472 27.365C35.4706 28.9745 32.9684 30.642 29.282 31.9401C28.1758 32.3302 27.1175 32.6317 26.1362 32.8372C23.2328 33.444 21.1997 33.1472 20.3688 32.0324C19.6514 32.5988 18.6831 33.3748 19.101 34.7006C19.5065 35.9883 23.021 36.3285 27.1026 35.4757C28.1071 35.2656 29.1474 34.9739 30.1941 34.6083C35.7246 32.6562 39.4463 29.286 38.9568 27.6896C38.6225 26.6026 37.7327 26.5631 36.6906 26.6238H36.691Z" fill="white"/>
</svg>
