<svg width="47" height="33" viewBox="0 0 47 33" fill="none" xmlns="http://www.w3.org/2000/svg">
<rect x="1.21094" y="0.5" width="45.5" height="31.5" rx="4.75" stroke="#C6C7C8" stroke-width="0.5"/>
<path d="M26.1656 19.7754C25.1123 19.7754 24.5348 19.631 23.6479 19.2667L23.3193 19.1168L22.9467 21.2824C23.5874 21.5464 24.7424 21.7733 25.9373 21.7912C28.7437 21.7912 30.5779 20.489 30.5999 18.4857C30.6219 17.3843 29.8987 16.5483 28.3711 15.8594C27.4443 15.4125 26.8668 15.1128 26.8668 14.659C26.8668 14.2575 27.3604 13.8299 28.3917 13.8299C29.077 13.8134 29.7582 13.9394 30.3923 14.1998L30.6398 14.3098L31.0124 12.217L30.9478 12.2308C30.1805 11.9553 29.3706 11.8171 28.5553 11.8224C25.9153 11.8224 24.0522 13.1342 24.0384 15.0138C24.0219 16.3957 25.3639 17.1739 26.3773 17.6373C27.4182 18.1117 27.7661 18.41 27.7633 18.8363C27.7564 19.4839 26.9314 19.7754 26.1656 19.7754ZM37.7994 11.9998H35.7369C35.0948 11.9998 34.6149 12.1717 34.3331 12.8014L30.3662 21.6564H33.1726L33.7336 20.2072L37.1573 20.2099C37.2412 20.5482 37.4873 21.6564 37.4873 21.6564H39.9609L37.7994 11.9998ZM34.5022 18.2258L35.5664 15.5267C35.5527 15.5542 35.7864 14.9684 35.9212 14.6054L36.1041 15.4387L36.7214 18.2258H34.5022ZM18.5714 21.5794H21.2444L22.9151 11.9187H20.2434V11.9159L18.5714 21.5794ZM13.7301 18.5847L13.4523 17.2427V17.2468L12.5146 12.811C12.3537 12.1964 11.8834 12.0149 11.3004 11.9929H6.99531L6.96094 12.1964C7.93031 12.4233 8.80344 12.7519 9.58444 13.1548C9.70571 13.2257 9.79452 13.3411 9.83194 13.4765L12.1419 21.6427H14.9662L19.1751 11.9998H16.3439L13.7301 18.5847Z" fill="#191E6E" fill-opacity="0.65"/>
</svg>
