<svg width="19" height="19" viewBox="0 0 19 19" fill="none" xmlns="http://www.w3.org/2000/svg">
<g filter="url(#filter0_d_4127_24888)">
<circle cx="9.5" cy="5.5" r="5.5" fill="#F7E49A"/>
</g>
<path d="M9.87937 6.74961H9.4282L9.20906 2.19922H10.0985L9.87937 6.74961ZM9.64734 7.44141C9.81348 7.44141 9.94096 7.49154 10.0298 7.5918C10.1214 7.69206 10.1673 7.83529 10.1673 8.02148C10.1673 8.20768 10.1214 8.35234 10.0298 8.45547C9.93809 8.55573 9.81205 8.60586 9.65164 8.60586C9.49122 8.60586 9.36375 8.55859 9.26921 8.46406C9.17755 8.36953 9.13171 8.22344 9.13171 8.02578C9.13171 7.6362 9.30359 7.44141 9.64734 7.44141Z" fill="black"/>
<defs>
<filter id="filter0_d_4127_24888" x="0" y="0" width="19" height="19" filterUnits="userSpaceOnUse" color-interpolation-filters="sRGB">
<feFlood flood-opacity="0" result="BackgroundImageFix"/>
<feColorMatrix in="SourceAlpha" type="matrix" values="0 0 0 0 0 0 0 0 0 0 0 0 0 0 0 0 0 0 127 0" result="hardAlpha"/>
<feOffset dy="4"/>
<feGaussianBlur stdDeviation="2"/>
<feComposite in2="hardAlpha" operator="out"/>
<feColorMatrix type="matrix" values="0 0 0 0 0 0 0 0 0 0 0 0 0 0 0 0 0 0 0.15 0"/>
<feBlend mode="normal" in2="BackgroundImageFix" result="effect1_dropShadow_4127_24888"/>
<feBlend mode="normal" in="SourceGraphic" in2="effect1_dropShadow_4127_24888" result="shape"/>
</filter>
</defs>
</svg>
