<svg width="17" height="18" viewBox="0 0 17 18" fill="none" xmlns="http://www.w3.org/2000/svg">
<path d="M14.4309 2.95699C12.9014 1.39485 10.787 0.546875 8.62765 0.546875C4.03905 0.546875 0.350177 4.2513 0.395178 8.75906C0.395178 10.1873 0.800066 11.5709 1.47484 12.8205L0.305176 17.0605L4.66889 15.9448C5.88349 16.6142 7.2331 16.9267 8.58265 16.9267C13.1263 16.9267 16.8152 13.2222 16.8152 8.71442C16.8152 6.52748 15.9605 4.47448 14.4309 2.95699ZM8.62765 15.5431C7.41304 15.5431 6.19838 15.2307 5.16372 14.6058L4.89377 14.4719L2.28462 15.1414L2.95939 12.5974L2.77945 12.3296C0.800066 9.16076 1.74473 4.9654 4.98377 3.00163C8.22276 1.03782 12.4065 1.97507 14.3859 5.18857C16.3653 8.40202 15.4206 12.5528 12.1816 14.5166C11.1469 15.186 9.88725 15.5431 8.62765 15.5431ZM12.5865 10.589L12.0916 10.3658C12.0916 10.3658 11.3718 10.0534 10.922 9.83021C10.877 9.83021 10.832 9.78563 10.787 9.78563C10.652 9.78563 10.5621 9.83021 10.4721 9.87486C10.4721 9.87486 10.4271 9.9195 9.79731 10.6336C9.75231 10.7229 9.66237 10.7675 9.57237 10.7675H9.52737C9.48242 10.7675 9.39242 10.7229 9.34742 10.6782L9.12254 10.589C8.62765 10.3658 8.17782 10.098 7.81793 9.74098C7.72793 9.65169 7.59299 9.56246 7.50298 9.47316C7.1881 9.16076 6.87321 8.80371 6.64827 8.40202L6.60326 8.31278C6.55826 8.26814 6.55827 8.22349 6.51332 8.13426C6.51332 8.04497 6.51332 7.95573 6.55826 7.91109C6.55826 7.91109 6.73821 7.68792 6.87321 7.55404C6.96315 7.46475 7.00815 7.33087 7.09816 7.24164C7.1881 7.1077 7.2331 6.92917 7.1881 6.7953C7.1431 6.57212 6.60327 5.3671 6.46832 5.09928C6.37832 4.9654 6.28838 4.92076 6.15344 4.87611H6.01843C5.92849 4.87611 5.79355 4.87611 5.65855 4.87611C5.5686 4.87611 5.4786 4.92076 5.38866 4.92076L5.34366 4.9654C5.25366 5.01005 5.16372 5.09928 5.07371 5.14393C4.98377 5.23316 4.93877 5.32245 4.84883 5.41168C4.53388 5.81338 4.35394 6.30437 4.35394 6.7953C4.35394 7.15234 4.44394 7.50939 4.57888 7.8218L4.62389 7.95573C5.02877 8.80371 5.5686 9.56246 6.28838 10.2319L6.46832 10.4104C6.60327 10.5444 6.73821 10.6336 6.82821 10.7675C7.77293 11.5709 8.85259 12.1511 10.0672 12.4635C10.2022 12.5081 10.3821 12.5081 10.5171 12.5528C10.652 12.5528 10.832 12.5528 10.967 12.5528C11.1919 12.5528 11.4618 12.4635 11.6417 12.3743C11.7767 12.285 11.8667 12.285 11.9566 12.1957L12.0466 12.1064C12.1366 12.0172 12.2266 11.9726 12.3165 11.8833C12.4065 11.794 12.4965 11.7048 12.5415 11.6155C12.6315 11.437 12.6764 11.2138 12.7214 10.9907C12.7214 10.9014 12.7214 10.7675 12.7214 10.6782C12.7214 10.6782 12.6764 10.6336 12.5865 10.589Z" fill="#0DC143"/>
</svg>
