<svg width="27" height="27" viewBox="0 0 27 27" fill="none" xmlns="http://www.w3.org/2000/svg">
<path d="M21.3819 15.4502C20.9579 17.1452 18.2376 18.702 14.2323 19.223C10.2237 19.7441 7.18711 18.9335 6.33256 17.4058C5.89876 17.7467 5.47148 18.2388 5.68349 18.7566C6.26732 20.1525 9.90082 21.1979 14.415 20.6125C18.9291 20.0271 22.1647 18.0876 22.3637 16.5888C22.4354 16.0356 21.8907 15.6689 21.3819 15.4502Z" fill="white"/>
<path d="M8.25333 10.7943C9.43732 11.2382 11.1105 11.399 13.1524 11.132C15.1942 10.8683 16.7663 10.2861 17.7937 9.556C17.8524 9.69108 17.9111 9.82939 17.9698 9.97734C16.8706 10.7107 15.2626 11.2896 13.2078 11.5566C11.1497 11.8235 9.44384 11.6724 8.19136 11.2446C8.20767 11.0902 8.2305 10.939 8.25333 10.7943ZM11.2475 8.23406C14.1798 7.46856 15.6182 8.02178 15.6182 8.02178C13.5633 7.92529 12.6859 9.12178 11.0453 9.48524C9.33947 9.86155 8.85674 8.86126 11.2508 8.23406M14.5125 9.93231C11.5802 10.6978 10.1418 10.1446 10.1418 10.1446C12.1967 10.2411 13.0773 9.04459 14.7147 8.68114C16.4205 8.30804 16.9033 9.30512 14.5125 9.93231ZM14.0852 18.1051C17.9894 17.5969 20.5531 16.3136 20.1584 14.6443C19.5061 11.8847 18.2993 8.39488 17.461 7.64225C17.05 7.27236 15.2431 6.88962 12.6337 7.23055C10.0244 7.56827 8.38054 8.40131 8.0772 8.86126C7.46075 9.80366 7.21612 13.48 7.31071 16.3136C7.36616 18.0279 10.181 18.6133 14.0852 18.1051Z" fill="white"/>
<path d="M14.5666 21.7207C9.51754 22.3768 5.173 21.1417 4.58264 19.0833C4.20103 17.7549 5.28716 16.7643 6.07648 16.2464C5.98842 12.911 6.29828 9.23471 7.10065 8.18938C7.49205 7.67798 9.13593 6.70342 12.502 6.26599C15.868 5.82856 17.7108 6.34961 18.2229 6.74523C19.2699 7.55254 20.5387 11.023 21.328 14.2651C22.225 14.5675 23.5329 15.2429 23.5133 16.6259C23.484 18.7616 19.6124 21.0646 14.5666 21.7207ZM13.5359 0.646973C6.06017 0.646973 0 6.62301 0 13.9917C0 21.3605 6.06018 27.3429 13.5392 27.3429C21.0182 27.3429 27.0751 21.3637 27.0751 13.9917C27.0751 6.61979 21.0117 0.646973 13.5359 0.646973Z" fill="white"/>
</svg>
