<svg width="10" height="10" viewBox="0 0 10 10" fill="none" xmlns="http://www.w3.org/2000/svg">
<path d="M9.85354 9.14622C9.9 9.19268 9.93684 9.24783 9.96199 9.30853C9.98713 9.36922 10.0001 9.43428 10.0001 9.49997C10.0001 9.56567 9.98713 9.63072 9.96199 9.69142C9.93684 9.75212 9.9 9.80727 9.85354 9.85372C9.80709 9.90018 9.75194 9.93703 9.69124 9.96217C9.63054 9.98731 9.56549 10.0003 9.49979 10.0003C9.43409 10.0003 9.36904 9.98731 9.30834 9.96217C9.24765 9.93703 9.1925 9.90018 9.14604 9.85372L4.99979 5.70685L0.85354 9.85372C0.759719 9.94754 0.632472 10.0003 0.49979 10.0003C0.367108 10.0003 0.23986 9.94754 0.14604 9.85372C0.0522194 9.7599 -0.000488279 9.63266 -0.000488281 9.49997C-0.000488284 9.36729 0.0522194 9.24004 0.14604 9.14622L4.29291 4.99997L0.14604 0.853723C0.0522194 0.759902 -0.000488281 0.632655 -0.000488281 0.499973C-0.000488281 0.367291 0.0522194 0.240043 0.14604 0.146223C0.23986 0.0524025 0.367108 -0.000305176 0.49979 -0.000305176C0.632472 -0.000305176 0.759719 0.0524025 0.85354 0.146223L4.99979 4.2931L9.14604 0.146223C9.23986 0.0524025 9.36711 -0.000305178 9.49979 -0.000305176C9.63247 -0.000305173 9.75972 0.0524025 9.85354 0.146223C9.94736 0.240043 10.0001 0.367291 10.0001 0.499973C10.0001 0.632655 9.94736 0.759902 9.85354 0.853723L5.70666 4.99997L9.85354 9.14622Z" fill="white"/>
</svg>
