<svg width="18" height="16" viewBox="0 0 18 16" fill="none" xmlns="http://www.w3.org/2000/svg">
<path d="M6.98449 6.40146C7.08035 6.39236 7.17738 6.38228 7.27505 6.37041C7.7197 6.31638 8.18217 6.23169 8.65364 6.11826C10.2997 5.72342 11.6736 5.06687 12.626 4.21947L12.7851 4.07806L12.2548 3.49461L12.0954 3.6365C11.2397 4.39727 9.98544 4.99165 8.46783 5.35513C6.95382 5.71988 5.58344 5.75578 4.50569 5.45836L4.25659 5.38739L4.03272 6.14116L4.28594 6.21419C5.07554 6.43134 5.98349 6.49458 6.98449 6.40146Z" fill="white"/>
<path d="M17.5313 9.45832C17.2925 8.18478 16.1223 8.11638 15.4934 8.07964C15.4696 8.07829 15.4461 8.07688 15.4231 8.07543C15.4092 7.99671 15.3889 7.91793 15.3632 7.84109C14.6926 5.79773 13.2544 2.27495 12.2518 1.52173C11.8259 1.20126 10.688 1.06855 9.35265 1.18357C8.79397 1.23188 8.18944 1.3249 7.55572 1.46146C5.36162 1.94287 3.81748 2.77963 3.38278 3.37312L3.37217 3.37441L3.3176 3.47505C3.31444 3.48097 3.31128 3.48688 3.30812 3.4928L3.28632 3.53331L3.28663 3.53582C2.72911 4.70745 2.90332 8.32255 3.16211 10.5057C3.16542 10.5329 3.16915 10.5601 3.17374 10.5872C2.58198 10.945 1.6277 11.5893 1.87556 12.8596C2.16143 14.3256 5.27451 14.7361 8.0454 14.4973C8.23987 14.4804 8.43648 14.4599 8.63481 14.4359C9.19879 14.3673 9.77687 14.2694 10.3614 14.1431C12.2961 13.7187 14.1842 12.9818 15.5411 12.1219C16.9756 11.2125 17.682 10.2665 17.5308 9.45795L17.5313 9.45832ZM4.01252 3.85643L4.02023 3.84188C4.07861 3.73354 4.3995 3.45548 5.04386 3.13344C5.56026 2.87544 6.44448 2.50937 7.72432 2.22837C8.32405 2.09935 8.89423 2.01093 9.41926 1.96586C10.9751 1.8317 11.6777 2.07813 11.7683 2.14625C12.3968 2.61907 13.723 5.39442 14.6065 8.08659C14.6898 8.33596 14.6591 8.5728 14.5099 8.83085C13.9916 9.72207 12.1914 10.5797 9.69473 11.1247C8.90974 11.2967 8.16762 11.4136 7.48862 11.4719C5.37455 11.6543 4.05294 11.258 3.95275 10.4122C3.65139 7.87517 3.60467 4.64957 4.01247 3.85601L4.01252 3.85643ZM15.0795 11.4863C13.7835 12.298 12.0477 12.9692 10.1928 13.3762C9.43694 13.5395 8.6923 13.6534 7.97922 13.7149C4.96397 13.9749 2.7929 13.4045 2.65748 12.7084C2.52612 12.0353 2.94028 11.6629 3.49607 11.3142C4.11587 12.0952 5.54311 12.428 7.55571 12.2545C8.26921 12.1929 9.04604 12.0709 9.86465 11.8919C12.6173 11.2903 14.562 10.3164 15.2001 9.2196C15.2685 9.10112 15.3232 8.98047 15.3635 8.85858C15.3874 8.85993 15.4113 8.86171 15.4356 8.86301L15.4439 8.86371C16.2425 8.91004 16.6413 9.03258 16.7486 9.60319C16.8337 10.0587 16.1783 10.7976 15.079 11.4863L15.0795 11.4863Z" fill="white"/>
<path d="M9.47688 3.24806C8.89708 3.43464 8.4302 3.73129 7.97992 4.01911C7.33643 4.42996 6.67028 4.85291 5.66759 4.94624C5.60156 4.95256 5.53165 4.95892 5.46002 4.96167L5.44659 5.07816C5.46572 5.08307 5.94122 5.21204 6.86424 5.12627C7.65133 5.05318 8.51783 4.84623 9.43589 4.51391C10.591 4.09322 10.9376 3.66103 10.8777 3.39562C10.8281 3.17875 10.538 3.07149 10.1016 3.11217C9.91156 3.12974 9.69954 3.17592 9.47683 3.24764L9.47688 3.24806Z" fill="white"/>
<path d="M5.62428 4.53243C5.81733 4.5145 6.0269 4.46947 6.25168 4.39707C6.83111 4.21096 7.29656 3.91321 7.74567 3.62638C8.38826 3.21522 9.05601 2.79122 10.0596 2.69779C10.1256 2.69147 10.1948 2.68646 10.2651 2.68345L10.2803 2.56759C10.2579 2.56053 9.78534 2.43078 8.86487 2.51624C8.0765 2.58949 7.21096 2.79717 6.2913 3.13054C5.13569 3.55086 4.78887 3.98436 4.84822 4.2494C4.89774 4.46544 5.18915 4.57254 5.62423 4.53201L5.62428 4.53243Z" fill="white"/>
</svg>
