<svg width="40" height="41" viewBox="0 0 40 41" fill="none" xmlns="http://www.w3.org/2000/svg">
<g filter="url(#filter0_d_4622_7257)">
<rect x="4" y="4.90674" width="30" height="29.8137" rx="14.9068" fill="white"/>
</g>
<path d="M20.7765 14.2415L19.0378 16.0445C19.0378 16.0445 15.5604 12.4385 12.6625 14.8425C9.76471 17.2465 10.3443 18.4485 11.5034 21.4536C12.6625 24.4586 17.8786 27.4637 18.4582 27.4637C19.0378 27.4637 28.1636 23.6951 27.1517 18.4485C26.1398 13.202 20.7765 14.2415 20.7765 14.2415Z" fill="#C11718"/>
<path fill-rule="evenodd" clip-rule="evenodd" d="M18.8442 28.0643C18.8386 28.0646 18.833 28.0648 18.8274 28.0648C18.7887 28.0648 18.7496 28.0565 18.7134 28.0408C17.3447 27.4483 16.3581 26.9055 15.3088 26.1677C15.2965 26.1591 15.2852 26.1498 15.2746 26.1397C13.4373 24.9012 11.9555 23.4741 11.1957 22.1582C11.0925 21.9948 10.9982 21.8327 10.9137 21.6733C10.3616 20.6336 10.0949 18.6724 10.6524 16.9367C11.0773 15.613 11.9298 14.619 13.1171 14.0623C13.7227 13.7783 14.3428 13.6381 14.9641 13.6407C15.7886 13.6373 16.6161 13.8853 17.4162 14.3826C18.0778 14.7938 18.5694 15.2799 18.8442 15.5859C19.1191 15.2799 19.6107 14.7938 20.2723 14.3826C21.0724 13.8853 21.8998 13.6373 22.7243 13.6407C23.3457 13.6381 23.9657 13.7783 24.5714 14.0623C25.7587 14.619 26.6111 15.613 27.0361 16.9367C27.5936 18.6724 27.3268 20.6336 26.7748 21.6733C26.6902 21.8327 26.596 21.9948 26.4928 22.1582C25.733 23.4741 24.2511 24.9012 22.4139 26.1397C22.4033 26.1498 22.3919 26.1591 22.3797 26.1677C21.3304 26.9055 20.3437 27.4483 18.9751 28.0408C18.9389 28.0565 18.9002 28.0644 18.8615 28.0644L18.861 28.0648C18.8554 28.0648 18.8498 28.0646 18.8442 28.0643ZM18.8442 27.42C15.9278 26.1318 13.2407 24.0948 11.9776 22.2769C11.9681 22.2468 11.9539 22.2177 11.9348 22.1908C11.8522 22.0742 11.7741 21.9581 11.701 21.8429C11.614 21.6924 11.538 21.544 11.4736 21.3984C11.0861 20.5219 10.7327 18.6004 11.3466 16.8992C11.7269 15.8446 12.4161 15.0772 13.3939 14.6186C13.9163 14.3737 14.4423 14.25 14.9692 14.2474C15.6682 14.2508 16.3687 14.4673 17.0645 14.8965C18.0074 15.4781 18.5889 16.2504 18.5943 16.2583C18.6503 16.3333 18.7361 16.3769 18.8274 16.3769C18.8331 16.3769 18.8387 16.3768 18.8442 16.3764C18.8498 16.3768 18.8554 16.3769 18.861 16.3769C18.9523 16.3769 19.0382 16.3333 19.0941 16.2583C19.0996 16.2504 19.6811 15.4781 20.624 14.8965C21.3198 14.4673 22.0203 14.2508 22.7193 14.2474C23.2462 14.25 23.7722 14.3737 24.2946 14.6186C25.2724 15.0772 25.9616 15.8446 26.3419 16.8992C26.9558 18.6004 26.6024 20.5219 26.2148 21.3984C26.1504 21.5441 26.0744 21.6924 25.9875 21.8429C25.9143 21.9581 25.8363 22.0742 25.7537 22.1908C25.7346 22.2177 25.7204 22.2468 25.7109 22.2769C24.4477 24.0948 21.7607 26.1318 18.8442 27.42Z" fill="#C11718"/>
<defs>
<filter id="filter0_d_4622_7257" x="0" y="0.906738" width="38" height="37.8135" filterUnits="userSpaceOnUse" color-interpolation-filters="sRGB">
<feFlood flood-opacity="0" result="BackgroundImageFix"/>
<feColorMatrix in="SourceAlpha" type="matrix" values="0 0 0 0 0 0 0 0 0 0 0 0 0 0 0 0 0 0 127 0" result="hardAlpha"/>
<feOffset/>
<feGaussianBlur stdDeviation="2"/>
<feComposite in2="hardAlpha" operator="out"/>
<feColorMatrix type="matrix" values="0 0 0 0 0.2625 0 0 0 0 0.129063 0 0 0 0 0.129063 0 0 0 0.35 0"/>
<feBlend mode="normal" in2="BackgroundImageFix" result="effect1_dropShadow_4622_7257"/>
<feBlend mode="normal" in="SourceGraphic" in2="effect1_dropShadow_4622_7257" result="shape"/>
</filter>
</defs>
</svg>
